<?xml version="1.0" encoding="UTF-8"?>
<svg version="1.1" viewBox="0 0 2048 1311" width="281" height="180" xmlns="http://www.w3.org/2000/svg">
<path transform="translate(0)" d="m0 0h2048v1311h-2048z" fill="#FCFCFC"/>
<path transform="translate(957,68)" d="m0 0h50l43 2 56 5 34 4 46 6 52 8 42 8 44 11 43 13 45 15 32 12 30 13 33 16 22 11 22 12 17 9 17 8 23 13 17 10 11 7 22 15 14 10 17 12 13 9 13 10 13 11 14 12 13 12 3 2v2l4 2 12 12 7 8 12 14 9 10 9 11 13 16 21 28 14 19 13 18 11 17 12 21 13 27 14 31 12 36 7 26 7 33 7 49 3 36v16l-2 52 2 38-1 21-5 40-7 39-8 32-9 26-11 25-13 27-12 22-11 20-12 20-10 15-10 14-9 11-11 12-7 7-9 6-4 1-8-3-5-7-3-9-7-32-3-8-7-1-15 16-11 8-13 6-8 3-18 4h-53l-60-3-49-4-66-6h-16l-15 2h-10v2h18l1 1 12 1 5 3 1 1v12l-6 9-7 5-1 2 321 1 22 1 6 7 3 7-1 9-3 5h-2l-1 4-3 3-10 1h-1400l-191-1-8-4-2-2v-3h-2l-2-6v-8l5-10 5-3 31-1h216l-4-8v-7l4-1 38-1h72l20 1-1 13 1 2 7 2h418l-4-4-6-5-7-14-16-64-7-30-17-71-4-19v-8l6-9 4-2 64-1h178l75 1 8 4 6 9 5 12 8 30 9 39v4h3l2-7 2-2-1-9-2-5v-8l1-6-1-37v-94l1-271v-129l-1-130-66 1h-961l-51-1-23-1 1-8 6-23 6-12 9-10 14-8 10-5h2l2-4 11-10 17-13 16-13 16-12 19-14 18-13 17-11 28-17 21-12 27-14 37-17 27-11 30-11 40-13 37-11 38-10 44-10 58-11 37-6 42-5 75-6z" fill="#ECEBF8"/>
<path transform="translate(1661,462)" d="m0 0h7l15 4 22 9 16 8 11 8 11 10 11 14 15 23 14 27 8 20 2 11v22l-2 26 3 18 5 14 8 9 18 11 15 8 16 8 4 3 9 5 5 5 6 3 1 1v6l-2 3v4l4-1 7-1 5 6 7 10 8 13 6 11 3 8-1 3h2l1 6v5h2l1 5v18l-1 4-2 12-2 9-7 12-1 5-3 3-3 5-8 5-2 6-7 3-9 8h-6l-2 4-5 8-2 10-2 3-4 44-4 27-7 28-12 36-9 24-3 18-3 8-7 8-2 2-4-1-1-7-6 7h-3v-2l-4-1-2 3-2 7-7 11-12 13-7 8-8 8-10 6-19 8-9 3-6 1h-53l-60-3-49-4-66-6h-16l-15 2h-10v2h18l1 1 12 1 5 3 1 1v12l-6 9-7 5-1 2 321 1 22 1 6 7 3 7-1 9-3 5h-2l-1 4-3 3-10 1h-1400l-191-1-8-4-2-2v-3h-2l-2-6v-8l5-10 5-3 31-1h216l-4-8v-7l4-1 38-1h72l20 1-1 13 1 2 7 2h418l-4-4-6-5-7-14-16-64-7-30-17-71-4-19v-8l6-9 4-2 64-1h178l75 1 8 4 6 9 5 12 8 30 9 39v4h3l2-7 12-14 10-13 12-17 12-16 11-17 6-7 2-1-3-11-7-10 3-9 10-15 14-22 1-7-9-3-7-7-6-8-8-13-4-12-3-14-6-23v-13l11-30 10-22 2-4 2-14 4-14v-14l-3-7-5-3-6-12-6-20-2-11 1-12 2-9 3-3 5-17 6-11 7-8 3-5 5-5 9-8 6-5h2v-2l15-9 14-7 6-1 3-2 6-1 11-6 19-19 13-19 2-3h2l2-5 14-15 7-7 18-7 13-3 16-3 9-4 15-6 7-2 17-1z" fill="#FCFCFC"/>
<path transform="translate(189,404)" d="m0 0 1 3-7 15-4 12v15l4 2 3 7 4 4 1 7 2 2 3 9 2 9 1 2v8h2l4-19-2-6v-10l4-2 1 14v317l1 107 2 54 2 27 3 24 4 16 6 7 12 5 24 6 16 2 122 5 31 2 15 5 14 7h8l-3-5-12-11-10-14-9-14-5-12-2-10 5 2 12 12 11 14 11 12 8 7v-4h3l-3-7-1-4h-2l-3-9h-2v-3h-2l-1-5h-2l-3-5v-3h-2v-3h-2l-2-3v-3h-2l-3-5v-2h-2l-6-9v-3h-2l-2-4v-6l3-5 4 1v2l4 1 6 6 1 3 4 3 1 3 5 5 4 7 4 4 6 9 3 7 2 5 3 1 4 6h1v-8l-5-24-4-39-2-21v-9l3-6h4l5 10 11 27 10 28 6 19 6 26 3 19 1 5 2-1 11-25 11-22 11-18 7-13 5-4h3l3 9v9l-5 23-8 24-2 4 1 7 3 3 5 1 2-4 4-4h2l1 12 25-1 13-3 33-1 23-1 5 1 75 1 26-1h43l21 1h37l1-1h20l17 1 9 3 5 4 6 9 6 18 5 21 5 18 2 1 4 16 1 2 2 13 6 17 2 5 2 13 5 8 7 7 1 6h11l1-2 1 3-11 1h-407l-8-3-1-7 2-8h-92l-42 1 2 10 2 5-244 1-9-6-8-9-7-10-13-24-13-28-16-38-15-37-11-29-6-19-6-23-5-26-4-30-3-33-1-23v-97l2-41 4-43 5-39 8-45 9-41 11-35 13-33 9-20 12-25 12-24 13-21z" fill="#ECEBF8"/>
<path transform="translate(759,429)" d="m0 0 8 1 14 7 11 8 18 14 3 2v2h3v2l4 1v2h3v2l5 1v2h3v2l5 1v2l5 1v2l7 2v2l7 2 9 5 10 4 17 8 19 8 30 12 17 7 8 6 6 7 2 8v30h39l38 1 17 1 1 1v45l83-1 16-1 2-1 1-5h31l5 2v15l-5 10-5 6-7 3-8-1-8-6-1-5h-101l-18-2-2-1-1-46-76-1-2 11-6 47-5 30 83 1 45 1 17 1 1 1v28h81l5-4 3-4 9-2 13-1 5 3 3 6 2 19-2 6-16 2-8-1-6-5-3-3-10-1h-77l-3 7-4-1-1-3h-2l-4-12v-20l-1-2-133-1-8 26-9 29-11 29-1 4 50 1v-15l1-17 3-8 16 1 15 1h33l2-8 4-3h9l8 4 4 5 2 4-1 7-6 10-7 8-7 4h-5l-3-10-4-3-12-1-10 3-3-3-4-1h-14l-3 7-1 32h-77l-6 9h-2l-2 7h-2v3h-2v3h-2v3l-2 1-1 3h-2v3h-2v3h-2v3h-2l-1 4h-2l-1 4h-2l-2 5-6 7h-2l-2 5-13 13-5 3-4 5-5 2-2 4-4 1-1 3-3 1-1 2h-3v2h-3v2h-3v2h-3v2l-16 8-4 1v2l-8 4-5 2-10 5-16 5-19-3-13-5-16-8-16-9-14-10-17-14-11-9-14-14-3-4v-2l-4-2-1-4h-2l-1-4h-2l-3-4v-3h-2v-3l-3-1v-3h-2l-4-6v-3h-2l-6-11-3-7h-76l-1-4-1-41h-91l-17 3-13 5-8 7-3-1-6-17-1-2v-20l1-1h21l9 3 6 3 6 1 33 1 82 1-2 30-1 18h52v-6h-2l-5-12-5-13-4-9-6-19-3-7-4-17-4-12h-136v-31l-52 1-28 1-10 2-9 6-7 1-8-3-7-7-2-5 1-11 3-6 9-3 11 1 8 4 17 4 35 1h51l3 1 1 2v27l111-1 5-1v-15h-2l-5-36-4-41-1-3-21-1-12 2-4 2-1 7v24l-7 3-29 2-15 1-12 3-9 3h-10l-7-3-4-5-2-5-1-10 1-4 12-6h9l5 2 7 6 4 1 33-2 7-2 1-1v-9l-5-16 1-4 12-3 23-2h19l6 1 1-19 3-9 4-6 10-7 16-7 28-10 18-8 20-9 19-10 22-13 21-14 13-10 17-13 13-6z" fill="#FCFCFC"/>
<path transform="translate(1017,980)" d="m0 0h178l75 1 8 4 6 9 5 12 8 30 10 43 8 36 10 43 4 13 2 1 5-1 24 1 101 1 12 1 5 3 1 1v12l-6 9-7 5-1 2 321 1 22 1 6 7 3 7-1 9-3 5h-2l-1 4-3 3-10 1h-1400l-191-1-8-4-2-2v-3h-2l-2-6v-8l5-10 5-3 31-1h216l-4-8v-7l4-1 38-1h72l20 1-1 13 1 2 7 2h418l-4-4-6-5-7-14-16-64-7-30-17-71-4-19v-8l6-9 4-2z" fill="#5A547A"/>
<path transform="translate(1628,470)" d="m0 0h15l19 3 18 6 17 9 14 10 10 9 8 7 9 11 10 14 9 16 8 17 7 21 5 23 2 21v47l7 8v2l4 2 10 10 14 11 16 12 19 12 18 12 11 8 10 9 8 10 7 14 3 10v20l-3 12-8 16-7 8-9 7-10 6h-2l-3 9-3 8-2 1-3-12-4-13-5-11-6-11-9-11-10-8-17-9-19-7-30-8-41-9-11-1-6-10-5-10-8-14-7-10-9-16-7-21-4-22-3-23v-17l3-33h-8l-15-4-13-9-8-8-12-18-11-16-9-8-5-3h-4l-11 20-8 12-7 9-11 14-13 13-2 9-3 4-11 4-6 5-1 3v11l3 25 5 19 7 17 8 12 9 10 12 9 14 7 14 4 24 4v14l-4 6-2 2-23 2-26 3-21 4-16 8-13 9-13 11-14 14-9 11-12 15-10 13-21 28-2 3h-2l-5-5-10-6-7-7-6-12-1-3v-21l-3-5-7-9-4-10v-18l4-15 10-19 12-16 9-10 11-11 17-11 5-2-5-4-24-13-13-11-8-10-7-14-2-9v-20l4-16 6-12 9-11 9-9 15-9 20-9 20-8 12-8 7-7h2l2-4 8-10 15-22 9-11 8-7 10-6 15-4h11l9 4 6 3 9-9 16-9 13-5 9-2z" fill="#47425E"/>
<path transform="translate(483,913)" d="m0 0 4 2 11 26 11 29 9 28 6 26 3 19 1 5 2-1 11-25 11-22 11-18 7-13 5-4h3l3 9v9l-5 23-8 24-2 4 1 7 3 3 5 1 2-4 4-4h2l1 12 25-1 13-3 33-1 23-1 5 1 75 1 26-1h43l21 1h37l1-1h20l17 1 9 3 5 4 6 9 6 18 5 21 5 18 2 1 4 16 1 2 2 13 6 17 2 5 2 13 5 8 7 7 1 6h11l1-2 1 3-11 1h-407l-8-3-1-7 2-8h-127v-1h8l-2-10-7-14-5-7-3-11-2-15-1-26-1-32 5-1-5-4-3-8-1-11 11 3 14 7h8l-3-5-12-11-10-14-9-14-5-12-2-10 5 2 12 12 11 14 11 12 8 7v-4h3l-3-7-1-4h-2l-3-9h-2v-3h-2l-1-5h-2l-3-5v-3h-2v-3h-2l-2-3v-3h-2l-3-5v-2h-2l-6-9v-3h-2l-2-4v-6l3-5 4 1v2l4 1 6 6 1 3 4 3 1 3 5 5 4 7 4 4 6 9 3 7 2 5 3 1 4 6h1v-8l-5-24-4-39-2-21v-9l3-6z" fill="#EBEBF8"/>
<path transform="translate(759,429)" d="m0 0 8 1 14 7 11 8 18 14 3 2v2h3v2l4 1v2h3v2l5 1v2h3v2l5 1v2l5 1v2l7 2v2l7 2 9 5 10 4 17 8 19 8 30 12 17 7 8 6 6 7 2 8v30h39l38 1 17 1 1 1v45l83-1 16-1 2-1 1-5h31l5 2v15l-5 10-5 6-7 3-8-1-8-6-1-5h-101l-18-2-2-1-1-46-76-1-2 11-6 47-5 30 83 1 45 1 17 1 1 1v28h81l5-4 3-4 9-2 13-1 5 3 3 6 2 19-2 6-16 2-8-1-6-5-3-3-10-1h-77l-3 7-4-1-1-3h-2l-4-12v-20l-1-2-133-1-8 26-9 29-11 29-1 4 50 1v-15l1-17 3-8 16 1 15 1h33l2-8 4-3h9l8 4 4 5 2 4-1 7-6 10-7 8-7 4h-5l-3-10-4-3-12-1-10 3-3-3-4-1h-14l-3 7-1 32h-77l-6 9h-2l-2 7h-2v3h-2v3h-2v3l-2 1-1 3h-2v3h-2v3h-2v3h-2l-1 4h-2l-1 4h-2l-2 5-6 7h-2l-2 5-13 13-5 3-4 5-5 2-2 4-4 1-1 3-3 1-1 2h-3v2h-3v2h-3v2h-3v2l-16 8-4 1v2l-8 4-5 2-10 5-16 5-19-3-13-5-16-8-16-9-14-10-17-14-11-9-14-14-3-4v-2l-4-2-1-4h-2l-1-4h-2l-3-4v-3h-2v-3l-3-1v-3h-2l-4-6v-3h-2l-6-11-3-7h-76l-1-4-1-41h-91l-17 3-13 5-8 7-3-1-6-17-1-2v-20l1-1h21l9 3 6 3 6 1 33 1 82 1-2 30-1 18h52v-6h-2l-5-12-5-13-4-9-6-19-3-7-4-17-4-12h-136v-31l-52 1-28 1-10 2-9 6-7 1-8-3-7-7-2-5 1-11 3-6 9-3 11 1 8 4 17 4 35 1h51l3 1 1 2v27l111-1 5-1v-15h-2l-5-36-4-41-1-3-21-1-12 2-4 2-1 7v24l-7 3-29 2-15 1-12 3-9 3h-10l-7-3-4-5-2-5-1-10 1-4 12-6h9l5 2 7 6 4 1 33-2 7-2 1-1v-9l-5-16 1-4 12-3 23-2h19l6 1 1-19 3-9 4-6 10-7 16-7 28-10 18-8 20-9 19-10 22-13 21-14 13-10 17-13 13-6zm1 49-3 2v2l-4 1-2 3-3 1-3 3-5 4-2 1v2h-3v2l-6 2v2h-3v2h-3v2h-3v2h-3v2h-3v2h-3v2h-3v2l-5 1v2l-5 1v2l-6 2-29 14-9 5-7 3-10 4-10 5-17 6-16 6-1 4 2 18 2 26 5 41 6 32 9 33 9 25 8 18 8 16 9 16 13 19 2 4h2l1 4 8 8 7 9 5 5 7 6 5 5 4 2 1 2 3 1 1 2 5 3 2 2h3v2l12 6 19 10 8 3 7-1 26-14 24-16 11-9 20-20 9-11 11-15 11-19 10-19 10-24 10-31 6-24 6-31 5-39 2-24 2-21-2-3-39-16-25-11-29-14-18-10-27-18-18-14-5-5-2-3z" fill="#FD775F"/>
<path transform="translate(675,311)" d="m0 0h120l75 1h306l15-1h57l16 4 16 6 9 6 7 8 9 14 5 8 1 3v20l-1 1-66 1h-961l-51-1-23-1 1-8 6-23 6-12 9-10 14-8 12-6h190l141-1z" fill="#FECA7B"/>
<path transform="translate(487,1189)" d="m0 0h72l20 1-1 13 1 2 7 2h407l12-1 10 1h409l32-1 9-1 9 1 312 1 22 1 6 7 3 7-1 9-3 5h-2l-1 4-3 3-10 1h-1400l-191-1-8-4-2-2v-3h-2l-2-6v-8l5-10 5-3 31-1h216l-4-8v-7l4-1z" fill="#FE775F"/>
<path transform="translate(1278,165)" d="m0 0h9l24 5 26 9 5 3-1 15 4 4 18 8 10 4 4 1 20-1 9 5 8 9 9 15 14 25 7 14v10l-6 16-8 17-2 7v12l6 12 15 20-1 7-10 18-12 23-9 14-10 13-4 5-2 1-24 1-16 2-12 4-5 4-8 17-11 16-4 5-4 2h-5l-1-13-1-134-5-10-14-20-7-6-11-5-11-4-14-3h-57l-15 1h-32l-20-2-2-5-2-12v-11l5-12 8-15 17-28 6-9 10-5 21-1 14-4 19-9 3-1v-8l4-9 16-8 18-6z" fill="#CAC6F9"/>
<path transform="translate(992,451)" d="m0 0 23 4 48 11 56 13 42 10 39 9 31 8 20 6 2 1-4 33-7 38-7 35-4 13-6 9h-2l-2 4-3 4-2 4-3 15 9-1v10l-7 22-2 6 4 1-12 1-9 2-6 7-2 1-81-1-1-28-17-1-45-1-81-1-2-1v-8l6-36 5-41 2-4 74 1 2 1 1 5v41l20 2h99l3 3 3 5 5 3 8 1 8-4 5-7 3-7v-15l-10-1-25-1v5l-3 2-16 1-83 1-1-1v-45l-17-1-77-2-1-2v-33l2 1 2-4 8-59 6-31z" fill="#ECEBF8"/>
<path transform="translate(1450,955)" d="m0 0 1 4-5 24-2 19v28l1 11 9 17 2 6v6l-5 5-8 7-6 10 3 3 2 1h63l79-10 51-5h8l2 1h15l5-4 9-20 8-26 1 3-2 6 7 1 32 10 30 13 14 9 14 10 13 10 14 14-2 4-4 4h-2v-2l-4-1-2 3-2 7-7 11-12 13-7 8-8 8-10 6-19 8-9 3-6 1h-53l-60-3-49-4-66-6h-16l-15 2h-10v2h18v1h-100l-25-1-5 1-3-4-9-36-11-48v-6h2l2-7 12-14 10-13 12-17 12-16 11-17 6-7 5 1 9 6 15 13 10 8 11 9 13 10 2 1 2-33 1-3 3-24z" fill="#FCBC98"/>
<path transform="translate(434,453)" d="m0 0 7 1 9 2 6 4 9 9 7 9 10-1 24-6 20-4 42-9h10l11 8 5 6 1 3 1 21v17l-3 5-4 3-3 2-15 6-10 6-5 4-4 8-1 5-1 17-1 2h-25l-23 2-12 2 1 8 4 12v9l-3 3-6 1-25 2h-8l-5-2-7-6-4-1h-9l-10 5h-2l1 14 4 8 4 3 4 1h10l15-5 16-2h10l24-2 6-2v-24l1-7 5-3 12-2 21 1 2 4 4 41 4 29v7h2l1 15-6 2-111 1-1-1v-29h-54l-35-1-6-1v-1h48l9-2-1-8-11-24-8-16-3-10-7-23-8-33-4-15-7-20-3-8 1-5 6-8 14-7 24-8 16-5z" fill="#ECEBF8"/>
<path transform="translate(1573,548)" d="m0 0 6 1 9 7 7 8 18 27 9 10 13 9 15 4 8 1v11l-2 22v17l5 36 5 19 6 15 12 20 4 5 6 11 9 17 2 3v7l-5 15-9 15-7 6-14 8-9 4-24 5h-19l-11-2-16-8-8-7-2-3-3-9-2-3v-7l3-10 7-14 3-5h-10v-1l11-1 4-5 1-2 1-14-12-1-20-4-13-5-14-9-12-11-9-13-7-14-5-16-3-14-2-20v-11l3-5 7-5 5-2h4l2-4 2-9 15-15 10-13 8-11 10-16z" fill="#FDBC98"/>
<path transform="translate(1651,112)" d="m0 0h29l26 4 26 6 20 7 16 8 14 8 13 10 10 9 9 9 11 14 10 15 9 17 5 16 2 19v38l-2 17-5 10-5 4-7 2h-9l-13-4-12-7-19-14-17-13-11-9-16-13-18-13-14-10-20-13-28-17-21-12-38-19-36-16-20-10-15-9v-2l24-13 23-7 31-6 29-4z" fill="#ECECF9"/>
<path transform="translate(727,159)" d="m0 0h18l19 2 19 5 10 4v9l6 9 7 7 12 5h11l9-1 5 4 13 17 10 14 10 18 2 4v7l-9 20-4 12-3 16-13 1h-229l-3-1 1-12-4-10-9-18-1-4v-9l3-12 6-12 10-16 8-14 4-4 9-1 22-1 10-3 11-9 8-10 8-15z" fill="#CAC6F9"/>
<path transform="translate(438,762)" d="m0 0h91l1 1 1 45 76-1 5 11-1 3v11l-1 9 3 11 1 9v19l-8 14-8 11-5 5-9 2-28 2-39 1h-19l-9-1-2 3-4-5 1-1 1-29 1-12 3-6 10-7 6-7 2-5-1-5-6-8-8-7-7-9-7-7-11-5-7-1-6 2-4 9-4 13-8 11-2 4v7l6 8 5 5 2 23 1 4v16l-5 6-6 1-43 2h-19l-17-1-9-3-12-8-11-10-5-5-3-5-1-6v-13l2-23 2-13 3-5 26-15 16-8 19-9 9-4v-11l4 2 8-7 13-5z" fill="#ECEBF8"/>
<path transform="translate(748,580)" d="m0 0h23l16 4 12 7 10 10 1 3 4 4 6 13 6 16 17 4 6 4 5 11 1 4 1 32v60l-4 8h-2l-1 4h-2v3l-4 4-10 3-64 1h-79l-9-3-8-7-6-10-1-2-1-22v-62l1-11 8-14 2-4 3-1 16-1 2-1 7-21 7-12 9-10 7-6 13-6z" fill="#FE765E"/>
<path transform="translate(958,698)" d="m0 0 133 1 2 3v20l3 12h2l2 3 3 1 2-7 1-1h77l10 1 5 5 7 4 4 2-3 7-18 62-10 35-2 1-16-5-47-12-36-10-28-7-12-6-16-2-10-5-4-1-1-2-7 5-3 5-63-1v-1h63v-32l3-7 1-1h14l5 2 4 2 8-3 12 1 5 4 2 10 12-4 2-4 7-8 4-8-1-7-4-6-8-4h-9l-4 4-2 7h-33l-24-2h-7l-2 7-2 32h-48l-2-1 1-7 10-26 11-35 6-20z" fill="#ECEBF8"/>
<path transform="translate(961,1070)" d="m0 0 1 2 3 1v2h2l7 14h2l5 9 7 8 6 8 12 13 13 13 7 8 4 3v2l4 2 13 8 16 4 11 2 23 1 125 1h64l12 2 2 1 5-1 4 1 9-2 2-3v-13l-9-46-4-17v-5l2 1 16 69 4 13 2 1 5-1 24 1 101 1 12 1 5 3 1 1v12l-6 9-9 7-8 1-32 1h-409l-10-1-5-4-6-5-7-14-16-64-7-30-3-13z" fill="#47425E"/>
<path transform="translate(327,130)" d="m0 0h19l20 1 14 2 21 6 21 8 15 7-3 3-24 15-32 19-19 12-12 8-16 11-34 24-12 9-19 14-18 14-15 10-10 4-14-1-9-1-1-1 1-26 3-31 5-21 6-14 10-16 9-11 9-10 13-10 13-8 14-6 18-6 19-4z" fill="#ECECF9"/>
<path transform="translate(439,1074)" d="m0 0h12l12 1 120 1v66l-3 16-8 16-6 8-2 5 15 2v1h-127v-1h8l-2-10-7-14-5-7-3-11-2-15-1-26z" fill="#BABBF4"/>
<path transform="translate(483,913)" d="m0 0 4 2 11 26 11 29 9 28 6 26 3 19 1 5 2-1 11-25 11-22 11-18 7-13 5-4h3l3 9v9l-5 23-8 24-12 22-10 15-10 8-73 1-16-2-7-4-3-5-2-9v-6l11 3 14 7h8l-3-5-12-11-10-14-9-14-5-12-2-10 5 2 12 12 11 14 11 12 8 7v-4h3l-3-7-1-4h-2l-3-9h-2v-3h-2l-1-5h-2l-3-5v-3h-2v-3h-2l-2-3v-3h-2l-3-5v-2h-2l-6-9v-3h-2l-2-4v-6l3-5 4 1v2l4 1 6 6 1 3 4 3 1 3 5 5 4 7 4 4 6 9 3 7 2 5 3 1 4 6h1v-8l-5-24-4-39-2-21v-9l3-6z" fill="#FECA7C"/>
<path transform="translate(960,676)" d="m0 0h1v8l83 1 45 1 17 1 1 1v28h81l5-4 3-4 9-2 13-1 5 3 3 6 2 19-2 6-16 2-8-1-6-5-3-3-10-1h-77l-3 7-4-1-1-3h-2l-4-12v-20l-1-2-133-1-8 26-9 29-11 29-1 4 50 1v-15l1-17 3-8 16 1 15 1h33l2-8 4-3h9l8 4 4 5 2 4-1 7-6 10-7 8-7 4h-5l-3-10-4-3-12-1-10 3-3-3-4-1h-14l-3 7-1 32h-78l2-6 9-20 10-26 15-49 4-16z" fill="#FED27A"/>
<path transform="translate(517,589)" d="m0 0h11l10 3 6 5 6 11 4 23 4 29v7h2l1 15-6 2-111 1-1-1v-30l-18-3-3-3v-2h-2l2-4 10-1 10-5 7-6 13-3 36-2 13-2 1-9v-16z" fill="#FCFCFC"/>
<path transform="translate(443,1142)" d="m0 0h137l-3 6h-2v2l-5 3h-2l2 4 3 2v2h4l-1 6-8 13-3 3-1 4 15 2v1h-127v-1h8l-2-10-7-14-5-7-3-11z" fill="#BABBF4"/>
<path transform="translate(1336,1172)" d="m0 0h24l101 1 12 1 5 3 1 1v12l-6 9-9 7-8 1-32 1h-409l-10-1-1-2 4-1 1 1 7 1 321 1-2-10-1-7v-16z" fill="#5A547A"/>
<path transform="translate(971,547)" d="m0 0h1l1 5v30h39l38 1 17 1 1 1v45l83-1 16-1 2-1 1-5h31l5 2v15l-5 10-5 6-7 3-8-1-8-6-1-5h-101l-18-2-2-1-1-46-76-1-2 11-4 33h-1v-9l3-30z" fill="#FED37A"/>
<path transform="translate(316,644)" d="m0 0 13 1 8 4 17 4 35 1h51l3 1 1 2v27l111-1 5-1v-9h1l4 23 1 6-2-3h-136v-31l-52 1-28 1-10 2-9 6-7 1-8-3-7-7-2-5 1-11 3-6z" fill="#FED37A"/>
<path transform="translate(391,737)" d="m0 0h21l9 3 6 3 6 1 33 1 82 1-2 30-1 18h52l1-4 4 9 4 8-2 1h-73l-1-4-1-41h-91l-17 3-13 5-8 7-3-1-6-17-1-2v-20z" fill="#FECA7C"/>
<path transform="translate(439,1074)" d="m0 0h12l12 1 120 1v28l-1 1-44 1h-26l-71-1-1-5z" fill="#BABBF4"/>
<path transform="translate(1577,782)" d="m0 0 12 1-2 5-7 14-3 10v7l4 7 2 7 9 8 15 7 11 2h19l24-5 17-8 11-8 7-11 5-10 3-10 1-7 4-1 14 3 2 2h-2l-2 11-7 16-8 11-9 10-13 10-15 8-13 4-19 3h-18l-22-4-13-5-10-6-7-7-5-10-2-11 1-16 2-13 3-13z" fill="#FBFAFB"/>
<path transform="translate(1288,284)" d="m0 0h9l10 4 10 9 6 9 5 10 4 14 1 14-3 12-2 10-4 5h-6l-5-4-1 8h-1l-1-15-5-10-14-20-7-6-11-5-11-4-14-3-16-1v-1h14l1-4h2v-2h2l2-5 8-8 12-5 7-1z" fill="#ECEBF8"/>
<path transform="translate(1008,688)" d="m0 0h99v28h81l5-4 3-4 9-2 13-1 5 3 3 6 2 19-2 6-16 2-8-1-6-5-3-3-13-2h-75l-2 2-5-1-4-6-1-9 1-18-108-1 2-4 9-3z" fill="#FED479"/>
<path transform="translate(1121,314)" d="m0 0h24l36 1v2l8-1 3 3 2-2 3 1v7l2 2 3-2 3 6-2 4 2 3v15l-3 7-3 3h-15l-5-4-2-12-1 3-1 7-2-2-4-9-5-4h-3l-2 13-6 7-2-3 1-1v-10l-1 10-5 4h-15l-7-3-3-6v-14l1-3-2-1-2 4-4 1 1-5-5 2-1-4 5-2-1-5 4-2v-2l-2-1h3l-3-3-9-2v-1z" fill="#FED479"/>
<path transform="translate(728,260)" d="m0 0h9l12 3 13 7 13 12 3 3v2h2l4 8 2 7v9l4 1h-86l-4-7-1-6 1-12 6-9 14-14z" fill="#ECEBF8"/>
<path transform="translate(550,552)" d="m0 0h1v36l1 10v13h-1l-2-21-1-3-21-1-12 2-4 2-1 7v24l-7 3-29 2-15 1-12 3-9 3h-10l-7-3-4-5-2-5-1-10 1-4 12-6h9l5 2 7 6 4 1 33-2 7-2 1-1v-9l-5-16 1-4 12-3 23-2h19l6 1z" fill="#FED37A"/>
<path transform="translate(1575,364)" d="m0 0h14l11 4 9 6 5 6 1 4v20l-6 10-8 6-12 5h-9l-12-5-11-6-6-6-1-3v-14l5-12 9-10z" fill="#FDFDFD"/>
<path transform="translate(957,699)" d="m0 0h9l15 4 13 3 25 3v7l-3 3-8 3-11 6-10 4-9 6-2 5v8l-2 2v-2l-5 4-4 8-3 9-5 5-6 3-13 1-4-3 1-11 7-19 13-43z" fill="#FCFCFC"/>
<path transform="translate(749,599)" d="m0 0h17l12 3 9 5 9 9 5 11 1 6-1 4-12 1h-47l-19-1-5-2-1-3 2-7h2l1-5 2-1 1-3 8-7 5-5 5-1v-2z" fill="#FCFBFA"/>
<path transform="translate(973,605)" d="m0 0h13l8 4 4 3h7l2 4-2 6v14l1 6v9l-5 7h-2l-1 4-4 4-5 2-7 7-8 1-8-2-1 2-2-3 1-13 5-37 2-16h2z" fill="#FCFCFC"/>
<path transform="translate(487,1189)" d="m0 0h72l20 1-1 16h-127l-5-5-1-3v-7l4-1z" fill="#5A547A"/>
<path transform="translate(531,749)" d="m0 0h10l5 3v24l-1 18h52l1-4 4 9 4 8-2 1h-73l-1-4-1-41-4-1-46-1-6-1 2-2 20-5 4-3h5v2h22z" fill="#FED37A"/>
<path transform="translate(1497,642)" d="m0 0h1l1 12 2 7 2 17 5 19 7 17 8 12 9 10 12 9 14 7 6 2v2l-9 1h-21l-7-1v-6l-8-1-2-6-6-2-3-8-3-6v-2h-2l-4-8-3-7-5-4-3-8-2-8-2-4 1-13v-7l2-7 7-6z" fill="#3D3657"/>
<path transform="translate(443,657)" d="m0 0h1v27l111-1 5-1v-9h1l4 23 1 6-2-3h-133v-1h11l-1-6v-11z" fill="#FECA7C"/>
<path transform="translate(510,568)" d="m0 0h27l12 1v2h-25l-23 2-12 2 1 8 4 12v9l-3 3-6 1-25 2h-8l-5-2-7-6-4-1h-9l-10 5h-2l1 14 4 8 4 3 4 1h10l15-5 16-2h10l24-2 6-2v-24l1-7 5-3 12-2 21 1 2 4 2 21v8h-1l-2-11-6-11-5-4-10-3-11-1-2 5-2 4v19l-2 6-5 2-23 2-21 1-13 3-8 7-9 4-10 1-2 3h2l3 4 16 3 2 2h-54l-35-1-6-1v-1h48l9-2 7-10v-6l-1-5-1-6 1-11 4-8 6-5 5-1h12l7 3 6 3h17l17-2 4-2 1-2v-8l-3-10v-7l7-3z" fill="#F0E1E3"/>
<path transform="translate(1699,607)" d="m0 0 9 3 6 4 6 8 5 10v12l-7 14-8 10-3 3-6 2-4-3-5-15-4-22v-12l4-9 4-4z" fill="#FDBA96"/>
<path transform="translate(438,958)" d="m0 0 4 1v2l4 1 6 6 1 3 4 3 1 3 5 5 4 7 4 4 6 9 3 7 6 10 4 9 6 29-2 2v13l-2-2-6-16-11-23-2-5h-2l-3-9h-2v-3h-2l-1-5h-2l-3-5v-3h-2v-3h-2l-2-3v-3h-2l-3-5v-2h-2l-6-9v-3h-2l-2-4v-6z" fill="#FD7961"/>
<path transform="translate(1217,705)" d="m0 0 5 2 3 4 1 3 2 19-2 6-16 2-8-1-6-5-3-3-13-2-3-3 2-9h-49l-23-1v-1h81l5-4 3-4 9-2z" fill="#FED37A"/>
<path transform="translate(960,676)" d="m0 0h1v8l83 1 45 1 17 1v1l-43 1h-55l-18 4-3 3 105 1 2 1v23l3 7 2 3 5-1 1-1h75v1l-74 1-3 7-4-1-1-3h-2l-4-12v-20l-1-2-133-1-8 26-9 29-11 29-1 4 50 1v1h-52l-2 2 1-5 12-30 16-52 4-16z" fill="#FEC782"/>
<path transform="translate(575,965)" d="m0 0h3l3 9v9l-5 23h-6v5l-3 3h-2l2 4-2 2-5-1-1 4-5-3-3 1-12 24-5 4h-3l1-7 11-24 12-23 8-13 7-13z" fill="#FED379"/>
<path transform="translate(781,1093)" d="m0 0h12l7 4 6 7 1 2v12l-7 8-6 3-10 1-12-3-5-3-2-4v-11l4-7 8-7z" fill="#FDFDFD"/>
<path transform="translate(760,686)" d="m0 0 7 1 8 4 6 8v14l-7 8-9 5h-8l-8-5-6-7-2-4v-9l3-5 6-7z" fill="#FBFAFA"/>
<path transform="translate(130,793)" d="m0 0h20l9 3v22l-1 9-3 2h-13l-16-3-2-2-1-4v-24l2-2z" fill="#FDFDFD"/>
<path transform="translate(400,732)" d="m0 0h21l27 2 28 1 31 4 17 3 23 2 1 2h-82l-33-1-8-2-8-4-5-1h-21l-1 18h-1v-19l3-3z" fill="#F0E1E3"/>
<path transform="translate(427,994)" d="m0 0 5 2 12 12 11 14 11 12 8 7v-4h3l1-2 9 19-1 4-6 2-2-5-2 4-4 1-8-6-10-9-14-19-8-14-5-15z" fill="#FED37A"/>
<path transform="translate(483,913)" d="m0 0 4 2 11 26 6 16v5l-6-1-3 4-2 5v16l-2 13-1 2-3-1-3-18-5-53v-9l3-6z" fill="#FED37A"/>
<path transform="translate(435,1050)" d="m0 0 11 3 14 7h8v-3l6 2h2l1-7 2 3 1 4 8-2 5 13v2l2 1 41 1v1l-73 1-16-2-7-4-3-5-2-9z" fill="#FECA7D"/>
<path transform="translate(443,1135)" d="m0 0h139v6l-1 1h-138l-1-6z" fill="#453E60"/>
<path transform="translate(1129,1076)" d="m0 0h5l14 14 9 5 1 1-1 7-4 6-5 4-5 1-13-4-7-6-3-6v-12l4-6z" fill="#FED178"/>
<path transform="translate(495,686)" d="m0 0h47v1l-11 1 23 2h8l1 1v6l-10 1h-98l3-4 5-2 6-1 43-3-17-1z" fill="#FFD579"/>
<path transform="translate(1e3 1204)" d="m0 0 2 1v2l-11 1h-407l-3-2 148-1 271 1z" fill="#F6CFBF"/>
<path transform="translate(472,245)" d="m0 0 8 1 4 4 1 2v16l-5 7-5 2h-10l-10-5-4-5-1-5 4-7 10-7z" fill="#FDFDFD"/>
<path transform="translate(440,1099)" d="m0 0h143v5l-1 1-44 1h-26l-71-1z" fill="#443D5F"/>
<path transform="translate(438,309)" d="m0 0h22l20 1h137l3 2-32 1-151 1h-44l-136-1v-1l60-1 94-1z" fill="#F0E1E3"/>
<path transform="translate(1134,331)" d="m0 0h7l6 4 3 5 1 3v15l-5 4h-15l-7-3-3-6v-14l3-5 3-2z" fill="#FBFAFA"/>
<path transform="translate(1679,480)" d="m0 0 5 1 13 7 14 10 10 9 8 7 9 11 10 14 9 16 4 8-1 4-7-13-4-6v-2l-6-1-6-10-9-9-2-1v-2l-5-2-4-4-4-2-3-4v-2l-4-1-5-4-5-5-4-3v-2h-2v-2l-5-2-4-3z" fill="#3E3759"/>
<path transform="translate(1187,331)" d="m0 0h7l9 4 2 3v15l-3 7-3 3h-15l-5-4-2-12v-7l2-6z" fill="#FBFAFA"/>
<path transform="translate(1070,333)" d="m0 0h17l6 3 1 3-1 19-3 3-2 1h-17l-5-5-1-3v-14l3-6z" fill="#FBFBFB"/>
<path transform="translate(1e3 773)" d="m0 0h10l6 5 7-1 8-3 7 1 2 4v7l-3 6-2 1h-10l-6-3-5 1-9 5-3-1-5-5-3-5v-7z" fill="#FDFDFD"/>
<path transform="translate(513,572)" d="m0 0h31v9l-3 3-19 1-9 4-2 1-1 7h-3v2h-5l-8-11-1-7 3-3 8-2h4v-2z" fill="#FED479"/>
<path transform="translate(1056,737)" d="m0 0 8 1 7 4 7 9 1 2v9l-3 8-6 7-11 7-8 2-3-3-3-11h-9l-16 2-6-4-6 1-9 2v20l-2 13-1 1-63-1v-1h63v-32l3-7 1-1h14l5 2 4 2 8-3 12 1 5 4 2 10 12-4 2-4 7-8 4-8-1-7-4-6-8-4h-9l-5 4 1-4z" fill="#F0E1E3"/>
<path transform="translate(976,1238)" d="m0 0h13l22 1 23 3 16 1v1h-94l-162-1v-1l80-1 34-1 39-1z" fill="#FF826F"/>
<path transform="translate(1067,599)" d="m0 0h1l1 25 1 4h76l16-1 6-2 1-5 9-3h17l9 2 4 3 2 7v10l-2 7-5 5-9 7-6 2-8-1-6-4-4-5v-3l-81 1-17-1v-1l98-1 3 3 3 5 5 3 8 1 8-4 5-7 3-7v-15l-10-1-25-1v5l-3 2-16 1-83 1-1-1z" fill="#F0E1E3"/>
<path transform="translate(1170,622)" d="m0 0h31l5 2v15l-3 4-1-8-4-5-4-3h-7l-8 4-1 3-4 3 1 3-2 2-2-2-9-1-2-1-12-1-6-3-16-2-48-1v-1l73-1 16-1 2-1z" fill="#FEC97D"/>
<path transform="translate(676,640)" d="m0 0 3 1-2 1-5 12-4 5-1 34v58h2v2l4 1 5 7v2h2l3 4 14 3 35 2 101 1v1l-64 1h-79l-9-3-8-7-6-10-1-2-1-22v-62l1-11 8-14z" fill="#FE967D"/>
<path transform="translate(847,828)" d="m0 0 1 4-10 9-5 5-3 5-4 2-2 4-5 5h-2v2h-2v2h-4v2h-2v2l-11 6-3 3h-2v2l-8 4-2 2h-2l-6 5-3 2-15 1-4-2-9-2-7-6-5-3-1-5h-2l1-2 23 12 6 2 7-1 26-14 24-16 11-9 19-19z" fill="#FE8C76"/>
<path transform="translate(1520,770)" d="m0 0h18l4 4-1 3-11 4-6 2 1 3 11-2h6l-1 3-23 4v-2l2-1-2-1-3 2-9 1-11-3-1-2 5-6 10-4h2v-2z" fill="#3D3657"/>
<path transform="translate(927,788)" d="m0 0 52 1v1l-16 1-8 4-2 4h-5v2l-2 1 40 2v1h-68l2-6 4-8h2z" fill="#FEC97F"/>
<path transform="translate(581,1037)" d="m0 0h2v15l-2 9-7 11-4 3h-20l4-7 10-11 8-10z" fill="#FEC97F"/>
<path transform="translate(759,429)" d="m0 0 8 1 14 7 11 8 18 14-1 3-5-2-2-1v-2l-4-2-5-5-4-2v-2l-4-1-15-8-17-1-7 2-13 7-7 7-10 8-4 4-13 7-5 4-8 4-3 3-7 4-5-1 4-3 23-14 17-12 18-14 10-7 11-5z" fill="#FE8D77"/>
<path transform="translate(971,547)" d="m0 0h1l1 5v30h39l38 1 17 1v1h-64l-3 2-12 3-4 2 3 1 37 2v1h-50l-2 11-4 33h-1v-9l3-30z" fill="#FEC87F"/>
<path transform="translate(510,568)" d="m0 0h27l12 1v2h-25l-23 2-12 2 1 8 4 12v9l-3 3-6 1-25 2h-8l-5-2-7-6-4-1h-9l-13 6 2-4 5-4 5-1h12l7 3 6 3h17l17-2 4-2 1-2v-8l-3-10v-7l7-3z" fill="#F0E1E3"/>
<path transform="translate(1017,980)" d="m0 0h178l44 1v1l-9 1h-190l-39-1v-1z" fill="#4D4868"/>
<path transform="translate(958,698)" d="m0 0 133 1 2 3v20l3 12h2l2 3 3 1 2-7 1-1h77l10 1 5 5 7 4 4 2-8-1-7-6v-2l-24-1h-39l-25 1-3 9-2 1-3-1-4-8-4-9-3-7 2-7v-9l-13-1h-52l-58-1-8-1z" fill="#EFE1E3"/>
<path transform="translate(1563,799)" d="m0 0h1l-1 14v17l5 13 6 7 9 5 12 5 18 4 8 1h13l19-3 18-6 11-6 11-8 9-9 10-13 5-11 2-6h1l-1 8-8 16-11 13-9 8-14 9-11 5-15 4-14 2h-18l-22-4-13-5-10-6-7-7-5-10-2-11 1-16z" fill="#BFBFF6"/>
<path transform="translate(564,1036)" d="m0 0 2 3 2 4 6 2-6 8-10 11-7 10 15 1v1h-99v-1l69-1 10-8 13-21z" fill="#F0E1E3"/>
<path transform="translate(862,310)" d="m0 0h120l79 1h71v1l-7 1h-255l-21-1v-1z" fill="#F0E1E3"/>
<path transform="translate(817,616)" d="m0 0 2 2 7 19 17 4 6 4 5 11 1 4 1 32v60l-2 3-1-21-1-69-6-18-10-3-10-2-6-3-4-8z" fill="#FE9E83"/>
<path transform="translate(962,671)" d="m0 0 4 5 11 4 35 2 65 1 26 2 3 2h-17l-45-1-81-1-2-1v-8z" fill="#EFE1E3"/>
<path transform="translate(550,552)" d="m0 0h1v36l1 10v13h-1l-2-21-1-3-21-1h-7l2-2 21-1v-7l1-4-31 1-10 3-13 2 5 13 1 13-3 4-3 1-28 2h-14l-7-6 1-2 6 5 4 1 33-2 7-2 1-1v-9l-5-16 1-4 12-3 23-2h19l6 1z" fill="#FDC38A"/>
<path transform="translate(1476,784)" d="m0 0 6 1 6 4-2 10 3 4v3l3-2 3-7 6-2 7-3h3v3l-15 9-11 9-9-2-3-4-1-8 3-7z" fill="#3D3657"/>
<path transform="translate(1053,739)" d="m0 0h9l8 4 4 5 2 4-1 7-6 10-7 8-7 4h-5l-2-10h2l1 3 8-2 1-10 4-8 1-10-3-2h-10l-1 1-1 7h-2v-6z" fill="#FEC97E"/>
<path transform="translate(748,689)" d="m0 0 2 1-7 8-1 3v9l5 8 6 5 4 2h8l9-5 6-7 1-11 2 3v10l-3 7-9 7-6 2-12 1-7-7-5-2-4-10-1-6 2-11 7-6z" fill="#FE826F"/>
<path transform="translate(527,585)" d="m0 0 21 1 2 4 2 21v8h-1l-2-11-6-11-5-4-10-3-11-1-2 5-2 4v19l-2 6-6 2v-2l4-2v-24l1-7 5-3z" fill="#EFE2E6"/>
<path transform="translate(1878,841)" d="m0 0h5v2h2l1 7h2l-1 11-10 7-5 3-7-1 4-7 2-12 4-7z" fill="#3D3657"/>
<path transform="translate(699,631)" d="m0 0h1l1 9-10 5-4 1-5 4h-2l-2 5-3 4h-2l-1 4-3 4v79l-1 5h-1l-1-67 1-25 5-7 4-10 3-1v-2l16-1 2-1z" fill="#FE8571"/>
<path transform="translate(765,595)" d="m0 0h6 3v2l4-1 6 3v2l5 1 6 5 3 9 5 12v10l-2 1h-62l-17-1-6-2v-5l2-1 1 5 4 1 19 1h59l-1-10-6-12-8-8-11-5-9-2-11-1v-2z" fill="#FE8672"/>
<path transform="translate(1378,1075)" d="m0 0 9 1 16 4 12 5 18 8v1l-7-1-20-8-21-7-12 5-10 6-13 11-12 12-6 3-2-3 13-12 26-20z" fill="#FE806D"/>
<path transform="translate(1006,1204)" d="m0 0 10 2 320 1v1h-321l-10-1-1-2z" fill="#5B557B"/>
<path transform="translate(1577,612)" d="m0 0h17l10 4 6 5 1 4h-8l-10-2-18-1-2-2v-5z" fill="#413B5C"/>
<path transform="translate(394,755)" d="m0 0 2 2 4 8 5 1 1-2h4l1-3 14-3h9l2 3-9 4-12 3-8 4-7 6-3-1-4-12-1-8z" fill="#FED37A"/>
<path transform="translate(560,673)" d="m0 0h1l4 23 1 6-2-3h-22v-1l11-1h10l-1-6h-12l-26-3v-1h18v-2l-79 1h-20l1-2 111-1 5-1z" fill="#FEC489"/>
<path transform="translate(985,744)" d="m0 0h10l19 1h22l11 1 1-2v6l-1 1h-33l-24-2h-7l-2 7h-1l1-9z" fill="#F0E1E3"/>
<path transform="translate(391,737)" d="m0 0h21l9 3 6 3 6 1 33 1 82 1v5l-1-4h-91l-31-1-20-4h-13l-2 1v-5z" fill="#FDBD99"/>
<path transform="translate(1593,561)" d="m0 0 4 2 5 5 6 10 5 7v2h2v2h2l8 10 2 1v2l5 2 7 3 14 4 4 3h-11l-13-4-12-9-7-7-12-18-9-13z" fill="#413A5C"/>
<path transform="translate(503,575)" d="m0 0h5l-4 2-9 3-1 4 3 7 5 6v2h5v-2h2l1 11v13l-3 2h-3l1-3h2v-8l-1-4-3-2-5 1-7 3-15 1-3-2 17-1 4-2 1-2-1-13-4-9v-4z" fill="#FEC97F"/>
<path transform="translate(1634,749)" d="m0 0 2 1-5 4-15 9-12 6-7 1-1 3v-13l1 2 13-5 20-7z" fill="#FE816D"/>
<path transform="translate(1665,714)" d="m0 0 2 1 15 30 8 11 6 10 3 3-1 4-3 1-6-10-15-24-7-14-2-6z" fill="#413A5B"/>
<path transform="translate(1752,747)" d="m0 0h6l8 8 3 6 3 9 1 8-4-2-5-5-7-10-3-6z" fill="#3D3657"/>
<path transform="translate(1362,199)" d="m0 0h7l9 3 1 2-1 5 4 2 1 3h-10l-12-5-5-3 2-5z" fill="#FCFCFC"/>
<path transform="translate(568,1177)" d="m0 0v3l-3 3-1 4 2 1-36-2-7-1-2-4 3-1 24 1 14-2z" fill="#CAC6FA"/>
<path transform="translate(445,1033)" d="m0 0 5 5 7 9 11 10v3l-2 1h-6l-20-10 8-1-2-10z" fill="#F0E1E3"/>
<path transform="translate(444,657)" d="m0 0h1l1 24 61 1h43l8-1 1-14h1l1 15-6 2-111 1-1-1z" fill="#F0E1E3"/>
<path transform="translate(974,595)" d="m0 0 74 1 2 1v5l-3-3-4-1-40 1-17 1-12 4-2 3v-8z" fill="#EFE1E3"/>
<path transform="translate(748,580)" d="m0 0h23l16 4 12 7 6 7-6-1-3-1v-2l-7-2-8-6v-2h-15l-5-1v-2l-16 2-11 4-11 7-9 9v-3l10-10 16-8z" fill="#FDA286"/>
<path transform="translate(870,495)" d="m0 0 6 2 24 11 28 11-3 2-6 1-14-6-10-6v-2l-9-1-11-5-5-4z" fill="#FE8B75"/>
<path transform="translate(1138,1079)" d="m0 0 5 2 7 6 7 2 3 6v9l2-1-1 5-5 4-10 4h-7l-12-6-7-8-1-5 2 1 4 7 5 4 13 4 7-2 5-6 2-4v-5l-10-6-9-9z" fill="#484260"/>
<path transform="translate(970,560)" d="m0 0h1v41l-3 30-2 23-4 22h-1l1-11 1-6v-18h2l1-20v-7l-1-6 1-7 1-5v-7l2-7z" fill="#FE8B76"/>
<path transform="translate(1792,1112)" d="m0 0 5 2 1 7-8 6-9 11-10 11-7 8-9 8-15 8-11 4-3-1 21-9 10-7 11-11 7-8 9-11 5-9z" fill="#F0E1E3"/>
<path transform="translate(928,520)" d="m0 0 9 3 20 8 8 6 6 7v9h-2l-1-4-2-1-2-5-5-3-4-4-24-10-3-4z" fill="#FE8C76"/>
<path transform="translate(803,629)" d="m0 0h1l1 10-7 2h-37l-10 1h-6l-6 1h-15l-9-2 1-5 6 1 17 1h64z" fill="#FF826F"/>
<path transform="translate(1560,567)" d="m0 0 1 3-7 11-7 9-11 14-9 9-3-1 7-10 1-2h2l2-5 7-8h2l2-6 7-8 3-5z" fill="#403A5B"/>
<path transform="translate(582,1104)" d="m0 0h1v38l-3 16-2 5-1-2h-4l-5-6v-2l5-3h2v-2h2l2-5 2-2v-11l-1-3v-21z" fill="#CAC6FA"/>
<path transform="translate(450,1168)" d="m0 0h4l6 14v7l-11 2h-5v6h-1v-7l3-7 3-2z" fill="#FAFAFC"/>
<path transform="translate(738,438)" d="m0 0 2 1-14 13-10 8-4 4-13 7-5 4-8 4-3 3-7 4-5-1 4-3 23-14 17-12 18-14z" fill="#FE947C"/>
<path transform="translate(510,571)" d="m0 0h12v1l-12 2-12 3-8 1 5 13 1 13-3 4-3 1-28 2h-14l-7-6 1-2 6 5 4 1 33-2 7-2 1-1v-9l-5-16 1-4 12-3z" fill="#FDBD98"/>
<path transform="translate(612,1240)" d="m0 0 32 1 69 1v1h-142v-1l12-1z" fill="#FF826F"/>
<path transform="translate(339,650)" d="m0 0 15 3 35 1h51l3 1-1 2h-23l-59-1-6 3-10-1-2-2h7l3-1-12-3z" fill="#FEC685"/>
<path transform="translate(1190,741)" d="m0 0 9 4 2 2-1 5-1 3-5 1-8-3-6-5-1-3 9-1 2 1z" fill="#FDFDFD"/>
<path transform="translate(956,698)" d="m0 0 2 1-8 26-9 29-11 29-1 4 50 1v1h-52l-2 2 1-5 12-30 16-52z" fill="#FDBD99"/>
<path transform="translate(762,477)" d="m0 0h5l5 4v2h2l2 4 5 5 9 5 4 3 5 1 5 5v2l5 2 1 4-5-2-16-11-18-14-5-5z" fill="#FE9079"/>
<path transform="translate(1107,716)" d="m0 0h83l-3 3-2 4-4 2-2 3-2-1 2-9h-49l-23-1z" fill="#FEC586"/>
<path transform="translate(1515,643)" d="m0 0 5 1 4 6v8l-2 2-7 1-4-5v-9z" fill="#3E3858"/>
<path transform="translate(971,547)" d="m0 0h1l1 5v30h39v1h-40l1 10 13 1v1l-12 1-2 11-4 33h-1v-9l3-30z" fill="#FDBD99"/>
<path transform="translate(1776,635)" d="m0 0h2l1 2v36l-1 12-3-2-1-4v-14l1-9v-10z" fill="#433C5E"/>
<path transform="translate(526,587)" d="m0 0 15 1 7 1 3 11 1 19h-1l-2-11-6-11-5-4-10-3-8-1v-1z" fill="#ECEBF7"/>
<path transform="translate(813,516)" d="m0 0 10 1 5 5 6 2h2v2l3-1v3l9 3 2 1v2l5 2 5 3 8 3 1 3-6-2-29-14-18-10z" fill="#FE937B"/>
<path transform="translate(934,770)" d="m0 0 1 4 1 7 3 2 24 3h14l2-2v4h-48l-2-1 1-7z" fill="#F0E1E3"/>
<path transform="translate(427,600)" d="m0 0h9l5 2-2 1h-10l-7 2-3 3 2 10 1 9 5 2 2 1v2h5v1l-10-1-6-5-3-7-1-10 1-4z" fill="#FECA7C"/>
<path transform="translate(676,640)" d="m0 0 3 1-2 1-5 12-4 5-1 34v60h-1l-1-22v-62l1-11 8-14z" fill="#FDBD99"/>
<path transform="translate(1091,699)" d="m0 0h2l1 2v20l3 7 2 3 5-1 1-1h75v1l-74 1-3 7-4-1-1-3h-2l-4-12v-20z" fill="#FDBD99"/>
<path transform="translate(1450,955)" d="m0 0 1 4-5 24-2 19v38l-5-3 2-34 1-3 3-24z" fill="#938DB8"/>
<path transform="translate(1719,803)" d="m0 0h1l-1 8-8 16-11 13-9 8-10 7-4-2 11-7 10-9 8-9 7-10z" fill="#CAC6FA"/>
<path transform="translate(1576,774)" d="m0 0 10 2 6-1v5l-2 2-23 2-6-1 2-1v-2l9-1h2z" fill="#40395A"/>
<path transform="translate(468,1057)" d="m0 0 4 2 9 7-1 5-3 1-12-6-11-7 2-1 4 2h8z" fill="#FDBD99"/>
<path transform="translate(535,753)" d="m0 0h6l2 2 1 4 2 4v13h-1l-1-12-7 3-3-3-5-3 2-6z" fill="#FECA7B"/>
<path transform="translate(199,1208)" d="m0 0h10l-3 4-3 5-4 1-2 10h-2l-2 4-1-4v-8l5-10z" fill="#FE8A75"/>
<path transform="translate(1583,640)" d="m0 0 5 1 4 5-1 5-3 5-6-1-3-3v-8z" fill="#423B5D"/>
<path transform="translate(750,581)" d="m0 0h11l-1 2-9 1-3 2-7 1-21 12-6 6h-2l-2 5-2-1 4-6 8-7 7-6 14-7z" fill="#FE8470"/>
<path transform="translate(495,1143)" d="m0 0h51l-4 3-12 1h-14l-6-1h-9l-6-2z" fill="#CAC6FA"/>
<path transform="translate(798,620)" d="m0 0 3 4 2 4v10l-2 1h-62l-17-1-6-2v-5l2-1 1 5 4 1 19 1h59l-1-10-2-4z" fill="#FDBD99"/>
<path transform="translate(573,527)" d="m0 0h2l-2 6-6 5h-2l-2 5-8 1-2 7h-2l1-6 5-8 10-7z" fill="#FE9079"/>
<path transform="translate(442,1136)" d="m0 0 29 1 2 2-1 1 6 1v1h-35z" fill="#4C4765"/>
<path transform="translate(1310,380)" d="m0 0h1v75h-1v-71l-13-1-43-1v-1z" fill="#EDE7F0"/>
<path transform="translate(1675,854)" d="m0 0h4v2l-13 6-15 4-14 2h-14v-2l25-3 15-4z" fill="#BEBDF5"/>
<path transform="translate(1467,1167)" d="m0 0h16l13 1v1h-23l-4 2 2 3h-10l-1-1-18-1v-2z" fill="#F0DEDD"/>
<path transform="translate(1071,745)" d="m0 0 3 3 2 4-1 7-6 10-7 8-7 4h-5l-1-6 2 3 6-2 4-2v-2l5-5 4-7z" fill="#FDBD99"/>
<path transform="translate(1094,701)" d="m0 0 2 1v21l5 5h75v1l-71 1-2 2-5-1-4-6-1-9z" fill="#FFCB7B"/>
<path transform="translate(1170,622)" d="m0 0h31l5 2v15l-2 2v-16l-31 1-5 4h-17v-1l16-1 2-1z" fill="#FDBD99"/>
<path transform="translate(452,1018)" d="m0 0 6 5 5 5h7 3l4 5v4h-3v4l-4-2-13-13-5-6z" fill="#F0DFDF"/>
<path transform="translate(575,965)" d="m0 0h3l3 9v9h-1v-7l-5 2h-9l3-8z" fill="#FEC880"/>
<path transform="translate(440,1106)" d="m0 0 5 3 2 8v8l-4 11-2-4z" fill="#C9C5F9"/>
<path transform="translate(474,998)" d="m0 0h2l5 7v2h7l1-3 2 9v8h-3l-4-6-4-4-3-5z" fill="#F1DDDB"/>
<path transform="translate(1880,764)" d="m0 0 4 2 7 7 8 12v2l-4-1-2 1-3-4-3-1-4-5v-2l4-1-7-8z" fill="#403A5A"/>
<path transform="translate(1634,749)" d="m0 0 2 1-5 4-15 9-4 1 3-5h-5l2-3 18-6z" fill="#FF826F"/>
<path transform="translate(899,554)" d="m0 0 10 3 9 4v2l6 3v2l-9-3-22-9v-1h5z" fill="#FE9079"/>
<path transform="translate(1465,1206)" d="m0 0 96 1v1l-88 1-8-2z" fill="#FE8672"/>
<path transform="translate(700,910)" d="m0 0 12 2v2l5 2 11 7 5 3v2l-9-3-23-13z" fill="#FE977E"/>
<path transform="translate(1047,686)" d="m0 0h42l17 1v1l-43 1h-8v-2h-8z" fill="#FDC38B"/>
<path transform="translate(1349,1096)" d="m0 0 4 1-15 15-6 3-2-3 13-12z" fill="#FF826F"/>
<path transform="translate(491,1070)" d="m0 0h2v2l2 1 41 1v1l-73 1-12-1v-1l37-1-1-2z" fill="#FDBD99"/>
<path transform="translate(439,1074)" d="m0 0h12v1l-7 1 2 8-5 14h-1z" fill="#CBC7F9"/>
<path transform="translate(564,1036)" d="m0 0 2 3 2 4 6 2-6 8h-4l-3-5 1-6z" fill="#ECEBF7"/>
<path transform="translate(445,1033)" d="m0 0 5 5 5 7 1 6-9 1h-2v-2h3l-2-10z" fill="#ECEBF7"/>
<path transform="translate(1563,799)" d="m0 0h1l-1 14v17l5 13 6 7 6 4-2 2-10-9-5-8-2-6-1-14 2-15z" fill="#C8C5F9"/>
<path transform="translate(1138,1079)" d="m0 0 5 2 7 6 7 2 3 6-1 5-2-4-10-6-9-9z" fill="#4B4664"/>
<path transform="translate(870,495)" d="m0 0 6 2 18 8-2 3-6-1-11-5-5-4z" fill="#FE8D77"/>
<path transform="translate(1226,716)" d="m0 0h1l2 7 3 4v11l-3 2h-14v-1h11l1-9-1-5z" fill="#F0E1E3"/>
<path transform="translate(1515,643)" d="m0 0 5 1 1 2h-6l-1 1 3 1v9l-1 2h6v1l-7 1-4-5v-9z" fill="#4B4664"/>
<path transform="translate(748,689)" d="m0 0 2 1-7 8-1 3v9l5 8 6 5 2 2-6-1-7-7-3-7v-9l3-7z" fill="#FDBD99"/>
<path transform="translate(924,788)" d="m0 0 1 3-8 17-4 6-2-2 1-6 3-6 5-8h3z" fill="#FE8772"/>
<path transform="translate(762,477)" d="m0 0h5l5 4v2h2l2 4 5 5 6 4 1 3-4-2-17-13-3-5z" fill="#FE927A"/>
<path transform="translate(1508,792)" d="m0 0h3v3l-20 12 2-6 2-4 6-2z" fill="#413A5B"/>
<path transform="translate(1070,333)" d="m0 0h17l6 3 1 3-1 19-3 3-2 1h-17l-3-3 4 1h13l6-1v-23l-5-1h-12z" fill="#EFE2E5"/>
<path transform="translate(801,174)" d="m0 0h7l2 5-2 6-4 2-3-7-1-4z" fill="#FDFDFD"/>
<path transform="translate(339,650)" d="m0 0 15 3 35 1v1l-29 1-6 3-10-1-2-2h7l3-1-12-3z" fill="#FEC488"/>
<path transform="translate(983,748)" d="m0 0 16 1 15 1 33 1v1h-38l-25-1-2 1z" fill="#FDBD99"/>
<path transform="translate(1195,624)" d="m0 0h7l2 1 1 5v8l-1 5h-1l-1-8-4-5-5-5z" fill="#FECA7B"/>
<path transform="translate(582,1104)" d="m0 0h1v38l-2-1v-11l-1-3v-21z" fill="#C8C5F9"/>
<path transform="translate(1478,1180)" d="m0 0h1v10l-6 9-4 3h-3l1-4 5-5 4-8z" fill="#47415F"/>
<path transform="translate(581,1059)" d="m0 0h1v15l-3 1h-9l6-7z" fill="#F0E1E3"/>
<path transform="translate(1452,1073)" d="m0 0 2 1-2 2-1 10-5-1 1-4-3 2-2 8-5 1 2-5 6-8z" fill="#F0E1E3"/>
<path transform="translate(1307,1088)" d="m0 0 2 1 8 35v2h-2l-4-16-4-17z" fill="#4C4766"/>
<path transform="translate(737,930)" d="m0 0h9l12 3 14 1-3 2-6 1-20-4-6-2z" fill="#FDA689"/>
<path transform="translate(492,1042)" d="m0 0h1l3 15-2 2v13l-2-2-3-10 1-6 3 2v-3l-3-1v-5z" fill="#FF826F"/>
<path transform="translate(486,994)" d="m0 0h1l1 13h-7l-5-8 9-1z" fill="#ECEBF7"/>
<path transform="translate(1851,859)" d="m0 0 4 1 3 6v3h2l-1 6h-3l-5-11z" fill="#40395B"/>
<path transform="translate(602,801)" d="m0 0 3 3 1 3-2 1h-60v-1l57-1z" fill="#FEC783"/>
<path transform="translate(446,1201)" d="m0 0 3 3v2h-61v-1l56-1z" fill="#C9C5F9"/>
<path transform="translate(1366,802)" d="m0 0h1l1 11 1 2v9 3l-2-1-1 3-1-4v-18z" fill="#5B557B"/>
<path transform="translate(394,767)" d="m0 0 8 2 5 2-5 5-4 2-4-9z" fill="#FEC587"/>
<path transform="translate(1172,646)" d="m0 0 2 1 3 5 5 3 9-2 5-3h3l-2 4-8 4-8-1-8-6z" fill="#FDC28C"/>
<path transform="translate(415,606)" d="m0 0h2l2 17 2 4 4 3 9 2v1l-10-1-6-5-3-7-1-10z" fill="#FDBD99"/>
<path transform="translate(1315,1126)" d="m0 0h2l4 15 1 9h-3l-4-19z" fill="#4A4562"/>
<path transform="translate(1187,331)" d="m0 0h7l9 4 2 3v15l-3 7-1-2 2-10-1-11-9-3-9-1z" fill="#EEE3E8"/>
<path transform="translate(1348,1157)" d="m0 0 4 1-9 8-5 4 3 2h-9l8-8h2l2-4z" fill="#FE816D"/>
<path transform="translate(527,585)" d="m0 0 21 1 2 4v7h-1l-1-8h-13l-9-2z" fill="#F0E1E3"/>
<path transform="translate(781,702)" d="m0 0h1v12l-6 8-5 4-3 1h-11v-1l10-2 8-5 5-6z" fill="#FDBD99"/>
<path transform="translate(872,262)" d="m0 0 3 1-1 9-1 2h-2l-1 2-2-6 2-7z" fill="#BBBBF4"/>
<path transform="translate(442,605)" d="m0 0 6 5h25v1l-26 2h-5l-2-4z" fill="#FFCB7B"/>
<path transform="translate(443,1143)" d="m0 0h3v8l3 2v3l4 2-2 6-4-5-3-7z" fill="#CAC6FA"/>
<path transform="translate(477,1035)" d="m0 0 3 4 2 5-3 2-4-1-4-3 1-2 2 1v-4h3z" fill="#FDBD98"/>
<path transform="translate(483,913)" d="m0 0 2 1-1 5-1 6-1 1-1 12h-1l-1-9v-9l3-6z" fill="#FEC685"/>
<path transform="translate(1407,1082)" d="m0 0 6 2 20 9v1l-7-1-18-7z" fill="#FF826F"/>
<path transform="translate(755,598)" d="m0 0h15l11 3 7 5-1 2-12-6-9-2-11-1z" fill="#FDBD99"/>
<path transform="translate(1134,331)" d="m0 0h7l6 4 2 2-1 3-5-5-8-1-9 1-4 4 1-4 4-3z" fill="#F0E3E7"/>
<path transform="translate(1299,1053)" d="m0 0 2 1 5 21v8h-1l-5-20z" fill="#4D4867"/>
<path transform="translate(855,298)" d="m0 0 3 1 2 6-3 1-8-1 1-5z" fill="#BABBF4"/>
<path transform="translate(848,649)" d="m0 0h3l3 7v10l-2-1-5-15z" fill="#FE8A75"/>
<path transform="translate(608,810)" d="m0 0 6 1 3 5-1 4-2 2-6-10z" fill="#FE8C76"/>
<path transform="translate(761,581)" d="m0 0h16l4 1v2h-15l-5-1z" fill="#FE8A74"/>
<path transform="translate(990,1187)" d="m0 0 5 5 1 5 4 1 2 4-5-1-6-8z" fill="#423C5D"/>
<path transform="translate(847,828)" d="m0 0 1 4-10 9-11 11-2-1 21-21z" fill="#FDB191"/>
<path transform="translate(503,575)" d="m0 0h5l-4 2-9 3-2 8-3-6v-4z" fill="#FFCB7B"/>
<path transform="translate(1803,1111)" d="m0 0 4 1-3 5-3 3h-4l1-5 3-1z" fill="#C2C1F7"/>
<path transform="translate(1644,472)" d="m0 0h14l10 3 1 2h-5l-1-1-10-1v-2h-9z" fill="#423C5D"/>
<path transform="translate(1857,879)" d="m0 0 6 3-1 6-3 3-2-6z" fill="#595379"/>
<path transform="translate(429,670)" d="m0 0 3 1v18l-3 1z" fill="#FEC488"/>
<path transform="translate(1445,1081)" d="m0 0h2v4l4 1-1 2-4 2-5 2 2-9z" fill="#ECECF9"/>
<path transform="translate(1581,759)" d="m0 0h9l5 1v4l-6-1-8-2z" fill="#3F3859"/>
<path transform="translate(1361,1086)" d="m0 0 3 1-5 5-5 4-4 1 2-4z" fill="#FE7D68"/>
<path transform="translate(1393,1079)" d="m0 0h7l7 3 3 3-8-1-9-4z" fill="#FE7B65"/>
<path transform="translate(480,1044)" d="m0 0 3 1 3 8-5-2-6-4 1-2z" fill="#FFCB7B"/>
<path transform="translate(544,1016)" d="m0 0 2 4-1 6-5 3-2-1z" fill="#FEC97E"/>
<path transform="translate(1536,784)" d="m0 0h6l-1 3-6 1h-9l3-3z" fill="#413B5C"/>
<path transform="translate(430,608)" d="m0 0 8 1-1 3-6 4h-2l-1-4z" fill="#FFCB7B"/>
<path transform="translate(1225,721)" d="m0 0 2 4 1 8-2 6h-10v-1h9z" fill="#FDBD99"/>
<path transform="translate(761,684)" d="m0 0 8 1 5 3v2l-9-3h-9l3-2z" fill="#FD9F86"/>
<path transform="translate(483,1014)" d="m0 0 7 7 1-6h1v7l-2 6-3-4-4-8z" fill="#FDBD99"/>
<path transform="translate(657,876)" d="m0 0 7 1 2 4 2 1 2 5-4-2-9-8z" fill="#FE9A80"/>
<path transform="translate(1015,764)" d="m0 0h27v1l-13 1-8 2v-2l-6-1z" fill="#FFCB7B"/>
<path transform="translate(427,600)" d="m0 0h9l5 2-2 1h-10l-9 1 4-3z" fill="#FDC28D"/>
<path transform="translate(738,438)" d="m0 0 2 1-14 13-2-1 1-3z" fill="#FE9D82"/>
<path transform="translate(457,1174)" d="m0 0 2 4 4 2v6l-3 3-2-10z" fill="#CAC6FA"/>
<path transform="translate(559,667)" d="m0 0h1l1 15-6 2h-7l2-2 8-1z" fill="#F2DAD6"/>
<path transform="translate(1307,1088)" d="m0 0 2 1 3 15-3-1-2-10z" fill="#4E4868"/>
<path transform="translate(737,930)" d="m0 0h9l10 3-4 1-12-2z" fill="#FE927A"/>
<path transform="translate(1525,726)" d="m0 0 5 5 5 6h-3l-8-8z" fill="#FEAB7A"/>
<path transform="translate(477,1052)" d="m0 0 2 3 1 7-4 1-3-3 3-1z" fill="#FFCC7A"/>
<path transform="translate(526,1039)" d="m0 0 3 2 4 1-3 6h-2l-2-5z" fill="#EDE6EE"/>
<path transform="translate(1722,795)" d="m0 0 1 3-2 8-2-1-2 6-1-3 4-11z" fill="#EAEAF9"/>
<path transform="translate(1725,646)" d="m0 0h1v6l-6 4 1-6z" fill="#3F3859"/>
<path transform="translate(1719,619)" d="m0 0 3 2v2h2l3 10-3-1-5-10z" fill="#433D5E"/>
<path transform="translate(580,1206)" d="m0 0 6 1 17 1v1h-22z" fill="#FE8773"/>
<path transform="translate(1829,829)" d="m0 0 4 2 6 4 1 6-5-5z" fill="#40395A"/>
<path transform="translate(1393,695)" d="m0 0 4 2 8 7 3 2-1 2-9-7-5-4z" fill="#453F60"/>
<path transform="translate(1775,623)" d="m0 0 3 1v11h-2l-1-4z" fill="#453E60"/>
<path transform="translate(777,488)" d="m0 0 7 6 4 4h-3l-10-8z" fill="#FDA185"/>
<path transform="translate(1766,801)" d="m0 0 10 2 5 2v1l-9-1-6-2z" fill="#413A5B"/>
<path transform="translate(599,794)" d="m0 0 6 2 1 3-3 3-4-6z" fill="#FF826F"/>
<path transform="translate(698,468)" d="m0 0h2l-2 4-8 5 2-4 4-4z" fill="#FE8C76"/>
<path transform="translate(1750,797)" d="m0 0 11 2 2 1v2l-11-2-2-1z" fill="#423B5C"/>
<path transform="translate(678,480)" d="m0 0 3 1-5 5-5-1 4-3z" fill="#FE9079"/>
<path transform="translate(1858,749)" d="m0 0 5 1 5 4v2l-6-2z" fill="#433C5E"/>
<path transform="translate(1571,552)" d="m0 0 1 4-3 5-3 2 1-5z" fill="#FEC07F"/>
<path transform="translate(1863,882)" d="m0 0h1v8l-2 3-4-1 1-3 1 1z" fill="#C9C8F7"/>
<path transform="translate(1612,758)" d="m0 0 3 1-2 4-5 1 1-4z" fill="#FE765E"/>
<path transform="translate(1506,515)" d="m0 0v3l-1 3h-2l-1 3-3-1 5-7z" fill="#433C5E"/>
</svg>
