<?xml version="1.0" encoding="UTF-8"?>
<svg version="1.1" viewBox="0 0 2048 1362" width="275" height="183" xmlns="http://www.w3.org/2000/svg">
<path transform="translate(0)" d="m0 0h2048v1362h-2048z" fill="#E1E3F6"/>
<path transform="translate(674,460)" d="m0 0h329l292 1-1 9-4 19-1 1-239 1-104 1-7 2v2l-6 5-3 6v10l4 10 5 5 7 4h338v30l-1 29 3 3 16 5 20 3v2l14 1 14 3 12 4 8 4-1 346v18l-1 27-7 7-6 8-3 1-14 1h-152l-10-1 1-23-7-8-5-3h-6l-6 4-9 8-7 8-7 6-12 5-8 3-12 2h-20l-12-4-10-5-6 1-11 7-3 1-33-1-1-6-2-41-2-15-8-2-11-1h-190l-3 30-2 35h-107l-16-3-8-6-5-6-1-5v-407h-3l1-5 1-1 1-96 2-20 6-9 8-6 6-3z" fill="#8AA5FD"/>
<path transform="translate(679,732)" d="m0 0h375l7 1v170l-1 34-49 1h-72l-259-1-1-1z" fill="#BFD0FC"/>
<path transform="translate(1505,651)" d="m0 0 25 1 2 21 5 34 4 10 7 3 16 3h40l35-3 9-1h9l-1 8v9l3 3 11-1 1-1h5l8 5h8l3-2 3-5h2l2-6 5-8 2-4 9 1 16 8 10 8 15 14 9 10 10 14 9 16 6 14 4 14v8l-4 9-11 12-11 7-20 11-2 5v24l-2 15-1 2 1 20-3 22-4 11-6 9-7 6-23 5-10 1h-77l-47-4h-5l-2 6-7 91-3 34-2 27-1 10-1 1-31 1-3-54-4-56-1-28-1-5-8 16-13 25-12 22-18 34-15 28-8 15h-7l-20-7 4-17 17-51 13-35 16-38 9-19 11-20 13-19 7-7 14-10 8-3h183l2-4 2-2-7-2-9-2-12-1-29-1-3-3-8-27-6-20-2-12v-78h-52l-22-3-20-6-10-6-5-5-6-9-4-12-4-22-3-32z" fill="#FAC09A"/>
<path transform="translate(331,662)" d="m0 0 13 2 2 1v-2l15-1 3 6 7 2h8v2h2v5l-8 9-21 9-1 1 1 10 6 11 10 15 12 19 9 10 6 1 10-5 15-10 13-8h2v56l2 58 3 49 4 93 3 42 5 83 3 45h-22l-11-1-3-2-3-23-4-33-7-40-8-43-7-32-7-34-6-19h-1l-3 33-4 26-5 44-5 40-6 45-3 28-1 9-5 1-21-1-9-2 1-21 2-32 1-24v-95l-2-36-11-103-2-27-1-23v-57h2l-1-10 7-37 2-9 2 3 1 9 2 3 4 1 1-4 4 4h7l1-2 2 7 1 7 7 11 1 1 1-2h5l-7-15-1-5v-12l4-3 1-9-8 1-2 4-3 3 1-5 3-1v-2h-2l1-7-4-2-9-2-2-2v-3l3-1 4 1z" fill="#6C141D"/>
<path transform="translate(1313,416)" d="m0 0 12 1 1 1 21 2 10 2 65 9 42 6 68 8 24 4 3 1v13l-4 40-8 57-10 60-2 9-1 1h-10l-41-4-57-7-74-8-50-7-16-5-2-3 2-10 3-11 3-23 2-23 9-57 6-41 3-14z" fill="#FDFEFE"/>
<path transform="translate(674,460)" d="m0 0h329l292 1-1 9-4 19-1 1-239 1-104 1-7 2v2l-6 5-3 6v10l4 10 5 5 7 4h338v13l-1 16-5 1h-405l-19-1-10-14-12-25-1-3-32-1-59 1-7 10-15 28-5 5h-35l-30-2v-79l2-8 7-9 10-6z" fill="#4F79FE"/>
<path transform="translate(1227,819)" d="m0 0h67l35 1 7 1v68l-1 72h-142l-95-2-1-1-1-56v-31l1-48 9-2 19-1z" fill="#BFD0FC"/>
<path transform="translate(805,962)" d="m0 0h174l15 2 5 2 2 15 2 47h14v1h-15v47l-1 33-1 1-26 1-49 1h-35l-70-1-31-2-2-6-2-31-1-43v-19l2-27 2-18 1-2z" fill="#BFD0FD"/>
<path transform="translate(1738,909)" d="m0 0h8l1 20-3 22-4 11-6 9-7 6-23 5-10 1h-77l-47-4h-5l-2 6-7 91-3 34-2 27-1 10-1 1-31 1-3-54-4-56-1-28-1-5-8 16-13 25-12 22-18 34-15 28-8 15h-7l-20-7 4-17 17-51 13-35 16-38 9-19 11-20 13-19 7-7 14-10 8-3h183l2-4 8-3z" fill="#6C141D"/>
<path transform="translate(1779,846)" d="m0 0h5l2 10v29l-4 35-3 17-6 21-4 9-7 8-6 5-15 9-16 8-12 3 2 9 7 54 2 21 2 18 3 32 5 47 1 7-6 2-11 1v-4l3-2 1-6-2-31-3-25-1-6-1-11-2-7-3-1-42 1-75 3-3 3-8 64-3 7h-2v-3h-2v-6l-1-1v-70l1-9 2 3 1-2 3-24 1-12 1-8v-21l1-9 2-5-1-8-5-1-1-1h-7l-3 1v5l-4 4h-2l-1 6h-1v-19l1-11 3-7 28 2 24 2h77l14-2 19-4 7-6 6-10 3-9 3-22-1-21 2-6 1-10v-26l5-5 23-13z" fill="#BFCFFC"/>
<path transform="translate(1311,413)" d="m0 0 28 1 56 5 85 12 37 7v2l13 1 23 3h12v22l-5 51-8 55-4 21-4 25-4 19-3 7-7 3-18-2-14-7-45-7-60-7-23-2-1-2-12-5-14-4-21-3v-1h8l39 5 65 7 67 8 23 2h10l5-26 10-63 5-37 4-40 1-13-21-3-31-4-58-7-84-12-15-2-11-2-13-1-1-1-12-1-4 20-10 68-5 31-2 24-3 20-4 13 1 5-3-1-1-2 1-29 1-30-67 1h-271l-9-5-6-9-2-6v-10l4-7 4-4h2v-2l7-3 104-1 239-1 6-28h-113v-1h115l2-14 5-18h2l1-6z" fill="#BDCEFC"/>
<path transform="translate(342,515)" d="m0 0h10l1 11 6 15 6 4v2h2l1 2 3 1v-5l-2-2 7-4h3v-2l4 1h-2v2l4-1 6 4 7 1 6-5 6-1 6 3 1 4 5 4 3 3 6 11 3 6 1 3 3 3 2 6 3 3v2l3 3 3 6 3 5 2 2 3 4 5 5 6 8-2 4-10 7-5 5-3 1-3 3-5 1-1 2-10 7h-3v2h-3l-1 2-10 7-13 8-16 9-7 9-5 4-2 1h-6l3-3 8-4 6-7 1-5-5-1h-5l-8-3-2-5h-15v2l-11-1-4-1-1 2h-7l2 4 11 3 3 2-2 7h2v2l-3 3 4-4 2-1h6l1 6-2 4-3 2v12l3 9 4 9v2h-5l-1 3-5-6-4-8-2-12-1 1-8 1-3-4-1 3-5-1-2-3-2-12-1-9 2-13-6-2-9-6-5-5-8-6-6-7-4-8-2-10v-18l2-12h2l-1-4 2-6 3-12 6-15 11-17 9-8 14-8 15-5z" fill="#FBB378"/>
<path transform="translate(646,524)" d="m0 0h1v71l-3 6h3l1 2-1 403h-1v-404l-13 7-13 9-26 17-20 13-21 13-16 10-28 17-21 13-15 9-16 8-14 9-9 4-4 1-5 1 2-7-1-4-17 9-9 1-9-3-4-5-3-7-1-8 3-9h11v8l-1 3v7l6 1 12-4 1-1v-6l-4-5-11-6-3-10 1-5 5-10 3-7 32-21 8-5 2-4h3l2-4 9-6 4-3 10-3 20-12 22-14 24-16 17-12 20-14 19-12 11-6h3l4 6 1 4 5 5 3 4 3 7 9 15v2l3 1 2 3h2l1-8z" fill="#BECFFC"/>
<path transform="translate(1159,992)" d="m0 0h6l8 6 5 6-1 19-1 4h10v1h-10l-1 39-2 3-6 39-6 21-6 12-3 8-4 19-3 19-5 23-2 5-13 2h-48l-8-2-5-24-4-25-1-9v-10l4-6 2-1 14-2v-2l4-2-4-3-5-1-16-1-1-2v-13l1-6-1-13-1-7-1-25-1-7v-14l-4-2 1-8 4-1 12 3 10 2 12 6 3 2v2l3 1h8l8-6 6-12-1-4-3-1 15-6 8-6 14-15z" fill="#BFD0FC"/>
<path transform="translate(376,936)" d="m0 0 2 2 6 19 12 57 7 36 7 39 5 32 4 36 1 5 2 2h-2l1 8 10 1 11 2h6l8-5 5 2v2l5 2 8 9 8 7 12 11 3 4 12-3 2 3-9 3-2 4-4 1-31-1-27 2-14-1-8-2h-6l-13 3h-27l-8-1-30-1-7-1-8-1-8-4v-9l1-2h3v-15l4-11h3l-1-4 6-4h24l-1-3 8-64 7-55 6-51 3-19 3-33z" fill="#DFE2F6"/>
<path transform="translate(967,796)" d="m0 0 6 3 9 9 6 8 8 16 6 15 5 12 4 15 2 8v12l-1 1h-246l-4-1-1-2v-9l7-24 6-15 10-14 5-4 10 9 8 9 9 12 12 13 7 6h3l6-14 4-9 4-8 4-11 10-17 4-4h5l4 4v2h2l9 15 13 23 10 14 5-1 7-8 7-12 5-13 13-21 11-13z" fill="#FDFEFE"/>
<path transform="translate(1505,831)" d="m0 0h100l19 1 2 1 4 11 4 14 11 36 3 11 2 2 29 1 16 2 11 2 3 3-5 3-1 2-4 1h-180v-2h5l-1-11-12-37-9-27-2-7 1-5z" fill="#4F79FE"/>
<path transform="translate(1748,763)" d="m0 0 6 2 18 1 5 5 8 13 7 15 5 17v8l-4 9-11 12-11 7-20 11-2 5v24l-2 15-2 2-32 5h-6l-7-2-9-2-12-1-29-1-3-3-8-27-2-6-2-12-2-10-1-18 5-1 5 4 5 5 5 3 3 5 1 23 5 8 1 8 2 2 14 2 5-4 5-5 5-4 2-5-1-17-9-14-5-3-1-5 2-3h2l2-4 4 1v11l10-3 2-3 9-2 3-3 12-2 7-3 5-1h9l5 1 6-3 1-6v-7h-2l-2-9h-6l-2-4-2-10-1-10 1-5 3-5z" fill="#FBB478"/>
<path transform="translate(1600 1e3)" d="m0 0h18l60 2 14 1 9 3 3 2 4 16 4 52 1 6v8l-1 1-23 1h-22l-66-3-8-5v-11l4-46 1-22z" fill="#E2E4F6"/>
<path transform="translate(1415,484)" d="m0 0 2 1 13 28 7 13 4 5 6 2 7-9 5 1 5 4 8 16 8 20 5 15 1 7h-20l-68-10-39-7-11-3-1-3 5-9 11-13 10-13 11-14 7-7 7-8 7-7 8-7z" fill="#BFD0FD"/>
<path transform="translate(1505,651)" d="m0 0 25 1 2 21 5 34 4 10 7 3 16 3v2h25l27-1 2 3 10 5 8 6 2 11 3 7v8l-3 7-5 3v-6h-54l-22-3-20-6-10-6-5-5-6-9-4-12-4-22-3-32z" fill="#FBB478"/>
<path transform="translate(373,385)" d="m0 0h8l10 4 10 9 7 12 5 3 4-4 4-5 7-1 6 3 4 6-1 9-6 11-9 9-7 5-13 2h-9l-17-4h-6l-3 9-4 3h-11l3 11 4 11v8l-7-6-9-10-8-14-4-14-1-11 3-6 3-2 7-1 9 1 2-1v-13l3-10 8-11z" fill="#6C141D"/>
<path transform="translate(1114,1163)" d="m0 0h33v15l-6 29-3 9-13 2h-48l-8-2-5-24-2-11v-16z" fill="#BECFFD"/>
<path transform="translate(946,491)" d="m0 0h142l-3 3-21 2-28 4-3 5-12 5-8 6-12 7-5 6 10 3v3l-2 1-23 1h-35l-9-5-6-9-2-6v-10l4-7 4-4h2v-2z" fill="#E1E3F6"/>
<path transform="translate(1689,601)" d="m0 0 7 3 3 4 1 10 16 1 4 4-1 9-3 4h-2l3 10 2 3v10l-2 5-3 2-6 1-4-3-7-3-1-2-2-16-5-6-5 3-3 5-8 3-22 2-10 1-3-8-1-8v-12l2-5 13-6 8-8 3-1h8l6 4 4-1 5-4z" fill="#6B141D"/>
<path transform="translate(1564,449)" d="m0 0h1v17l-5 51-8 55-4 21-4 25-4 19-3 7-7 3-18-2-14-7-45-7-60-7-23-2-1-2-12-5-14-4-21-3v-1h8l39 5 65 7 67 8 23 2h10l5-26 10-63 4-29 4-1 4-26z" fill="#BFD0FD"/>
<path transform="translate(1688,636)" d="m0 0 6 5 2 6 1 12 3 3 3 2-5 2-1 4 6 2 1 5 3 1v5l-8 5-2 10 1 9-6 9h-3v2l-11 5h-5l-4-6v-4h-2l1-19-1-1-10-2-7-6v-2l14-1-4-4-7 1-3 2-1-7 5-3 1-7-8-1-2-3 17-1 7-3-2-5 9-5 5-1 2-5z" fill="#FAC09A"/>
<path transform="translate(367,451)" d="m0 0 3 3 2-2 7-1 6 2 2 2 1 4 5 4 4 1-3-9 4-4 5 1h3l3 4 1 6h-4v9l-6 9v5l4-1 1-6 5-3 2 3-1 8-6 10-5 10-6 9-5 4-4-1-4-3v-3l-10-2-4-5-1-9-4-4-2-3-1-9-5-13-2-6v-5l11-1 4-2z" fill="#FAC09B"/>
<path transform="translate(350,1170)" d="m0 0h4l3 5 2 1v2l6 2 4 2v2l4 1 9 11 5 5 6 9 5 2v-2l-5-1v-2h12l1 4-3 2-10 2h-14l-9-1v-2h-8l-18-3-33-3-1-1v-8h3v-15l4-10h7l14 4h5z" fill="#5078FD"/>
<path transform="translate(456,1170)" d="m0 0 5 2v2l5 2 8 9 8 7 12 11 3 4 12-3 2 3-9 3-2 4-4 1h-10l-20-3-15-3-35-3 2-9h2l-1-4 2-18 1-3 9 1 11 2h6z" fill="#5079FE"/>
<path transform="translate(1390,1147)" d="m0 0h15l11 2 7 2 8 2 1 2-1 27-9-1-16-5-16-2-16-3-15-6-2-4v-5l5-4 7-2h13v-2z" fill="#517AFE"/>
<path transform="translate(1534,1153)" d="m0 0 5 1 7 1 4 4v23l-2 1h-65l-7-2-1-4 2-5 6-3h3v-2l9-3 10-2v-2h3l1-4 3-1z" fill="#517BFE"/>
<path transform="translate(380,541)" d="m0 0h3v3l2 1v5l6 1 2 8-1 9v3l1 11 1 8v12l-2 12-4 6-7 9-7-2-8-13-1-2v-11l6-15 4-34 2-9z" fill="#FBFCFE"/>
<path transform="translate(1329,414)" d="m0 0h10l56 5 85 12 37 7v2l13 1 23 3h12l-2 32-3 22-2 12-3 2-1-1 1-18 4-43-21-3-31-4-58-7-62-9 3-2v-2l-22-3-39-5z" fill="#BFD0FD"/>
<path transform="translate(1215,857)" d="m0 0 5 1 2 3 1 21 22 1 5 1v10l-7 2-21 1v26l-1 1h-12l1-15v-11l-1-1-19-2-7-4-6-6v-4l22 1 10 1v-21z" fill="#FDFEFE"/>
<path transform="translate(819,631)" d="m0 0h42l5 3 3 4 1 3v22l-4 4h-8l-1-1-2-21-1-4-6-1v25l-1 1h-10l-3-3v-3h2l-3-13v-7l-8 1-3 4-2 23-8 1-2-2-1-6v-15l2-12 2-2z" fill="#DBE0F7"/>
<path transform="translate(1732,910)" d="m0 0h10l-1 5-2 1-3 9-2 1-7-1-15 1-6-3-16 1h-39l-7 1-1 4-4 2-21 2h-11l-29-3-16-6-6-1-18-1 1-2h164l2-4 8-3z" fill="#3C0D19"/>
<path transform="translate(885,617)" d="m0 0 14 1 7 3 3 5v21l-5 4-5 3h-12l1 13h-11l-2-4v-41l5-4z" fill="#EAF2FD"/>
<path transform="translate(1065,191)" d="m0 0 5 1 2 2 1 43h-10l1-11v-17l-4 4-6 18-3 6-6 1-3-1-2-13-9-15v28l-1 1h-8l1-33 1-12 1-1h6l5 5 5 11 5 14 6-9 5-12 5-9z" fill="#3C0D19"/>
<path transform="translate(859,1029)" d="m0 0 5 1-2 5-12 10-13 9-2 5 9 1 13 5 4 3v12l-5 1-21-11-16-7-7-6-1-5 4-5 12-7 25-10z" fill="#E2E4F6"/>
<path transform="translate(917,1028)" d="m0 0 10 2 24 8 21 11 1 5-5 5-10 7-12 6-24 8h-9l-1-5 11-7 17-9 12-5 1-3-22-9-12-7-3-2z" fill="#E2E4F6"/>
<path transform="translate(594,574)" d="m0 0 10 2 4 4v7l-4 5h-2l-2 4-8 5-7 5-8 4-4-1h-15l-1-3-3-1 2-8 5-4 5-6 13-8 7-3z" fill="#E2E4F6"/>
<path transform="translate(1370,622)" d="m0 0h13l29 3 5 2v2l-2 1-15 1-7 1v6l-5 8-3 11-4 1-2-1-2 13-3 20-2 4v15l1-10h1v12l-1 13-3-1z" fill="#F0F7FD"/>
<path transform="translate(950,630)" d="m0 0h10l9 3 3 3 2 7v12l-2 7-6 5h-17l-3-1v-2l-4-1-2-6v-14l2-9z" fill="#EBF2FD"/>
<path transform="translate(986,630)" d="m0 0h13l7 3 3 12 2 6v9l-3 5-8 3h-18l-3-6-1-22 3-6z" fill="#EDF4FD"/>
<path transform="translate(358,512)" d="m0 0h2l6 9 4 5 2 1h10l8-7 5-7 6-1 2 2v19l-4 10-2 1h-6l-7-4h-3v-2l-2-1v2l-7 3v3 7l-1-2-4-1v-2h-2v-2l-5-2-3-5-4-9v-14z" fill="#FCFDFE"/>
<path transform="translate(743,631)" d="m0 0h10l8 3 4 6v21l-3 6-1 1h-12l-8-2-8-10-1-3v-12l4-6 4-3z" fill="#EAF2FD"/>
<path transform="translate(1020,630)" d="m0 0h16l7 3 1 2 1 10v18l-5 3-5 1h-15l-3-6-2-16-1-2v-8l3-4z" fill="#F8FAFE"/>
<path transform="translate(404,688)" d="m0 0 6 1 10 9 6 10 3 8-1 4-11 7-11 5-11-1-6-4-5-10-1-8 3-9h11v8l-1 3v7l6 1 12-4 1-1v-6l-4-5-11-6v-6z" fill="#4F79FE"/>
<path transform="translate(907,1009)" d="m0 0 4 1-1 8-5 12-10 29-12 34-3 4h-6l-3-2 2-9 11-31 11-27 8-16z" fill="#EFF5FD"/>
<path transform="translate(705,758)" d="m0 0 100 2 10 1 1 4-2 2-7 1h-99l-2-1z" fill="#E2E4F6"/>
<path transform="translate(756,202)" d="m0 0 6 1 6 4 4 5 2 9-3 3-2 11-1 2-3 1h-15l-5-3-4-6v-10l3-8 5-5 4-3z" fill="#3D0D19"/>
<path transform="translate(1358,203)" d="m0 0h11l8 5 1 1v14l-2 12-5 3h-15l-5-5-3-8v-12l3-5 5-4z" fill="#3C0D19"/>
<path transform="translate(855,202)" d="m0 0 9 1 1 3 4 1 2 2v13l-1 13-5 3h-14l-6-4-3-5-1-5v-8l4-8 5-4z" fill="#3C0D19"/>
<path transform="translate(780,632)" d="m0 0h13l6 4 4 6 2 13v8l-4 4h-10l-3-4-1-20-5-2 3 3v20l-6 3h-6l-1-2v-12l3-11 2-9z" fill="#EDF4FD"/>
<path transform="translate(905,202)" d="m0 0h7l7 3 3 4 1 4v21l-2 3-21 1-5-3v-10l3-7-1-2v-7l5-6z" fill="#3D0D19"/>
<path transform="translate(1138,203)" d="m0 0h6l2 6 2 10 2 3 3-1 2-13 3-4h6l3 3 1 3 2 15h2l3-6 2-14 2-2 5 1v8l-3 14-3 10-1 1h-8l-5-8-5-9v-2l-3 1-1 7v9l-2 2h-7l-3-3-4-13-2-17z" fill="#3D0D19"/>
<path transform="translate(1092,192)" d="m0 0h13l6 4 4 10v2h-2l-5-5-9-3-6 1-1 5 16 8 6 4 2 4v8l-5 5-6 3-11 1-8-3-5-5-1-3v-7l5 2 9 7h10l3-2-1-5-14-7-9-4-2-4 1-6 4-7z" fill="#3D0D19"/>
<path transform="translate(687,191)" d="m0 0 10 1 8 5 4 6 1 4-1 3-4-2-9-6-2-1h-8l-4 2-4 7v9l3 6 6 4h7l6-3 5-5h2l1-3h1v7l-5 8-5 4-3 1h-13l-6-3-6-7-2-6v-16l3-6 8-7z" fill="#3C0D19"/>
<path transform="translate(1114,1163)" d="m0 0h33l-1 10-1 1h-82l-1-2v-7z" fill="#8AA5FD"/>
<path transform="translate(305,850)" d="m0 0h1l9 85 3 32 1 22v95l-2 41-1 8h-1v-82l-1-70-2-33-2-26-4-30-1-23z" fill="#AFC3FC"/>
<path transform="translate(791,202)" d="m0 0h9l4 5 4 4 1 14v10l-2 2-5 1h-17l-5-5-1-7 3 2 2-4v-13l3-6z" fill="#3D0D19"/>
<path transform="translate(1233,192)" d="m0 0 5 1 1 3v8l1 6-1 9v10l2 2 8-1 5-5v-9l-8-10-2-1 1-4 7 1 6 4 4 7 1 8-3 13-5 4h-23l-2-1-1-4 1-40z" fill="#3C0D19"/>
<path transform="translate(710,778)" d="m0 0 57 1 12 1-1 8-6 2h-62l-1-2v-9z" fill="#E2E4F6"/>
<path transform="translate(309,1199)" d="m0 0h1l1 6 40 4 19 3v2h23l10-2 3-1 1-3v2h7l1-5 36 3 26 5v1h-12l-27 2-14-1-8-2h-6l-13 3h-27l-8-1-30-1-7-1-8-1-8-4z" fill="#AFC3FD"/>
<path transform="translate(700,619)" d="m0 0h5l3 3 1 33 19 1 2 2-1 7-4 3-22-1-4-3-1-3v-40z" fill="#E7F0FD"/>
<path transform="translate(686,200)" d="m0 0h8l8 5 4 6v10l-7 7-5 2h-7l-6-4-3-4-1-3v-9l5-8z" fill="#EAF2FD"/>
<path transform="translate(947,203)" d="m0 0h7l5 2 2 2 2 15v15h-9l-1-4v-21l-1-3-9 2-2 5v21h-10v-11l1-16 1-5 8-1h3z" fill="#3C0D19"/>
<path transform="translate(1202,202)" d="m0 0h7l11 7 1 2v11l-2 3-10-5 2-11-2-2h-6l-1 9v13l2 1h7l7-4h2l-1 10-3 2h-17l-5-5-2-7 1-15 5-7z" fill="#3C0D19"/>
<path transform="translate(309,747)" d="m0 0 8 1 23 5 6 1h17l1 3 3 1 3 5v3h-3v-2h-2l-3-3-6 2h-10l-10-2-8 1-5 1h-6l-4 2-2-3z" fill="#3C0D19"/>
<path transform="translate(1283,202)" d="m0 0 7 1 5 4 2 6 1 8v12l-3 4-3 1h-18l-3-7v-4h2l1 2 3 1h9l6-7 3-2-1-5-4-5-3-3h-7l1 6 8 3-1 5-5 2h-11v-15l5-5z" fill="#3D0D19"/>
<path transform="translate(921,630)" d="m0 0h16l1 5-7 6h-3l1 6v16l-4 4h-6l-3-3-1-30 2-3z" fill="#EBF3FD"/>
<path transform="translate(1443,478)" d="m0 0h21l1 4v13l-4 4-6 2h-10l-4-4-1-2v-15z" fill="#BECFFD"/>
<path transform="translate(1512,439)" d="m0 0 11 1 30 4h12l-2 32-3 22-2 12-3 2-1-1 1-18 4-43-21-3-22-3-5-2z" fill="#90A9FD"/>
<path transform="translate(418,1198)" d="m0 0h24l16 3 18 7 5 3v2h-9l-21-4-35-3 1-7z" fill="#3C0D19"/>
<path transform="translate(311,1198)" d="m0 0h19l17 2 21 6 6 3-1 4-17-2-22-3-23-2-1-1v-6z" fill="#3C0D19"/>
<path transform="translate(991,192)" d="m0 0 4 1v37h19l1 2-1 5h-27l-1-7 1-36z" fill="#3C0D19"/>
<path transform="translate(1520,1166)" d="m0 0 4 1 7 2h12l6-2v14l-1 1h-44l2-4 9-6z" fill="#3C0D19"/>
<path transform="translate(1749,886)" d="m0 0 3 4 2 9v11l3 5 1 2-1 2-2 12-3 10-4 13-6 7-2-1 3-9 3-22-1-21 2-6z" fill="#D5DBF7"/>
<path transform="translate(943,1058)" d="m0 0 2 1-1 2 8-1v3l5-2 6 1-5 4-12 6-24 8h-9l-1-5 11-7 17-9z" fill="#E2E4F6"/>
<path transform="translate(1327,195)" d="m0 0 7 1 4 5-1 8h-2l1 16 2 5 4 5v3h-12l-3-5-2-15-1-16 2-6z" fill="#3C0D19"/>
<path transform="translate(821,194)" d="m0 0 5 1 5 6v7l-2 3v13l2 6 3 3 1 5h-11l-3-3-1-3-2-29 1-7z" fill="#3C0D19"/>
<path transform="translate(1044,365)" d="m0 0h5l-4 3-18 8-28 12-3 2v10l2 11-3-1-9-22-1-3-2-1 16-4 38-13z" fill="#BFD0FD"/>
<path transform="translate(1400,1158)" d="m0 0 5 2 9 6 9 4 7 1-1 10-2 1-21-6-12-3 3-12z" fill="#3C0D19"/>
<path transform="translate(831,637)" d="m0 0 7 1 9 1 1 5v21l-1 1h-10l-3-3v-3h2l-4-20-4-2z" fill="#EEF5FD"/>
<path transform="translate(1238,202)" d="m0 0h6v3l4 2 7 9v9l-5 5-4 2h-5l-3-3v-10l1-11z" fill="#D9DEF6"/>
<path transform="translate(1006,635)" d="m0 0h1l2 10 2 6v9l-7-1-3-3v-3h-2l-1 5-3 3h-5l-1-1v-15l1-5 4-1 7 4 5-2z" fill="#D8DEF7"/>
<path transform="translate(1311,413)" d="m0 0h9l48 6 19 3 3 1v2l2 1h-12l-30-4-11-2-13-1-1-1-12-1-4 13h-4l3-10z" fill="#8EA8FD"/>
<path transform="translate(1083,1074)" d="m0 0 4 2 3 9 4 11 2 8v9l-7-1-6-11-3-19v-6z" fill="#E2E4F6"/>
<path transform="translate(399,696)" d="m0 0 12 6 5 6v6l-5 3-9 3-6-1-1-1v-7l2-11-4-1h6z" fill="#BBCDFD"/>
<path transform="translate(370,443)" d="m0 0 9 1 14 3h16l-1 7-4-2h-3l-6 1 1 6 1 5-5-1-5-4-2-5-7-2-7 2h-3l-1-6z" fill="#E3E1F0"/>
<path transform="translate(620,549)" d="m0 0 5 5 14 24 1 4-5 7-3 1v-3h-3l-5-16-1-9-4-4h-5l-2-4 6 1 1-5z" fill="#8AA5FD"/>
<path transform="translate(309,1199)" d="m0 0h1l1 6 40 4 19 3v2h23l8-1-1 2-5 1h-25l-8-1-30-1-7-1-8-1-8-4z" fill="#B1C4FD"/>
<path transform="translate(986,630)" d="m0 0h13l7 3v8l-4 1-1 3-4-4-7-1-1 19h-1l-1-13-5-1-2 7h-1l-1-12 3-6z" fill="#DADFF7"/>
<path transform="translate(854,639)" d="m0 0 4 1 11 3v21l-3 3h-8l-1-1-2-21z" fill="#ECF3FD"/>
<path transform="translate(813,634)" d="m0 0h1l2 8 5 2v11l-1 13-8 1-2-2-1-6v-15l1-9z" fill="#EAF2FD"/>
<path transform="translate(730,202)" d="m0 0 6 2-1 4-6 4-3 9v11l1 3-2 2h-7l-1-1 1-18 1-9 4-4z" fill="#3C0D19"/>
<path transform="translate(960,1044)" d="m0 0 5 1 7 4 1 5-5 5-4 3h-7l-5 1-2-2h-6l2-4 6-3 5-5z" fill="#F0F7FD"/>
<path transform="translate(1311,190)" d="m0 0 2 1-1 10 3 11 1 25h-10l2-37-1-3v-5z" fill="#3C0D19"/>
<path transform="translate(366,751)" d="m0 0 4 1 6 10 9 10 7 4 5-1 8-4 12-8 2 1-6 8-12 6-6 2-8-1-10-7-8-9-5-9v-2z" fill="#E4E0EC"/>
<path transform="translate(943,636)" d="m0 0 4 3 7 2-2 12-2 1 2 12-9-2-3-7v-14l2-6z" fill="#FCFDFE"/>
<path transform="translate(755,207)" d="m0 0h6l5 10 1 7-3 5-4 2h-8l-2-2 1-5 7-5 1-3-8 2-2 4-1-3 5-10z" fill="#CAD4F8"/>
<path transform="translate(379,1191)" d="m0 0 11 1 9 3 7 8v4l-9 1-4-1v2l5 1v2l-6-2-6-9v-2l-4-2-3-4z" fill="#FAB884"/>
<path transform="translate(846,1062)" d="m0 0 7 1 8 5v12l-5 1-17-9 1-5 5-3z" fill="#EEF4FC"/>
<path transform="translate(854,207)" d="m0 0h7l3 3-2 4-4 2v5h6l5 4-2 4-4 2h-9l-4-4 1-11z" fill="#C7D1F8"/>
<path transform="translate(905,206)" d="m0 0 9 2 1 4-3 4-6 1-1 3 6-3h2l2 8-1 6-2 1h-7l-3-2v-8l1-4-2-3 1-7z" fill="#B5C7FC"/>
<path transform="translate(1511,1047)" d="m0 0h1l3 36 3 48v18h-1l-4-29-2-27z" fill="#A5BBFC"/>
<path transform="translate(1280,207)" d="m0 0h7l4 4 5 6-1 5-9 9h-9l-3-1v-7h9l5-1 1-5-6-1-4-4z" fill="#D0D9F9"/>
<path transform="translate(1085,214)" d="m0 0 7 1 14 7 2 3-1 4-3 2h-10l-9-7z" fill="#E5EDFC"/>
<path transform="translate(708,655)" d="m0 0 20 1 2 2-1 7-4 3-22-1v-1h5l-2-7z" fill="#DBE0F7"/>
<path transform="translate(1359,207)" d="m0 0h6l4 2 1 3-5 5v4l6 1 3 3-2 4-4 2h-6l-5-4 1-18z" fill="#C6D2FA"/>
<path transform="translate(1126,286)" d="m0 0h5v2l3 1v2l3 1h6v2h-3v10l-5 6-6 2 5-5 3-4v-5l-3 4-6 1v-3l-2-1-1 14-4-1 2-7 1-15z" fill="#CDD6F8"/>
<path transform="translate(793,206)" d="m0 0 5 1 2 2v7l2 8-1 5-4 3h-6l-3-3 1-6 6-4 2-3-6 1-2-1v-7z" fill="#AAC0FD"/>
<path transform="translate(1562,868)" d="m0 0h7l6 4 2 7-4 5-2 1h-7l-4-4v-3h-2v-6z" fill="#F2F6FE"/>
<path transform="translate(824,1042)" d="m0 0 3 1-2 4v7l4 6-1 5-7-1-8-6-2-3 1-5 5-4z" fill="#EFF6FD"/>
<path transform="translate(341,683)" d="m0 0h4l-2 9-1 13h2l3 14v3l-5-1-4-7-2-10v-9z" fill="#FBBF98"/>
<path transform="translate(934,501)" d="m0 0 2 1v8l3 12 6 10v3l-5-1-5-4-5-9-1-4v-10l2-4z" fill="#EBF3FD"/>
<path transform="translate(826,287)" d="m0 0 4 1 5-1 3 5 5-2 5 1-1 3-5-1-3 11-4 3-4-1 6-7-1-1-4-1-5-1-1 9h-2l-1-12z" fill="#A9B1E2"/>
<path transform="translate(1209,875)" d="m0 0h1v9l-5 2h-3l-2 4h-14-4l-5-5v-4l22 1 10 1z" fill="#EEF5FC"/>
<path transform="translate(1118,1164)" d="m0 0h29l-2 7-1 1h-16l-9-3-4-2v-2z" fill="#4F79FF"/>
<path transform="translate(1513,727)" d="m0 0 2 3 5 12 6 7 10 6 17 6 12 3 22 2h44v1l-8 1h-44l-22-3-20-6-10-6-5-5-6-9-3-8z" fill="#FBC09A"/>
<path transform="translate(1095,199)" d="m0 0 8 1 8 4 2 4 3-1v2l-5 2v2l-10-2-9-4-1-5z" fill="#CFD8F8"/>
<path transform="translate(1688,636)" d="m0 0 6 5 1 4h-2v3h2v10l-1-2-6-2v-2l-6-1-4-5 3-1 2-5z" fill="#E2E3F4"/>
<path transform="translate(1147,284)" d="m0 0 4 1 5 2 4 4 3 12v6l-1 1h-5l1-2v-10l-1-2-1 7h-3l-1-3-2-1-1-4-2 1z" fill="#BCCDFC"/>
<path transform="translate(342,515)" d="m0 0h10l1 11 5 12-1 3-4-5v-2h-2l-6-8-7-6-9-1 4-2z" fill="#FBC09A"/>
<path transform="translate(305,850)" d="m0 0h1l7 67v8h-2l-2-9-3-24-1-23z" fill="#9FB7FD"/>
<path transform="translate(1178,286)" d="m0 0h3l-1 26 3 1 6-3 2-6 1-12 5-2-1 9-5 15-11 2-4-8v-17z" fill="#430E19"/>
<path transform="translate(825,640)" d="m0 0h8l2 10v9h-2l-3-10-5-4 1 16-1 3-4 1v-20z" fill="#507AFE"/>
<path transform="translate(404,519)" d="m0 0 4 4 8 13 1 4-4 1-5-2-5 2-5 4-1-2h2l1-5 3-6 1-8z" fill="#E5DEE8"/>
<path transform="translate(1203,206)" d="m0 0h6l3 3-2 11 7 3v2h-6l-2-1-6 1v-3l-2-1v-11z" fill="#CBD3F7"/>
<path transform="translate(483,1192)" d="m0 0 11 2 9 4 6 5-2 2-7 3-4-1-10-11-3-2z" fill="#FAB883"/>
<path transform="translate(882,821)" d="m0 0 4 5 10 18 11 18 4 7-5-2-8-10-7-12-7-18-2-3z" fill="#EEF5FC"/>
<path transform="translate(921,630)" d="m0 0h16l1 5-7 6h-3l-1 4-1-4-5-3-1-6-3-1z" fill="#DADFF7"/>
<path transform="translate(379,537)" d="m0 0 4 1h-2v2l4-1 2 3-4 2v-3l-5 2-2 9-4 34-2 2 1-15 1-11-1-17-2-2 7-4h3z" fill="#FBC09A"/>
<path transform="translate(351,464)" d="m0 0 3 1 4 9 1 10-1 2-12-12-5-7 1-2 8 4z" fill="#3F0D19"/>
<path transform="translate(848,640)" d="m0 0h6l2 5 1 15-2 3-6-2z" fill="#507AFE"/>
<path transform="translate(1292,544)" d="m0 0h1l-1 16-3 20-4 13 1 5-3-1-1-2v-8l1-1 2-13 5-17z" fill="#DFE2F6"/>
<path transform="translate(888,629)" d="m0 0h7l5 2 1 4-4 4-6 2-5-1-1-2v-7z" fill="#557DFE"/>
<path transform="translate(1389,614)" d="m0 0h18l29 2 7 2 14 2v2l-14-1-54-6z" fill="#ECF1FB"/>
<path transform="translate(788,826)" d="m0 0 6 4 10 10 12 16 1 2-4-2-10-11-6-7-7-3-8-2z" fill="#EFF6FD"/>
<path transform="translate(1750,799)" d="m0 0 5 1 2 7v12l-1 1h-5l-2-6v-14z" fill="#E2E4F6"/>
<path transform="translate(997,631)" d="m0 0 8 1 1 1v8l-4 1-1 3-4-4-7-2 1-4z" fill="#EDF4FD"/>
<path transform="translate(945,288)" d="m0 0 4 3 2 2-1 7-4 5-1-3-2 6-2 2-4-1h2l1-14 5 1-1-7z" fill="#D8DBF3"/>
<path transform="translate(1289,219)" d="m0 0 3 3-2 5-4 4h-9l-3-1v-7h9l5-1z" fill="#CCD5F8"/>
<path transform="translate(377,745)" d="m0 0h2l5 6 8 6 4 1 7-3h3l-1 3-10 5-6-1-11-12z" fill="#EDF3FC"/>
<path transform="translate(426,436)" d="m0 0 2 1-6 9-3 1v2l-7 6-1 5h-2l-1-4v-8l10-5z" fill="#EEF4FC"/>
<path transform="translate(1390,1147)" d="m0 0h15l7 1v1h-11l-3 4-9 1 3-3h-9l-3 1-18 1 3-2 4-1h13v-2z" fill="#95AEFD"/>
<path transform="translate(373,695)" d="m0 0 6 2 3 4h3l-1 10 2 11-4-2-2-3v-11l-5-4-2-4z" fill="#BACCFD"/>
<path transform="translate(1346,213)" d="m0 0h1l1 11 4 9 4 4 18 1-2 2-6 1h-10l-7-4-5-6 2-2z" fill="#E6EEFC"/>
<path transform="translate(408,703)" d="m0 0 6 2 2 3v6l-2 2-10 1 2-11z" fill="#D9DFF7"/>
<path transform="translate(866,284)" d="m0 0h9l1 3-1 3-1 14-2 4h-6l2-4 2-5v-10z" fill="#420E19"/>
<path transform="translate(1369,624)" d="m0 0h1l1 100 1 3-3 1z" fill="#D5DDF8"/>
<path transform="translate(786,640)" d="m0 0 5 1 1 2 1 18 3 5h-6l-2-3-1-20z" fill="#F4F7FE"/>
<path transform="translate(733,642)" d="m0 0 3 4 7 15v4l-4-1-6-8-1-3v-8z" fill="#F9FBFE"/>
<path transform="translate(1137,297)" d="m0 0h1v6l-6 7-3 3h-4v-8l1-6 3 1v2l6-2z" fill="#CFD5F3"/>
<path transform="translate(735,206)" d="m0 0 6 4 2 2-1 4h-2v2l-9-1-3-3 2-4 5-2z" fill="#BBCCFC"/>
<path transform="translate(1410,1140)" d="m0 0 10 2 8 3 5 1-3 1 1 6-8-1-6-1v-1h5v-3l-6-1-4-4z" fill="#E2E0EE"/>
<path transform="translate(301,786)" d="m0 0h1l3 52v11l-2-1-1-9 1-14h-2l-1-27z" fill="#93ADFD"/>
<path transform="translate(992,644)" d="m0 0h6l1 4-2 9-3 2-4-1v-9z" fill="#EAF1FC"/>
<path transform="translate(1201,284)" d="m0 0h5l4 7-1 13-2 5-2 1-4-2 4-10v-12z" fill="#480F1A"/>
<path transform="translate(862,221)" d="m0 0 5 2 2 4-6 4h-9l-3-2v-4l9 1v-3h2z" fill="#CCD5F8"/>
<path transform="translate(309,1199)" d="m0 0h1l1 6 40 4 19 3v1h-16v-2l-27-2-15-1-3-1z" fill="#547DFE"/>
<path transform="translate(1570,870)" d="m0 0 5 2 2 7-4 5-3 1-1-4h-2l-1-6h2v-2h2z" fill="#E6EEFD"/>
<path transform="translate(773,654)" d="m0 0 1 3 10 2v6l-5 2h-6l-1-2v-8z" fill="#FAFCFE"/>
<path transform="translate(1405,1140)" d="m0 0 7 1 4 2v2l6 2v3l-10-1-6-2v-3h-2z" fill="#FCFDFE"/>
<path transform="translate(959,285)" d="m0 0h5l1 6-3 9 1 9-2 1-5-1 4-16z" fill="#420E19"/>
<path transform="translate(878,625)" d="m0 0 14 2-1 2-5 2-1 7-7-2-1-4z" fill="#FCFDFE"/>
<path transform="translate(1063,208)" d="m0 0 2 1v17l-2-2h-7l3-11z" fill="#AABEFB"/>
<path transform="translate(829,295)" d="m0 0 4 2 5-1-1 4-5 6-1 3-4-1-1-7 1-5z" fill="#D2D9F7"/>
<path transform="translate(1201,222)" d="m0 0h2v3l7-2 7 3v2l-6 3h-7l-3-2z" fill="#DAE0F8"/>
<path transform="translate(366,751)" d="m0 0 4 1 6 10v4l-1 2-3-1-7-10-1-5z" fill="#E8D1CE"/>
<path transform="translate(793,206)" d="m0 0 5 1 2 2v5l-9 3-2-1v-7z" fill="#C7D1F8"/>
<path transform="translate(1097,285)" d="m0 0 3 1 4 9 1 10-4 5h-5l4-8v-9l-4-5z" fill="#400D19"/>
<path transform="translate(902,222)" d="m0 0h7l1 4v2l5-2-1 5-2 1h-7l-3-2z" fill="#D9DFF7"/>
<path transform="translate(758,219)" d="m0 0h2l-2 4-1 4 8-2-1 4-4 2h-8l-2-2 1-5z" fill="#D2D9F7"/>
<path transform="translate(1092,291)" d="m0 0 1 3-7 11-6 5h-5l3-4h2l-1-14 2 1 1 10 5-6z" fill="#4E1B34"/>
<path transform="translate(1018,281)" d="m0 0h3l1 7v9l-3 9v2l-6-1 4-6 1-4v-9l-1-6z" fill="#420E19"/>
<path transform="translate(407,1083)" d="m0 0h2l5 30 2 21h-2l-3-23-4-25z" fill="#A6BCFC"/>
<path transform="translate(397,700)" d="m0 0 2 1 1 6h4v8l-3 2-5-1-1 2v-7z" fill="#8AA5FD"/>
<path transform="translate(761,214)" d="m0 0h4l2 10-2 3h-4-4l1-5 2-6z" fill="#B9CBFD"/>
<path transform="translate(852,214)" d="m0 0 6 3v4l4 2h-2l1 3-4 1-6-2-1 2 1-11z" fill="#B1C5FC"/>
<path transform="translate(668,203)" d="m0 0h1l1 19 3 8-1 3-5-6-2-12z" fill="#DFE6FC"/>
<path transform="translate(445,637)" d="m0 0 2 2-36 24-2-1 4-4 4-2 2-2 4-3h3v-2l9-5 3-1 1-2 3-2h3z" fill="#E2E4F6"/>
<path transform="translate(992,639)" d="m0 0 6 2 2 1v3l-8-1-1 5v9l5-1 2-2-1 5-7 1-1-1v-15l1-5z" fill="#5F85FE"/>
<path transform="translate(938,287)" d="m0 0 1 4-2 17-4 1v-13l2-7z" fill="#400D19"/>
<path transform="translate(417,763)" d="m0 0 2 1-6 8-13 6-3-1v-2l8-4z" fill="#E4E4F4"/>
<path transform="translate(1057,287)" d="m0 0 3 1-2 10-1 10 3 1-5 1-2-2 2-19z" fill="#3D0D19"/>
<path transform="translate(716,219)" d="m0 0h1v11l-1 5-4-4h-5l1-6h2l1-3 4 1z" fill="#ECF3FD"/>
<path transform="translate(831,202)" d="m0 0 3 3 2 8v7l-5 1-1-7 1-2h-2l-1 2 1-5z" fill="#B0C4FD"/>
<path transform="translate(1359,207)" d="m0 0h6l4 2 1 3-4 3h-8v-6z" fill="#D0DDFD"/>
<path transform="translate(313,1161)" d="m0 0 10 1 2 2-5 3v4h-3l-1 3-2-3z" fill="#FBFCFE"/>
<path transform="translate(1032,285)" d="m0 0 5 1 3 21h-3l-3-13z" fill="#3F0D19"/>
<path transform="translate(1027,641)" d="m0 0 14 1v2h-11l-1 1v12l2 1v2h-4l-2-5v-9z" fill="#9DB4FD"/>
<path transform="translate(885,631)" d="m0 0h1v6l14-5 1 3-4 4-6 2-5-1-1-2z" fill="#8CA6FD"/>
<path transform="translate(911,284)" d="m0 0h3l2 22 4 4-8-1z" fill="#3F0D19"/>
<path transform="translate(748,640)" d="m0 0 4 2 1 7v8l-5 4-3-1 4-8v-7l-3-1z" fill="#84A0FD"/>
<path transform="translate(843,654)" d="m0 0 5 3v8l-1 1h-10v-1h7v-2l-4-2 1-5z" fill="#DFE2F6"/>
<path transform="translate(385,550)" d="m0 0 6 1 2 8-1 9h-3z" fill="#E5DEE7"/>
<path transform="translate(1126,286)" d="m0 0 4 1v2h-3l-1 16-1 8-4-1 2-7 1-15z" fill="#400D19"/>
<path transform="translate(1705,665)" d="m0 0 4 4 4-2 3 1-2 3v3l-2 3h-4l-2-5-3-2 1-4z" fill="#FAC09B"/>
<path transform="translate(1155,287)" d="m0 0 5 4 3 12v6l-1 1h-5l1-2v-10z" fill="#3E0D19"/>
<path transform="translate(854,283)" d="m0 0h4l1 15-1 8-4 2-4-2 5-4 1-5v-8z" fill="#4B0F1A"/>
<path transform="translate(1204,213)" d="m0 0 2 4 4 3 7 3v2h-6l-2-1-6 1v-3l-2-1z" fill="#BACCFC"/>
<path transform="translate(1168,213)" d="m0 0 1 2h2l1-2 2 4h2l-2 7-4 3-2-6z" fill="#B3C6FC"/>
<path transform="translate(1659,685)" d="m0 0h8l1 1v6h-8v-2l-4-2v-2z" fill="#FBB57B"/>
<path transform="translate(784,217)" d="m0 0h1v7l-3 5-2-1v-2h-6l-1-2 2-5h3v2l2 1-1 2h2v-2h2z" fill="#B7C9FC"/>
<path transform="translate(416,1206)" d="m0 0 25 1 16 2v1l-25-1h-14l-2-1z" fill="#4F79FF"/>
<path transform="translate(343,710)" d="m0 0h2l2 9v3l-5-1-4-7 1-2h4z" fill="#E3E1EE"/>
<path transform="translate(997,286)" d="m0 0h4v6l-3 6v7l3 2-4 1-2-7v-7z" fill="#440E19"/>
<path transform="translate(884,286)" d="m0 0 4 1 2 4 1 16h-4l-1-19h-2z" fill="#400D19"/>
<path transform="translate(903,217)" d="m0 0h2v3l6-3h2l2 9-5 3-2-1 1-5-6-1z" fill="#94ADFC"/>
<path transform="translate(1520,1149)" d="m0 0 15 1 2 2-4 1h-19l1-3z" fill="#F6FAFE"/>
<path transform="translate(1074,287)" d="m0 0 4 1 1 4-4 1-4 5-4 7-2-1 4-11 3-2z" fill="#410D19"/>
<path transform="translate(389,615)" d="m0 0 2 1-6 8-5 5-7-3-2-5 5 2 4 2 3-2 1-4h3v-3z" fill="#E3E2F1"/>
<path transform="translate(826,287)" d="m0 0h3l-1 9-2 9h-2l-1-12z" fill="#4F75F8"/>
<path transform="translate(956,644)" d="m0 0 5 1-1 8-2 3h-4l1-10z" fill="#F5F8FD"/>
<path transform="translate(404,519)" d="m0 0 4 4 7 11-1 2-5-5-5 1z" fill="#FBC09A"/>
<path transform="translate(1098,200)" d="m0 0 8 1 5 3v3h-6l-9-4v-2z" fill="#E3ECFD"/>
<path transform="translate(507,1204)" d="m0 0 4 2-2 2-7 2-2 4-7 1 2-2 3-1-2-5 5-1z" fill="#66131D"/>
<path transform="translate(956,640)" d="m0 0 5 1 2 3v6l-2 2-1-7-4-1-2 9h-1v-10z" fill="#87A3FD"/>
<path transform="translate(1101,221)" d="m0 0 5 1 2 3-1 4-1 1h-11l3-2 3-3z" fill="#F0F4FD"/>
<path transform="translate(963,645)" d="m0 0h1v9l-5 5h-5l-1-1 1-7 1 3-1 2 4-1 2-6 2 1z" fill="#BBCDFD"/>
<path transform="translate(1220,287)" d="m0 0h3l2 4 1 6v10l-3 1-1-15z" fill="#400D19"/>
<path transform="translate(940,286)" d="m0 0 4 1 1 4v5l-6-1-1 2 1-9z" fill="#E9F0FC"/>
<path transform="translate(983,286)" d="m0 0 2 2v17l-1 3h-5v-3l3-4 1-10z" fill="#59111B"/>
<path transform="translate(1703,663)" d="m0 0 3 2-2 2-1 5-7-2 1-4 2-2z" fill="#E2E2F2"/>
<path transform="translate(1196,290)" d="m0 0 1 4-3 12h-3l1-14z" fill="#480F1A"/>
<path transform="translate(686,215)" d="m0 0 8 3-1 4-4 2-3-2-1-6z" fill="#E2E4F6"/>
<path transform="translate(1198,287)" d="m0 0 3 1v8l-1 3-3 1-2 2 1-13h2z" fill="#C0CFFB"/>
<path transform="translate(1078,227)" d="m0 0 3 1 3 5 1 4-7-1-1-1v-6z" fill="#E5EDFC"/>
<path transform="translate(1223,883)" d="m0 0h22v1l-11 1-2 2h-8z" fill="#ECF2FB"/>
<path transform="translate(380,677)" d="m0 0 2 1-6 8-5 4-2 1h-6l3-3 8-4z" fill="#F9BC8F"/>
<path transform="translate(1014,645)" d="m0 0h2v14l-4-2-1-5z" fill="#557EFE"/>
<path transform="translate(782,641)" d="m0 0 5 1 1 1v16l-2 2-1-17-3-1z" fill="#527BFE"/>
<path transform="translate(975,647)" d="m0 0h4l-1 12-1-2-3 1v-10z" fill="#4F79FF"/>
<path transform="translate(450,594)" d="m0 0 4 2 7 9-1 3-7-5-2-6z" fill="#F7FAFD"/>
<path transform="translate(1207,207)" d="m0 0 4 1 1 4-2 7h-3l-1-11z" fill="#DBE5FD"/>
<path transform="translate(361,543)" d="m0 0h8l3 2v7l-1-2-4-1v-2h-2v-2z" fill="#E3E1F0"/>
<path transform="translate(1444,482)" d="m0 0 4 2 4 5-2 6-2-1-4-9z" fill="#E2E4F6"/>
<path transform="translate(1238,202)" d="m0 0h6v3h2l-1 4-6 3z" fill="#ACC0FB"/>
<path transform="translate(379,1191)" d="m0 0 11 1 7 2v1h-13l-1 3-4-5z" fill="#F9C2A0"/>
<path transform="translate(1626,833)" d="m0 0 5 2 1 16-2-2-4-13z" fill="#C5D1F9"/>
<path transform="translate(1373,699)" d="m0 0h1v12l-1 13-3-1v-10h2z" fill="#F1F8FE"/>
<path transform="translate(828,648)" d="m0 0 3 1 2 6-1 5h-3l-1-5z" fill="#B7CAFD"/>
<path transform="translate(511,1206)" d="m0 0 1 3-2 3-10 2 2-5z" fill="#859FF9"/>
<path transform="translate(1137,294)" d="m0 0h2l1 10-5 6-6 2 5-5 3-4z" fill="#410D19"/>
<path transform="translate(945,288)" d="m0 0 4 3 2 2-1 7-3 3z" fill="#4A254A"/>
<path transform="translate(838,296)" d="m0 0h2v6l-5 5-4-1 6-7z" fill="#3F0D19"/>
<path transform="translate(1688,636)" d="m0 0 3 2v4l-9 2 2-5z" fill="#F8F9FD"/>
<path transform="translate(411,446)" d="m0 0h5l-1 3-3 3-2 5-2-1v-8z" fill="#FAFAFB"/>
<path transform="translate(1127,294)" d="m0 0 4 1-1 3 4 1 1-2v4l-7 2v-3l-2-1z" fill="#B7C9FD"/>
<path transform="translate(1147,284)" d="m0 0 8 2-1 4-5 1-1 5h-1z" fill="#736A9A"/>
<path transform="translate(747,643)" d="m0 0 3 2v7l-4 1-1-1v-8z" fill="#CEDBFC"/>
<path transform="translate(989,645)" d="m0 0h3l-1 4v9l5-1 2-2-1 5-7 1-1-1z" fill="#7F9DFD"/>
<path transform="translate(1092,222)" d="m0 0h7l3 3-2 3-6-1z" fill="#E2E4F6"/>
<path transform="translate(1156,218)" d="m0 0h3l4 7-1 2h-4v-3h-2l-1-5z" fill="#ABBFFC"/>
<path transform="translate(1430,1147)" d="m0 0h6l-2 11-3-3z" fill="#F2F8FE"/>
<path transform="translate(404,714)" d="m0 0 1 2h6l-3 2-6 2-6-1v-3h6z" fill="#B2C6FD"/>
<path transform="translate(462,609)" d="m0 0 3 1 5 5 1 5h-3l-6-8z" fill="#F1F6FD"/>
<path transform="translate(666,209)" d="m0 0h1l1 13 2 4 3 4-1 3-5-6-2-12z" fill="#EFF5FD"/>
<path transform="translate(849,292)" d="m0 0 3 2v11h-2l-2-7z" fill="#BFD0FC"/>
<path transform="translate(752,211)" d="m0 0 1 2 7 1-1 2-8 2-2 4-1-3z" fill="#94ADFC"/>
<path transform="translate(303,823)" d="m0 0h1l1 15v11l-2-1-1-9z" fill="#7D9CFD"/>
<path transform="translate(374,765)" d="m0 0h3l5 6 1 4-5-2-4-5z" fill="#E2E4F6"/>
<path transform="translate(1027,641)" d="m0 0 14 1v2h-11l-4 5v-7z" fill="#527BFE"/>
<path transform="translate(964,297)" d="m0 0 2 4v6l-1 2h-2l-2-9z" fill="#B1C5FC"/>
<path transform="translate(1288,580)" d="m0 0h1l-1 12-2 5-2-1 2-10z" fill="#F1F8FE"/>
<path transform="translate(1292,215)" d="m0 0 4 2-1 5-4 1-2-5z" fill="#D6DCF7"/>
<path transform="translate(704,207)" d="m0 0 5 3v8l-3 3-1-10z" fill="#8AA5FC"/>
<path transform="translate(420,1164)" d="m0 0 5 1-2 7h-2l-1 2z" fill="#F0F7FD"/>
<path transform="translate(1747,866)" d="m0 0 2 2v24h-1l-1-20-1-5z" fill="#FBC09A"/>
<path transform="translate(979,655)" d="m0 0 2 2 3 5v5h-3l-2-5z" fill="#FBFCFE"/>
<path transform="translate(939,295)" d="m0 0h1v9l-1 5h-2v-12h2z" fill="#E1E9FB"/>
<path transform="translate(902,222)" d="m0 0h7l1 4-3 1-1 2-4-6z" fill="#CDD7F9"/>
<path transform="translate(803,646)" d="m0 0h1l1 17-1-4-3-1 1-5z" fill="#D3DBF8"/>
<path transform="translate(665,607)" d="m0 0h5v4l-6 6z" fill="#4F79FF"/>
<path transform="translate(931,520)" d="m0 0 5 5 3 5v2l-4-2-4-7z" fill="#F4F7FD"/>
<path transform="translate(800,225)" d="m0 0 2 3-5 4h-6v-2h5l1-3z" fill="#D5DCF8"/>
<path transform="translate(1048,288)" d="m0 0h2v12h-4l1-7z" fill="#7972A1"/>
<path transform="translate(1246,219)" d="m0 0 5 1v2l-6 3h-2l-1-4z" fill="#BFD0FD"/>
<path transform="translate(406,1208)" d="m0 0 1 2 5 1-4 3-8 1 4-4h2z" fill="#BBCDFD"/>
<path transform="translate(1043,635)" d="m0 0h1l1 14-3-1-3-4h2z" fill="#D6E1FC"/>
<path transform="translate(1015,279)" d="m0 0h2l1 3-3 1v8l-2 1v-12z" fill="#A4BBFD"/>
<path transform="translate(1245,228)" d="m0 0h5l-1 3-8 1-1-3z" fill="#DAE4FC"/>
<path transform="translate(761,214)" d="m0 0h4l1 8-2 1-1-6-4 2z" fill="#7D9BFD"/>
<path transform="translate(1030,208)" d="m0 0 4 4 1 3-2 2h-3z" fill="#D0D9F8"/>
<path transform="translate(393,1207)" d="m0 0h12v3h-10l-2-1z" fill="#67141D"/>
<path transform="translate(314,1180)" d="m0 0 1 3v8l2 6h-4v-15z" fill="#8FA9FD"/>
<path transform="translate(377,765)" d="m0 0 7 6 3 2v3h-4l-3-6-3-3z" fill="#EED2C8"/>
<path transform="translate(357,474)" d="m0 0 2 4v8l-4-4 1-5z" fill="#6D151E"/>
<path transform="translate(997,298)" d="m0 0h3v7l4-1-1 2h-5l-1-1z" fill="#8EA1ED"/>
<path transform="translate(826,287)" d="m0 0h3v5l-3 3h-2l1-6z" fill="#4B0F1A"/>
<path transform="translate(1313,416)" d="m0 0 12 1v1l-12 1-1 5-1-4z" fill="#D4DFFC"/>
<path transform="translate(855,302)" d="m0 0 3 2-2 4-6-1z" fill="#7D698F"/>
<path transform="translate(941,301)" d="m0 0 3 4-2 4-5 1 2-1 1-5z" fill="#998AA6"/>
<path transform="translate(313,1161)" d="m0 0 4 1h-3l3 7-1 5-2-3z" fill="#EEF4FC"/>
<path transform="translate(971,1049)" d="m0 0 2 2-1 5-5 3-2-4 4 1z" fill="#E2E4F6"/>
<path transform="translate(876,659)" d="m0 0 3 2v2l4 1-2 2-5-1z" fill="#FAFBFE"/>
<path transform="translate(389,615)" d="m0 0 2 1-6 8-1 2h-2l2-7h3v-3z" fill="#EED2C8"/>
<path transform="translate(997,286)" d="m0 0h4v6h-3-2z" fill="#54111B"/>
<path transform="translate(1208,219)" d="m0 0 9 4v2h-6l-3-3z" fill="#8EA9FD"/>
</svg>
