<?xml version="1.0" encoding="UTF-8"?>
<svg version="1.1" viewBox="0 0 2048 1449" width="267" height="189" xmlns="http://www.w3.org/2000/svg">
<path transform="translate(0)" d="m0 0h2048v1449h-2048z" fill="#070707"/>
<path transform="translate(0)" d="m0 0h2048v1449h-341l2-8v-7l-3-11 1-82 1-7v-2l-14 8h-4l1-4 5-4 8-10 7-11 9-10 6-10 4-9 1-1h7l5 2 6-1 12-6 9-5 7-6 7-12 3-12v-15l-2-3v-7l1-1 14-2 11-6 4-4 6-3 11-7 7-5 1-5-6-6 1-4 19-7 14-6 30-15 8-5 7-3 15-9 13-9 12-9 11-10v-7l-6-10-9-10-9-11-23-23-14-11-12-10-13-10-14-11-10-7-15-10-13-8-11-6-13-8-12-7-4-4-1-8 1-10v-8l4-5 3-7 4-4 4-3 3-18 5-21 4-22v-12l-4-8-6-7 1-13v-17l5-5 1-22 2-5 6-1 5 2 4 2 9-5 13-9 14-12 8-7 9-11 6-8 4-8 1-4v-29l-4-16-3-10-8-16-7-11-8-6-3-1h-9l-11 1-1-5 1-4 2-18 4-11 1-13 3-18 1-3v-10l-8-16-6-10-10-13-11-12-21-21-11-9-10-9-10-8-13-10-18-13-19-14-15-9-13-9-11-7-15-10-10-5 4 5 8 7 13 11 10 10v2l-12-3-24-10-18-6-25-7-22-5-31-4h-18l-4 1h-18l-12 3-8 4h-2v2l7-1h24l9 3 26 3 3 1v2l-6 1-49 3-8 2-8 3-13 2-16 6-25 12-12 8-15 12-9 7-9 14-11 26-11 33-9 41-4-1-10-5h-10l-6 3-10 10-10 16-6 12-5 16-1 6v17l6 20 10 21 13 17 3 3 1 3v14l-5 30-1 2-2 16-6 25h-2l-2 6-6 9-3 8-12 30-1 8 6 17 1 5v7l-3 6-1 3-2 14-2 7-5 3-12 4-9 4-20 6h-3l-1-4 1-307v-215l-4-11-6-11-9-10-6-4-11-2-126-1-14-8-10-6-25-16-25-17-43-29-17-11-23-15-44-29-16-11-43-29-44-29-34-23-10-7-69-46-2-3-2-6-3-5-2-1 3 9-1 4-3 4-8-6-5 1-2 4-16 10-23 16-17 12-81 54-16 11-15 10-17 11-44 29-43 29-16 10-13 9-12 8-20 14-15 10-17 11-24 15-21 14-5 2-127 1-11 4-10 7-8 9-5 9-1 4v713l1 91 2 17 3 9 10 11 12 6 12 2h1105l9-2 10-5 6-5 6-10 4-14 1-7v-49l3 3 9 19 10 17 12 15 11 16 8 16 7 20 5 11 8 23 3 8 4 11 6 19 6 21 5 16 6 19 7 24 11 42 4 13 2 9v5h-1365z" fill="#FCFDFD"/>
<path transform="translate(556,412)" d="m0 0h575l12 2 9 4 4 5 2 8 1 9 1 281v86l-1 42-1 20-3 12-4-1-14-8-40-21h-5l-2 6-4-1-16-13-19-13-13-10-7-5-4 1-5 5-5 10-3-1-6-9-6-11-18-30-24-42-8-13-7-12-9-16-8-14v-2h-2l-9-17-3-5-9-16-20-34-6-11-7-11-6-11-6-10-7-11-5-8-9-14-9-10-5-3 9 16 7 11 6 9 10 18 6 9 4 8 5 9 10 17 6 11v2h2l7 14 6 10v2h2l1 5h2l5 10v2h2l7 14 6 9 1 5h2l5 9v3h2l3 9h2l8 16v2h2l4 8 12 22 12 21v2h2l1 5h2l7 14v2h2l6 12v2h2l6 10 2 7h2l15 25 8 16 9 14 4 9 2 6 3 1 3 8 8 13 9 16 5 8 1 9-2 1-8-7-10-18-9-16-11-22-11-23-16-26-5-4-6-12-14-24-18-32v-2h-2l-8-16-9-16v-2h-2l-2-7h-2l-6-12-11-20v-2h-2l-3-7-14-24-12-22-11-19-7-12v-2h-2l-8-16-12-22-6-10-18-32-6-12-3-7h-1v7l4 8 5 13v3h2l10 19 2 6 5 8 11 20 12 21 1 3 3 3 3 7 12 22 4 7 2 6 4 4 2 6h2l4 9v3h2l16 30 5 6v2h2l2 7 16 29 13 24 10 17 8 14 10 18 6 8-2 4-13 7 8-1 17 1 1 3 4 4 3 5v3l-5 2-12 5h-3v2l-2 1-1 4-7 2v2l19-4 11-4 5 1 3 6-1 6-4 2v3l8-1 4 3 6 16-1 4 5 5 3 6v2h2l5 9 8 15 7 8 2 1 11-1 5-5 2-12 2-2 8 1 8 3 1 3 4 1h9l4-6 7-1 10 4 13 4 3 4 2 16-1 47v42l-1 32-2 16-3 9-5 3-3 1-18 1h-145l-1 4-6 1-95-1-3-2 1-7-10 2-159 1h-227l-107 1h-219l-12-2-5-3-2-4-1-22 1-113v-202l-1-42v-321l2-6 4-5 8-2 9-1h256z" fill="#3A9FA1"/>
<path transform="translate(650,40)" d="m0 0 4 2 3 5 2 8 4 2 11 7 54 36 19 13 43 29 44 29 25 17 43 29 17 11 23 15 44 29 16 11 36 24 14 9 10 6 14 8 126 1 11 2 9 7 7 8 8 15 2 7v215l-1 307 1 5-5-1-1-16v-14l1-21-1-18-2-17-2-11-1-14-5-16-8-4-5-10v-2h-2l-5-11-3-12-1-1-2 7-4 2-2 6-4 8h-2l-1 11-2 7-1 68-1 52 5 5 9 3-4 1-19-7v-490l-137 1-170 3-94 1h-186l-129-1-142-2-151-1h-38l1 39v97l-1 247-1 358 189-1h460l56 1 32 1 17 1h234l46 1 19 4v3l-19 1h-28l-298-2h-227l-217 1h-265l-4-1-1-2-1-22v-110l-1-162-1-64-4-4-1-4-8-3 2-6-8-1-3-3v-5h-4v-2l-3-1-4-8-3-5-3-14-2-3-3-16-3-7-1-1-2 6h-2v14l-1 8-1 29-1 4-1 103-1 204h-1v-713l4-10 7-9 9-8 12-6 4-1 127-1 8-4 15-10 38-24 15-10 29-20 33-22 44-29 43-29 16-10 21-14 13-9 66-44 28-19 17-12 27-18 4-4 4-1 2-2v3l5 2 2 2 3-4z" fill="#907D47"/>
<path transform="translate(1528,380)" d="m0 0h51l33 4 22 4 24 7 24 10 29 14 20 11 19 12 17 12 3 2v2l5 2 5 5 10 8 5 5 5 4 5 5 15 16 2 4h2l9 15 1 5v7l-2 12-4 16-6 28-6 26-9 11-7 6-1 2h-2l-2 4-8 13-2 4h-2l-2 6-3 6 4-2h3l1-5 6-7 8-7 4-5 8-7 4-1 3-4 7-3 8-4 8-2h14l9 10 8 16 3 11 1 7v20l-9 16-7 9-6 7-8 7-11 9-7 4-5 3h-12l-7-2-5-5-6-5-4-6-4-3v7l7 15v22l-8 54-1 12-9 6-12 7-23 11-26 11-27 10-21 7-41 11-35 7-23 3-38 3h-30l-32-3-12-3-9-4v-2l-7-2-6-3v-2l-5-1-11-7v-2l-5-2-2-1v-2l-4-2-11-9-15-14-20-20-4-5-8-8v-3l-3-1-4-7-10-16-5-11v-12l10-56 9-48 3-21 4-22h2l1-11 2-12 2-7 3-20 3-12 2-13 3-12 7-34 3-16 4-15 5-22 5-10 2-5 6-7 3-3h3v-2l17-8 10-5 17-6 11-4 21-5 10-2 25-4z" fill="#FDE1B6"/>
<path transform="translate(124,402)" d="m0 0h38l151 1 142 2 129 1h186l94-1 170-3h137l1 61v402l-1 26-8-3-10-6 2-1 2-12 1-23 1-51v-92l-1-266-2-11-3-6-7-4-6-2-14-1h-570l-165 1h-232l-13 2-5 2-3 4-1 9v328l1 40v198l-1 109 1 21 3 5 7 2 8 1h219l110-1h233l150-1 11-2-1 8 2 1 101 1 1-4 6-1h146l11-1 7-3 3-9 2-16 1-45v-41l1-35-2-16-1-3 17 4 8 4 31 6h52l-2 17-9 49-7 40-2 5-2 17-1 16-2-2v48l-3 14-4 11-7 9-5 4-12 5-13 1h-1098l-12-2-12-6-8-8-4-6-3-12-1-12v-295l1-103 1-4 1-32 1-9 1-10h2l1-7 5 5 3 12 2 10 2 7 3 10 6 10 2 4h4v5l3 1v2l4-1 4 2-1 4-1 2 6 1 3 2 1 6 4 2 1 64 1 168v104l1 24h269l217-1h229l168 1 128 1h28l19-1v-1l-19-4-46-1h-234l-17-1-32-1-56-1h-649v-383l1-246v-73l-1-39z" fill="#6C4F06"/>
<path transform="translate(643,59)" d="m0 0h8l13 5 18 12 16 11 23 16 15 10 43 29 22 14 37 25 22 15 19 13 12 8 43 29 44 29 16 11 22 14 45 30v1l-14 1h-730l-68-1-16-1 3-3 13-7 19-12 15-11 12-8 43-29 15-10 38-26 43-29 19-12 11-8 14-9 11-8 26-17 12-8 13-9 24-16 19-13 32-21 18-12 9-2z" fill="#FCFDFD"/>
<path transform="translate(1769,928)" d="m0 0h5l-1 10-10 7 13 9 33 22 38 26 20 15 13 10 16 13 10 8 12 11 7 8 8 9 9 12 2 5-1 4-4 5-13 10-22 14-22 12-19 10-28 13-8 3-5-2-11-11-14-16-6-5 1-4 8-11 10-10 7-8 10-10 4-5 5-4 1-3-4-2-9 1-8 6-9-1-13-8-24-16-11-7-9-6-5-2 3 10 3 4v2l4 2 7 6 2 5v11l-2 41-4 5-14 9-17 14-9 7-3 5h3l1 6-7 6-17 11-8 7-6 12-2 10-1 29-7 2-16 2-38 2h-26l-38-2-24-2-48-7-33-7-12-2v-4l10-9 11-9 6-8 2-4 3-28 5-57 4-64 2-37 1-45 3-5 4-1 5 6 11 22v2h2l3 7 7 15 7 16 4 9v2l10-2 18-7 11-3 23-8 16-6h3v-2l17-6 31-14 23-10 15-7 23-12 2-2 7-3 14-8 7-5 12-6z" fill="#FCFDFD"/>
<path transform="translate(556,412)" d="m0 0h575l12 2 9 4 4 5 2 8 1 9 1 281v86l-1 42-1 20-3 12-4-1-14-8-40-21h-5l-2 6-4-1-16-13-19-13-8-6 4-3 5 2 6 4v-2l10 1 5 2 3 2 2-2-1-2 7 2 6-2h7l4 2v2l4 2 7 4 4 3 6 2 1 4 4 2 7 4 2 1 1-8 1-25v-42l-1-36 1-9v-34l1-44v-168l-2-23-2-10v-3h-2l-2-7-9-5-14-3-38-3h-11l-15-1-30-1-15-1h-12l-4-1-43-1h-16l-33-1h-476l-41 1h-30l-20 1-6 1h-6l-6 1-16 1h-19l-11 1-30 1h-66l-3 3-2 18-2 39-1 79 1 14v16l1 32v70l-1 17-2 58-1 45v15l-1 48v17l-1 37v55l1 34 1 13 1 26 1 3v12h2l3 6 3-1 5 2 2-2h8l4 3 6 3 3 3 5 1v2l13 2 16 3 1 1 21 2h16l11 1h17l33-1 7 1 26-1h23l9 2 7-2 12 2 6-1 10 1h14l9 1h38l6-1 12 3v-2l4-2 11-1 5 1 4-1 1 3 13-1 10 2h38l10-1 6-2 6 1v-2l12-2h14v2l9-3 7-1 23 2 8 1h5l5 1 8-2 3 1 6-2h19l5 1h11l8 1 16 1 3 1h7l10-2 7 1 9-1 7-1 5-1 10-1 8 2 18 1v2l12-1 34 1h24l11-1 7-2 4 1h16l9 2v2l2 1h29l5 1 24-2 21-1 11-3 14-3 10-1h14l11-3 6-3 8-1 4-6 2-6 3-20 2-16 1-17 1-28-2-17-3-9-5-2-12-1h-7l-9-5-8-6h-2l-3 7-1-3 1-9 2-2 8 1 8 3 1 3 4 1h9l4-6 7-1 10 4 13 4 3 4 2 16-1 47v42l-1 32-2 16-3 9-5 3-3 1-18 1h-145l-1 4-6 1-95-1-3-2 1-7-10 2-159 1h-227l-107 1h-219l-12-2-5-3-2-4-1-22 1-113v-202l-1-42v-321l2-6 4-5 8-2 9-1h256z" fill="#2E9294"/>
<path transform="translate(1528,380)" d="m0 0h51l33 4 22 4 24 7 24 10 29 14 20 11 19 12 17 12 3 2v2l5 2 5 5 10 8 5 5 5 4 5 5 15 16 2 4h2l9 15v6l-4 1-6-10-6-12-5-5-9-10-13-12-5-5-9-7-5-5-10-8-8-6-6-2-12-2-20-5-21-8-17-7-10-4-24-9-17-4-27-4-24-2h-24l-45 4-17 3-12 4-5 4-3 5-9 5 1 5 5 5 6 5 2 4v8l-6 5-15 2-3 2-2 4-12-3-7 1-6 3-4-1 2-4 3-1 1-4 6-5 5-5 4-3h6l12 6 11 2 1-3-3-1-5-5v-2l-5-2v-2l-5-2-4-2v-2l-4-1h-8l-5 5-5 9-8 16v6l-5 3-4 3-7 2-1 2v7l6 5-1 4-1 5h6l1-6h2v-2l12-6 14-4 9-2 15 5 8 4 9 5 12 13 9 16 7 10 6 3 15 3 16 3h10l15-7 11-7 13-12 11-7 20-7 7-1h13l12 3 18 6 5 2 1-2-6-9-8-5-3-5-2-7-5-4-1-4 6-1 23 4 8 4 6 9 4 9 5 15 2 9v12l-2 4-6 3-7 1v7l2 18 1 16 2 10v10l-2 12-5 13-8 10-2 3h-2l-2 4-9 7-15 8-8 2h-20l-21-4-16-8-13-11-5-8-6-7-5-9-7-10-5-14-5-5-8-5-8-3h-10l-10 5-6 10-5 6-1 6 1 3-2 4-16 8-13 9-11 9-6 10-1 6v9l5 8 9 7 12 6 16 5 10 2 1 2h-2v2h-10l-13-3h-12l-5 2-11-2-4-4-6-2-1 3-7-2 4 7 8 10 9 10 17 10 19 8 8 3v1l-9-1-13-4-9-4-18-10-4-4-3-1-5-5-5-3-5-5-11-15-2-1v-7l4-2v6l7-2 4-1h7l2-2 2-7 2-5 3-27-1-6-4-4v-3l-10-3-18-5-12-8-7-7v-2l-5-2-5 1-7 18-6 23-7 28-8 28-3 15-4 36v16l3 22 4 11 10 12 8 11 7 8 5 5 8 9 5 9 6 7 7 9 8 8 10 5 5 6-4 1-11-7v-2l-5-2-2-1v-2l-4-2-11-9-15-14-20-20-4-5-8-8v-3l-3-1-4-7-10-16-5-11v-12l10-56 9-48 3-21 4-22h2l1-11 2-12 2-7 3-20 3-12 2-13 3-12 7-34 3-16 4-15 5-22 5-10 2-5 6-7 3-3h3v-2l17-8 10-5 17-6 11-4 21-5 10-2 25-4z" fill="#FDECC2"/>
<path transform="translate(124,402)" d="m0 0h38l151 1 142 2 129 1h186l94-1 170-3h137l1 61v402l-1 26-8-3-10-6 2-1 2-12 1-23 1-51v-92l-1-266-2-11-3-6-7-4-6-2-14-1h-570l-165 1h-232l-13 2-5 2-3 4-1 9v328l1 40v198l-1 109 1 21 3 5 7 2 8 1h219l110-1h233l150-1 11-2-1 8 2 1 101 1 1-4 6-1h146l11-1 7-3 3-9 2-16 1-45v-41l1-35-2-16-1-3 17 4v131l-1 44-8-1h-115l-64 1h-78l-33-2h-751v-383l1-246v-73l-1-39z" fill="#283C34"/>
<path transform="translate(1301,874)" d="m0 0 4 4 7 20 6 14 7 16 8 18 11 23 8 15 6 10 5-1 9-9 8-6 17-13 10-7 8-6 3-1 2-4 5-3h3v7l-3 12-3 7-6 15-18 46-4 10-6 16-3 10-5 10-3 10-5 11-3 8-4 11-1 5h-2l-1 8-4 10-3 10-4 9v10l2 5 1 8 3 9 1 11-7-1-13-6-16-8-17-9-11-7-13-10-12-11-11-15-4-11 2-19 8-50 17-87 8-41 4-15 6-24z" fill="#FCFDFD"/>
<path transform="translate(1437,487)" d="m0 0h22l11 4 9 6 5 6 7 10 5 13 2 10v12l4-2 6-1h19l23 4 10 4 5 3 1 2 7 3 3-9 5-11 7-10 4-5 10-8 8-5 9-3 8-1h12l9 2 9 3 5 2 4 4 6 4 11 12 6 13 3 11 1 16-2 15-5 15-3 6h-2l-2 5-8 10-5 5h-2v2l-9 6-7 1v2l-6 2h-23l-13-4-9-6-5-3-5-6-7-10-6-15-2-10-1-13-4-3-16-6-10-4-6-2-9-1h-19l-10 2-4 5-3 6-7 10-8 10-4 1-1 3-10 5-14 2h-15l-12-6-12-11-6-9-6-16-1-7v-18l3-15 8-16 10-11 11-7z" fill="#0F0D08"/>
<path transform="translate(1798,836)" d="m0 0h1l-1 13-4 27-3 13-1 5-26 20-13 9-26 16-18 10-23 12-31 15-38 16-40 15-35 12-4-1-6-9-24-48-10-19-9-17-4-7 1-2 16 1h44l35-3 30-5 11-3 16-3 34-9 36-12 15-6 26-11 17-8 20-11 9-7z" fill="#FCFDFD"/>
<path transform="translate(556,412)" d="m0 0h575l12 2 9 4 4 5 2 8 1 9 1 281v86l-1 42-1 20-3 12-4-1-9-5 5-13 2-26 1-23v-46l1-8v-267l-1-2v-32l-2-15-5-13v-2l-4-2-8-3-9-1h-16l-27-1h-140l-15-1-25 1-18-1h-97l-46-1h-24l-57-1h-10l-8-1-5 1h-125l-26 1-44 1h-208l-64 1-7 1-2 5h-2l-2 4-5 6-2 7-2 59-1 34v166l1 45v83l1 97v166l3 14 3 9 5 8 7 2 15 1h31l69 1 269-1h200l39 1h70l26-1v2l-9 3-6 1-159 1h-227l-107 1h-219l-12-2-5-3-2-4-1-22 1-113v-202l-1-42v-321l2-6 4-5 8-2 9-1h256z" fill="#236867"/>
<path transform="translate(1436,958)" d="m0 0 10 2 8 3 10 3v2l4 1 2 2-1 15-2 27-9 82-6 52-4 40-2 6-6 4-2 3h-2v2l-5 3h-2l-1 3-4 1-1 3-3 1-1 2-3 1-1 2-3 1-3 3h-2l-1 3h-3v2l-4 1v2h-3l-1 3-6 3-2 3-3-1v-4h-2l-5-12-5-16-7-22v-28l4-14 3-8 5-13 2-7 3-9 3-6 2-8h2l1-8 6-17h2l1-8 9-25 3-9 7-20 7-19 8-19z" fill="#FA4309"/>
<path transform="translate(639,416)" d="m0 0 10 1h23l56 1h22l41 1h94l15 1 25-1 15 1h148l28 1h9l9 2 6 3 4 4 5 13 2 15v33l1 2v267l-1 13v41l-2 40-2 11-4 9-4-1-3-3 6-9 1-19 1-57v-23l-1-109v-188l-2-17-2-7-3-6-3-3-9-3-17-1-11-1-29-1-38-1h-126l-41-1h-158l-11-1h-231l-9 1h-51l-25 1h-113l-42 1h-37l-19 1-6 3-2 11-3 21v11l-1 9-2 24v49l1 19v30l-1 22v134l-1 25-1 24v64l-1 29v105l1 49v28l2 17 2 9 3 1 4 4 3 2 16 3 12 1 36 1 18 1h15l11 1 9-1h14l4 1 20-1 3 1 13-1h14l6 1 8-1h37l9 1h44l2 1 9-1 6 1 27-1h57l19-1h154l14 1 4-1v2l4-1h94l27 1 10 2 1 2-24 1h-70l-52-1h-208l-249 1-86-1h-17l-15-2-5-3-7-14-2-10-1-12v-179l-1-91v-81l-1-45v-156l1-40 2-52 3-9 7-8h2l2-5 9-2 64-1h210l50-1 23-1h122z" fill="#2A8382"/>
<path transform="translate(247,578)" d="m0 0h4l3 5v7h24l19 2 11 4 28 6 1-18 7-3 5 2 3 5 6 17 1 5 2 24 3 8 5 5 9-2 11-6 11-9 5-3 2-4 2-22 3-5 1-1h7l5 3 1 2-1 15-8 48-2 18v30l4 11 3 5v5l-5 3-7-1-5-5-4-11-1-5v-24l5-43-13 9-11 8-6 2h-12l-11-4v28l-2 9-4 4h-6l-4-5v-17l1-23v-39l-1-4-32-7-5-1v12l-7 38-4 30-3 31-2 5-1 1-7-1v-19l5-41 4-43 2-9 1-3h-7l-26 6-2 1-5 70v29l2 12-1 10-1 1h-7l-2-2-3-14v-42l1-12-20 3-15 1v53l-3 3-7-1-2-3-1-61-2-6v-32l1-34 3-6 5-3 6 1 1 1v56l7 8 8 5 10 1 9-1 3-21 4-46z" fill="#FBFCFC"/>
<path transform="translate(1313,784)" d="m0 0 4 1 9 17 13 17 9 10 7 8 11 12 8 8 8 6 11 9 15 11 24 14 17 8 2 3-13 10-16 13-14 11-17 13-11 8-14 9h-5l-4-5-16-31-14-32-10-26-12-36-4-16v-12l8-20z" fill="#FCFDFD"/>
<path transform="translate(1172,972)" d="m0 0 5 1 3 16v64l-1 95 1 6-6 3h-212l-127-1-73-1v3l14 1 4-1 4 3 1 5h-2l1 5-1 1h-6l-5-1v2l-14 3-4 1-6-1-6 2-21 1v2h-18l-7 2-11-1-1 1-8 1-13-1-1 1h-7l-5 1-7-1-6 1-10-2-11 1-7-1h-11l-14-2-18-3-6 1-3-2-11-2h-11l-10-3-2-4 3-5 6-1 5-1 11-2h10l5-3-443-1v-2h267l217-1h229l168 1 128 1h28l19-1v-1l-19-4-46-1h-234l-17-1-32-1-56-1v-1h102l33 2h78l64-1h115l8 2z" fill="#835D0F"/>
<path transform="translate(312,1143)" d="m0 0h460l56 1 32 1 17 1h234l46 1 19 4v3l-19 1h-28l-298-2h-227l-217 1h-265l-3-2 1-5 4-2 158-1z" fill="#DEBD81"/>
<path transform="translate(579,414)" d="m0 0h181l25 1h57l20 1h104l11 1h26l44-1h75l13 2 7 3v2l3 1 7 10 2 8 2 27v212l-1 45v97l-1 37-2 11-2 5-5 1-3-3 5-12 2-26 1-23v-46l1-8v-267l-1-2v-32l-2-15-5-13v-2l-4-2-8-3-9-1h-16l-27-1h-140l-15-1-25 1-18-1h-97l-46-1h-24l-57-1h-10l-8-1-5 1h-125l-26 1-44 1h-208l-64 1-7 1-2 5h-2l-2 4-5 6-2 7-2 59-1 34v166l1 45v83l1 97v166l3 14 3 9 5 8 7 2 15 1h31l69 1 269-1h123l-2 2-10 1h-210l-21 1-19-1-22 1h-223l-9-2-5-3-5-10-2-9-1-35v-213l-1-92-1-60v-211l1-45v-13l2-10 8-6 6-3 7-4h40l65-1 53 1h120l46-1h32z" fill="#277573"/>
<path transform="translate(1275,896)" d="m0 0h5l-1 10-8 40-3 14-2 4-29 7-8 1h-16l-10-1-18-5-25-7-25-8-3-2 1-5 4-8 10-27 4-10 1-1 8 1 15 6 24 7 14 2 19-5 17-5 15-4z" fill="#FCFDFD"/>
<path transform="translate(616,632)" d="m0 0h10l6 4 2 4v11l-3 9-9 10-8 4-3-3-1-9-1-4-6 1-3 3-6 13-2 6v17l4 6 6 3h8l18-6 6-4 3-7 5-17 5-12 6-8 10-7 9-5 7-2h8l11 2 9 6 6 9 1 5v10l-4 16-5 9-12 12-12 9-9 4-15 4h-9l-4-5-2-8-7 3-10 5-15 6-11 1-9-3-8-7-5-8-2-6-1-14 3-16 7-16 8-11 10-8 8-4z" fill="#FCFDFC"/>
<path transform="translate(1198,728)" d="m0 0 4 4 2 10 4 9v2h2l4 8v2l2 1 4 3 4 2 5 16 1 14 3 21 1 14 1 13-1 29v9l1 11 2 2-13 4-6 1h-10l-14-3v-2l-9-2-5-4-1-5 1-56 1-61 2-7 1-9 1-2h2l1-4 5-10 4-4z" fill="#6C4F06"/>
<path transform="translate(462,422)" d="m0 0h232l15 1h164l43 1h114l47 1 25 1 10 1 12 1 10 4 4 4 3 6 2 14 1 17v198l1 92v23l-1 56-1 19-6 9-6-1-19-10-15-8h-5l-2 6-4-1-16-13-19-13-8-6 4-3 5 2 6 4v-2l10 1 5 2 3 2 2-2-1-2 7 2 6-2h7l4 2v2l4 2 7 4 4 3 6 2 1 4 4 2 7 4 2 1 1-8 1-25v-42l-1-36 1-9v-34l1-44v-168l-2-23-2-10v-3h-2l-2-7-9-5-14-3-38-3h-11l-15-1-30-1-15-1h-12l-4-1-43-1h-16l-33-1h-476l-41 1h-30l-20 1-6 1h-6l-6 1-16 1h-19l-11 1-30 1h-66l-3 3h-2v-6l4-3 7-1 19-1h45l42-1h111l22-1h45z" fill="#2D9193"/>
<path transform="translate(1623,526)" d="m0 0h16l8 3 13 8 7 9 5 10 3 10v23l-5 12-3 7-4 4-7 8-11 7-6 3-13 1-9-2-11-6-8-7-7-14-3-10v-24l4-13 6-12 8-8 14-8z" fill="#FBFBF9"/>
<path transform="translate(124,539)" d="m0 0h1v165h2v11l1 5 1 34v39l-1 58v36l1 84 2 49v85l-1 15 1 11 2 5 7 2 15 1h56l53-1 93-1 48-1 105-1h103l116 2h33l13 1h8l12 1 8-1 7 2v2l-5 1-493 1h-189v-383z" fill="#161F1D"/>
<path transform="translate(956,408)" d="m0 0h71l20 1h13l24-1h15l36 1 15 3 8 5 4 6 2 21v33l-1 73v312l-2 18-1 5-5-2-2-2h2l2-12 1-23 1-51v-92l-1-266-2-11-3-6-7-4-6-2-14-1h-570l-165 1h-232l-13 2-5 2-3 4-1 9v328l1 40v198l-1 109 1 21 3 5 7 2 8 1 48 1v1h-53l-13-2-2-1-1-3-1-23 1-37v-115l-1-106v-20l-1-55v-45l-1-68v-81l1-52v-37l-1-67 1-9 3-3 7-2 17-1h748l12-1z" fill="#355144"/>
<path transform="translate(1727,1172)" d="m0 0 9 3 5 3v2l5 2 16 12 11 7 2 5-1 7-5 10-10 13-8 10-4 8 12-5 3-1v-2l4-1v-2l6-5 4-4h3l-1 8-8 14-9 9-11 6-11-1-10-3-8-4-5-2-9-6v-2l-5-2-7-8-4-7v-3h-2v-24l7-12 10-9 4-2 2-3h3v-2l9-6z" fill="#FDEBC1"/>
<path transform="translate(1439,501)" d="m0 0h16l11 6 7 6 8 14 2 7v22l-5 12-7 11-8 8-12 6h-17l-9-5-8-8-6-10-3-11v-25l3-8 4-8 7-8 5-2v-2l8-4z" fill="#FAFAF8"/>
<path transform="translate(1732,969)" d="m0 0 4 1 8 11 6 16 3 7 5 12 1 1v16l-5 4h-8l1 3h-2l3 10 3 4v2l4 2 7 6 2 5v11l-2 41-4 5-14 9-17 14-9 7-3 5 3 1-5 2v-4l-5 3-3-1 5-15 11-62 3-15 5-39 4-24 2-9-2-22-2-6z" fill="#F1F2EF"/>
<path transform="translate(1091,957)" d="m0 0 8 1 8 3 1 3 4 1h9l4-6 7-1 10 4 13 4 3 4 2 16-1 47v42l-1 32-2 16-3 9-5 3-3 1-18 1h-144l-3-8-1-3 14-3 38-2h17l24-1 31-2 14-1 16-4 6-5 3-14 2-24 1-37 1-28-1-27-5-8-7-3-6 1-8 3h-7l-9-5-3-4v-2l-10-1z" fill="#236867"/>
<path transform="translate(783,587)" d="m0 0 5 1 2 3v15l-6 37-3 33v15l3 13 5 11-1 5-6 2-6-3-6-14-3-12-16 21-7 7-8 5-3 1h-7l-5-3-4-9-2-8v-17l4-23 3-10 5-9 7-6 8-2 10 3 9 6 6 6 2-9 5-33 5-20z" fill="#FCFDFC"/>
<path transform="translate(650,40)" d="m0 0 4 2 3 5 2 8 4 2 11 7 54 36 19 13 43 29 44 29 25 17 43 29 17 11 23 15 44 29 16 11 34 23 1 2-5-2-13-8-11-8-41-27-48-32-17-11-16-10-17-12h-2l12 8 19 13 36 24 11 7 11 8 16 10 10 7 11 7 39 26 16 11 5 5-5-2-16-10-27-18-20-13-43-29-44-29-13-9-25-17-16-11-54-36-44-29-20-14-15-10-23-16-21-14-12-6-6-2-1 2v-2l-15 4-18 12-29 19-19 13-30 20-13 9-45 30-10 7-30 20-44 29-14 10-24 16-10 7-33 22-38 26-7 5-3-1 3-1 2-8 18-12 22-15 13-9 33-22 44-29 43-29 16-10 21-14 13-9 66-44 28-19 17-12 27-18 4-4 4-1 2-2v3l5 2 2 2 3-4z" fill="#86641D"/>
<path transform="translate(823,524)" d="m0 0 2 1 3 7 8 16 9 16 12 21 10 17 10 19v3h2l9 16 14 24 13 24 10 17 1 5h2l14 26 3 5v3h2l2 3v4h2l13 24 4 7v3h2l9 17 9 15 13 23 7 12 1 3 6 5 11 19 6 10 23 47 12 21 6 9 5 4h2v2l4-1 2 1 2-10h1l-1 9-4 5-7 2h-6l-7-6-8-13-3-6-4-6v-3h-2l-5-9v-2l-4-2 2-1-5-14-2-5-3-2-9 1 1-4 4-4-1-6-2-4-7 1-12 4-11 2h-4v-2l7-3v-4h3v-2l14-5 2-2h4l-5-10-3-2v-3h-22l-4 1 4-4 11-6-2-4-6-10-9-16-20-35-10-18-13-24-4-6v-6h-2l-7-10-14-26v-2h-2l-4-10v-2h-2l-4-7v-2l-3-1-5-12-10-17-5-9-1-6-3-1-6-12-20-35-3-5-4-10-7-13v-2h-2l-7-18-3-6v-7z" fill="#11100C"/>
<path transform="translate(1156,967)" d="m0 0 17 4v131l-1 44-8-1h-115l-64 1h-78l-17-1-9-2-5-3 1-2 3 2 101 1 1-4 6-1h146l11-1 7-3 3-9 2-16 1-45v-41l1-35-2-16z" fill="#343E2A"/>
<path transform="translate(1528,380)" d="m0 0h51l33 4 22 4 24 7 24 10 29 14 20 11 8 5v1l-8-1-15-8-8-5-13-5-15-7-25-11-23-7-23-4-35-3h-43l-17 1-31 6-20 6-16 6-14 7-9 3-19 10-5 5-6 13-7 29-3 11-4 31 2 4 5 3 4 1 5-3h2l-1 9-3 11-6 5-1 2-2 12-8 15-5 8-4 11-5 9-4 21-5 16-3 26-6 22-7 36-5 34-1 16 4 13 8 15 4 7-3 1-8-11-8-14-3-7v-12l10-56 9-48 3-21 4-22h2l1-11 2-12 2-7 3-20 3-12 2-13 3-12 7-34 3-16 4-15 5-22 5-10 2-5 6-7 3-3h3v-2l17-8 10-5 17-6 11-4 21-5 10-2 25-4z" fill="#FBF2CF"/>
<path transform="translate(1462,1328)" d="m0 0 7 1 16 10 16 12 11 11 9 13 13 21 7 12 8 16 7 13 3 9v3h-65v-36l-1-10 1-3v-20l-2-4 1-5 2-7-2-7-11-12-11-9-9-7z" fill="#FCFDFD"/>
<path transform="translate(1390,681)" d="m0 0 5 1 6 4 2 4h2l1 4 3 1 3 5 11 12 11 7v2l6 2v2h3v2l5 2 19 9 15 6 26 6 21 3h29l18-3 22-6 12-6 5-4 4-8h2l1-3 11 5 10 4 8 4-2 3h-19l-5 4-11 4-12 3-21 6-13 3-14 2-19 4-12 3h-15l-15-3-13-4-11-5-19-5-13-5-12-8-8-6v-2l-4-2-1-3-4-2-5-5-9-16-1-3v-9l-4-7z" fill="#FDECC2"/>
<path transform="translate(1771,1129)" d="m0 0 5 3 29 29 7 8 8 7 5 6-2 5-10 7-15 8-9 1-11-8-14-11-10-7-10-8-7-4-4-3 2-5 5-2 2-4 22-18 3-3z" fill="#FCFDFD"/>
<path transform="translate(1099,864)" d="m0 0 5 1 24 11 11 6 4 3-1 5-8 19-6 17-3 7-4 10-4 12-1 1-7-1-16-9-9-6-2-3v-7l5-19 10-40z" fill="#FCFDFD"/>
<path transform="translate(1172,972)" d="m0 0 5 1 3 16v64l-1 95 1 6-3 2h-210l-118-1-462-1v-1l217-1h229l168 1 128 1h28l19-1v-1l-19-4-46-1h-234l-17-1-32-1-56-1v-1h102l33 2h78l64-1h115l8 2z" fill="#8F7C46"/>
<path transform="translate(825,522)" d="m0 0 4 5 7 12 7 11 12 20 7 12 6 10 6 11 8 14 6 11v2h2l7 14 6 10v2h2l1 5h2l5 10v2h2l7 14 6 9 1 5h2l5 9v3h2l3 9h2l8 16v2h2l4 8 12 22 12 21v2h2l1 5h2l7 14v2h2l6 12v2h2l6 10 2 7h2l15 25 8 16 9 14 4 9 2 6 3 1 3 8 8 13 9 16 5 8 1 9-2 1-8-7-10-18-9-16-11-22-11-23-16-26-5-4-6-12-14-24-18-32v-2h-2l-8-16-9-16v-2h-2l-2-7h-2l-6-12-11-20v-2h-2l-3-7-14-24-12-22-11-19-7-12v-2h-2l-8-16-12-22-6-10-18-32-6-12-2-3z" fill="#ECEFEA"/>
<path transform="translate(457,575)" d="m0 0 7 1 3 6v14l-4 11-6 9-6 21-6 25-2 15 1 16 3 9 8 4h17l17-2h10l2 5-3 5-12 6-18 6-7 1h-14l-10-4-7-7-3-7v-19l4-31 6-28 8-31 5-14 5-9z" fill="#FCFDFC"/>
<path transform="translate(1413,668)" d="m0 0h5v5l-4 2-2 9 3 1 10 14 5 4v2l5 2 5 4v2l4 1v2l5 2 16 9 13 5 18 6 28 4h34l18-3 17-5 11-6 5-6 2-5v-14l2-3 3 1 8 10 5 3v2l5 2 1 3 5 2 11 11-4 1-11-5-10-4-4-2-1 2h-2l-2 6-4 5-10 6-11 4-20 5-14 2h-29l-27-4-23-6-15-6-16-8-5-3v-2h-3v-2l-4-1-5-4-10-7-12-13-1-3-3-3v-2h-2l-4-5-10-6 1-3 16-5z" fill="#120F09"/>
<path transform="translate(819,638)" d="m0 0h12l8 7 1 2v9l-7 14-11 14-14 15-1 6 5 5h12l11-3 7 1 2 4-4 7-10 5-10 3h-7l-11-3-7-5-5-9-2-8-1-11 2-17 4-13 10-13 9-7z" fill="#FCFDFC"/>
<path transform="translate(1842,621)" d="m0 0h14l9 10 8 16 3 11 1 7v20l-9 16-7 9-6 7-8 7-11 9-3 2-4-1 5-6 5-2 2-4 3-4h2l2-4 3-4 3-9 2-16-1-8v-3l3-1-2-6-8-4 1-6-3-5-4-2h-11l-10 4h-5l-1-4-7 1-14 7-2-2 5-7 6-5 9-9 4-1 3-4 7-3 8-4z" fill="#FEECC2"/>
<path transform="translate(1331,544)" d="m0 0h8l11 5 1 1-1 10-3 17-1 4-7-1-7-2-5 1v5l14 6 1 1v8l-6 36-4 16h-3l-6-8-9-16-6-14-2-9v-14l3-13 4-9 5-10 2-3h2l2-4 5-5z" fill="#FDF4D2"/>
<path transform="translate(956,408)" d="m0 0h71l20 1h13l24-1h15l36 1 15 3 8 5 4 6 2 21v33l-1 73v312l-2 18-1 5-5-2-2-2h2l2-12 1-23 1-51v-92l-1-266-2-11-3-6-7-4-6-2-14-1h-228l1-3h9l12-1z" fill="#345043"/>
<path transform="translate(1734,1196)" d="m0 0h14l8 4 7 6 8 7h2l-1 4-3 6-10 13-8 10-4 8 8-2v2l-16 7-10-2-3-2v-2l-4-2-7-11-4-15v-10l5-9 8-9z" fill="#FDE1B6"/>
<path transform="translate(984,865)" d="m0 0 4 1 1-1 22 1 1 3 4 4 3 5v3l-5 2-12 5h-3v2l-2 1-1 4-7 2v2l19-4 11-4 5 1 3 6-1 6-4 2v3l8-1 4 3 6 16-1 4 3 3-9 3-13 3-10-1-10-15-8-7-7-10-5-9-5-14v-8l4-6z" fill="#3E311D"/>
<path transform="translate(825,520)" d="m0 0 5 2 11 12 8 13 3 4 4 7 7 11 8 14 9 15 6 11 11 19 10 17 9 15 10 19v2h2l11 20 7 12 8 14 8 13 9 16 14 24 13 22 8 13 6 10-1 2-8-11-8-13-6-9-2-1 2 6-5-1-1-5h-2l-10-18-9-16-7-13-2-3v-3h-2l-6-12-2-6h-2l-3-9h-2l-5-10v-2h-2l-5-10-6-9-3-6v-3h-2l-4-8-1-4h-2l-1-5h-2l-13-23v-3h-2l-8-15-9-15-6-11-14-24-6-10-10-16-7-12-3-5z" fill="#2E2A21"/>
<path transform="translate(1168,402)" d="m0 0h3l1 61v402l-1 26-7-2 3-1-1-3v-199l1-55v-26l-1-86 1-47 1-29v-30l-2-7z" fill="#3B2B14"/>
<path transform="translate(1030,825)" d="m0 0 4 1 6 4 4 5 11 8 3 2v2l5 2 13 10 9 8v8l-3 9-5 23-5 18-5-5-8-16-2-6-3-16-5-13-5-5-5-3-5-5-6-10v-16z" fill="#FDF4D2"/>
<path transform="translate(599,78)" d="m0 0h8l-1 3-20 13-19 13-30 20-13 9-45 30-10 7-30 20-44 29-14 10-24 16-10 7-33 22-38 26-7 5-3-1 3-1 2-8 18-12 22-15 13-9 33-22 44-29 43-29 16-10 21-14 13-9 66-44 28-19z" fill="#765B18"/>
<path transform="translate(1730,854)" d="m0 0m-4 1h4l-1 3-36 14-27 9-41 11-35 7-23 3-38 3h-30l-32-3-7-2v-2l-3-1 1-4 1-1h108l39-3 26-6 35-9 21-7 21-6 15-5z" fill="#FCEAC0"/>
<path transform="translate(1745,1047)" d="m0 0h2l4 7v2l4 2 7 6 2 5v11l-2 41-4 5-14 9-17 14h-9l-1-4 1-16 1-1 1-8 9-4 8-2 3-9 5-19 1-8-2-10 3-10-1-7z" fill="#FCFDFD"/>
<path transform="translate(124,539)" d="m0 0h1v165h2v11l1 5 1 34v39l-1 58v36l1 84 1 28v15l-2 4v14l-1 3-1 12-1 82-1 15h-1v-383z" fill="#3F2E13"/>
<path transform="translate(1247,981)" d="m0 0h17l-2 17-9 49-7 40-2 5-3 27-2 2-2-5 1-133z" fill="#FCFCFC"/>
<path transform="translate(1100,960)" d="m0 0 4 2 9 5h10l7-5 9 1 9 5 3 9 1 10v32l-1 31-2 45-1 11-3 10-5 5-16 4-57 1-40 1-38 2-8 1-2-4 14-3 38-2h17l24-1 31-2 14-1 16-4 6-5 3-14 2-24 1-37 1-28-1-27-5-8-7-3-6 1-8 3h-7l-9-5-3-4z" fill="#2B8483"/>
<path transform="translate(1631,560)" d="m0 0 8 1 8 5 5 10 1 5-1 14-3 8-5 5h-2v2l-9 4-10-1-7-5-4-7-3-6v-13l6-12 5-5 7-4z" fill="#090706"/>
<path transform="translate(1481,960)" d="m0 0h1l1 28 1 16 3 8 5 3 2 6 9 1 3 3-2 5-4 2-7 1-3 7-1 9-2 3-4 16-1 10v41l-4 28-4 17-5 12h-1v-10l5-57 4-64 2-37 1-45z" fill="#EFF1EE"/>
<path transform="translate(1496,612)" d="m0 0h2v3h-2l-2 5-5 2-4 5-8 7-6 8h-2l-1 4-5 7v7l3 6 9 6v2l5 1 12 5 14 4 28 6v2l-2 1-10 1h-9l-22-3-21-7-14-9-6-7-2-4v-9l2-8 7-10 15-12 15-9z" fill="#17130A"/>
<path transform="translate(1445,531)" d="m0 0h11l6 4 4 8 1 5v13l-3 9-5 5-6 3h-8l-5-2v-2l-4-1-4-9-1-5v-13l3-9 8-5z" fill="#0D0A07"/>
<path transform="translate(1697,969)" d="m0 0 5 2-1 4-11 7-21 9-16 7-13 6-26 11-17 7-13 6-13 5-14 5-15 2-5-3-4-2 19-7 16-5 20-7 16-6h3v-2l17-6 31-14 23-10 15-7z" fill="#F0F1EE"/>
<path transform="translate(1091,957)" d="m0 0 8 1 8 3 1 3 4 1h9l4-6 7-1 13 5 6 4 3 5 1 5v85l-2 42-3 14-6 9-3 1-20 2-31-1h-28l-78 3-2 3v-7l2 1 5-1 42-2 93-2 16-4 3-1 3-10 1-5 2-25 1-40 1-31v-24l-2-12-2-4-11-5h-6l-7 5h-10l-9-5-2-2-12-2z" fill="#277573"/>
<path transform="translate(885,1128)" d="m0 0h95l2 2 1 7-2 4-6 1-95-1-3-2 1-7 5-3z" fill="#FBFCFC"/>
<path transform="translate(604,1152)" d="m0 0h229l168 1 128 1 28 1v1h-190l-118-1-462-1v-1z" fill="#907D47"/>
<path transform="translate(1158,970)" d="m0 0 2 3 3 15 1 45v66l-2 21-2 12-4 5-6 2-20 1-46-1-52 1h-24l-26-1v-2l6-1h146l11-1 7-3 3-9 2-16 1-45v-41l1-35z" fill="#355143"/>
<path transform="translate(1326,560)" d="m0 0h3l3 5-1 4-3 4v2l4 2-5 2v5l14 6 1 1v8l-5 31-2-4-1-4-7-1-8-3-5-6-3-8-1-11 3-12 7-16 4-4z" fill="#FEECC1"/>
<path transform="translate(1463,913)" d="m0 0 7 6 5 8 5 9v6l-4 8-5 4-2 1-11-1-17-6-4-1-1-2v-9l4-5 9-7 10-9z" fill="#F74308"/>
<path transform="translate(1694,463)" d="m0 0h10l7 3 3 4 1 16v43l-3-1-2-9-3-9-4-11-8-16-6-4-18-4-11-2-3-2 1-3 8-2 12-1 1-1z" fill="#130F08"/>
<path transform="translate(877,1131)" d="m0 0 2 1-2 8 6 3v1h-32l-46-1v-1h5v-2l-12-1-9 1-8-1h-12l-11-1h-42l-53-1-1-2 56-1 150-1z" fill="#263C35"/>
<path transform="translate(1e3 830)" d="m0 0 3 3 5 10v2h2l15 25 8 16 9 14 4 9 2 6 3 1 3 8 8 13 9 16 5 8 1 9-2 1-8-7-10-18-9-16-11-22-11-23-16-26-5-4-8-16h2v-8z" fill="#F8EAC2"/>
<path transform="translate(192,576)" d="m0 0 6 1 1 2-9 5-2 5-1 34v32l1 4v27h-3l-3-8-2-1-2 6-2-1-2-16v-49l4-8 4-1 1-7-1-19 1-2h2v-2z" fill="#2E9294"/>
<path transform="translate(677,658)" d="m0 0h10l8 7 3 6v8l-7 8-7 6-11 6-5 3h-6l-5-5-4-10 1-5 3-2 5 3 7-1 4-3v-18z" fill="#3A9FA1"/>
<path transform="translate(825,520)" d="m0 0 5 2 11 12 8 13 3 4 4 7 7 11 8 14 9 15 6 11 5 9 4 13-1 2 2 1 2 5 7 11 5 11 5 6 3 6-1 3-2-1v-2h-2l-4-8-1-4h-2l-1-5h-2l-13-23v-3h-2l-8-15-9-15-6-11-14-24-6-10-10-16-7-12-3-5z" fill="#121411"/>
<path transform="translate(1427,795)" d="m0 0 4 2 4 8 7 10 4 8v2l3 1 1 4 4 2 5 5v2h3v2l19 4 9 3h19l4-1h9l-1 3-18 5h-27l-13-2-10-4-5-4-1-4-3-1-7-13-2-7h-2l-5-15z" fill="#1D170C"/>
<path transform="translate(650,40)" d="m0 0 4 2 3 5 2 8 4 2 11 7 54 36 7 5 1 3 12 8 22 15 8 6-2 1-14-9-40-27-16-11-5-1-19-13-15-10-12-6-6-2-1 2v-2l-15 4-24 16h-6l-2-2 14-10 17-11 4-4 4-1 2-2v3l5 2 2 2 3-4z" fill="#927E46"/>
<path transform="translate(704,90)" d="m0 0 5 2 23 16 30 20 14 9-7-6-21-14-14-10 3-1 11 8 44 29 43 29 24 16 8 6-3 3-5-1-69-46-44-29-20-14-15-10-7-5z" fill="#84651F"/>
<path transform="translate(1467,508)" d="m0 0 6 5 8 14 2 7v22l-4 10-1-2h-7l-3-1-2 2v-17l-3-10-7-7 2-9 4-2 2-7 3-1z" fill="#F0EFE8"/>
<path transform="translate(122,1145)" d="m0 0 135 1 5 1-2 4-1 1-110 1h-29l-1-5z" fill="#FEE2B7"/>
<path transform="translate(599,78)" d="m0 0h8l-1 3-20 13-19 13-30 20-13 9-45 30-10 7-18 12-3-1 4-3h2l2-4 14-10 5-5 16-11 69-46 28-19z" fill="#775C18"/>
<path transform="translate(59,767)" d="m0 0 2 2v59l-1 160v33l-1 48-1 100h-1v-295l1-103z" fill="#845F14"/>
<path transform="translate(512,155)" d="m0 0 2 1-14 14-8 7-16 17-10 5-14 5-11 2 1-4 7-7 22-16 17-11z" fill="#F1F2EF"/>
<path transform="translate(943,735)" d="m0 0 5 5 6 3 5 9 11 20 11 19v2h2l1 5h2l7 14v2h2l6 12v2h2v12l-4-2-13-23-14-24-2-6h-2l-8-16-9-16v-2h-2l-2-7h-2l-3-8z" fill="#F0F0EB"/>
<path transform="translate(942,708)" d="m0 0 4 5 8 14 8 13 9 16 14 24 13 22 8 13 6 10-1 2-8-11-8-13-6-9-2-1 2 6-5-1-1-5h-2l-10-18-9-16-7-13-2-4 1-3 2-1-6-13-6-10-2-4z" fill="#362C1D"/>
<path transform="translate(996,787)" d="m0 0 9 2 11 6 9 6 10 5v3h4l1 6-3 3-5-2-5-1h-8l-2 4-4 1-5-5-12-17-1-7z" fill="#2D9092"/>
<path transform="translate(823,524)" d="m0 0 2 1 3 7 8 16 9 16 12 21 10 17 6 11-1 2-2-1 3 7 3 13-2-1-6-12-20-35-3-5-4-10-7-13v-2h-2l-7-18-3-6v-7z" fill="#1C2F2D"/>
<path transform="translate(128,1011)" d="m0 0 2 3 1 6v85l-1 15 1 11 1 4-1 5-2 4h-5l1-97 1-12 1-7v-11z" fill="#101D1F"/>
<path transform="translate(743,661)" d="m0 0 8 2 5 6 1 2v6l-6 8-12 12-5 3h-4l-1-2v-9l3-13 5-10 4-4z" fill="#3BA0A2"/>
<path transform="translate(1436,430)" d="m0 0h8l4 2v2l4 1 5 3v2l5 2v2l4 2 4 4-1 4-11-2-12-6h-6l-6 5h-2l-2 4-5 4-1 3-3 2h-3l1-6 6-13 6-11z" fill="#130F08"/>
<path transform="translate(1e3 867)" d="m0 0h11l5 6 3 5v3l-5 2-12 5-13 4h-5l-3-5v-11l4-3h2v-2z" fill="#F1EEE5"/>
<path transform="translate(1045,320)" d="m0 0 9 5 7 5v1l-14 1-439-1v-1l404-1 25-1 3-5 5-1z" fill="#F1F1EB"/>
<path transform="translate(902,658)" d="m0 0 4 1v2h2l5 10v2h2l7 14 6 9 1 5h2l5 9v3h2l3 9h2l8 16v2h2v3l-5-2-5-5h-2l-13-24v-2h-2l-3-7-14-24v-7l-6-9z" fill="#EDE9DE"/>
<path transform="translate(1778,1081)" d="m0 0 7 1 16 9 2 3-9 11-8 9-4 3h-4l-1-2-1-17 1-15z" fill="#FCFCFC"/>
<path transform="translate(1019,891)" d="m0 0 5 1 3 6-1 6-9 6-11 4h-7l-6-4-3-4v-5l11-4z" fill="#F1EEE3"/>
<path transform="translate(1237,983)" d="m0 0h1v133l2 3h1v6l-2-2v48l-3 14-4 11-2 1 1-5-1-2 4-19v-16l1-8 1-161z" fill="#8E7C47"/>
<path transform="translate(1840,662)" d="m0 0 9 1 8 4 1 5-4 2-6-1-1-2-9 2-12 4h-2l-1 3-4 1-1 3v22l-3 6-3-1 2-5h2l-1-9-5-7v-2h-2l1-7 5-5 18-12z" fill="#231D10"/>
<path transform="translate(976,815)" d="m0 0 4 5 14 25 6 9v4l-13 7h-11l-3-1-1-4 5-5 3-6h2v-18l-6-11z" fill="#2D9092"/>
<path transform="translate(1495,618)" d="m0 0 2 1-8 11-10 13-8 12-3 8 2 3 8 2 10 6 8 4v2l2 1-9-1-10-5-4-1v-2l-5-2-6-5-2-5v-7l6-8 1-3 4-4 7-8 3-3h2l2-4 3-3z" fill="#FBE9BE"/>
<path transform="translate(1836,978)" d="m0 0 4 2 17 11 16 12 16 13 13 10 13 11 8 7 10 10-3 1-8-5-7-7-2-4-4-1-11-9-15-12-16-12-14-11-16-10-3-4z" fill="#1F2D2A"/>
<path transform="translate(1717,1180)" d="m0 0 3 1-16 16-6 7-3 9 2 12 8 10 1 7-3 4h-5l-6-8-1-5h-2v-24l7-12 10-9 4-2 2-3h3v-2z" fill="#F8EFCC"/>
<path transform="translate(1e3 830)" d="m0 0 3 3 5 10v2h2l15 25 8 16 2 3 1 7 5 12-1 3-3-3-11-23-16-26-5-4-8-16h2v-8z" fill="#F8EBC6"/>
<path transform="translate(1031,912)" d="m0 0 3 1 4 8 2 7-18 6-10-1-7-8 3-2 7-4z" fill="#F1EFE6"/>
<path transform="translate(898,222)" d="m0 0 6 1 69 46 17 11 42 28 16 11 5 5-5-2-16-10-27-18-20-13-43-29-44-29z" fill="#785D18"/>
<path transform="translate(119,918)" d="m0 0h1l1 52v109l-1 9h-1l-1-14v-150z" fill="#DEBC7F"/>
<path transform="translate(1238,983)" d="m0 0h1l1 68 3-5 3-1-1 14v9l-3 6-1 1 1 10 3 3-3 21-1 10-2 2-2-5z" fill="#F1F1ED"/>
<path transform="translate(1414,1016)" d="m0 0 1 3-5 17-5 13-8 26-6 16-4 12-5 14-10 29-4 13-1 15-2 1v-19l4-14 3-8 5-13 2-7 3-9 3-6 2-8h2l1-8 6-17h2l1-8 9-25 3-9z" fill="#C5A66A"/>
<path transform="translate(1077,886)" d="m0 0 3 1v7l-8 31-5-5-8-16-1-3v-7l1-2 4 2 4 5 5-1 3-6z" fill="#F1EEE4"/>
<path transform="translate(672,1128)" d="m0 0h76l39 1h70l26-1v2l-13 1-49 1h-68l-8-1h-49l-25-1z" fill="#277573"/>
<path transform="translate(772,1143)" d="m0 0h102l33 2h142v1l-59 1h-113l-17-1-32-1-56-1z" fill="#907D47"/>
<path transform="translate(1438,833)" d="m0 0h3l4 7 8 8 12 5 6 2 22 1-4 4-5 1h-21l-11-4-6-5-8-12z" fill="#FDEBC0"/>
<path transform="translate(549,116)" d="m0 0v3l-12 8-13 9-45 30-10 7-18 12-3-1 4-3h2l2-4 14-10 5-5 7-3 23-15 27-18 10-6z" fill="#41311D"/>
<path transform="translate(131,1135)" d="m0 0 9 3 26 2 8 1 12 1 126 1v1h-183l1-4z" fill="#332517"/>
<path transform="translate(1185,1214)" d="m0 0h23l-2 2-7 1h-97l-139-1v-1z" fill="#F0F0EB"/>
<path transform="translate(1479,976)" d="m0 0h1v32l-3 56-4 59-6 65-1 6h-1l1-18 4-49 3-53 1-3 2-31 1-33 1-6z" fill="#4E7563"/>
<path transform="translate(1463,913)" d="m0 0 7 6 5 8 5 9v6l-4 8-3 3-2-1 1-3-3-3-4-5-1-3 3-1-1-7-3-3v-12l-2-1z" fill="#6C4F06"/>
<path transform="translate(1776,1234)" d="m0 0h3l-1 8-8 14-9 9-4 2-1-1v-7l-3-2v-3h2v-3l5-3h2v-2l4-1v-2l6-5z" fill="#F0EEE4"/>
<path transform="translate(244,323)" d="m0 0 4 2 7 1 5 3 149 1v1l-27 1h-65l-68-1-16-1 3-3z" fill="#E9DDC4"/>
<path transform="translate(982,901)" d="m0 0 3 4 7 11 11 10 6 11 7 2 10-1 11-4h5l1 2-4 2-1 2-8 2-4 2-10-1-9-3-8-9-6-10-10-7-3-4v-5z" fill="#2A8585"/>
<path transform="translate(1165,970)" d="m0 0 8 1-2 1v65l-1 6-2-1-1-8v-49z" fill="#2B221B"/>
<path transform="translate(823,169)" d="m0 0h8l28 19 8 6-3 3-5-1-36-24z" fill="#745A15"/>
<path transform="translate(1842,621)" d="m0 0h14l9 10 4 8v8l-5-4-5-6-6-4-1-4h-2v-2l-13-1-1-2h2v-2z" fill="#FDF4D1"/>
<path transform="translate(702,84)" d="m0 0 5 2 21 14 7 5 1 3 12 8 22 15 8 6-2 1-14-9-40-27-16-11-5-1-2-2h2z" fill="#907B44"/>
<path transform="translate(926,692)" d="m0 0 3 1 5 9h3l3 4v2h2l3 7 6 10 6 13-3 1 1 3h-2v-2h-2l-6-12-2-6h-2l-3-9h-2l-5-10v-2h-2z" fill="#0F0C07"/>
<path transform="translate(932,735)" d="m0 0 2 1v2h2l2 7 16 29 13 24 2 5-6-5-4-7v-2h-2l-8-11-5-9-2-10-9-16-1-1z" fill="#2B8989"/>
<path transform="translate(823,524)" d="m0 0 2 1 3 7 8 16 9 16 2 7-5-2-3-1-5-10v-2h-2l-7-18-3-6v-7z" fill="#182825"/>
<path transform="translate(1609,706)" d="m0 0h2l1 7-1 6-4 7-8 6-12 5-21 5h-13l4-2 11-2 8-3 19-6 10-7 2-4v-9z" fill="#FDEBC0"/>
<path transform="translate(1009,920)" d="m0 0 3 1-6 4 6 7 10 1 16-5h2v4l2 2-9 3-13 3-10-1-6-9-4-7z" fill="#3D452E"/>
<path transform="translate(876,1138)" d="m0 0 4 2 95 1v2l-24 1h-50l-20-1-5-3z" fill="#79865F"/>
<path transform="translate(1045,320)" d="m0 0 9 5 7 5v1l-14 1-61-1v-1l51-2 3-5 5-1z" fill="#F0F1EC"/>
<path transform="translate(984,865)" d="m0 0 4 1 1-1 22 1v1l-15 2-5 2h-4v2l-4 3h-2l1 11 3 8-4 2-4-6-2-7v-8l4-6z" fill="#26271C"/>
<path transform="translate(1447,822)" d="m0 0h5l11 9 15 9 3 4h-8l-9-2-2-1v-2h-3l-7-8-3-3-2-3z" fill="#FAE8BD"/>
<path transform="translate(641,49)" d="m0 0 1 3 3 1v1l-7 2-5 6-5 4-11 8-8 5h-6l-2-2 14-10 17-11 4-4 4-1z" fill="#927E46"/>
<path transform="translate(704,90)" d="m0 0 5 2 23 16 30 20 20 13 11 8-1 2-16-10-40-27-25-17-7-5z" fill="#6D5D20"/>
<path transform="translate(1631,560)" d="m0 0 8 1 8 5 5 10 1 5-1 14h-1v-15l-4-2-3-6h-4v5l-4-2v-8l1-1-12-1-2-2z" fill="#1E2E2C"/>
<path transform="translate(1053,851)" d="m0 0 4 1 7 2 2 6h-2l1 3h-4l-2 5-3 1-6-4-3-8-2-1 1-3z" fill="#FFEEC4"/>
<path transform="translate(943,735)" d="m0 0 5 5 6 3 5 9 6 11-1 2-2 1 4 8 1 4h-2l-14-25v-2h-2l-2-7h-2l-3-8z" fill="#F8F8F6"/>
<path transform="translate(665,59)" d="m0 0 5 2 11 8 19 12 3 5h-2v2l-4-1-30-20v-2l5 2v-1l-7-6z" fill="#846722"/>
<path transform="translate(902,658)" d="m0 0 4 1v2h2l5 10v2h2l7 14 6 9 1 5h2l-1 2h-3l-11-18-4-5-2 1-2-10-6-11z" fill="#F7ECC9"/>
<path transform="translate(859,594)" d="m0 0 4 1 10 18-1 2-2-1 3 7 3 13-2-1-6-12-7-12-3-12z" fill="#192A29"/>
<path transform="translate(192,576)" d="m0 0 6 1 1 2-9 5-2 5-1 34-1 9h-1v-35l-2-2-1-13 1-2h2v-2z" fill="#339799"/>
<path transform="translate(1891,1018)" d="m0 0 9 6 9 8 11 9 13 13-3 1-8-5-7-7-2-4-4-1-11-9-3-2v-4l-4-2z" fill="#36382D"/>
<path transform="translate(1714,922)" d="m0 0 3 1-19 10-20 10-17 4v-2l23-11 21-9z" fill="#F1F2EF"/>
<path transform="translate(982,1147)" d="m0 0 9 1h43l10 1v1l-20 1-59-1h-21l-14-1v-1z" fill="#FEE2B7"/>
<path transform="translate(1067,946)" d="m0 0h3l9 15 1 9-2 1-8-7-7-13 1-3 3 1z" fill="#F4EFDF"/>
<path transform="translate(1238,1064)" d="m0 0h1v17h2l3 7 1 2-1 2-3 27-2 2-2-5z" fill="#F3EBDA"/>
<path transform="translate(898,222)" d="m0 0 6 1 60 40-1 3-44-29-21-14z" fill="#715F1E"/>
<path transform="translate(1383,1108)" d="m0 0 1 2-5 16-7 20-4 13-1 15-2 1v-19l4-14 3-8 5-13 2-7z" fill="#C6A86D"/>
<path transform="translate(996,798)" d="m0 0 4 4 7 10 4 6 3 1 4-2 1-2 8-1-2 4-3 3-5 10-3-1-6-9-6-11-6-10z" fill="#389A9B"/>
<path transform="translate(1e3 830)" d="m0 0 3 3 5 10v2h2l12 20v2l-4-1-2-4v-4l-6-2-8-12v-3l-4 1-1-3h2v-8z" fill="#F1D7AA"/>
<path transform="translate(1619,703)" d="m0 0 4 2 8 7 11 7 8 7 2 3v5l-4-2-8-8-5-3-4-4-5-4-6-5z" fill="#F9E7BD"/>
<path transform="translate(1776,1234)" d="m0 0h3l-1 8-8 14-2 1v-2l-5-1 3-8-2-1h2v-2l6-5z" fill="#FBF0CC"/>
<path transform="translate(549,116)" d="m0 0v3l-12 8-13 9-21 14h-2l2-4 9-7 14-9 11-7 9-6z" fill="#43341F"/>
<path transform="translate(951,768)" d="m0 0 4 2 8 15 8 16 9 14 4 8-1 4-20-35-10-18z" fill="#1A2B29"/>
<path transform="translate(244,323)" d="m0 0 4 2 7 1 5 3 43 1v1h-54l-16-1 3-3z" fill="#F3E3C4"/>
<path transform="translate(178,1069)" d="m0 0 4 1 5 2 5 5v9h-3v-3h-3v-2h-7l-5 2v-4l4-3 1-5z" fill="#2E9395"/>
<path transform="translate(969,262)" d="m0 0 5 2 62 42 1 2-5-2-13-8-11-8-39-26z" fill="#85641D"/>
<path transform="translate(1328,577)" d="m0 0 8 1 10 3v1h-6l-2-1 1 5 4 2v11h-1l-1-8-14-6-1-1v-5z" fill="#49381E"/>
<path transform="translate(1751,1255)" d="m0 0h2v2l4 2v8l-5 3-9-1v-3l4-8z" fill="#FEF6D5"/>
<path transform="translate(1352,1182)" d="m0 0 2 1 3 14v5l-7-1-5-2 1-2v-8l5-2z" fill="#EFEEE7"/>
<path transform="translate(644,39)" d="m0 0h7l2 13-4 5-7-5-1-9z" fill="#F7F3E9"/>
<path transform="translate(1479,976)" d="m0 0h1v32l-3 56-1 13-2-4 2-33 1-33 1-6z" fill="#388F8D"/>
<path transform="translate(825,520)" d="m0 0 5 2 11 12 1 3-1 2 2 4v3l-3 1-8-13-7-12z" fill="#1B1C17"/>
<path transform="translate(1030,825)" d="m0 0 4 1 6 4v4h-5l-1 1-1 10-4 2-1-1v-16z" fill="#F0ECDE"/>
<path transform="translate(1778,829)" d="m0 0m-2 1h2l-1 4-14 8-23 11-8 3 2-4 21-10z" fill="#FCECC2"/>
<path transform="translate(1774,929)" d="m0 0h1v5l5-1 1 5-2 3-4-5 1 8-5 2 2 1v2l2 1-3 2-10-7 5-4 5-3z" fill="#213936"/>
<path transform="translate(1871,687)" d="m0 0h3l-1 6-7 11-9 10-10 10h-2l2-4 10-10 6-8h2l1-6 4-8z" fill="#FDF3CF"/>
<path transform="translate(821,658)" d="m0 0 2 1-2 6-6 8-7 1-1-3 4-7 6-5z" fill="#3BA0A2"/>
<path transform="translate(1168,402)" d="m0 0h3v51l-2-1-1-9v-30l-2-7z" fill="#463311"/>
<path transform="translate(1038,891)" d="m0 0 5 5 4 7 4 10v2l3 1-1 4-6-3-7-15-2-6-1-4z" fill="#EED3A4"/>
<path transform="translate(1068,839)" d="m0 0 9 3 11 8 2 2v5l-4-1-16-13-2-1z" fill="#39999A"/>
<path transform="translate(1600,617)" d="m0 0 7 6 13 6 8 1 13-1-1 2h-3v2h-18l-11-4-8-10z" fill="#565E42"/>
<path transform="translate(1578,543)" d="m0 0 1 4-6 14-7-2-1-3h-2v-4h9l2-5z" fill="#F9EEC9"/>
<path transform="translate(1053,325)" d="m0 0 8 5v1l-14 1-61-1v-1l64-1z" fill="#EFD29F"/>
<path transform="translate(1870 1e3)" d="m0 0 4 1 15 12 2 1 2 5 2 1-1 3-11-9-12-9z" fill="#1E2B29"/>
<path transform="translate(1299,998)" d="m0 0 1 2-11 54-2 8h-1v-9l6-27 4-19z" fill="#F1F2EF"/>
<path transform="translate(704,90)" d="m0 0 5 2 23 16 15 10 1 2-5-1-17-12-15-10-7-5z" fill="#6B6328"/>
<path transform="translate(982,1143)" d="m0 0h20l47 1v1l-81 1v-1l12-1z" fill="#6B510B"/>
<path transform="translate(911,679)" d="m0 0 5 5 7 11 4 6 2 9h-3l-3-7-12-20z" fill="#F2EEE3"/>
<path transform="translate(877,1136)" d="m0 0 4 2v2l92-1v2h-93l-3-2z" fill="#F0F0EC"/>
<path transform="translate(1011,888)" d="m0 0 3 1 4 1 6-2 4 1-1 9-3-4-1-2-7 1-12 4-3-1 3-1v-4z" fill="#4F3E20"/>
<path transform="translate(1498,531)" d="m0 0 6 9 7 1 4 1v2l-13 3-4 1z" fill="#F9EDC7"/>
<path transform="translate(1558,362)" d="m0 0h13l15 2 1 2h-55v-1l26-1z" fill="#8E8A5F"/>
<path transform="translate(1679,896)" d="m0 0 3 1-25 8-12 3h-7l-1-2 2-1 15-2 5-2h3v-2l10-2z" fill="#F1F2EF"/>
<path transform="translate(1663,896)" d="m0 0 3 1-1 2h-3v2l-12 4h-11v-3z" fill="#F9FAF7"/>
<path transform="translate(1368,832)" d="m0 0 5 2 3 3v2h2v2l4 2 8 8 6 5 1 3-4-1-12-11-13-13z" fill="#FEF3CF"/>
<path transform="translate(522,130)" d="m0 0 2 1-5 5-14 9-26 17-2-1 17-12 18-12z" fill="#7A601C"/>
<path transform="translate(1169,1122)" d="m0 0h2l1 17-1 6-8-2 1-5 4-8z" fill="#2E2219"/>
<path transform="translate(878,638)" d="m0 0h2l7 12 8 13 7 15-1 3v-2l-3-1-5-12-10-17-5-9z" fill="#1C3533"/>
<path transform="translate(1495,567)" d="m0 0 3 3-1 6-5 7-3 1-2-2 1-6 3-5z" fill="#F9F0CD"/>
<path transform="translate(834,552)" d="m0 0 4 4h3l5 10 1 5-5-2-3-1-5-11z" fill="#1A2826"/>
<path transform="translate(852,1136)" d="m0 0h24l-1 4-17 1-9-2z" fill="#181E1E"/>
<path transform="translate(1049,946)" d="m0 0 5 1 4 5v3h2l5 8-3 5-4-5-5-10z" fill="#122022"/>
<path transform="translate(1318,881)" d="m0 0 2 3 5 12-1 2-2 2h-3l-3-7-1-7v-4z" fill="#1A2827"/>
<path transform="translate(976,815)" d="m0 0 4 5 14 25 6 9v4l-3 1-3-9-10-19-5-5-3-6z" fill="#246D6C"/>
<path transform="translate(271,586)" d="m0 0 10 1h8l11 3 7 4-4 1-6-2-17-3-11-1z" fill="#2F9496"/>
<path transform="translate(1656,513)" d="m0 0 7 1 9 6 10 11-1 4-11-12-8-5v-2l-5-1z" fill="#EADCB2"/>
<path transform="translate(1317,629)" d="m0 0 3 3 4 6 3 3 5 1v9h-3l-6-8-6-10z" fill="#F1EEE3"/>
<path transform="translate(1647,345)" d="m0 0 5 2 11 6 4 4 1 4-4-2-5-1-11-10z" fill="#26332B"/>
<path transform="translate(930,237)" d="m0 0 4 1 19 12 16 11v2l-5-2-18-12-16-11z" fill="#86641D"/>
<path transform="translate(1806,688)" d="m0 0h4l6 9v9l-4-1-4-9-2-3z" fill="#F5E1B5"/>
<path transform="translate(1e3 841)" d="m0 0h3l6 11 2 3 6 3 2 8-3 1-6-9-4-3-6-12z" fill="#F5E1B4"/>
<path transform="translate(1787,786)" d="m0 0h1v11l-4 27-2 3 1-23 2-10z" fill="#FCE8BC"/>
<path transform="translate(112,791)" d="m0 0 3 2v30h-1l-3-16v-9l-2-4 2-1z" fill="#835C0E"/>
<path transform="translate(1392,561)" d="m0 0h2l4 9 3 6-1 5-5-5v-2h-2l-2-3z" fill="#FCF1CE"/>
<path transform="translate(1383,1108)" d="m0 0 1 2-5 16-5 12-3 1 2-9 4-9 2-7z" fill="#CDAE71"/>
<path transform="translate(909,694)" d="m0 0h2l1 5h2l7 11 3 5 5 10 2 5-1 3-13-24-4-7v-2h-2z" fill="#1B2C2A"/>
<path transform="translate(1353,986)" d="m0 0 7 1h3l7-1-6 7-2 2-5-1z" fill="#232D28"/>
<path transform="translate(1459,915)" d="m0 0 2 1-6 8-11 7-5 6v10h-2l-1-2v-9l4-5 9-7z" fill="#6C4F06"/>
<path transform="translate(1819,680)" d="m0 0 1 2v10l3 8v5l-7 6 1-5v-22z" fill="#C1A469"/>
<path transform="translate(1507,561)" d="m0 0h19l9 1 1 2h-30l-7 2-4-1 4-3z" fill="#EACC98"/>
<path transform="translate(872,202)" d="m0 0 7 4 19 13 3 3-6-1-10-7-13-9z" fill="#81641F"/>
<path transform="translate(1237,882)" d="m0 0 2 3v5l5-2 5 1v3l2 1-10 3h-3l-1-4z" fill="#EFE6D1"/>
<path transform="translate(1091,957)" d="m0 0 8 1 8 3 1 3 4 1h10l-1 3h-8l-9-5-2-2-12-2zm36 1h5l-4 2-5 5-1-2z" fill="#264641"/>
<path transform="translate(1067,946)" d="m0 0h3l5 8-1 2h-2l-1 3h-3l-3-4-2-4 1-3 3 1z" fill="#FCF3D0"/>
<path transform="translate(1445,531)" d="m0 0h11l6 4 1 3-7-1-7-2h-11l4-3z" fill="#233E3B"/>
<path transform="translate(1310,943)" d="m0 0h1v7l-6 27-2 3v-7l4-21z" fill="#F1F2EF"/>
<path transform="translate(996,879)" d="m0 0h6l2 2-3 3-9 2-4 1-1-5 3-2z" fill="#FFF8D7"/>
<path transform="translate(702,84)" d="m0 0 5 2 13 9v2l-10-3-4-3-5-1-2-2h2z" fill="#8C7335"/>
<path transform="translate(969,782)" d="m0 0 4 5 11 20 7 12v2h-2l-10-18-9-16z" fill="#F9FAF9"/>
<path transform="translate(1598,615)" d="m0 0 6 2 7 6 12 5 16 1v1l-13 1-9-2-11-6-8-7z" fill="#EFD8AA"/>
<path transform="translate(549,116)" d="m0 0v3l-12 8-11 8-2-1 5-6 10-6 7-5z" fill="#4B3B22"/>
<path transform="translate(851,589)" d="m0 0 9 1 2 5-3-1 1 7 1 6-3-3-7-13z" fill="#2D322A"/>
<path transform="translate(1714,480)" d="m0 0h1l1 5v48l-5-3-1-11 2 2v7h2z" fill="#9B8650"/>
<path transform="translate(1514,687)" d="m0 0 13 1 7 2v2l-2 1-10 1h-9l-8-1v-1l11-1h14l-16-3z" fill="#736437"/>
<path transform="translate(1238,1122)" d="m0 0 3 3v18l-1 29-1 5h-1z" fill="#EFEEE7"/>
<path transform="translate(1040,934)" d="m0 0 3 1-5 5-8 2-4 2-10-1-2-2 17-3z" fill="#2D9193"/>
<path transform="translate(967,798)" d="m0 0h2l10 15 5 10-1 4-12-21-4-6z" fill="#1A2C2A"/>
<path transform="translate(1e3 284)" d="m0 0 5 2 30 20 1 2-5-2-13-8-11-8-7-5z" fill="#7B5D17"/>
<path transform="translate(984,827)" d="m0 0 4 2 5 9 2 2 3 9 4 5v5l-3-1v-4l-6-9-9-16z" fill="#192A29"/>
<path transform="translate(1593,605)" d="m0 0 4 1 4 5v2h2v2l4 2 7 6-3 1-8-7-5-2-5-8z" fill="#F1EFE5"/>
<path transform="translate(1714,486)" d="m0 0h1v43l-3-1 1-4v-10l-2-6 2-7z" fill="#443415"/>
<path transform="translate(1440,445)" d="m0 0h6l2 2h-4l-2 5h-4v-2l-8 7-4 4h-2l1-3 6-5 5-5z" fill="#EFD3A5"/>
<path transform="translate(333,256)" d="m0 0h2l-1 4-5 3-4 4-5 3-5-1 5-4 11-8z" fill="#917C43"/>
<path transform="translate(1785,1093)" d="m0 0 7 1v4l-7 6-2-1 1-9z" fill="#F1F2EF"/>
<path transform="translate(1756,1239)" d="m0 0 1 2-6 8 5-2h6l-5 4-7 3h-3l2-6 6-8z" fill="#775F24"/>
<path transform="translate(1475,619)" d="m0 0h5v2l-13 9h-3l2-5 6-5z" fill="#FDF4D1"/>
<path transform="translate(1337,568)" d="m0 0h2v2l7-1 2-1-1 9-1 4-4-1 2-1 1-4h-5l-3-3z" fill="#FBE7BB"/>
<path transform="translate(1026,305)" d="m0 0 9 5 17 12 1 2-5-2-16-10-6-4z" fill="#716123"/>
<path transform="translate(1100,960)" d="m0 0 4 2 9 5 8 1-2 1v2h-7l-9-5-3-4z" fill="#287978"/>
<path transform="translate(871,584)" d="m0 0 3 4 6 10 3 6-1 2-6-8v-2l-4-1-3-6 2-1z" fill="#342B1F"/>
<path transform="translate(1694,463)" d="m0 0h10l7 3 3 4v10h-1l-1-9-2-4-4-1-27-1v-1z" fill="#7D6934"/>
<path transform="translate(665,59)" d="m0 0 5 2 9 7 1 6-5-2-8-5v-2l5 2v-1l-7-6z" fill="#775C18"/>
<path transform="translate(1872,647)" d="m0 0 2 2 3 16v20h-1l-1-13-1-2z" fill="#EBCE9C"/>
<path transform="translate(1689,601)" d="m0 0h1l-1 9-5 6-4 1 1-5h2l2-6z" fill="#FBF0CC"/>
<path transform="translate(936,742)" d="m0 0 4 2 11 20-1 4-13-23z" fill="#1C2E2B"/>
<path transform="translate(547,114)" d="m0 0m-2 1 2 1-5 5-10 6-7 5-2-1 5-5z" fill="#735812"/>
<path transform="translate(1042,912)" d="m0 0 3 4 11 22-3 1-11-22z" fill="#52401F"/>
<path transform="translate(915,706)" d="m0 0 4 5 9 17v2l-3-1-6-11-4-7z" fill="#298080"/>
<path transform="translate(1414,1016)" d="m0 0 1 3-5 17-5 13-3 3 1-5 5-14 3-9z" fill="#A88E53"/>
<path transform="translate(1753,843)" d="m0 0 1 3-21 10v-3l16-8z" fill="#FDEAC0"/>
<path transform="translate(1513,847)" d="m0 0h9l-1 3-10 2v-2h-15v-1l13-1z" fill="#545030"/>
<path transform="translate(1e3 291)" d="m0 0 6 3 15 10-1 3-20-13z" fill="#785C16"/>
<path transform="translate(1862,995)" d="m0 0 8 6 2 2v4l-4-1-9-8 3-1z" fill="#2F2F27"/>
<path transform="translate(1026,914)" d="m0 0h6v4l-5 2h-9l2-1v-2z" fill="#FCFBF7"/>
<path transform="translate(979,1142)" d="m0 0h2l-1 3-12 1h-15l-5-1 3-2h25z" fill="#312418"/>
<path transform="translate(1490,620)" d="m0 0h2l-2 4-16 16-1-2 7-8 3-3h2l2-4z" fill="#D8C292"/>
<path transform="translate(900,679)" d="m0 0 4 5 1 4h2l4 9v3h2l2 6h-2l-7-14v-2l-3-1-3-6z" fill="#297775"/>
<path transform="translate(1829,660)" d="m0 0 4 1 1 3-10 6-2-1 3-6z" fill="#FDEBC0"/>
<path transform="translate(902,658)" d="m0 0 4 1v2h2l4 7v3l-3 1-6-9z" fill="#F6EBC6"/>
<path transform="translate(1328,577)" d="m0 0 8 1 3 2-8 1 1 5 2 1-5-1-3-2v-5z" fill="#7C6323"/>
<path transform="translate(898,222)" d="m0 0 6 1 15 10-1 3-20-13z" fill="#706428"/>
<path transform="translate(1377,1218)" d="m0 0 2 3 6 12 7-1v2l-5 5-3-1v-4h-2l-5-12z" fill="#BFA266"/>
<path transform="translate(1403,1050)" d="m0 0 1 4-7 18-3 3 2-9h2l1-8 2-6h2z" fill="#BB9D60"/>
<path transform="translate(640,54)" d="m0 0h5l1 3-4 1v3l-10 1 6-7z" fill="#6D5511"/>
<path transform="translate(876,1140)" d="m0 0 7 3v1h-32v-1z" fill="#355144"/>
<path transform="translate(1055,922)" d="m0 0 4 5 4 6-1 2-6-3-3-5v-4z" fill="#E4C899"/>
<path transform="translate(1404,668)" d="m0 0h7l-3 3-4 2h-10l1-3z" fill="#FDEBC0"/>
<path transform="translate(1816,603)" d="m0 0h1v10l-3 6-5 5h-2l2-4 3-4z" fill="#FCE8BC"/>
<path transform="translate(734,106)" d="m0 0 4 1 21 14-2 2-22-15z" fill="#86651E"/>
<path transform="translate(1e3 867)" d="m0 0h11l5 6 3 5v3h-2v-4l-4-2-3-2-1-4-9-1z" fill="#E0CA9A"/>
<path transform="translate(1436,427)" d="m0 0h6l8 4 2 4-4-1v-2l-4-1h-8l-3 1 2-4z" fill="#F6E9C4"/>
<path transform="translate(1088,962)" d="m0 0h1l-1 9-4 5-6 1 2-4-4-2 4-1v2l4-1 2 1z" fill="#29342B"/>
<path transform="translate(869,623)" d="m0 0 4 5 2 5 3 3 1 6h-2v-4l-3-1v-2h-2l-3-7z" fill="#297A78"/>
<path transform="translate(1570,594)" d="m0 0 4 2 3 10v5l-3-2-3-7-1-2z" fill="#FCF0CB"/>
<path transform="translate(650,40)" d="m0 0 4 2 3 5 1 7-4-1-4-11z" fill="#7F6829"/>
<path transform="translate(1817,691)" d="m0 0h1v15l-3 6-3-1 2-5h2l-1-10z" fill="#4B3819"/>
<path transform="translate(1725,1149)" d="m0 0 2 1-7 7v11l-2-1v-6h-3l1-4z" fill="#265B5A"/>
<path transform="translate(998,807)" d="m0 0 4 1 6 10 4 7-1 2-8-11-5-8z" fill="#303429"/>
<path transform="translate(1437,503)" d="m0 0h19l5 1v1h-23l-7 3-2-1v-2z" fill="#F5EDD4"/>
<path transform="translate(748,119)" d="m0 0 11 7 7 5-3 1-17-11z" fill="#765B17"/>
<path transform="translate(122,1145)" d="m0 0 12 1v1l-7 1 1 2-6 1v2l-3-1 1-5z" fill="#DEBC7F"/>
<path transform="translate(498,146)" d="m0 0 2 1-4 4-17 11-2-1 17-12z" fill="#7B611F"/>
<path transform="translate(652,54)" d="m0 0 3 3 1-2 8 8-7-1-6-2v-5z" fill="#735814"/>
<path transform="translate(1762,1226)" d="m0 0h2l-1 5-6 7h-2l1-5z" fill="#FBE8BC"/>
<path transform="translate(1128,959)" d="m0 0 9 1-1 2-8 2-5 4-2-1z" fill="#25716F"/>
<path transform="translate(932,735)" d="m0 0 2 1v2h2l2 7 3 5-1 2-4-4-4-6z" fill="#297271"/>
<path transform="translate(1600,617)" d="m0 0 7 6 10 5v1h-9l-8-10z" fill="#556449"/>
<path transform="translate(991,282)" d="m0 0 5 2 9 6v3l-5-2-11-7z" fill="#766221"/>
<path transform="translate(799,153)" d="m0 0 9 5 9 7-1 2-17-11z" fill="#6D6124"/>
<path transform="translate(1368,1152)" d="m0 0 1 2-2 18-1 3h-1v-19h2z" fill="#CFAF73"/>
<path transform="translate(1078,1149)" d="m0 0h13l5 1v1l-14 1-12-1v-1z" fill="#FEE2B7"/>
<path transform="translate(909,662)" d="m0 0 5 3 4 8-1 3-2-1v-2h-2l-4-8z" fill="#130E08"/>
<path transform="translate(878,638)" d="m0 0h2l7 12 4 7-1 2-3-3-9-16z" fill="#1C2E2B"/>
<path transform="translate(843,181)" d="m0 0 4 1 13 9 4 4h-3l-11-8-7-5z" fill="#845F13"/>
<path transform="translate(1917,1043)" d="m0 0 8 5 8 6-3 1-8-5-5-5z" fill="#1B2523"/>
<path transform="translate(1301,874)" d="m0 0 4 4v7l-2 1h-3l-1-4z" fill="#EDF0EE"/>
<path transform="translate(1617,508)" d="m0 0h9l-1 2-12 3-6 2 1-3 5-3z" fill="#FDF1CD"/>
<path transform="translate(1776,1234)" d="m0 0h3l-1 8h-3l-4-3z" fill="#DBC190"/>
<path transform="translate(1031,934)" d="m0 0h4v2l-9 3-10 1 1-2z" fill="#355144"/>
<path transform="translate(1558,363)" d="m0 0 7 1v1l-5 1h-28v-1l20-1z" fill="#465E4D"/>
<path transform="translate(992,865)" d="m0 0 19 1v1l-15 2-7 2z" fill="#675329"/>
<path transform="translate(1631,560)" d="m0 0 8 1 8 5-1 2-8-5h-13l2-2z" fill="#2D8383"/>
<path transform="translate(1353,1183)" d="m0 0 2 4 2 10v5h-5l2-1z" fill="#DCC494"/>
<path transform="translate(1356,988)" d="m0 0 1 4h5l2-4 4 1-6 6-5-1-2-5z" fill="#4B705E"/>
<path transform="translate(1e3 841)" d="m0 0h3l6 11-1 3-3-3-5-9z" fill="#FCEFC9"/>
<path transform="translate(942,708)" d="m0 0 4 5 7 12h-3l-6-10-2-4z" fill="#2E3229"/>
<path transform="translate(1435,427)" d="m0 0m-1 1m-1 1m-2 1h2l-1 4-5 8-2-1 2-6z" fill="#FCF1CD"/>
<path transform="translate(1521,346)" d="m0 0h8l2 2-4 3-8-1 2-1z" fill="#31392F"/>
<path transform="translate(930,237)" d="m0 0 4 1 14 9v2l-5-2-13-9z" fill="#856219"/>
<path transform="translate(960,787)" d="m0 0 3 3 6 11-1 2-5-5-4-8z" fill="#297F7E"/>
<path transform="translate(919,680)" d="m0 0 3 1 5 9v2l-4-2-4-6z" fill="#282010"/>
<path transform="translate(979,274)" d="m0 0 5 2 7 5v2l-5-1-7-5z" fill="#745D1A"/>
<path transform="translate(872,202)" d="m0 0 7 4 6 4v2l-5-1-8-6z" fill="#7D601B"/>
<path transform="translate(1856,621)" d="m0 0 4 2 5 5 5 10-1 3-6-11-7-8z" fill="#725620"/>
<path transform="translate(992,846)" d="m0 0 4 5 1 9-1-2-4-2z" fill="#2A8382"/>
<path transform="translate(1396,1072)" d="m0 0 1 3-3 8-4 3 1-6 2-5h2z" fill="#C2A467"/>
<path transform="translate(299,606)" d="m0 0 9 1v2l-6 1-1 3-2-2z" fill="#309495"/>
<path transform="translate(747,1155)" d="m0 0h13l1 3h-10l-4-1z" fill="#6C4F06"/>
<path transform="translate(1774,929)" d="m0 0h1v5l5-1 1 5-2 3-5-6z" fill="#202925"/>
<path transform="translate(1007,930)" d="m0 0 8 4 8 1-2 2h-7l-6-3z" fill="#2A2119"/>
<path transform="translate(1761,1115)" d="m0 0h1v6l-3 3-3-5 3-3z" fill="#F1F2EF"/>
<path transform="translate(938,750)" d="m0 0 4 2 5 9-1 2-4-4-4-7z" fill="#2A8484"/>
<path transform="translate(1613,700)" d="m0 0 3 1 4 6-8-2-1 4v-6z" fill="#4F4E32"/>
<path transform="translate(976,815)" d="m0 0 4 5 2 4v5l-4-5-2-4z" fill="#297F7F"/>
<path transform="translate(854,186)" d="m0 0 5 2 8 6-1 2-4-2v-2l-5-2-3-2z" fill="#785A12"/>
<path transform="translate(1706,1188)" d="m0 0 2 1-13 13v-3l4-5z" fill="#E6D3A8"/>
<path transform="translate(1365,991)" d="m0 0v3l-5 6-3-1-1-6 6 1z" fill="#F1F2EF"/>
<path transform="translate(1038,928)" d="m0 0h2l-1 4-9 1-2-2z" fill="#584829"/>
<path transform="translate(1790,740)" d="m0 0 3 1v9h-2l-2-4v-5z" fill="#FAE7BC"/>
<path transform="translate(783,667)" d="m0 0h5l1 5-3 3-3-3z" fill="#2E9294"/>
<path transform="translate(245,577)" d="m0 0h2l-2 5-4 5-1-6z" fill="#309496"/>
<path transform="translate(823,524)" d="m0 0 2 1 3 9-4-2-1 2-1-2v-7z" fill="#395043"/>
<path transform="translate(1437,447)" d="m0 0 2 1-13 13h-2l1-3 6-5 5-5z" fill="#E2CB9A"/>
<path transform="translate(704,90)" d="m0 0 5 2 9 6-4 1-10-7z" fill="#746020"/>
<path transform="translate(1062,942)" d="m0 0 4 1 2 9-5-4z" fill="#FEEBC0"/>
<path transform="translate(1008,923)" d="m0 0h2l2 7 4 3-5-1-6-7z" fill="#EFD5A3"/>
<path transform="translate(1626,909)" d="m0 0 3 2-10 3h-3l1-3z" fill="#F1F2EF"/>
<path transform="translate(782,693)" d="m0 0 1 2 4 1v3h-2v5h-2l-1-3z" fill="#2F9395"/>
<path transform="translate(736,111)" d="m0 0 11 7 1 2-5-1-7-5z" fill="#685A1F"/>
<path transform="translate(1048,944)" d="m0 0 3 4 4 6-1 2-4-2-2-2z" fill="#2B7C7B"/>
<path transform="translate(1037,921)" d="m0 0 2 3 1 4-12 4h-2v-2l9-3 2-2z" fill="#F5DAAB"/>
<path transform="translate(1e3 830)" d="m0 0 3 3 2 3v4l-3-1-3-6z" fill="#E3CFA0"/>
<path transform="translate(1051,828)" d="m0 0 5 1 5 5-1 2-9-6z" fill="#369596"/>
<path transform="translate(1331,544)" d="m0 0h8v1l-7 1-9 9v-3l5-5z" fill="#E0C999"/>
<path transform="translate(1704,464)" d="m0 0 6 1 4 5v10h-1l-1-9-2-4-6-2z" fill="#89753B"/>
<path transform="translate(1404,413)" d="m0 0 2 1-12 12v-3l5-6z" fill="#273D37"/>
<path transform="translate(1238,1122)" d="m0 0 3 3-1 13-2-4z" fill="#E8D8BB"/>
<path transform="translate(168,1073)" d="m0 0 4 2-4 6-3-3 2-1z" fill="#2E9294"/>
<path transform="translate(1022,888)" d="m0 0h5l1 4-2 6-2-7-5-1z" fill="#3F2F1B"/>
<path transform="translate(1764,837)" d="m0 0m-2 1h2v2h-2v2l-6 3h-2l2-4z" fill="#FFF0C8"/>
<path transform="translate(951,768)" d="m0 0 4 2 3 5-1 3-4-4z" fill="#172727"/>
<path transform="translate(884,651)" d="m0 0 3 3 5 9v2h-2v-3l-3-1z" fill="#287D7D"/>
<path transform="translate(1618,627)" d="m0 0 5 1 16 1v1l-13 1-7-2z" fill="#F6DAAB"/>
<path transform="translate(333,256)" d="m0 0h2l-1 4-5 3-2-2 4-4z" fill="#937E46"/>
<path transform="translate(861,197)" d="m0 0h5l6 4v3l-5-2-6-4z" fill="#896C28"/>
<path transform="translate(782,142)" d="m0 0 9 5 2 4-8-4-3-2z" fill="#6C6024"/>
<path transform="translate(645,54)" d="m0 0 4 2 2-1v4h-2l-1 2v-2l-6 1v-2l4-1z" fill="#8C7E4A"/>
<path transform="translate(1019,857)" d="m0 0 3 3 3 5v2l-4-1-2-4z" fill="#D1B784"/>
<path transform="translate(1500,850)" d="m0 0h11l-1 3-5 1v-2h-5z" fill="#212720"/>
<path transform="translate(969,803)" d="m0 0 3 3 4 7-1 2-4-4-2-4z" fill="#297F7F"/>
<path transform="translate(1425,441)" d="m0 0 1 4-5 11-1-4 4-9z" fill="#F7E8BF"/>
<path transform="translate(511,138)" d="m0 0v3l-10 7-2-1 4-4z" fill="#725712"/>
<path transform="translate(549,116)" d="m0 0v3l-7 5h-2l2-4z" fill="#4C3C20"/>
<path transform="translate(643,40)" d="m0 0 4 1-3 5 2 1-4 2-1-6z" fill="#98844D"/>
<path transform="translate(1391,1232)" d="m0 0 1 2-5 5-3-1-1-5h6z" fill="#DEBD83"/>
<path transform="translate(1108,963)" d="m0 0 14 1-1 2h-9z" fill="#111F21"/>
<path transform="translate(1127,958)" d="m0 0h5l-4 2-5 5-1-2zm-6 7v3l-2-1z" fill="#265752"/>
<path transform="translate(1009,920)" d="m0 0 3 1-6 4-1 2-2-2v-3z" fill="#877238"/>
<path transform="translate(1043,910)" d="m0 0h2l2 7 3 1-4 2-4-9z" fill="#F8E3B5"/>
<path transform="translate(1484,746)" d="m0 0 10 1 4 2-5 1-9-3z" fill="#FCF0CC"/>
<path transform="translate(955,258)" d="m0 0 8 4 1 4-9-5z" fill="#6F6021"/>
</svg>
