<svg width="232" height="55" viewBox="0 0 232 55" fill="none" xmlns="http://www.w3.org/2000/svg">
<g clip-path="url(#clip0_323_391)">
<path d="M25.2351 49.185C17.0094 46.2056 8.56302 45.3244 0 44.7537V7.06195C0.266412 7.35674 0.449275 7.53645 0.606915 7.73665C2.19278 9.74026 3.79283 11.7313 5.33612 13.7648C5.63564 14.1589 5.85634 14.7248 5.85791 15.2135C5.88944 22.5769 5.88944 29.9403 5.85634 37.3037C5.85161 38.1928 5.98403 38.5758 7.01499 38.6877C11.9413 39.23 16.847 39.9189 21.5415 41.6356C22.139 41.8547 22.4574 42.1826 22.6813 42.7643C23.4837 44.8641 24.3381 46.9434 25.2351 49.185Z" fill="#1C1D1D"/>
<path d="M58.9512 7.04614V44.7537C50.4165 45.3275 41.9749 46.1898 33.7933 49.1708C33.8785 48.8855 33.9321 48.638 34.0251 48.4078C34.7817 46.5114 35.5652 44.626 36.2967 42.7201C36.5079 42.1684 36.8169 41.8579 37.3765 41.6513C41.2371 40.2342 45.2554 39.5405 49.3067 38.9904C50.2589 38.8611 51.2126 38.6877 52.1695 38.6546C52.9356 38.6294 53.0948 38.322 53.0932 37.6142C53.0696 30.2492 53.0885 22.8858 53.0649 15.5209C53.0617 14.7563 53.2477 14.1557 53.7364 13.5598C55.2939 11.6524 56.7994 9.69923 58.3285 7.76656C58.4908 7.56005 58.6706 7.36931 58.9512 7.04614Z" fill="#1C1D1D"/>
<path d="M26.2376 30.2965C26.225 31.6254 26.8903 32.5523 28.0458 33.1892C28.3248 33.3421 28.6747 33.7047 28.6763 33.9727C28.7126 39.1717 28.7031 44.3706 28.6984 49.5696C28.6984 49.6437 28.6543 49.7194 28.5644 50C27.8724 48.288 27.2449 46.751 26.6302 45.2093C24.4248 39.6935 22.2146 34.1776 20.0376 28.6492C19.88 28.2456 19.85 27.7081 19.9667 27.2919C20.6603 24.8374 21.3949 22.3956 22.1626 19.9632C22.3486 19.3768 22.243 19.0583 21.7417 18.6958C17.7692 15.822 13.3269 13.9902 8.64182 12.6676C8.19254 12.5415 7.7212 12.2294 7.42483 11.8684C5.86262 9.96407 4.35242 8.01721 2.82647 6.08296C2.60735 5.80552 2.40241 5.51704 2.11078 5.12451C9.63495 5.54068 16.3709 7.86115 22.5457 11.8416C24.4122 13.0444 26.1935 14.3796 28.0237 15.6391C28.5061 15.9717 28.7268 16.3532 28.7189 16.9791C28.6842 20.1334 28.6921 23.2894 28.7142 26.4454C28.7189 26.9876 28.6007 27.2856 28.0489 27.5252C26.8761 28.0344 26.2502 29.007 26.2376 30.2965Z" fill="#1C1D1D"/>
<path d="M56.8041 5.20651C56.555 5.52967 56.3075 5.85441 56.0553 6.176C54.5483 8.08817 53.057 10.013 51.5169 11.8983C51.2378 12.2388 50.7949 12.5352 50.3708 12.6534C45.7094 13.9571 41.2986 15.7873 37.3261 18.6028C36.7381 19.019 36.6025 19.3863 36.8279 20.0846C37.6035 22.4839 38.3082 24.9052 39.0065 27.3266C39.1058 27.6718 39.1389 28.1148 39.0112 28.438C36.2116 35.4971 33.3851 42.5452 30.5617 49.5949C30.5318 49.6721 30.4719 49.7399 30.3458 49.9385C30.3 49.6359 30.2512 49.4561 30.2512 49.2764C30.2464 44.2556 30.2559 39.2347 30.237 34.2155C30.2338 33.6637 30.3773 33.3816 30.9164 33.1419C32.0814 32.6217 32.7088 31.6538 32.7198 30.3612C32.7293 29.026 32.0861 28.0454 30.8833 27.511C30.3804 27.2872 30.2338 27.0287 30.237 26.51C30.2575 23.2942 30.2354 20.0767 30.2669 16.8609C30.2701 16.5235 30.4356 16.0648 30.6863 15.8693C36.5268 11.3308 42.7852 7.59003 50.1312 6.04831C52.2956 5.59273 54.5041 5.34366 56.6922 5C56.7284 5.06936 56.7663 5.13715 56.8041 5.20651Z" fill="#1C1D1D"/>
</g>
<path d="M75.1016 9.57031H100.203V13.7891H79.6484V24.2422H98.6562V28.2266H79.6484V39.8984H100.555V44H75.1016V9.57031ZM108.781 31.7422C108.781 34.4297 109.352 36.6797 110.492 38.4922C111.633 40.3047 113.461 41.2109 115.977 41.2109C117.93 41.2109 119.531 40.375 120.781 38.7031C122.047 37.0156 122.68 34.6016 122.68 31.4609C122.68 28.2891 122.031 25.9453 120.734 24.4297C119.438 22.8984 117.836 22.1328 115.93 22.1328C113.805 22.1328 112.078 22.9453 110.75 24.5703C109.438 26.1953 108.781 28.5859 108.781 31.7422ZM115.133 18.4531C117.055 18.4531 118.664 18.8594 119.961 19.6719C120.711 20.1406 121.562 20.9609 122.516 22.1328V9.45312H126.57V44H122.773V40.5078C121.789 42.0547 120.625 43.1719 119.281 43.8594C117.938 44.5469 116.398 44.8906 114.664 44.8906C111.867 44.8906 109.445 43.7188 107.398 41.375C105.352 39.0156 104.328 35.8828 104.328 31.9766C104.328 28.3203 105.258 25.1562 107.117 22.4844C108.992 19.7969 111.664 18.4531 115.133 18.4531ZM137.047 18.8984V35.5625C137.047 36.8438 137.25 37.8906 137.656 38.7031C138.406 40.2031 139.805 40.9531 141.852 40.9531C144.789 40.9531 146.789 39.6406 147.852 37.0156C148.43 35.6094 148.719 33.6797 148.719 31.2266V18.8984H152.938V44H148.953L149 40.2969C148.453 41.25 147.773 42.0547 146.961 42.7109C145.352 44.0234 143.398 44.6797 141.102 44.6797C137.523 44.6797 135.086 43.4844 133.789 41.0938C133.086 39.8125 132.734 38.1016 132.734 35.9609V18.8984H137.047ZM160.109 9.57031H165.617L183.008 37.4609V9.57031H187.438V44H182.211L164.562 16.1328V44H160.109V9.57031ZM204.688 18.3359C206.469 18.3359 208.195 18.7578 209.867 19.6016C211.539 20.4297 212.812 21.5078 213.688 22.8359C214.531 24.1016 215.094 25.5781 215.375 27.2656C215.625 28.4219 215.75 30.2656 215.75 32.7969H197.352C197.43 35.3438 198.031 37.3906 199.156 38.9375C200.281 40.4688 202.023 41.2344 204.383 41.2344C206.586 41.2344 208.344 40.5078 209.656 39.0547C210.406 38.2109 210.938 37.2344 211.25 36.125H215.398C215.289 37.0469 214.922 38.0781 214.297 39.2188C213.688 40.3438 213 41.2656 212.234 41.9844C210.953 43.2344 209.367 44.0781 207.477 44.5156C206.461 44.7656 205.312 44.8906 204.031 44.8906C200.906 44.8906 198.258 43.7578 196.086 41.4922C193.914 39.2109 192.828 36.0234 192.828 31.9297C192.828 27.8984 193.922 24.625 196.109 22.1094C198.297 19.5938 201.156 18.3359 204.688 18.3359ZM211.414 29.4453C211.242 27.6172 210.844 26.1562 210.219 25.0625C209.062 23.0312 207.133 22.0156 204.43 22.0156C202.492 22.0156 200.867 22.7188 199.555 24.125C198.242 25.5156 197.547 27.2891 197.469 29.4453H211.414ZM221.797 11.8906H226.062V18.8984H230.07V22.3438H226.062V38.7266C226.062 39.6016 226.359 40.1875 226.953 40.4844C227.281 40.6562 227.828 40.7422 228.594 40.7422C228.797 40.7422 229.016 40.7422 229.25 40.7422C229.484 40.7266 229.758 40.7031 230.07 40.6719V44C229.586 44.1406 229.078 44.2422 228.547 44.3047C228.031 44.3672 227.469 44.3984 226.859 44.3984C224.891 44.3984 223.555 43.8984 222.852 42.8984C222.148 41.8828 221.797 40.5703 221.797 38.9609V22.3438H218.398V18.8984H221.797V11.8906Z" fill="#1C1D1D"/>
<defs>
<clipPath id="clip0_323_391">
<rect width="58.9512" height="45" fill="white" transform="translate(0 5)"/>
</clipPath>
</defs>
</svg>
