<?xml version="1.0" encoding="UTF-8"?>
<svg version="1.1" viewBox="0 0 2048 1436" width="268" height="188" xmlns="http://www.w3.org/2000/svg">
<path transform="translate(0)" d="m0 0h2048v1436h-2048z" fill="#FCFCFC"/>
<path transform="translate(1e3 208)" d="m0 0h562l11 7 10 8 6 12 1 5 1 21v47l-12 1-6 2-2 10v77l-3 19-2 9-2 5-4 2h7l16-5 4-2h4v77l-1 1-16 1-3 1-1 6-1 40-1 100-1 13h22l2 3v31l-3 16-4 8-7 9-10 6-12 2-457 1h-87l-17-2-10-4-8-7-4-5-3-7-2-11-1-274v-100l1-84 2-13 4-8 9-10 11-7z" fill="#FCFCFC"/>
<path transform="translate(329,712)" d="m0 0 5 2 23 13 25 15 13 10 18 13 16 13 10 8 14 12 9 9 8 7 10 10-4 6-10 12-9 14-6 16-5 16v19l4 22 11 48 5 25 9 38 4 20 6 23 11 39 10 27 12 29 1 8-3 35-1 17v20h120l40-2 5-1h11l70 4 1-21h173l24-1 14-44 12-36 4-13 12-38 16-47 8-26 12-36 16-51 3-7 1-1h424l1 3-8 25-12 36-15 48-19 58-17 54-12 36-13 41-6 17 1 1h168l-1-1-7-52-3-11-8-6 1-6 3-5 1-7-4-9-2-4-3-26-6-33-2-16 1-3 11 1-3-3v-11l-9-37-8-45-2-19 6 2 8 6 11 11v-17l-1-32v-23l2-29 1-3 4 1 7 10 10 15 8 16 6 17v2l2-1 5-21 2-4 6 1 7 7 2 3 4-37 7-35 5-16 3-6h3l3 5 8 18 8 26 5 30 2 15 4-4 8-16 10-13 6-5h2l1 6v25l1 10 4-4 6-10 14-17 9-9 7-1v16l-4 31-7 36-2 7v8l3 1 3 15 5-5 8-10 11-12 7-6 5-1v13l-4 28-7 35-6 26-1 8-2 2 10 1-4 24-5 25-3 13v6l4 2 1 7-5 6-4 4-2 4v5l4 2 10 3-1 4-6 5-6 4-3 7-8 48-1 9h142l1 2-3 6-1 1-19 1-82 1h-49l-100-1h-42l-159 1h-641l-64-1h-406l-6-1-1-2v-6l1-1 70-1h24l53 1h26l-18-5-35-12-25-11-23-12-24-16-14-11-14-12-9-9-8-7v-2h-2l-7-8-12-13-20-25-11-16-14-21v-2l33-5 22-2h29l25 2 35 5 28 6 20 6h4l-7-12-8-11-12-21-15-30-11-28-12-37-6-25-7-39-5-42-2-27v-42l5-57z" fill="#0D487D"/>
<path transform="translate(793,788)" d="m0 0 16 4 31 9 17 6 14 8 16 11 31 29 12 12 7 8 12 13 7 8 13 16 10 13 2 3v3l3 1 11 16 13 18 16 24 8 11v13l-18 57-14 41-15 48-12 36-10 32-4 10-33 1h-143l-21-1v18l-1 3h-18l-52-3h-11l-5 1-40 2h-120l-1-1v-20l2-32 2-25-8-20-11-28-7-21-10-37-6-23-5-25-9-39-6-29-8-34-3-18v-19l10-30 6-10 9-12 11-13 7-3 14-8 14-5 12-5 27-7 12-2 11-1h11l5 3 3 3v2l5 2 4 3v2l5 2 11 7 17 13 21 14h12l5-2h3v-2l16-6 5-1h15l22 5 2 2 10 1 4-4 8-12 7-9 13-16 8-7 2-1z" fill="#FDB52D"/>
<path transform="translate(1513,142)" d="m0 0h17l46 1 14 3 8 7 6 8 5 11 2 9 2 60-1 66h179l39 1 7 1 2 9 1 7v78l-4 18-4 1-19 1-202 1v79l152 1 2 3v126l-1 31-1 1-23 1h-129v13l1 19v15l-2 13-5 12-8 11-6 5-11 3-6 1-29 1h-537l-21-2-10-3-8-7-7-10-4-12-2-15v-520l2-15 4-9 6-10 8-7 8-4 11-2zm-508 66-9 2-11 8-8 9-4 10-1 10-1 84v100l1 274 3 14 5 8 7 7 8 4 10 2 11 1h87l457-1 12-2 10-6 9-12 3-8 2-13v-31l-2-3h-22l1-13 1-100 1-40 1-6 3-1 16-1 1-1v-77l-6 1-14 5-4 1h-7l5-3 4-18 2-14v-77l2-10 6-2 12-1v-47l-1-21-3-10-6-9-17-12-2-1z" fill="#0D4A7E"/>
<path transform="translate(793,788)" d="m0 0 16 4 31 9 17 6 10 6 5 11 5 23 1 7v50l-5 62-3 33-4 63-1 25v39l2 35 2 15-35-10-48-14-42-12-33-10-54-16-13-5-5-5v-10l-3-27-8-54-8-42-7-33-10-36-9-26-10-23-10-17-9-13-9-8-6-4-11-2-18-3 2-2 16-5 22-5 17-2h11l5 3 3 3v2l5 2 4 3v2l5 2 11 7 17 13 21 14h12l5-2h3v-2l16-6 5-1h15l22 5 2 2 10 1 4-4 8-12 7-9 13-16 8-7 2-1z" fill="#D83335"/>
<path transform="translate(678,415)" d="m0 0h24l24 3 24 8 13 7 14 11 11 13 5 8-1 2-10-4 4 10 8 16 3 11 1 8v25l-2 9v8l3 14 1 18 1 1 1 18v46l-2 18-6 17-8 15-8 11-19 19-13 9-6 4-3 4v10l7 20 2 8v10l-7 13-11 12-10 5-12 4-10-1-18-6-16-8-19-12-11-9-2-2 1-8 8-24 4-25-1-13-1-5-16-7-9-3-17-6-10-5-15-10-15-14-10-12-9-15-6-13-5-19-3-22 1-16 4-22 5-15 6-12 10-17 10-19 10-16 11-12 11-11 14-10 16-9 22-8 13-3z" fill="#FCC697"/>
<path transform="translate(329,712)" d="m0 0 5 2 23 13 25 15 13 10 18 13 16 13 10 8 14 12 9 9 8 7 10 10-4 6-10 12-9 14-6 16-5 16v19l4 22 11 48 5 25 9 38 4 20 6 23 11 39 10 27 12 29 1 8-3 35-1 17v21h-5v-2h-3l-1 3-5 1h-14l-36-2-21-6-35-12-25-11-23-12-24-16-14-11-14-12-9-9-8-7v-2h-2l-7-8-12-13-20-25-11-16-14-21v-2l33-5 22-2h29l25 2 35 5 28 6 20 6h4l-7-12-8-11-12-21-15-30-11-28-12-37-6-25-7-39-5-42-2-27v-42l5-57z" fill="#00BB9F"/>
<path transform="translate(867,814)" d="m0 0 5 2 15 10 31 29 12 12 7 8 12 13 7 8 13 16 10 13 2 3v3l3 1 11 16 13 18 16 24 8 11v13l-18 57-14 41-15 48-12 36-5-1h-16l-8 2-19-1v-3l-7-1-17-6-11-4-9-2-12-5-2-6-2-23-1-20v-39l2-44 4-57 4-43 3-39v-50l-3-16-4-16z" fill="#FDB52D"/>
<path transform="translate(1614,830)" d="m0 0 4 3 9 21 8 26 5 30 2 15 4-4 8-16 10-13 6-5h2l1 6v25l1 10 4-4 6-10 14-17 9-9 7-1v16l-4 31-7 36-2 7v8l3 1 3 15 5-5 8-10 11-12 7-6 5-1v13l-4 28-7 35-6 26-1 8-2 2-13 2-38 4-14 1-28 1h-29l-23-1-40-4-10-4-1-2v-11l-9-37-8-45-2-19 6 2 8 6 11 11v-17l-1-32v-23l2-29 1-3 4 1 7 10 10 15 8 16 6 17v2l2-1 5-21 2-4 6 1 7 7 2 3 4-37 7-35 5-16 3-6z" fill="#00BB9F"/>
<path transform="translate(267,1069)" d="m0 0h29l25 2 35 5 28 6 24 7 9 3 29 14 11 6 24 14 13 7 5 2 1-2 11 28 8 20-2 25-2 32v21h-5v-2h-3l-1 3-5 1h-14l-36-2-21-6-35-12-25-11-23-12-24-16-14-11-14-12-9-9-8-7v-2h-2l-7-8-12-13-20-25-11-16-14-21v-2l33-5z" fill="#03728E"/>
<path transform="translate(1519,1078)" d="m0 0 9 1 10 2 40 4 23 1h29l28-1 32-3 20-2h23l-4 24-5 25-3 13v6l4 2 1 7-5 6-4 4-2 4v5l4 2 10 3-1 4-6 5-6 4-3 7-8 48-1 8-2 1-18 1-49 1h-35l-43-1-7-1-2-2-7-52-3-11-8-6 1-6 3-5 1-7-4-9-2-4-3-26-6-33-2-16z" fill="#E04636"/>
<path transform="translate(1369,252)" d="m0 0h136l26 1 1 1 1 37 1 59v80l-14 1-49 1h-67l-47-2-5-2v-56l1-118 1-1z" fill="#B7E4FB"/>
<path transform="translate(1602,423)" d="m0 0h8l1 1v79l152 1 2 3v126l-1 31-1 1-23 1h-146l-22-1 1-113 1-40 2-7 3-1 16-1 1-77z" fill="#00BCA2"/>
<path transform="translate(1596,307)" d="m0 0h195l39 1 7 1 2 9 1 7v78l-4 18-4 1-19 1-211 1-12 4-14 5-4 1h-8l2-3 3-2 3-12 3-19v-77l3-10 6-3z" fill="#FA4D42"/>
<path transform="translate(315,378)" d="m0 0h14l16 3 14 5 12 6 11 8 9 8 9 12 8 14 6 16 5 17v11l-2 7 1 9 7 10 16 25 2 4-4 1-37 3-9 3-15 12-16 8-15 6-14 4h-22l-15-3-16-7-13-8-10-9-8-8-10-15-7-15-4-14-1-7v-21l5-21 10-21 10-13 10-9 14-9 16-7 17-4z" fill="#17C3E8"/>
<path transform="translate(678,415)" d="m0 0h24l24 3 24 8 13 7 14 11 11 13 5 8-1 2-10-4 4 10 8 16 3 11 1 8v22h-3l-5-5-2-5-8-10-8-7-7-6-9-6-17-7-27-6h-8l-3 1-2 7-5 5h-2l-2 6-4 4-6 1-1-2-1-15-4-1-3 12-5 5-8 9-6 5-2 3h-3v2l-8 4h-5v2l-10 4h-10l-1 6 3 9 2 14v12l-3 3-3 1-1-8v-11h-2l-2 5-1 9v10l-3 11-1 21-5 1-6-9-6-8-4-4v-2l-4-1-7-1-10 2-5 5-3 5v17l4 12 8 14 9 10 7 6 12 6 9 1 7 10 7 14 9 9 3 6-11-2-17-6-10-5-15-10-15-14-10-12-9-15-6-13-5-19-3-22 1-16 4-22 5-15 6-12 10-17 10-19 10-16 11-12 11-11 14-10 16-9 22-8 13-3z" fill="#311417"/>
<path transform="translate(955,366)" d="m0 0 2 4v276h-1l-1-26-6 1h-12l-8-4-8-8-5-17-4-4-11-4h-17l-13 2h-14l-9-5-5-6-2-5v-12l6-8 4-5-1-8-6-11-7-6-12-5-13-11-4-7v-7l3-5 7-7 16-12 5-4 10-13 1-6-6-12-1-4v-18l3-12 3-3h16l25 7 8-1 12-7 6-8 4-13 4-2 19-3z" fill="#B5E3FA"/>
<path transform="translate(1290,783)" d="m0 0 5 1 5 6v10l-6 16-8 16-2 6v6l8-2 14-7 13-12 10-13 6-8 8-3 5-1h9l9 2 11 7 17 7v3l-12 10-8 7-14 12-19 14-15 10-19 11-24 10-15 5-10-1 12 9 10 7-2 5-10 17-2 4-10 2h-112l2-5 6-8 11-11 11-14 13-16 11-14 7-9 3-2 4 1 7 5 2-1 3-7 12-16 8-7 14-12 16-16 11-15z" fill="#FEDFB2"/>
<path transform="translate(1705,713)" d="m0 0 4 2 6 16 12 5 3 1h10l11-4 6 1 6 6v5l-6 7-5 4v8l4 8 18 2 8 4 3 5-4 6-7 7-16 9-3 7v9l4 11 2 9-6 4-5 1-8-7-5-2-8 7-14 15-6 4-9-1-10-8-3-6-9-5h-7l-8 3-6-1-7-7-2-5 1-7 2-5v-9l-4-8-2-1h-9l-7-6-1-2v-9l4-6 8-7 10-5 2-2v-8l-3-5-6-7 2-5 7-6h10l5 5v2l9-3 12-8 10-11 5-6z" fill="#B7E4FB"/>
<path transform="translate(867,1040)" d="m0 0 7 6 11 12 9 11 15 16 7 8 9 10 13 13 11 9 5 3 5 5 14 12 8 6h4l2-2-2 11-12 36-5-1h-16l-8 2-19-1v-3l-7-1-17-6-11-4-9-2-12-5-2-6-2-23-1-20v-39l2-44z" fill="#FCFCFB"/>
<path transform="translate(1540,1197)" d="m0 0 38 3 25 1h40l42-2 20-2h8l-1 9-7 43-1 8-2 1-18 1-49 1h-35l-43-1-7-1-2-2-7-52z" fill="#DF4636"/>
<path transform="translate(1528,1142)" d="m0 0 4 3 8 2 10 4 16 2 21 1h63l56-2 12-1 1-5 3 3 3 1 1 7-5 6-4 4-2 4v5l4 2 10 3-1 4-6 5-6 4-3 4-17 1-28 2-25 1h-40l-41-2-18-2-4-1-4-6-6-4 1-6 3-5 1-7-4-9-2-4z" fill="#FDB52D"/>
<path transform="translate(701,832)" d="m0 0h15l12 3-6 8v8l3 12 9 30 10 46 10 55v7l-6 8-10 7-9 3h-14l-9-4-9-7-9-12v-9l3-22 3-37v-44l-2-25-3-11-6-10 13-5z" fill="#0D487D"/>
<path transform="translate(793,788)" d="m0 0 2 1v19l-3 53-3 29-6 39-7 28-7 19-8 17-6 8h-1l-11-62-11-50-8-26-3-12v-8l7-8 10 2 2 2 10 1 4-4 8-12 7-9 13-16 8-7 2-1z" fill="#FDB62E"/>
<path transform="translate(1602,73)" d="m0 0h9l6 4 4 5 2 17 3 1h13l23-3 8-1 1 1 1 46 1 8 7-2h8l6 4 3 5v13l-6 8-16 4-3 6v14l3 12v11l-2 9-4 4-11-2-18-6-2-1h-6l-10 9-9 9-1-7v-19h1v6h2l2-4 12-12 8-7 7-8 8-14 2-6 1-8v-13l-2-9-6-12-9-10-11-7-11-4-4-1h-12l-16 6-10 6-10 9-8 6h-11l-2-2-2-8-4-10-1-4v-10l3-5 12-5 6-1 4 3 3 1h14l10-5 3-4 3-12 3-3z" fill="#B7E4FB"/>
<path transform="translate(598,800)" d="m0 0 7 4 1 3 5 2 11 7 17 13 21 14h12l5-2h3v-2l5 1 5 8 3 11 2 25v44l-4 46-3 21-5-5-8-13-10-18-13-27-14-34-12-31-11-26-8-19-8-18z" fill="#FDB62E"/>
<path transform="translate(1535,879)" d="m0 0 4 1 7 10 10 15 8 16 7 20v42l1 34v18l-7-6-10-10-4-1-4 4v13l6 34 2 13 3 1-20-1-10-4-1-2v-11l-9-37-8-45-2-19 6 2 8 6 11 11v-17l-1-32v-23l2-29z" fill="#03738F"/>
<path transform="translate(1208,860)" d="m0 0 4 1 10 7 14 10 14 11 13 10 17 12-2 5-10 17-2 4-10 2h-112l2-5 6-8 11-11 11-14 13-16 11-14 7-9z" fill="#FDB52E"/>
<path transform="translate(1519,1078)" d="m0 0 9 1 10 2 40 4 23 1h29l28-1 32-3 20-2h23l-2 13-3 3-5 2-19 1-5 1v1l-15 1h-19l-13 3-16 1-8 2-13 2-5 2-1 1-16 1-9 1-2 1v2l-16 6-1 3 1 3-5 5h-2v-2l-4 2-1 2-3 1v7l3 7-8-1-8-4-8-2-2-3-8-45-2-16z" fill="#F94C41"/>
<path transform="translate(1429,269)" d="m0 0h16l14 4 10 6 7 7 5 9 2 5 1 6v18l-4 10-7 9-7 6-13 6-9 2h-8l-13-4-10-6-6-5-7-11-5-13v-8l3-12 5-10 9-10 10-7z" fill="#FCFCFD"/>
<path transform="translate(1063,569)" d="m0 0h92l6 2 1 7v42l-1 1-33 1h-49l-20-1-9-2-1-1v-48z" fill="#17C3E8"/>
<path transform="translate(1203,568)" d="m0 0h76l24 2v50l-32 1h-69l-11-1v-51z" fill="#FDB62E"/>
<path transform="translate(1695,745)" d="m0 0h12l16 5 11 7 6 7 4 9 1 10-1 21-4 10-8 8-16 8-6 2h-14l-14-6-9-7-7-8-5-11v-19l4-13 6-8 8-7z" fill="#FCFCFD"/>
<path transform="translate(945,418)" d="m0 0 11 1v29l-2 1-17-1-6-1-16 7-12 9-6 8-4 11-1 4v13l7 12 11 13 8 8 6 3 7 1 24 1v24l-22-1-20-3-14-7-10-9-8-9-8-14-5-16v-18l4-14 7-14 8-10 11-11 11-7 11-5 15-4z" fill="#FCFCFD"/>
<path transform="translate(1600,112)" d="m0 0h12l13 4 12 7 9 9 6 10 3 8 1 6v13l-2 11-7 14-8 10-8 8-8 7-7 7-1 2h-2l-2-15-1-32-3-12-7-13-8-8-10-3-21-2-15-1v-1l12-3 13-12 11-7 12-5z" fill="#FCFCFD"/>
<path transform="translate(1614,830)" d="m0 0 4 3 9 21 8 26 5 30 2 20-4 13-9 24-7 25-3 14-1 10-1 2h-2l-2-6-4-25-6-28-6-20-3-9 2-26 4-27 6-28 5-15z" fill="#03738F"/>
<path transform="translate(931,446)" d="m0 0 6 1 19 1v105h-1l-1-15-23-1-9-2-6-4-11-11-11-15-3-6v-13l4-13 6-9 8-7 10-6z" fill="#B7E4FB"/>
<path transform="translate(1472,354)" d="m0 0 7 1 7 4 6 7 4 10 3 17v8l-3 2-20 1h-85l-2-1-1-3v-11l3-16 4-10 5-6 6-2 14 3 15 4h15l12-4z" fill="#FCFCFD"/>
<path transform="translate(608,159)" d="m0 0h19l10 3 9 6 8 11 4 15v12l-3 10-6 8-7 6-11 5-5 1h-13l-14-5-9-8-5-10-2-7v-15l5-15 10-11z" fill="#FEC813"/>
<path transform="translate(519,1183)" d="m0 0 6 5 12 16 17 17 21 10 30 10 29 6 46 6 10 1v1l-15 2-40 2h-120l-1-1v-20l2-32 2-20z" fill="#D83335"/>
<path transform="translate(361,425)" d="m0 0 6 1 13 10 6 8-2 5-16 17-13 14-7 8-9 9-7 8-9 9-6 4-5-1-6-4-25-16-14-9-2-3 1-7 6-8 8-9h6l7 6 7 8 12 12 4-2 12-17 9-12 10-14 7-10 4-5z" fill="#F9FBFC"/>
<path transform="translate(1648,522)" d="m0 0h8l2 3 1 5 1 48-6 8-19 19-7 8-7 7-6 1-5-6-8-17-2-9 1-14 4-16 6-11 9-10 14-10z" fill="#FAFCFC"/>
<path transform="translate(422,259)" d="m0 0h14l7 2 10 9 5 9 2 11v9l-2 10-6 8-7 6-11 4-12 1-8-2-9-6-7-8-5-10-1-3v-11l5-12 6-9 7-5z" fill="#037390"/>
<path transform="translate(671,259)" d="m0 0h10l10 3 10 9 5 7v3h2l1 3v12l-2 9-6 10-5 5-7 5-10 3h-11l-10-4-10-9-5-10-1-3v-21l4-8 7-8 10-5z" fill="#057490"/>
<path transform="translate(818,259)" d="m0 0h17l10 5 9 9 4 8 1 5v13l-3 10-7 9-11 7-12 3-10-1-8-4-6-4-6-8-3-7-1-5v-12l4-13 9-10 8-4z" fill="#037491"/>
<path transform="translate(1494,565)" d="m0 0h33l1 1 1 9v12h-77l-71-1h-24l-4-16v-2l72-2z" fill="#B7E4FB"/>
<path transform="translate(1709,887)" d="m0 0h5v16l-4 31-7 36-2 7h-2v8l-5 2-6 7-11 20-10 14-3 2-1-2 1-14 8-53 3-30 8-16 11-13 7-8z" fill="#03738F"/>
<path transform="translate(1740,967)" d="m0 0h3v13l-4 28-7 35-6 26-1 8-2 2-13 2-20 2h-6l4-1-1-6 15-53 6-21 6-9 13-15 9-9z" fill="#03738F"/>
<path transform="translate(1633,325)" d="m0 0 4 1v6l1 1 20 2 8 3 4 5 5 14 1 3v10l-3 5-11 12-9 6-6 2h-13l-6-3-3-5-5-6-5-19-1-6-5 3-3 3v-6l5-13 8-10 7-5z" fill="#FA4E41"/>
<path transform="translate(492,259)" d="m0 0h13l8 2 9 12 2 5v8l-3 7-8 6-1 2v6l10 15 2 5-1 1-18-1-4-4-5-12-1-3h-5l-3 6 1 13-9 1-8-1-2-4v-63z" fill="#037591"/>
<path transform="translate(1535,1173)" d="m0 0 1 3 16 4 14 3 23 2 22 1h28l36-2 18-2 19-4 5-2 4 3 8 2-1 4-6 5-6 4-3 4-17 1-28 2-25 1h-40l-41-2-18-2-4-1-4-6-6-4 1-6 3-5z" fill="#FDB62D"/>
<path transform="translate(458,159)" d="m0 0h22l14 4 8 7 3 7v10l-2 9-7 7-3 2 1 6 4 8 6 9 2 4v4h-11v-2l-4-2-6-8-5-13-4-4-2-1h-6l-2 2v11l2 10v6h-10l-3-7-1-6-1-30v-30z" fill="#FEC813"/>
<path transform="translate(1666,593)" d="m0 0 5 1 21 12 16 10 9 6-2 5-9 8-10 6-18 6-6 1h-19l-16-6-9-5v-4l7-8 22-22 7-8z" fill="#FAFCFC"/>
<path transform="translate(1267,359)" d="m0 0h16l8 4 6 5 5 8 3 9v7l-5 10-9 10-9 5-10 1-10-3-10-8-6-9-1-5v-14l3-7 7-8 8-4z" fill="#FDB630"/>
<path transform="translate(1269,265)" d="m0 0h14l10 5 6 7 5 9 1 10-2 9-5 8-11 7-11 2-11-1-8-4-7-8-3-9v-15l4-9 9-8z" fill="#18C3E9"/>
<path transform="translate(1269,444)" d="m0 0h13l10 5 5 4 5 8 2 7v9l-4 10-9 10-6 4-8 2-10-1-11-7-6-8-4-11v-8l4-11 4-5 9-6z" fill="#01BCA5"/>
<path transform="translate(333,159)" d="m0 0h27l12 2 7 4 5 7 1 5v14l-4 6-7 6-9 3-15 1-3 1-1 30h-11l-1-12-1-44z" fill="#FEC812"/>
<path transform="translate(1670,522)" d="m0 0 11 1 14 5 12 7 11 11 8 14 3 12-2 5-3 1-22 1h-23l-7-3-2-8-1-45z" fill="#FAFCFC"/>
<path transform="translate(670,159)" d="m0 0h7l6 3 7 10 11 15 11 16v2h2l3 3 2-9-1-37h13l1 9v42l-2 21-1 2-6-1-5-3-8-9-14-21-6-12-3-4-5-1 1 24v17l-3 9h-10v-64l-1-11z" fill="#FEC813"/>
<path transform="translate(335,260)" d="m0 0h37l9 6 5 8 1 3v8l-4 10-8 7-6 2-13 2-4-1 2 21-1 1h-18l-1-1z" fill="#03728F"/>
<path transform="translate(772,159)" d="m0 0h8l4 4 9 19 8 25 7 23v6l-1 1-8-1-2-1-4-10-6-7-6 1h-17l-4 5-2 10-7 2h-5l-1-4 3-11 13-39 6-16 2-5z" fill="#FEC813"/>
<path transform="translate(1536,1167)" d="m0 0 32 3 23 1h48l72-2 4-1v9l-6 3-23 4-23 2-24 1h-28l-33-2-17-2-17-4-8-3z" fill="#D83435"/>
<path transform="translate(842,1351)" d="m0 0h121l12 1-1 7-4 3h-208l-12-1v-8l4-1z" fill="#0C4D7F"/>
<path transform="translate(616,169)" d="m0 0h9l7 3 8 7 5 10 1 13-2 7-6 8-9 7-3 1h-12l-10-6-6-7-3-7v-13l7-14 9-7z" fill="#FDFCFB"/>
<path transform="translate(1164,371)" d="m0 0h38v4l-6 7-13 5-5 1-17 1h-64l-21-3-13-3-11-1-7-3-1-4 10-1 24-1z" fill="#F3FCFF"/>
<path transform="translate(539,159)" d="m0 0h12l9 4 5 4 5 8 1 10-5-1-6-4-9-8-2-1h-7l-6 3-2 2v7l5 5 14 3 8 4 5 5 5 8 1 3v11l-6 8-8 5-7 2h-8l-9-3-8-4-5-5-1-3v-7l4-2 7 1 10 10h12l5-5v-8l-8-6-17-6-10-4-3-5v-18l6-8 8-4z" fill="#FEC814"/>
<path transform="translate(1427,622)" d="m0 0 102 1v19l-33 1h-68l-1-1-1-10v-9z" fill="#FB4D42"/>
<path transform="translate(592,259)" d="m0 0h41l1 1v12l-2 4-17-1-7 3 1 6 4 2 14 2 1 11-2 2-12-2v2l-5 3-1 1 1 22-1 1-17-1-1-1-1-10v-56z" fill="#037692"/>
<path transform="translate(315,378)" d="m0 0h14l16 3 14 5 12 6 11 8 9 8 9 12 8 14 6 16-1 4-4-5-1-3h-3-4l-1 4v-3h-2l-1 3-6-2-5-5-2-3-2-6-4-7-7-5v-2l-4-1-1-4 3-7 4 2 1-5-9-8-11-7-15-4-22-1-6 2h-8l-20 6-5 3h-2v2l-7 2v2h-5l-2-3 14-9 16-7 17-4z" fill="#0AC5DB"/>
<path transform="translate(398,160)" d="m0 0h38l2 1v10l-10-1h-12l-5 5v15l25 1v11l-22 1-4 5v13l1 3 2 1h25v8l-2 2-10 2h-18l-10-3-1-4v-69z" fill="#FEC911"/>
<path transform="translate(539,259)" d="m0 0h39l3 2v13l-1 1-13 1-1 2v49h-19l-1-2-1-45-4-4-12-2-2-10 1-4z" fill="#037692"/>
<path transform="translate(1018,169)" d="m0 0h105v15l-1 1-18 1h-67l-23-1-1-1v-12z" fill="#FDC412"/>
<path transform="translate(1697,765)" d="m0 0h13l9 4 6 7 2 6v12l-4 10-8 7-5 2h-9l-10-5-8-9-4-8 1-9 6-10 6-5z" fill="#B7E4FB"/>
<path transform="translate(924,1193)" d="m0 0 1 3h19l8-2h16l4 2-2 10-10 31-1 1-32 1-3-39z" fill="#FDC798"/>
<path transform="translate(1051,648)" d="m0 0h111v11l-8 3-4 1-25 2h-27l-19-2-9-2-19-2z" fill="#F3FCFF"/>
<path transform="translate(1641,324)" d="m0 0h11l11 4 6 4 6 5 6 12 2 10v16l-4 10-7 9-8 6-6 2h-18l-11-3v-2l-5-2-9-6-7-8-3-8v-11l7-6h2l4 14 4 13 6 6v3l6 2h13l10-4 10-9 7-8 1-3v-10l-5-15-4-6-8-3-20-2-2-2v-6z" fill="#FDF4EB"/>
<path transform="translate(1598,132)" d="m0 0h9l11 4 8 6 7 8 3 7v16l-4 10-8 8-9 4h-3v18h-1l-1-36h1v-8l-8-16-5-6v-2l-4-2-1-3 2-6z" fill="#B7E4FB"/>
<path transform="translate(723,259)" d="m0 0h8l5 1 1 36v14l6 3 12-1 1 1v13l-1 1-10 1h-25l-2-1v-66z" fill="#047793"/>
<path transform="translate(1101,578)" d="m0 0h11l13 1 5 3 3 7v12l-2 5-5 2-7 1-17 1h-11l-6-3-3-6v-15l4-5 7-2z" fill="#F9FBFC"/>
<path transform="translate(1460,678)" d="m0 0h69v21l-67-1-2-15z" fill="#FDB62E"/>
<path transform="translate(542,170)" d="m0 0h7l8 6 7 6 8 3v-3l6 1 2 1 1-3 6-3-1 7-2 6v15l4 12 6 8 2 4-7-1-3-1h-11l-6 4-4-1 6-9v-11l-5-10-1-3-12-6-14-3-5-4-1-2v-7l6-5z" fill="#F4FAFA"/>
<path transform="translate(1232,651)" d="m0 0h72v7l-5 3-13 2-16 1h-65l-11 1-4-2-1-2v-8l1-1z" fill="#F3FCFF"/>
<path transform="translate(761,566)" d="m0 0h17l19 7 3 4v5l1 3-7 8-6 6-6 3-2 3h-3v-2l-12-1-5-3-1-5v-13l2-2v-5h-9l-7 5 1-4 10-7z" fill="#E34D36"/>
<path transform="translate(767,259)" d="m0 0h15l1 1v10l-1 11v26l2 14 1 6-7 1h-13l-1-1v-67z" fill="#037793"/>
<path transform="translate(549,1267)" d="m0 0h138l64 1 10 1-1 2-14 4h-28l-13-1-62-1-11-1h-22l-15 1h-45l-19-1v-1l-16-1-6-1v-1z" fill="#F3FCFF"/>
<path transform="translate(1602,423)" d="m0 0h8l1 1v80h-16l1-78z" fill="#0D4F81"/>
<path transform="translate(1425,621)" d="m0 0h92l12 1v1h-102v9l1 11h-2l-2-4-3 1-1 2-3 1h-51l-8-1 1-3 6-3v2l8 2h2v-15l4-1 1 2v15l2 1v-3l2-1v-14l-3-1 9-1h28l3 10 4 1z" fill="#FEDAAD"/>
<path transform="translate(1439,463)" d="m0 0h92v6l-2 1h-137l-42-2-3-2v-2z" fill="#B7E4FB"/>
<path transform="translate(1460,811)" d="m0 0h3l4 16 4 9 9 4 1 2 4 2-2 4-8 5-7 5-2 7-1 13-4 1-4-9-3-10-15-14 1-5 9-5 3-3h2l2-7 3-8z" fill="#FDB62E"/>
<path transform="translate(1494,565)" d="m0 0h33l1 1 1 9v12h-51l-1-1-1-19 1-1z" fill="#17C3E8"/>
<path transform="translate(559,1352)" d="m0 0h109l-1 9-1 1h-102l-6-2-1-7z" fill="#0C4F81"/>
<path transform="translate(824,160)" d="m0 0h9l1 50 1 15h10l11 2 1 2v6h-35l-1-49v-25z" fill="#FEC813"/>
<path transform="translate(1352,523)" d="m0 0h178v6h-176l-3-5z" fill="#B7E4FB"/>
<path transform="translate(756,666)" d="m0 0 2 1-1 7-3 10-5 5h-6l-1-3-10 4-6 1h-19l-5 3-5 1-4-5-6-12v-2h18l18-1 25-6z" fill="#D83435"/>
<path transform="translate(1566,1352)" d="m0 0h108l3 1-1 6-2 2-31 1h-42l-34-1-2-2-1-6z" fill="#0C4E7F"/>
<path transform="translate(228,807)" d="m0 0h2l1 13 4 6 4 5 5 4 2 4v7l-2 3-7 2-4 9-1 2h-6l-3-3-4-7-7-5-7-2v-6l3-4 5-1v-2l5-1 2-4 4-4 3-6z" fill="#FDB730"/>
<path transform="translate(1540,1197)" d="m0 0 38 3 25 1h40l42-2 20-2h8l-1 5h-2v2l-5 2h-13l-17 1h-36l-17 1-7-1-27-1-10-1-25-1-7 4-2 6-2-2z" fill="#D93535"/>
<path transform="translate(657,580)" d="m0 0h16l6 3 2 2-1 4-14-5-8-1v2l3 1v4l7 1 5 3 5 9-1 7-4 5-18 1-5-4-2-5v-10l5-7 1-3-11 3-6 4-6 11h-3l-2-3 1-4 5-5 6-7 6-4z" fill="#301316"/>
<path transform="translate(1482,493)" d="m0 0h49v5l-1 1h-177l-2-4 1-1z" fill="#B7E4FB"/>
<path transform="translate(611,165)" d="m0 0h7l-1 4-12 7-6 9-3 7v13l5 10 7 6 3 2v2l2 1-7 2-1 3h-6l-9-8-5-10-2-7v-15l5-15 9-8 7-1z" fill="#FEC912"/>
<path transform="translate(1727,330)" d="m0 0 87 1v7l-2 2h-98l-3-3v-5l1-1z" fill="#FDC798"/>
<path transform="translate(1457,677)" d="m0 0h54v1h-51l2 13v7h58v1h-95l-2-4v-15l7-2z" fill="#FEDFB2"/>
<path transform="translate(671,736)" d="m0 0 8 1 17 6 13 2 10 1 7 2 1 3-1 2 2 1h-2v4l-4 1-1 2-6 4-8 1-6-1-8-4v-2l-4-1-6-3-10-10-2-3-2-2z" fill="#FEB62D"/>
<path transform="translate(1715,381)" d="m0 0h105l3 4 2 5-94-1-20-1v-6z" fill="#D83335"/>
<path transform="translate(1268,280)" d="m0 0h16l5 3 3 3 1 3v10l-5 5-8 3h-15l-7-3-3-5 1-10 4-6z" fill="#FAFCFC"/>
<path transform="translate(821,275)" d="m0 0h7l6 3 6 7 1 3v10l-3 5-5 4-8 4-9-3-5-6-2-9 1-7 4-6 5-4z" fill="#F9FBFC"/>
<path transform="translate(668,276)" d="m0 0h12l6 4 3 4 1 4v10l-5 8-7 5-9-1-6-5-4-10v-9l4-6z" fill="#F9FBFC"/>
<path transform="translate(1391,679)" d="m0 0 4 1v18l-1 1h-11l-1-5 2 1v-6l-1 2h-2l-1 5 1 2-3 1h-25l-6-2v-9l2-7z" fill="#FEE1B7"/>
<path transform="translate(1271,456)" d="m0 0 8 1 5 3 7 11-1 9-4 6-6 5-8 1-6-4-4-5-3-10 2-9 8-7z" fill="#B6E3FA"/>
<path transform="translate(422,276)" d="m0 0h9l6 3 4 5 1 2v11l-3 6-11 8-6-1-6-4-4-8v-12l4-6z" fill="#F8FBFC"/>
<path transform="translate(1262,572)" d="m0 0 4 1 7 7 1 7-7 9-7 4-6 5h-2v2l-6 3h-14l-6-8v-5l3-2 16-1 6-3 5-7 3-9 3-1z" fill="#FCF9F6"/>
<path transform="translate(1114,569)" d="m0 0h41l6 2v7l-5 1-2-1 1 6-1 4-1 8-6 4-7 1v-2l-6 1-1-9-4-9-2-3 2-2-1-5-2-1-12-1z" fill="#0AC5DB"/>
<path transform="translate(1712,350)" d="m0 0 75 1h21l5 1v6l-3 1h-97l-2-2v-6z" fill="#FDC798"/>
<path transform="translate(718,162)" d="m0 0h13l1 9v42l-1 13h-1l-1-11-5 4-4-1-3-7v-3l2-9z" fill="#FEB62C"/>
<path transform="translate(1711,373)" d="m0 0h86l20 1-1 5-1 1-103 1-1-1z" fill="#FFE0B3"/>
<path transform="translate(748,660)" d="m0 0 5 1 3 3v3l-15 5-18 4-28 1-8-2v-5l8-3 5-1 22-2 9-2z" fill="#FDDEB1"/>
<path transform="translate(470,170)" d="m0 0h13l5 2 6 7v8l-5 6-5 2h-14l-5-4-1-3v-12l4-5z" fill="#FDFBF8"/>
<path transform="translate(1547,1217)" d="m0 0 7 5v2l4 2 5 4 2 5 1 8-1 7 6 6 4 2h-25l-2-2-3-24 1-13z" fill="#FA4C41"/>
<path transform="translate(1701,588)" d="m0 0h14l22 1 1 1v8l-4 13-2 2-6-1-24-16-4-4 1-3z" fill="#F7FBFC"/>
<path transform="translate(229,467)" d="m0 0h2l1 10 3 14 2 1 2 7 3 6v2l5 5 8 10 1 4 1 1 2 3 1 1 2 4-2 2 1 7 4 5-4-2-12-12-10-15-7-15-4-14v-22z" fill="#0BC5DC"/>
<path transform="translate(353,169)" d="m0 0h11l6 3 3 5 1 7-4 9-3 2h-17l-3-3-1-3v-12l2-5z" fill="#F4FAFB"/>
<path transform="translate(417,496)" d="m0 0 5 3 10 16 10 15 1 3-4 1-14 1h-14l-1-2h2l1-4-1-3h-2l2-4 5-8h2v-6l-2-6z" fill="#0BC5DC"/>
<path transform="translate(1129,372)" d="m0 0h72l-3 3-16 2h-138v-2l10-1 24-1z" fill="#B7E4FB"/>
<path transform="translate(334,187)" d="m0 0h1l1 11 1 3h6l2-1 3-5v-3l2 2 16 1-4 4-8 5h15l-4 2-15 1-3 1-1 30h-11l-1-12z" fill="#FDB731"/>
<path transform="translate(616,169)" d="m0 0h9l7 3 8 7 5 10 1 13-2 7-6 8-6 5-9 1-1-4 3-3 7-3 2-6 2-3v-11l-3-6-4-5-8-5-9-2-1-4z" fill="#F3FAFB"/>
<path transform="translate(1711,389)" d="m0 0h40l65 1 6 2 1 2-3 1-106 1-3-1z" fill="#FDFDFD"/>
<path transform="translate(677,550)" d="m0 0h7l5 4 2 6-3 2h-14l-23 5-21 6h-5l2-5 3-3 18-8 23-6z" fill="#4D1A1B"/>
<path transform="translate(1131,273)" d="m0 0h68v4l-17 1h-123v-4z" fill="#B7E4FB"/>
<path transform="translate(1201,621)" d="m0 0h18l51 1 3 1-2 4-10 3-8 1h-28l-23-3-3-2 1-4z" fill="#F3FCFE"/>
<path transform="translate(1641,324)" d="m0 0h11l11 4 6 4 6 5 6 12 2 10v16l-2-4v-3l-3 1-3 3v-12l-5-15-4-6-8-3-20-2-2-2v-6z" fill="#FDB62F"/>
<path transform="translate(765,576)" d="m0 0h8l7 2v5h2l1 6h7l3-1-1 5-5 4h-4v-2h-2v2h-2v2l-13 2-7-3v-17z" fill="#2E151A"/>
<path transform="translate(549,1267)" d="m0 0h138l64 1v1l-63 1h-173l-6-1v-1z" fill="#75D6F2"/>
<path transform="translate(1190,687)" d="m0 0h118v4l-12 1h-75l-25-1-6-1z" fill="#B7E4FB"/>
<path transform="translate(468,205)" d="m0 0h6l5 3 4 8 4 10 6 7 2 1v2l5 1v1l-11-1-16-4-4-3v-3h-2l-2-8v-11z" fill="#F4F9F8"/>
<path transform="translate(653,578)" d="m0 0h17l9 3 4 4 2 9v9l-4 13-7 4h-8l-5 1-7-4-2-4 3 2 18-1 4-6-1-7-3-5v-2l-4-1-8-3v-4l-4-1 1-2h8l14 5-1-4-6-3h-16l-12 1 2-2z" fill="#DC3D35"/>
<path transform="translate(1346,464)" d="m0 0 4 3 42 2 136 1v1l-9 1-41 1h-46l-58 1-22-1-5-4z" fill="#F3FCFF"/>
<path transform="translate(1196,457)" d="m0 0h6l1 2-3 3-17 1h-128l1-3 89-1z" fill="#9ADEF7"/>
<path transform="translate(1269,265)" d="m0 0h14l10 5 4 5h-3l1 5-3 6-5-4-3-1h-19l-2-5-9-2 5-5 6-3z" fill="#18C3E9"/>
<path transform="translate(683,186)" d="m0 0h5l8 13 4 8 8 11 5 9-1 2-6-3-7-6-2-1-12-1-1-9-1-1z" fill="#F1F9FB"/>
<path transform="translate(1272,374)" d="m0 0h7l5 2 2 4v13l-4 5-3 2h-9l-5-4-2-4v-11l5-5z" fill="#F3FBFE"/>
<path transform="translate(1612,356)" d="m0 0h2l4 14 4 13 6 6v3l6 2 12 1-4 2-3 1v3l-8-1-2-1v-2l-5-2-9-6-7-8-3-8v-11z" fill="#FDF4EB"/>
<path transform="translate(338,446)" d="m0 0h5l-1 5-12 15-10 15-3-1 1-2h-9l-3-3-1-6 4-2v-2l8-2 1-4 17-9 1-2h2z" fill="#0BC5DC"/>
<path transform="translate(1202,398)" d="m0 0h10v3l-20 1h-152v-2l33-1z" fill="#87DAF5"/>
<path transform="translate(773,180)" d="m0 0h4l5 7 5 16v7l-1 1h-19l1-14z" fill="#F4FAFB"/>
<path transform="translate(657,580)" d="m0 0h16l6 3 2 2-1 4-14-5-8-1v2l3 1v3l-5-2-1 4-3 5v12l1 3 4 2h14l6-5-2 4-2 3-18 1-5-4-2-5v-10l5-7 1-3-11 3-6 4-6 11h-3l-2-3 1-4 5-5 6-7 6-4z" fill="#DC3D35"/>
<path transform="translate(757,542)" d="m0 0h19l12 3 2 1v4h5v3l-12-2h-17l-18 2-11 2-1-2 2-5h2v-2l9-3z" fill="#581E1E"/>
<path transform="translate(1536,1167)" d="m0 0 4 1-2 1v5l11 4 9 2 38 3 26 1h11l16-2 26-1 21-2h13v1l-23 4-23 2-24 1h-28l-33-2-17-2-17-4-8-3z" fill="#FB4D42"/>
<path transform="translate(1633,325)" d="m0 0 4 1v6 3l-8 4-8 10-4 8-1 5-2-4v-2l-5 3-3 3v-6l5-13 8-10 7-5z" fill="#FDB62D"/>
<path transform="translate(527,198)" d="m0 0 10 1 15 6 7 6v8l-4 5h-7l-7-10-12-11z" fill="#F4FAFA"/>
<path transform="translate(1551,1267)" d="m0 0h42l100 1 23 1v1l-72 1h-30l-90-2v-1z" fill="#75D7F1"/>
<path transform="translate(1299,651)" d="m0 0 4 1-1 4h-33l-39 1h-13l-19-1-7-1v-1l5-1 42-1z" fill="#B7E4FB"/>
<path transform="translate(1401,679)" d="m0 0h17l1 7v10l-1 3h-14l-4-3v-15z" fill="#FFE0B3"/>
<path transform="translate(1711,373)" d="m0 0h86l20 1-1 5-1 1-103 1-1-1zm3 2-2 1 2 4 15-1h85l1-4z" fill="#FDC798"/>
<path transform="translate(1353,499)" d="m0 0h177v1l-24 2h-37l-61-1h-52z" fill="#F3FCFF"/>
<path transform="translate(751,576)" d="m0 0 5 5 2 16 2 5-3 1h-7l-5-3-3-3-1-8 7-11z" fill="#FDFDFD"/>
<path transform="translate(256,1136)" d="m0 0 5 5 15 16 7 7 5 4 7 8 10 9 19 13 4 4 5 3 13 8 12 7 9 6 12 6-3 1-24-12-19-12-14-10-16-13-13-12-12-11v-2h-2l-7-8-12-13z" fill="#0C4F80"/>
<path transform="translate(762,567)" d="m0 0h15l9 2 12 5 2 3v5l1 3-1 2h-2v-3h-3v-2h-9l-2-5-10-3-11-1-5-3z" fill="#341417"/>
<path transform="translate(1770,359)" d="m0 0h17l20 1-2 4-4 1h-2-41l-16-2-10-1-3-2z" fill="#D83335"/>
<path transform="translate(1271,456)" d="m0 0 8 1 5 3v5l-4 2-2 4-4 6-4 1-2-5h-3l-3-3v-7z" fill="#F8FBFD"/>
<path transform="translate(458,159)" d="m0 0h22l14 4 8 7 3 7v10l-2-4-3-5-8-4-1 2-4-4-15-2v-1h10l-1-7h-25-3z" fill="#FDB838"/>
<path transform="translate(548,800)" d="m0 0h5v2l2 1v3l2 1-1 2 4 2 5 5v2l2 1 1 6h2v2h2l-1 4-8-10-11-9-5-2-26-4 2-2 11-2h6z" fill="#FA4C41"/>
<path transform="translate(638,594)" d="m0 0 3 1v3l4 2 2 9 4 7-2 4-5 1-3-2v-2h-2l-4-5v-2h-3l-1-4 3-9z" fill="#FEDFB2"/>
<path transform="translate(1391,679)" d="m0 0 4 1v18l-1 1h-11l-1-5 2 1v-6l-1 2h-2l-1 5 1 2-9 1v-1l5-1 2-5v-10l-8-1v-1z" fill="#FEE0B3"/>
<path transform="translate(1056,482)" d="m0 0h145v2l-74 1h-49l-22-1z" fill="#18C3E9"/>
<path transform="translate(1353,569)" d="m0 0h24l-1 2h-2l-2 4v9l-1 1h-14z" fill="#18C3E9"/>
<path transform="translate(738,664)" d="m0 0 16 2v2l-18 5-9 2h-18l3-4 5-3 11-3z" fill="#FDF9F6"/>
<path transform="translate(1711,389)" d="m0 0h40l65 1 6 2 1 2-3 1-106 1-3-1zm1 1v4h98v-2l-3-1-56-1z" fill="#FDCD9E"/>
<path transform="translate(1641,324)" d="m0 0h11l11 4 3 4v4h-8l-20-2-2-2v-6z" fill="#FDF3EA"/>
<path transform="translate(608,159)" d="m0 0h19l10 3 5 3v1h-14l-4 1v2h-7l1-4-12 2-5 2-5 1-5 4 2-4 9-8z" fill="#FDB62E"/>
<path transform="translate(1560,1269)" d="m0 0 109 2v1l-18 1-45 1-34-1-23-2v-1z" fill="#F3FCFE"/>
<path transform="translate(644,724)" d="m0 0h1l1 11 2 10-7 19-4 10v16l4 6-4-2-7-6 1-8 8-24 4-25z" fill="#FFE0B3"/>
<path transform="translate(1785,953)" d="m0 0h6l5 5 1 4-3 8-4 3h-6l-4-4v-8z" fill="#FB4D42"/>
<path transform="translate(1713,351)" d="m0 0 68 3-1 2-66 2-2-2z" fill="#FFE0B3"/>
<path transform="translate(493,275)" d="m0 0 8 1 5 5-2 7-9 3h-5l-3-4-1-6 4-5z" fill="#F7F8F8"/>
<path transform="translate(1142,688)" d="m0 0h18v2l-7 1h-91l-24-1v-1z" fill="#18C3E9"/>
<path transform="translate(1253,274)" d="m0 0 10 2 2 5-9 6-5 10-1 8-2-1-1-4v-15l4-9z" fill="#0BC5DC"/>
<path transform="translate(1512,985)" d="m0 0 4 1 1 9 1 12 6 32 4 18v6l-2-2-9-38-5-28z" fill="#0C4D7F"/>
<path transform="translate(1611,213)" d="m0 0h1l1 38-1 56h-9v-1h7l-1-21v-31l1-32z" fill="#078CA9"/>
<path transform="translate(357,273)" d="m0 0 7 1 4 4v8l-2 4-2 1h-7l-4-4-1-5 3-7z" fill="#FAFAF9"/>
<path transform="translate(437,622)" d="m0 0 5 3 2 3-1 11-3 5-5-1-5-5 1-8 4-7z" fill="#047D97"/>
<path transform="translate(1682,993)" d="m0 0h4l-1 7-10 17-4 1-3-8v-8l1-2h3l2 3h2l2-6z" fill="#0C4C7E"/>
<path transform="translate(815,479)" d="m0 0 2 1-7 7-1 3v7l5 8 11 9 8 3v1l-7 1-12-7-8-7-3-6v-8l4-6z" fill="#F3FCFF"/>
<path transform="translate(1270,455)" d="m0 0h6v1l-7 2-7 6-2 10 4 11 6 5 7 1 6-3 5-6 3-11h1l-1 10-4 7-6 5-2 1h-9l-8-5-5-6-2-10 4-10 5-4z" fill="#13C3E4"/>
<path transform="translate(1063,569)" d="m0 0h23l-3 2-18 1-10-1v5l-2 1-1 8h2l1 6v16l-3 5h-2v-42z" fill="#0AC5DB"/>
<path transform="translate(301 1e3)" d="m0 0h2l5 8v2l3 1-1 3-2 1-3 5-2 2h-5l-2-3-1-11 4-7z" fill="#FB5240"/>
<path transform="translate(751,974)" d="m0 0 4 1 4 4 6-1-1 9-7 12-3 2-3-17z" fill="#FEC515"/>
<path transform="translate(398,160)" d="m0 0h38l2 1v10l-3-1v-2l-12-3-3-3-8-1v2h-6v-1l-7-1v25l-1 20h-1v-45z" fill="#FDB62D"/>
<path transform="translate(1702,712)" d="m0 0h5l1 2-5 1-13 15-9 7-9 5h-5l-3-5-2-1-10-1v-1h21l14-7 10-9z" fill="#F3FCFF"/>
<path transform="translate(835,225)" d="m0 0h10l11 2 1 2v6h-23l2-6z" fill="#FEC518"/>
<path transform="translate(1593,136)" d="m0 0 1 4 2 4 5 5 7 11 4 9v11l-3-4-4-11-6-10-7-7-5-2 2-6 3-1z" fill="#ECF9FE"/>
<path transform="translate(1701,588)" d="m0 0h14l19 1v1l-16 2-2 4-5 5-5-2-8-7 1-3z" fill="#EFFAFE"/>
<path transform="translate(1738,240)" d="m0 0h2l3 9v2h2l-2 10-3 4-5-2-3-6 2-11z" fill="#078EAB"/>
<path transform="translate(1294,275)" d="m0 0 4 1 6 10 1 10h-2v2l-6-1-3-5v-3h-2l1-7z" fill="#0BC5DC"/>
<path transform="translate(669,173)" d="m0 0h1v14l-1 16v28l-2-2-3-13-1-7 2-12 2-16z" fill="#F3FCFF"/>
<path transform="translate(1671,842)" d="m0 0h7l9 5 2 2 2 5 7 6-2 1-11-7-8-4-18-3 4-2z" fill="#F3FCFF"/>
<path transform="translate(241,849)" d="m0 0 2 1-6 2-2 11-3 9-5 3-5-3-2-16-4-6 4 2 4 7v2l8 1 3-9 2-3z" fill="#FDCA9C"/>
<path transform="translate(679,604)" d="m0 0h2v2h2l1-2-2 10-5 5-9 1-7 1-7-4-2-4 3 2 18-1z" fill="#DF4435"/>
<path transform="translate(1405,355)" d="m0 0 11 2 19 5 14 1v1l-5 1-23-1-9-2-12-1-3 1 2-4z" fill="#F3FCFF"/>
<path transform="translate(767,202)" d="m0 0h1l-1 9 19-1 2-3v7l1 5-5-1-3 1h-11l-5-1v-2h2l-1-3v-9z" fill="#FDB83B"/>
<path transform="translate(450,168)" d="m0 0h1l1 18v38l-2 4-1-3-1-28v-16z" fill="#F3FCFF"/>
<path transform="translate(657,580)" d="m0 0h16l6 3 2 2-1 4-14-5h-8l-10 2-8 1 1-3 7-3z" fill="#311316"/>
<path transform="translate(346,177)" d="m0 0 1 2 5 1 6 7 4 8h-12l-3-3-1-3z" fill="#FDFBF8"/>
<path transform="translate(1269,375)" d="m0 0 2 1-1 4 1 13 4 4 5 1-1 2h-9l-5-4-2-4v-11l5-5z" fill="#FCF9F5"/>
<path transform="translate(820,193)" d="m0 0h1v31l-3 2-1 8 2 2-10 1v-6l5-2 2-10 2-20z" fill="#F3FCFF"/>
<path transform="translate(611,223)" d="m0 0 3 1 12 1-3 1-1 4h-2l-1 3 7 2v1h-13l-12-4 4-2 3-3 4-1z" fill="#FDB62F"/>
<path transform="translate(1737,836)" d="m0 0 5 2 6 5v2l2 1-21 2-5 2 2-4 9-9z" fill="#F3FCFF"/>
<path transform="translate(1505,169)" d="m0 0h5l4 4v7l-3 4h-6l-2-5h-2v-6z" fill="#FAE4DB"/>
<path transform="translate(1539,169)" d="m0 0 5 1 3 2v9l-3 3h-6l-3-3v-8z" fill="#FCF5EF"/>
<path transform="translate(1377,624)" d="m0 0h2l1 2v17h-14l-8-1 1-3 6-3v2l8 2h2v-15z" fill="#FEDDB0"/>
<path transform="translate(1473,169)" d="m0 0 7 1 1 2v10l-1 1h-7l-2-1v-2l-3-1 1-7z" fill="#FBEBE4"/>
<path transform="translate(898,1075)" d="m0 0h2l7 8 10 11 7 8 11 11-1 2-12-11-16-15-6-8-2-3z" fill="#F5FBFB"/>
<path transform="translate(852,311)" d="m0 0 1 2-5 6-10 6-3 1h-11v-3l14-5 5-3 7-2z" fill="#0D4B7E"/>
<path transform="translate(1617,985)" d="m0 0 4 1-3 19-2 8-2-3-2-13v-8z" fill="#0E487D"/>
<path transform="translate(1620,381)" d="m0 0 8 8v3l6 2 12 1-4 2-3 1v3l-8-1-2-1v-2l-5-2-5-4h3z" fill="#FED5A0"/>
<path transform="translate(1663,329)" d="m0 0 5 2 7 6 2 9 2 12-2 1-6-15-7-6-2-2h4l-2-5z" fill="#FDC78F"/>
<path transform="translate(1275,313)" d="m0 0 6 2 8 2v2l-5 2-11 1-8-1v-2l-2-1 5-4h6z" fill="#0CC5DD"/>
<path transform="translate(763,261)" d="m0 0h1l1 67h-20v-1l10-1 1-11 2 4 5 3z" fill="#D9F2FD"/>
<path transform="translate(1133,299)" d="m0 0h78v2l-6 1h-34v-1l-38-1z" fill="#B7E4FB"/>
<path transform="translate(794,585)" d="m0 0 4 3-10 11-6 3-2 3h-3v-2l-12-1-4-2 2-1 6 1 10-1v-2h2v-2h2v2l7-3 3-6-3 2-7-1 1-2 4 1z" fill="#DA3935"/>
<path transform="translate(1699,896)" d="m0 0 2 1-6 10-4 5-2 4h-2l-2 5-6 8h-1l1-7 6-9 13-16z" fill="#0C4E80"/>
<path transform="translate(550,601)" d="m0 0h1l1 16 4 12 8 14 9 10 7 6 12 6-3 1-12-6-9-8-9-12-7-14-2-6-1-14z" fill="#DD3B36"/>
<path transform="translate(729,165)" d="m0 0 2 2v32l-2-4-1-4 1-5-5-13-4-2v-2l4-1z" fill="#FFCB0E"/>
<path transform="translate(818,259)" d="m0 0h17l7 3 1 5-10-4-2 1h-20l-2-2z" fill="#0C4D7F"/>
<path transform="translate(1386,681)" d="m0 0h8v17h-8z" fill="#FDC798"/>
<path transform="translate(752,573)" d="m0 0h9l1 1v5l-2 2v13l-2 4-2-7-1-10-3-4-3-2z" fill="#FDC693"/>
<path transform="translate(675,487)" d="m0 0h2l1 3v10l-2 4-7 2-2-2 5-12z" fill="#FEE4C1"/>
<path transform="translate(256,1136)" d="m0 0 5 5 15 16 7 7 5 4 7 8 10 9-1 2-15-14-11-10v-2h-2l-7-8-12-13z" fill="#0B5281"/>
<path transform="translate(539,159)" d="m0 0h12l9 4 5 5-7-1-15-3-2-1v-2h-7v-1z" fill="#FDB838"/>
<path transform="translate(1263,574)" d="m0 0 5 1 6 7v5l-3 4h-2l-1-5-8-8z" fill="#F4F9F9"/>
<path transform="translate(665,586)" d="m0 0 7 3v-2l6 2 2 2v9h-3l-4-4v-2l-4-1-6-4v-2z" fill="#FCC395"/>
<path transform="translate(1371,681)" d="m0 0h8l1 1v10l-3 6h-6l2-6v-7z" fill="#FDC798"/>
<path transform="translate(344,208)" d="m0 0h1l1 13-1 16h-9v-6l3 1 4-2-1-7-1-5 1-7z" fill="#FFCB0E"/>
<path transform="translate(1693,586)" d="m0 0h17l7 1 20 1v1h-36l-2 1 2 4 5 5-5-2-8-6-1-4z" fill="#16C3E7"/>
<path transform="translate(952,1194)" d="m0 0h16l4 2-2 10-10 31h-5l5-8 8-25-1-9h-15z" fill="#FED8AB"/>
<path transform="translate(1275,374)" d="m0 0 7 1 3 3 1 2v13l-3 3-4-17z" fill="#EFF3F2"/>
<path transform="translate(221,1089)" d="m0 0 4 4 3 5 4 4 7 11 6 7 4 6 4 5-1 2-9-10-13-18-9-13z" fill="#0B5180"/>
<path transform="translate(398,160)" d="m0 0h22v1h-8v2h-6v-1l-7-1v25l-1 20h-1v-45z" fill="#FDC060"/>
<path transform="translate(721,694)" d="m0 0h12l5 2-2 2-8 2-15-1v-3z" fill="#FB4D42"/>
<path transform="translate(592,666)" d="m0 0h9l7 10 7 14 9 9 3 6-5-1-3-7-7-7-9-17-5-4-6-2z" fill="#DB3B35"/>
<path transform="translate(1381,623)" d="m0 0h8l2 1 1 5v10l-4 2-2-5-1-9-1-3z" fill="#FDC899"/>
<path transform="translate(1472,354)" d="m0 0 7 1 7 4-2 1h-10l-6 1h-11l3-2 8-4z" fill="#F3FCFF"/>
<path transform="translate(781,577)" d="m0 0 4 2 1 2h7l2 1v2h3v3l-4-1-6 3-5-2-2-4z" fill="#FDC685"/>
<path transform="translate(742,585)" d="m0 0 1 2-1 6 2 5 3 3 3 1h10l-1-4 3 2v2l4 1v3l-6 1-11-2-8-7-1-3v-7z" fill="#FEDFB2"/>
<path transform="translate(1385,569)" d="m0 0h7v8l-1 7h-5l-1-3z" fill="#18C3E9"/>
<path transform="translate(1711,720)" d="m0 0 2 3 3 6 12 6h8l13-3 4 1-13 5h-10l-14-5-4-6z" fill="#F3FCFF"/>
<path transform="translate(1413,680)" d="m0 0 4 2v16h-5l-1-4v-13z" fill="#FDC798"/>
<path transform="translate(748,669)" d="m0 0h7l-3 6-6 1-2-1-7 1-6-1 1-2z" fill="#44181B"/>
<path transform="translate(1751,390)" d="m0 0h65l2 4h-8v-2l-59-1z" fill="#FDD2A3"/>
<path transform="translate(784,217)" d="m0 0 4 1 7 9v5l-5-2-3-3v-2h-2l-1-5h-7l4-2z" fill="#F6F3EB"/>
<path transform="translate(582,260)" d="m0 0h7v18h-1l-1-7h-4l-1 4-2-1 1-11 2-1z" fill="#DEF3FD"/>
<path transform="translate(411,191)" d="m0 0h25v5l-8 1-7-2-5-2-5-1z" fill="#FEB62D"/>
<path transform="translate(1409,623)" d="m0 0 3 1 2 7v6l-3 4-3-3v-14z" fill="#FDC798"/>
<path transform="translate(453,192)" d="m0 0h1l1 30 2 9-1 4-4-2-2-5 2-7z" fill="#FBEAD4"/>
<path transform="translate(1245,398)" d="m0 0h2l8 11 7 5 3 2h-6l-9-6-5-7z" fill="#F5F9F7"/>
<path transform="translate(638,590)" d="m0 0 2 1-6 8-3 6h-3l-2-3 1-4 7-7z" fill="#732222"/>
<path transform="translate(537,172)" d="m0 0 2 1-2 2 1 4 6 9 1 2-6-1-5-4-1-2v-7z" fill="#FCF7F0"/>
<path transform="translate(1701,588)" d="m0 0h14l19 1v1l-31 1 1 4 1 2-4-2-3-3 1-3z" fill="#B7E4FB"/>
<path transform="translate(483,171)" d="m0 0 5 1 5 5v9l-2 2-4-8-4-7z" fill="#F4FAFB"/>
<path transform="translate(718,162)" d="m0 0h13v5l-2-1-7 4-4-2z" fill="#FDB62E"/>
<path transform="translate(1678,822)" d="m0 0 5 2 11 4 5 1h13l6-1-2 2-6 2h-14l-14-6z" fill="#F3FCFF"/>
<path transform="translate(301,996)" d="m0 0h2l5 10 5 6-1 2-2-1v-2l-5-5-2-6-4 1-2 6-1 1v11l-2-4-1-6 7-12z" fill="#FDCB92"/>
<path transform="translate(216,850)" d="m0 0 4 2 3 4 1 14h6l3-4-1 6-5 3-5-3-2-16z" fill="#FEDCAF"/>
<path transform="translate(656,584)" d="m0 0 5 2v3l-6-1-10 1-4 3-6-1 3-5 10-1z" fill="#D93735"/>
<path transform="translate(516,1241)" d="m0 0 1 2h3l1 11-2 2-5-1 1-11z" fill="#FB4D42"/>
<path transform="translate(781,568)" d="m0 0 5 1 12 5 2 3v5l1 3-1 2h-2v-3h-3v-2l-2-1h3v-4l-1-2-12-5z" fill="#DC3D35"/>
<path transform="translate(1403,680)" d="m0 0 5 1-3 14h-3l-1-1v-10z" fill="#FDC798"/>
<path transform="translate(779,184)" d="m0 0 3 3 4 12-1 3-1-2-4-1-2-6z" fill="#FDF5ED"/>
<path transform="translate(1051,649)" d="m0 0h8l-1 9h-7z" fill="#B7E4FB"/>
<path transform="translate(653,578)" d="m0 0h17l9 3 3 4-4-2-5-2h-16l-12 1 2-2z" fill="#DA3935"/>
<path transform="translate(658,583)" d="m0 0h8l10 4-2 1-2-1v2l-5-1-4-1v2l3 1-2 1-3-1v-4l-4-1z" fill="#DD4035"/>
<path transform="translate(794,303)" d="m0 0 3 2 3 7 2 3 7 4 5 6-5-1-7-5-6-8-2-4z" fill="#0C4E7F"/>
<path transform="translate(1554,1179)" d="m0 0h15l10 1 14 2v1h-11l-24-2z" fill="#E04736"/>
<path transform="translate(1520,1034)" d="m0 0 1 2h2l4 15 1 12-2-2-6-24z" fill="#0B5281"/>
<path transform="translate(924,1193)" d="m0 0 1 3h12l6 1v1l-11 1-3 3-1 2h-3l-1-4z" fill="#FEDDB0"/>
<path transform="translate(1271,456)" d="m0 0 8 1 5 3v5l-3-3h-3l-3 7h-1v-7l1-3h-7z" fill="#DDF3FD"/>
<path transform="translate(1289,295)" d="m0 0h4l-1 6-5 4-6 1 4-8z" fill="#E0F4FD"/>
<path transform="translate(1080,649)" d="m0 0h7l1 1v7h-7l-1-1z" fill="#B7E4FB"/>
<path transform="translate(1257,302)" d="m0 0h10l13 4v1h-15l-7-3z" fill="#DBF2FD"/>
<path transform="translate(1363,684)" d="m0 0h5l1 7-2 3-5-1v-7z" fill="#FDC798"/>
<path transform="translate(435,623)" d="m0 0 1 2-1 3v12l3 2 3 1-5 1-6-6 1-8z" fill="#08C0BF"/>
<path transform="translate(592,622)" d="m0 0 2 2 2 10-4 4-2-1v-8z" fill="#E04736"/>
<path transform="translate(767,572)" d="m0 0 15 3 3 2-1 2-2-1-1 5h-1l-1-5-13-2z" fill="#DB3C35"/>
<path transform="translate(1592,426)" d="m0 0h4v5l-5 2h-6l-2-1v-2z" fill="#F3F3EF"/>
<path transform="translate(737,686)" d="m0 0 2 1-7 3-6 1h-17l-2-2 14-1 9-1z" fill="#FB4D42"/>
<path transform="translate(746,220)" d="m0 0 1 2-3 11-2 3-3-5 2-5z" fill="#F3FCFE"/>
<path transform="translate(650,608)" d="m0 0 3 1v2l4 2h14l6-5-2 4-2 3-18 1-4-5z" fill="#D83335"/>
<path transform="translate(1247,474)" d="m0 0 7 14 7 7 1 3-4-2-5-4-6-12z" fill="#057E9B"/>
<path transform="translate(1280,468)" d="m0 0h2l-2 10-2 1 1-6-3 5-2 5-4-1v-2l4-4 4-6z" fill="#12B1D4"/>
<path transform="translate(230,454)" d="m0 0 2 3-1 8-2 4-1 15h-1v-21l1-5h2z" fill="#11C4E2"/>
<path transform="translate(622,566)" d="m0 0h6l-2 5-8 4h-3v-2l3-1 2-5z" fill="#FEDDB0"/>
<path transform="translate(761,599)" d="m0 0 8 1 16-1-5 6h-3v-2l-12-1-4-2z" fill="#DE4335"/>
<path transform="translate(359,421)" d="m0 0 2 2-1 4-5 5h-4l1-5z" fill="#0CC5DD"/>
<path transform="translate(731,213)" d="m0 0h1l2 13v6l-2 4h-3z" fill="#F7EFE3"/>
<path transform="translate(674,484)" d="m0 0 5 1 1 17 5-1-1 2h-5l-1-2-1-14h-2l-2 5-1-3z" fill="#E9785B"/>
<path transform="translate(1291,471)" d="m0 0h1l-1 10-4 7-6 5-4 1 1-3 6-4 4-5z" fill="#11C4E2"/>
<path transform="translate(435,305)" d="m0 0h2l-2 5-5 3-8-1-4-4 10 2z" fill="#0DC5DE"/>
<path transform="translate(518,176)" d="m0 0h1v17l-4-4 1-10z" fill="#F6FCFE"/>
<path transform="translate(952,1194)" d="m0 0h16l4 2-2 10-2-4-1-7h-15z" fill="#FEDDB0"/>
<path transform="translate(1348,682)" d="m0 0h6l-3 5-2 10h-2v-9z" fill="#FDCB9D"/>
<path transform="translate(643,300)" d="m0 0 2 3 5 10 7 8h-3l-8-9-3-7z" fill="#0B5180"/>
<path transform="translate(395,181)" d="m0 0h1v25h-1l-2-10v-9h2z" fill="#F3FCFF"/>
<path transform="translate(386,541)" d="m0 0 2 1-2 4-7 5-3-1 4-6z" fill="#0DC5DE"/>
<path transform="translate(954,537)" d="m0 0h1v24l-3-1 1-2v-11l-2-7-1-2z" fill="#F3FCFF"/>
<path transform="translate(745,782)" d="m0 0h1v10l-4 8h-1v-7z" fill="#FFE0B3"/>
<path transform="translate(752,312)" d="m0 0 4 1v5h-2l-1 2v-2l-4-2-3-2z" fill="#0C5383"/>
<path transform="translate(761,566)" d="m0 0h17l3 2h-19l-3 2 1 2h-5l1-4z" fill="#DA3835"/>
<path transform="translate(396,305)" d="m0 0 4 5 7 8 4 5-5-2-8-9-2-4z" fill="#0A5582"/>
<path transform="translate(1632,229)" d="m0 0h6l7 3-3 1h-10l-6 2 5-5z" fill="#F3FCFF"/>
<path transform="translate(1459,678)" d="m0 0h1l2 13v7h-3z" fill="#FDC798"/>
<path transform="translate(1377,626)" d="m0 0h3l-1 12h-2l-1-2v-9z" fill="#FDC899"/>
<path transform="translate(751,575)" d="m0 0 5 1 1 3 1 11 1 8-2-1-2-16z" fill="#FCD0A4"/>
<path transform="translate(1698,778)" d="m0 0 5 1 1 4-6 1-2-4z" fill="#F3FCFF"/>
<path transform="translate(768,602)" d="m0 0h10l-1 3 3 1-6 1-6-3z" fill="#FEB62D"/>
<path transform="translate(643,186)" d="m0 0 2 3 1 13-2 7h-1z" fill="#FDE9D4"/>
<path transform="translate(857,808)" d="m0 0 6 2 5 5-1 3-3-3-7-3z" fill="#E04A35"/>
<path transform="translate(680,591)" d="m0 0 2 2v7l-3 6-2-3-2-6 4 3z" fill="#DE4335"/>
<path transform="translate(724,606)" d="m0 0h2l5 10v2l-4-2-3-7z" fill="#FEB62D"/>
<path transform="translate(1703,1249)" d="m0 0h1v8l-2 1h-11v-1l9-1v-2h2z" fill="#D83335"/>
<path transform="translate(592,666)" d="m0 0h9l4 5v2l-4-2-9-4z" fill="#E03F37"/>
<path transform="translate(679,604)" d="m0 0h2v2h2l1-2-1 7-2 1v-2h-4z" fill="#E96F54"/>
<path transform="translate(638,586)" d="m0 0 6 1-2 4h-4l-3-1z" fill="#D43534"/>
<path transform="translate(1270,455)" d="m0 0h6v1l-7 2-7 6h-2l-1 3-1-2 4-5z" fill="#0FC4E0"/>
<path transform="translate(838,281)" d="m0 0 5 5-1 14h-1l-1-12-2-4z" fill="#0C4C7E"/>
<path transform="translate(1601,71)" d="m0 0h8l1 2-11 2-4 1 1-3z" fill="#F3FCFF"/>
<path transform="translate(653,578)" d="m0 0h8l-1 2-12 2-3-1z" fill="#DB3C35"/>
<path transform="translate(656,216)" d="m0 0 1 2-3 5-4 3h-2l2-4 5-5z" fill="#F4FCFE"/>
<path transform="translate(759,578)" d="m0 0 3 1-2 2v13l-2-1-1-9z" fill="#E14F34"/>
<path transform="translate(413,226)" d="m0 0h16v1l-7 2-4 1z" fill="#FEB62D"/>
<path transform="translate(1693,586)" d="m0 0h17v1l-15 1 2 5-4-2-1-4z" fill="#0AC6DB"/>
<path transform="translate(486,285)" d="m0 0 4 5 2 1-1 4h-4z" fill="#0C4C7E"/>
<path transform="translate(402,1242)" d="m0 0 9 1 4 2v2l-12-3z" fill="#0B5381"/>
<path transform="translate(1703,986)" d="m0 0h1v8l-4-1-1-3z" fill="#02758F"/>
<path transform="translate(229,801)" d="m0 0h1l1 9-1-3h-2v10h-1v-12z" fill="#FEDCAE"/>
<path transform="translate(739,685)" d="m0 0h5l8 2-3 2h-6l-1-3z" fill="#F74C40"/>
<path transform="translate(682,594)" d="m0 0 2 4v6l-1 2h-2l-1-4z" fill="#D83335"/>
<path transform="translate(609,564)" d="m0 0h1l1 9-3 1-1-5 1-4z" fill="#FFE0B3"/>
</svg>
