<?xml version="1.0" encoding="UTF-8"?>
<svg version="1.1" viewBox="0 0 1600 800" width="318" height="159" xmlns="http://www.w3.org/2000/svg">
<path transform="translate(0)" d="m0 0h1600v800h-1600z" fill="#16A9B5"/>
<path transform="translate(1023)" d="m0 0h577v800h-833l-11-8-27-15-15-9-24-14-21-12-24-14-25-14-24-14-28-16-26-15-24-14-29-17-35-20-25-14-1-224 1-64 8-7 2-1h6l18 10 20 11 11 7 9 5 15 9 28 16 27 16 23 13 24 14 46 26 7 1 16-6 21-8 16-6 9-3 11-1 7 3 8 9 7 14v7l-5 8-10 9-4 3 6 5v2l5 2 25 14 17 10 17 9 3 1 4 4 23 12 44 26 3 1v-117l1-25 3-24 5-30 6-23 5-12 6-11 5-8h2l4-8-17-2-12-5-8-7-5-8-6-15-6-21-3-16-2-36-9-9-5-4-7-11-2-6v-8l4-8 5-4 3-1h12l1-6 11-12 11-3 52-6 31-6 24-6 6-2-1 5-2 6-1 4v19l4 13 7 12 9 11 11 11-1 11-2 9v8h4l3-13 2-10 4-6 6-2h6l6 4 4 7v11l-4 14-7 13-5 5-5 3-6 2-6 9-2 6 1 9 12 36 11 27 4 9 6 10 7 10 4 2 2-23 4-1 10 11 5 7-1 18-5 36-6 27-4 14-9 26-14 29-15 30-7 20-6 22-8 39-3 19v3l1 4-7 2-21 2-8 2 6 5 5 10 2 12v22l-2 13-14-2-18-4 3 7 3 6 6 5 34 12 30 8 25 6 33 6 41 5 19 1h17l19-1 25-4 14-7 10-9 9-13 8-16 7-21 5-23 3-23 2-25v-49l-3-37-6-40-5-25-7-26-6-16-9-17-9-11-13-14-8-7-14-12-17-12-11-9 2-2-1-7-6-11-12-21-6-13-6-18-4-18v-14l3-19 1-10v-30l-2-19-6-25-7-19-10-21-13-19-26-36-9-10-11-8-8-4-3-1h-10l-10 2h-4z" fill="#27CCD6"/>
<path transform="translate(1010,91)" d="m0 0 1 3-2 3-2 9v19l4 13 7 12 9 11 11 11-1 11-2 9v8h4l3-13 2-10 4-6 6-2h6l6 4 4 7v11l-4 14-7 13-5 5-5 3-6 2-6 9-2 6 1 9 12 36 11 27 4 9 6 10 7 10 4 2 2-23 4-1 10 11 5 7-1 18-5 36-6 27-4 14-9 26-14 29-15 30-7 20-6 22-8 39-3 19v3l1 4-7 2-21 2-8 2 6 5 5 10 2 12v22l-2 13-14-2-18-4 3 7 3 6 5 5-2 4-25 14-27 16-28 16-19 11-44 26-10 6h-56l-11-8-27-15-15-9-24-14-21-12-24-14-25-14-24-14-28-16-26-15-24-14-29-17-35-20-25-14-1-224 1-64 8-7 2-1h6l18 10 20 11 11 7 9 5 15 9 28 16 27 16 23 13 24 14 46 26 7 1 16-6 21-8 16-6 9-3 11-1 7 3 8 9 7 14v7l-5 8-10 9-4 3 6 5v2l5 2 25 14 17 10 17 9 3 1 4 4 23 12 44 26 3 1v-117l1-25 3-24 5-30 6-23 5-12 6-11 5-8h2l4-8-17-2-12-5-8-7-5-8-6-15-6-21-3-16-2-36-9-9-5-4-7-11-2-6v-8l4-8 5-4 3-1h12l1-6 11-12 11-3 52-6 31-6 24-6z" fill="#DDE5FB"/>
<path transform="translate(427,383)" d="m0 0h1l1 18v203l5 2 26 14 41 24 26 15 69 40 21 12 23 13 26 15 24 14 26 15 43 25 8 6v1h-767v-171l18-10 24-14 25-14 24-14 18-10 20-12 26-15 21-12 15-9 24-14 29-16 53-31 27-16 11-6 17-10 19-11 23-13 27-16z" fill="#6B30EF"/>
<path transform="translate(1038,2)" d="m0 0h10l9 4 11 7 10 10 13 18 10 14 12 17 8 13 9 19 8 24 5 24 1 13v30l-3 23-1 12v8l6 25 7 18 10 19 9 15 3 7-1 5v2l13 10 14 10 14 12 15 14 7 8 8 10 10 19 8 24 6 24 7 43 3 25 2 26v49l-3 35-4 23-5 20-7 19-9 16-9 11-8 7-14 7-25 4-19 1h-17l-28-2-39-5-40-8-26-7-17-5-32-11-8-7-4-8v-4l8 1 24 5 1-13v-22l-3-15-6-9-5-4 10-2 27-3-1-4v-3l5-30 9-40 6-19 6-15 24-48 9-24 4-11 8-34 5-32 2-19v-8l-11-14-3-3h-3l-2 23h-4l-5-6-6-10-5-7-8-20-10-26-9-28 1-9 4-8 5-6 12-4 10-20 3-11v-11l-5-8-4-2-10 1-4 4-3 9-1 9-3 7-4 1-1-1v-8l3-14v-6l-14-14-10-14-5-11-2-8v-19l2-9 2-5-13 4-30 7-32 5-37 4-11 3-7 7-4 7-1 3-7-1-1-7v-35l2-8 6-9 7-7 10-8 8-9 7-8 11-7 11-4 25-4 17-1h13l24-10 17-9 6-2z" fill="#130468"/>
<path transform="translate(1010,91)" d="m0 0 1 3-2 3-2 9v19l4 13 7 12 9 11 11 11-1 11-2 9v8h4l3-13 2-10 4-6 6-2h6l6 4 4 7v11l-4 14-7 13-5 5-5 3-6 2-6 9-2 6 1 9 12 36 11 27 4 9 6 10 7 10 4 2 2-23 4-1 10 11 5 7-1 18-5 36-6 27-4 14-9 26-14 29-15 30-7 20-6 22-8 39-3 19v3l1 4-7 2-21 2-8 2v1l-16-1-14-7-43-25-24-14-23-13-17-10-42-24-4-3-1-17-6-7-15-9-26-15-14-8-6-4 1-4 9-7 4 1 4 3v2l5 2 25 14 17 10 17 9 3 1 4 4 23 12 44 26 3 1v-117l1-25 3-24 5-30 6-23 5-12 6-11 5-8h2l4-8-17-2-12-5-8-7-5-8-6-15-6-21-3-16-2-36-9-9-5-4-7-11-2-6v-8l4-8 5-4 3-1h12l1-6 11-12 11-3 52-6 31-6 24-6z" fill="#EAAA82"/>
<path transform="translate(427,383)" d="m0 0h1l1 18v201l-3 7-2 3-13 4-5 2 1 4-1 7-1 3 1 5 4 6 5 3 1 5-7-4-11-7-26-14-24-14-26-15-24-14-29-16-18-11-5-4-8 1-21 10-13 8-26 15-23 13-26 15-14 9-9 7-3 3-1 8-9 4-11 7-6 5-1 16 1 2-6-2-2 6-3 2-4 8v2l5 2 18 10 12 7 16 9h1l-1-5 11 1 8 3 13 5 8 4 13 4 8 1 1 2-1 3 4 2 6 5 1 4-1 2-15 2-15-9-7-4-1 1 23 13 5 3h3v3l5 2 5 3-2 1-23-13-48-28-23-13-22-13-29-16-10-6-1 124h-28v-171l18-10 24-14 25-14 24-14 18-10 20-12 26-15 21-12 15-9 24-14 29-16 53-31 27-16 11-6 17-10 19-11 23-13 27-16z" fill="#6B30EF"/>
<path transform="translate(242,551)" d="m0 0 5 1 15 10 24 13 24 14 28 16 24 14 18 10 25 14 12 9v11l2 7 5 7v19l-22 13-24 14-26 15-22 13-17 10-24 14-12 8-5 3-9-3-19-10-27-16-52-30-18-10-21-13-17-10-21-12-13-8-1-1 1-16 8-7 12-7 7-2v-8l7-7 17-11 29-17 27-15 24-14 15-9 17-8z" fill="#2F8FD7"/>
<path transform="translate(857,199)" d="m0 0h10l8 1 3 26 6 24 7 19 5 9 8 7 12 5 17 3-2 5-2 3h-2l-2 5-4 6-8 17-5 17-5 26-4 26-1 11-1 25v86l-1 31-4-1-23-13-24-14-21-11-2-4-5-1-26-14-15-9-18-10-8-7-2-2 10-9 6-5 3-6v-7l-7-14-7-8-7-3-16 2-4 1 1-10 11-41 14-56 4-23 3-19 5-13 8-14 9-10 11-9 10-6 18-8 23-6z" fill="#130468"/>
<path transform="translate(1510,174)" d="m0 0 9 3 22 12 24 14 27 16 8 5v352l-5-1-52-29-24-14-29-16-18-11-1-1v-77l-1-1v-64l2-5 4-2h-5v-142h4l16 8 17 9 1-18z" fill="#27CDD6"/>
<path transform="translate(1038,2)" d="m0 0h10l9 4 11 7 10 10 13 18 10 14 12 17 8 13 9 19 8 24 5 24 1 13v30l-3 23-1 12v8l6 25 7 18 10 19 9 15 3 7v3l-6 1-33-16-18-8-3 4-13 35-5-5-9-11-2-2h-3l-2 23h-4l-5-6-6-10-5-7-8-20-10-26-9-28 1-9 4-8 5-6 12-4 10-20 3-11v-11l-5-8-4-2-10 1-4 4-3 9-1 9-3 7-4 1-1-1v-8l3-14v-6l-14-14-10-14-5-11-2-8v-19l2-9 2-5-13 4-30 7-32 5-37 4-11 3-7 7-4 7-1 3-7-1-1-7v-35l2-8 6-9 7-7 10-8 8-9 7-8 11-7 11-4 25-4 17-1h13l24-10 17-9 6-2z" fill="#553429"/>
<path transform="translate(439,308)" d="m0 0h6l18 10 20 11 11 7 9 5 15 9 28 16 27 16 23 13 24 14 46 26 7 1 16-6 21-8 16-6 9-3 11-1 7 3 8 9 7 14v7l-5 8-10 9-11 9-4 3v3l21 12 26 15 14 9 6 7 1 17 15 9 18 10 21 12 24 14 21 12 29 17 21 12 11 6 6 3 18 2 5 6 4 8 2 12v22l-2 13-14-2-18-4 3 7 3 6 5 5-2 4-25 14-27 16-28 16-19 11-44 26-10 6h-26v-53l-1-32-1-163-1-19-3-10-7-6-18-11-16-10-12-9-13-10-18-11-16-9-16-6-13-5-24-13-15-9-21-13-23-13-28-17-14-8-16-9-10-6-11-6-11-7-10-7-27-14-7-2h-14l-1-1v-6z" fill="#F4FBFC"/>
<path transform="translate(1213)" d="m0 0h333l-4 4-19 12-21 12-26 15-40 24-19 11-15 9-13 8h-2l4 5 16 12 5 6-1 43v39l-6-2-19-12-23-13-27-15-22-12-8-4-26 15-19 12-20 12-28 14h-1v-143z" fill="#27CDD6"/>
<path transform="translate(912,425)" d="m0 0h21l12 3 16 8 17 12 12 11 10 10 10 13 12 19 12 23 5 13 1 3-6 22-8 39-3 19v3l1 4-7 2-21 2-8 2v1l-16-1-14-7-43-25-24-14-23-13-17-10-42-24-4-3-1-17-6-7-15-9-26-15-14-8-6-4 1-4 9-7 4 1 4 3v2l5 2 25 14 17 10 17 9 3 1 4 4 23 12 44 26 3 1v-117l4-5z" fill="#CA4B8F"/>
<path transform="translate(978,707)" d="m0 0 33 11 24 7 24 6 35 7 39 5 28 2h17l19-1 20-3 5 1 30 16 24 14 22 13 16 10 4 5h-495l5-4 44-26 14-8 24-14 26-15 41-24z" fill="#6B2FEF"/>
<path transform="translate(934,293)" d="m0 0 4 2 3 19 3 8v8l-4 10-3 11v7l3 9 6 9 10 6 9 3h17l16-3 18-6 23-13 11-9 11-11 7-8 5 5 5 6h2l2-23 4-1 10 11 5 7-1 18-5 36-6 27-4 14-9 26-14 29-15 30-7 18-2-1-7-17-11-21-12-18-7-9-9-10-10-10-19-14-16-8-9-3-5-1h-21l-12 4-3 2v-23l3-24 5-30 6-23 5-12 6-11 5-8h2l2-4z" fill="#FEFEFE"/>
<path transform="translate(428,602)" d="m0 0 1 2 5 2 26 14 41 24 26 15 69 40 21 12 23 13 26 15 24 14 26 15 43 25 8 6v1h-125l-1-3-7-3-8-5-5-8-9-4-5-4v-5l-5-2-15-9-16-8-11-4-13-7-7-3-5-3-7-7-28-14-10-6-10-3-8-4-11-7-8-7-1-2-6-3-3-6-5-5v-2h-2l-8-8-3-1-5-6-4-1-1-4-5-2-3-3-3-5v-7h2v-11l7-4 11-3 3-5z" fill="#582AD7"/>
<path transform="translate(14,213)" d="m0 0 7 1 16 7 25 14 29 16 27 15 25 12 20 6 1 19v80l-2 20-3 7-5 1-15-6-14-8-15-10-20-12-26-15-28-14-16-12-7-8-2-6-2-16v-53l3-34z" fill="#288BC5"/>
<path transform="translate(103,635)" d="m0 0 6 1 23 13 56 32 26 15 25 14 17 10 15 9 7 1 15-8 11-6 15-9 23-13 22-13 10-6 9-5 24-14 3-2h5l1 1 2 14 6 8v19l-22 13-24 14-26 15-22 13-17 10-24 14-12 8-5 3-9-3-19-10-27-16-52-30-18-10-21-13-17-10-21-12-13-8-1-1 1-16 8-7 12-7 7-2z" fill="#28CCD6"/>
<path transform="translate(70,673)" d="m0 0 4 1 7 3 27 15 13 8 28 17 25 14 24 14 26 15 17 10 2 5 3 5v5l-6 5v2l-4-1-23-13-8-5-6-1 3 2 24 14 13 7 5 5h-216v-117l1-7 5 2 27 15 21 12 24 14 28 16 24 14 26 15-8-5-1-2-5-2-20-11-8-5 4-1 16 9 6 4 11-1 2-1 2 1-1-6-9-7v-4l-10-2-13-4-8-4-11-4-8-3-10-1 1 5-6-2-14-8-10-6-20-11-4-4 2-1 2-7 3-2z" fill="#6B30EF"/>
<path transform="translate(570,458)" d="m0 0 6 1 10 9 8 9 9 13 4 6 15-5h8l10 5 7 8 6 13v19l-2 14 14 14 8 11 8 14 2 5-1 9-5 6-5 2-9 1h-12l3 10 1 12-1 9-5 8-5 2-7-2-9-7-13-18-6-10-3-2-14 5h-7l-8-3-10-9-5-7-2-8v-22l2-9-1-5-11-10-8-10-8-14-2-6v-10l1-2h2l1-3 6-2h11l10 1-2-8-2-5v-13l3-10 6-5z" fill="#4BDDEB"/>
<path transform="translate(157,41)" d="m0 0 5 1 9 5 16 8 16 9 17 10 3 1v2l7 2 13 7 22 13 11 7v65l-1 35-4-2v-2l-6-2-29-16-14-8-15-8-9-6-29-15-12-7-1-1v-78z" fill="#17AAB6"/>
<path transform="translate(866,598)" d="m0 0h7l11 3 30 12 16 7 21 11 39 3 5 6 4 8 2 12v22l-2 13-14-2-19-4-2-1h-29l-17-6-12-7-15-12-7 1-1 1-8 1-3 3v7l1 7-6 3-4-2-5-12 1-7 2-1 2-6 3-5 8-5v-2l-9 1-11 6-4 4v9l2 3 1 6-3 8h-5l-3-5-5 1-3 3-8-7-7-18-3-10v-7l10-8 4-8v-4h-7l-10 5-6 8-2-4v-24l34-3 16-3z" fill="#FCC19B"/>
<path transform="translate(747,466)" d="m0 0 4 1 4 3v2l5 2 25 14 17 10 17 9 3 1 4 4 23 12 44 26 9 5 23 13 19 12 23 13 24 13 21 12 10 4 2 2-1 4-27 3-8 2v1l-16-1-14-7-43-25-24-14-23-13-17-10-42-24-4-3-1-17-6-7-15-9-26-15-14-8-6-4 1-4z" fill="#6B30EF"/>
<path transform="translate(815,634)" d="m0 0 2 1-1 2v14h2l8 22 5 6 3 2 5-4 4 1 2 5 5-1 2-9-2-6-1-1v-9l5-5 11-6 9-1v4l-6 4h-2l-2 5-3 7h-2v7l2 5 1 7 2 2 8-1 4 3 6 2 5 4 2 9 1 8-3 9-1 10-2 7-8 11-10 7-18 11-18 14-11 9-8 4h-6v-158l7 1z" fill="#CEDAF2"/>
<path transform="translate(886,662)" d="m0 0h5l15 12 12 7 17 6h29l3 2 3 7 3 6 5 5-2 4-25 14-27 16-28 16-19 11-44 26-10 6h-19v-33h1v26l8-2 9-5 11-10 8-6 10-7 20-12 6-5 7-10 2-16 3-9-2-15-5-5-9-4-2-1-7 1-3-3v-5l2 4 4 2 5-2-1-14 4-4 8-1z" fill="#DEE6FB"/>
<path transform="translate(47,425)" d="m0 0h2v88l-1 31-1 9-8 7-18 10-19 10h-2v-129l19-11 23-13z" fill="#16AAB5"/>
<path transform="translate(875,131)" d="m0 0 9 2 17 8 10 8 4 6 3 15v3h7l7 2 11-9 9-3 7-1h15l12 1 10 5 7 10 3 6v7l-6 8-5 4-12 5-10 2h-14l-14-4-9-6-6-7-6-9h-6l-11 5-12 1-14-4-8-4-8-8-5-4-7-11-2-6v-8l4-8 5-4 3-1z" fill="#FDFDFD"/>
<path transform="translate(1071,180)" d="m0 0 9 2 2 1 2 12v7l-2 4-1 6v10l2 3 1 14v4l4 2 4 10 1 24-2 13 1 9 14 14 1 8-1 7-4 11-5-5-9-11-2-2h-3l-2 23h-4l-5-6-6-10-5-7-8-20-10-26-9-28 1-9 4-8 5-6 12-4 10-20 4-14z" fill="#43261F"/>
<path transform="translate(1385,96)" d="m0 0 4 2 18 14 5 6-1 43v39l-6-2-19-12-23-13-27-15-22-12-7-4v-2l16-8 28-16 19-11 13-8z" fill="#7FDDE7"/>
<path transform="translate(103,635)" d="m0 0 6 1 23 13 56 32 26 15 25 14 17 10 15 9 7 1 15-8 11-6 15-9 23-13 22-13 10-6 9-5 24-14 3-2h5l1 1 1 14-22 12-22 13-36 21-9 6-12 6-19 11-11 6-6 4-1 1h-7l-9-6-14-7-4-3-9-5-21-12-11-7-12-6-12-7-11-6v-2l-6-2-24-14-11-6-6-4-9-5-9-7-3-6z" fill="#FAFDFE"/>
<path transform="translate(1510,174)" d="m0 0 9 3 22 12 24 14 27 16 8 5v62l-11-6-28-16-23-14-17-10-12-8v-20z" fill="#32A1DF"/>
<path transform="translate(564,139)" d="m0 0h3l1 223 1 3 6 2 15 9 27 16 23 13 21 12 20 12 2 4-10 4-7-1-27-15-24-14-23-13-19-11-24-14-26-15-20-12-1-4 8-5 7 1 12 6 13 8 21 12v-216l-16 10h-2v2l-11 6-20 12-9 6-6 3-10 6-6 3-24 14-14 8-11 6-27 15-12 8-11 6-18 10-12 7-7 4-10 6-11 6-20 12-16 9-24 13-17 10-7 4h-3v2l-19 11h-3v2l-10 5h-2v141l-1 15-2 2v-157h2l1-4 18-11 17-10 12-6h2v-2l16-8h2v-2l6-3 10-6 11-7 11-6 12-7 9-5 12-7 11-6 8-5 7-4h3v-2l6-3 6-2v-2l6-3 7-4h2v-2l22-12 18-11 11-6 17-10 27-15 12-7 14-7h2v-2l6-3 13-8 7-4h2v-2l9-5z" fill="#ADDCEF"/>
<path transform="translate(897,478)" d="m0 0h1l1 22 3 9 2 1 9-4v3h2v2h3l1 2h4v2l6 2 13 12 5 5 7 5 4 5 5 5 4 6h2v2l5 2 6 8 3 3 3 1 1 2 4 1 1 3h6l1 3 4 2 5 3 3-1 5 2v2l4 1 3-1 4 4-2 16-2 12-3 2-12-5-23-13-36-20-26-16-23-13-4-3v-32z" fill="#BB3FA3"/>
<path transform="translate(1509,237)" d="m0 0 6 2 20 11 19 12 17 11 29 17v56l-11-4-18-10-7-6-9-3-14-8-17-11-12-8-2-2-1-8z" fill="#32A1DF"/>
<path transform="translate(630,51)" d="m0 0 5 2 16 9v2l9 3 2 1v2l5 1 21 12 16 11 5 5v60l-6-1-18-8-27-16-21-13-8-4v-57z" fill="#16AAB5"/>
<path transform="translate(430,321)" d="m0 0h15l11 4 25 13 14 10 13 8 11 6 15 8 19 11 18 11 17 10 21 12 16 10 19 11 22 12 20 7 12 6 16 9 12 8 13 10 16 11 11 7 13 8 9 6 5 6 2 8 1 19v132h-1l-1-59-3-7 1-5-1-13 1-10-4-25-3-11-8-10-5-9-3-8-5-5v-2l-5-2-6-4-7-5-5-5-6-5-8-6-10-10-5-3v-2l-5-2-9-5-10-4-12-5-16-6-12-6-12-9-23-12-17-10-11-6-10-5-15-10-13-5-8-6-11-7-12-8-16-11-7-5v-2l-14-8-6-5-18-10-4-1h-8l-5 7-2 1-1 4h-2l-2 5h-1z" fill="#DFEDFC"/>
<path transform="translate(70,673)" d="m0 0 4 1 7 3 27 15 13 8 28 17 25 14 24 14 26 15 17 10 2 5 3 5v5l-6 5v2l-4-1-23-13-8-5-6-1 3 2 24 14 13 7 5 5h-37l-6-3v-7h-2l-5-9-10-8 1-5-5-2-5-4-16-9-5-4 6 1 17 10 4 2-5-3-1-2-5-2-20-11-8-5 4-1 16 9 6 4 11-1 2-1 2 1-1-6-9-7v-4l-10-2-13-4-8-4-11-4-8-3-10-1 1 5-6-2-14-8-10-6-20-11-4-4 2-1 2-7 3-2z" fill="#592BD8"/>
<path transform="translate(1038,2)" d="m0 0h10l9 4 11 7 10 10 13 18 10 14 2 5-2 2-2 1-7-7-5-8-7-2-2 4 4 12 9 15 3 4-1 5-5 10-1 3h-2l-5-10v-2l-4-2-9-12-7-8-3-3v-2h-2l-7-8-22-14-12-5-9-2-18-6v-2l14-6 19-9 8-4z" fill="#42251F"/>
<path transform="translate(1303,50)" d="m0 0 15 8 24 13 25 15 14 7-1 3-29 17-22 12-17 9-8 4h-3l1-87z" fill="#80DDE8"/>
<path transform="translate(742,412)" d="m0 0 8 1 8 7 7 11 3 7v7l-5 8-10 9-11 9-5 4-6-1-22-13-13-8-22-13v-3l13-5 5-3 31-12 7-3z" fill="#FCC19B"/>
<path transform="translate(75,660)" d="m0 0 6 1 14 6 22 13 13 8 12 8 7 4 14 9 26 15 16 9 23 13v2l6 1 1 3 6 1 16 9v2l8 2 6 2 1 18-9-3-19-10-27-16-52-30-18-10-21-13-17-10-21-12-13-8-1-1z" fill="#2E8FD7"/>
<path transform="translate(437,607)" d="m0 0 6 1 10 5 26 11 16 8 9 4 7 1 2 2-1 1 13 8 17 7 10 6 8 6 10 9 7 6 17 6 15 11 10 6 29 14 14 8 14 10 24 13 13 8 7 4 5 1 2 2 3 2 23 11 14 9h3l7 5 3 5v3h-13l-11-8-27-15-15-9-24-14-21-12-24-14-25-14-24-14-28-16-26-15-24-14-29-17-35-20-16-9z" fill="#DFEDFC"/>
<path transform="translate(510,333)" d="m0 0 7 1 12 6 13 8 48 28 27 16 23 13 21 12 20 12 2 4-10 4-7-1-27-15-24-14-23-13-19-11-24-14-26-15-20-12-1-4z" fill="#6B31EF"/>
<path transform="translate(416,684)" d="m0 0h6l1 1v12l-11 6-15 9-28 16-39 23-17 10-24 14-12 8-2 2h-3l-1-4v-14l15-8 8-6 10-5 6-4 8-5 5-2 11-7 11-6 20-12 9-5 10-6 6-4 7-3 9-6z" fill="#F7FCFD"/>
<path transform="translate(807,538)" d="m0 0 14 8 18 10 21 12 24 14 21 12 29 17 21 12 11 6 6 3v1h-10l-11-1-29-15-28-11-16-6-5-1v-2l-5-1-7-9-18-11-14-8-19-10-6-5 1-9 2-4z" fill="#DDE6FB"/>
<path transform="translate(591,521)" d="m0 0 9 1 11 6 11 10 5 11 6 21-1 6-10 14-9-3-15-8-6-7-4-8-6-15-3-7 1-6 6-9z" fill="#DEECFC"/>
<path transform="translate(1060,320)" d="m0 0 4 5 5 10-16 17-10 9-11 7-16 9-18 6-16 3h-17l-11-4-9-6-7-10-2-8v-7l5-17h3l4 16 4 14 5 5 9 3h10l16-3 16-6 17-9 13-10 12-11 7-8z" fill="#CB4E8F"/>
<path transform="translate(416,669)" d="m0 0 3 1 5 7v19h-1l-1-11h-6l-11 5-11 7-5 2-11 7-9 5-17 10-11 6-12 7-7 5-7 3-6 4-12 7-5 3-13 8-4-1 5-14 3-1 2-4 5-3 18-10 10-6 11-6 22-13 15-9 24-14 23-13z" fill="#19C5D8"/>
<path transform="translate(1058,317)" d="m0 0h2v6l-8 8-7 8-14 12-15 9-15 7-13 4-12 2h-10l-9-3-6-6-1-11 2-2h13l20-1 15-5 20-8 9-3 10-6 10-5 6-1v-2h2z" fill="#FCC09A"/>
<path transform="translate(70,673)" d="m0 0 4 1 7 3 27 15 13 8 28 17 25 14v1h-9l-15-5-8-4-11-4-8-3-10-1 1 5-6-2-14-8-10-6-20-11-4-4 2-1 2-7 3-2z" fill="#592BD7"/>
<path transform="translate(1293,561)" d="m0 0 10 4 22 13 21 12 15 8 21 12 52 30 23 13 24 14 23 13 14 8 2 2v51l-1 44-1 15h-2l-1-92-1-12-12-9-34-21-26-14-22-13-21-12-17-10-11-7-17-10-19-10-21-12-21-14z" fill="#7FDDE7"/>
<path transform="translate(100,641)" d="m0 0 2 3 3 6 9 7 11 6 10 6 9 5 12 7 11 6 2 1v2l5 2 6 3 16 9 5 3v2l-5-1-5-3-10-4-12-5-7-4h-5l-5 1-11-3-12-7-12-2-26-15-16-6 1-4 10-8 9-5z" fill="#28CCD6"/>
<path transform="translate(1243,727)" d="m0 0 4 2 1 4 5 1v2l8 7 5 6 1 4 5 2 5 3v2l6 2 12 6v2l5 2 3 3v2l4 2 5 5 5 4 4 8v4l-4-1-7-6-14-8-25-15-25-14-24-13v-3l14-7z" fill="#15C3D7"/>
<path transform="translate(26,672)" d="m0 0 5 2 24 13 20 11 18 10 10 6 10 5-1-5 11 1 8 3 13 5 8 4 13 4 8 1 1 2-1 3 4 2 6 5 1 4-1 2-15 2-15-9-7-4-1 1 23 13 5 3h3v3l5 2 5 3-2 1-23-13-48-28-23-13-22-13-29-16-10-6-1 124h-1z" fill="#6B31EF"/>
<path transform="translate(157,41)" d="m0 0 5 1 9 5 16 8 16 9 17 10 3 1v2l7 2 13 7 22 13 11 7v65l-1 35-4-2v-2l-6-2-29-16-14-8-15-8-9-6-29-15-12-7v-71l1-24h1v94l5 2 12 6 7 3 10 6 6 2v2l6 2 4 2v2l5 1 5 3v2l6 2 8 4 5 3 18 10 7 4v2l5 1v2h4l-1-90-24-16-18-10-3-2v-2l-8-2-13-8-18-10-19-11-11-6z" fill="#6CD7E5"/>
<path transform="translate(1140,228)" d="m0 0 3 1v2l5 1 13 8 10 6 11 6 17 9v3l-9-2-5-3-3-2-13-1h-6l-2 5h-2l1 11h1l2 10 6 14 3 9 10 15-2 6-3-2-2 3-3-10-9-16-10-18-6-14-5-17-3-14v-8z" fill="#15C3D5"/>
<path transform="translate(119,681)" d="m0 0 10 1 12 7 11 3 10-1 11 6 10 4 8 5 1 4-2 3 2 1v2h2l6 7 11 6 9 6 12 6v2l5 2 9 5 5 5 6 3 1 3h2l1 4-4-1v-2l-6-2-12-7-4-1-3-3-4-1-3-3-28-15-15-9-26-15-11-8-8-4-10-7-8-5z" fill="#3FC2DC"/>
<path transform="translate(630,51)" d="m0 0 5 2 16 9v2l9 3 2 1v2l5 1 21 12 16 11 5 5v60l-6-1-18-8-27-16-21-13-8-4v-57zm2 6v54l4 4 16 8 19 11 24 14 8 4 3-1v-15l-1-33-5-6-6-4-1-2h-3v-2h-3v-2h-3v-2h-3v-2l-12-6-21-12z" fill="#6CD6E4"/>
<path transform="translate(457,618)" d="m0 0h4v2l9 3 8 5v2l5 1 2 1v2l6 1 14 8v2l5 1v2l5 1 20 9 16 8 22 16 17 9 11 6 18 11 24 13 11 6 12 8 16 10 11 6 20 12 4 4 6 2v2l5 1 24 12 11 8 7 6v2l-4-1-14-9-21-12-43-25-24-14-26-15-25-14-26-15-21-12-29-17-26-15-22-13-14-8-17-10z" fill="#E9EFFA"/>
<path transform="translate(968,701)" d="m0 0 5 1 5 5-2 4-25 14-27 16-28 16-19 11-44 26-10 6h-7l2-4 12-6 9-6 10-6 10-7 17-11 20-11 16-8 18-12 13-8 14-7 7-10z" fill="#F3F9FC"/>
<path transform="translate(620,500)" d="m0 0h12l8 4 5 7 2 6v16l-2 10-4 1 3 4-1 6-4 9h-2l-2-6v-13l3 1-1-4-4-2-8-8-9-16-4-7 1-5z" fill="#DDE5FB"/>
<path transform="translate(1144,227)" d="m0 0 7 3 17 9 18 10 19 10 23 14 23 13 17 10 20 12 12 9 1 2 1 21v94l-1 29h-1l-1-35-1-92-1-17-29-17-27-16-21-12-23-13-22-12-23-13-8-6z" fill="#7FDEE8"/>
<path transform="translate(577,397)" d="m0 0 6 2 26 15 16 10 19 11 22 12 20 7 12 6 16 9 12 8 13 10 16 11 11 7 13 8 9 6 5 6 2 8 1 19v132h-1l-1-129-1-16-2-6-4-7-4-5-13-9-12-6-10-7-12-7-10-9-11-9-11-6-20-9-11-4-17-8-9-7-20-10-3-3-19-12-13-8-14-8z" fill="#E8EEFB"/>
<path transform="translate(1472,212)" d="m0 0 5 2 16 8 15 8 11 8 18 10 16 10 24 14 22 13 1 5-5-2-21-12-20-13-21-13-18-10-17-10-22-12-2 137h-3v-142z" fill="#7FDDE8"/>
<path transform="translate(349,730)" d="m0 0h7l5 2-4 3-25 15-26 15-17 10-12 8-2 2h-3l-1-4v-14l15-8 8-6 2 1-3 3 3 1 13-5 14-7 14-10z" fill="#F1FAFC"/>
<path transform="translate(624,599)" d="m0 0 5 1 14 7 4 5v27l-3 5-4 1-8-7-8-9-11-15-2-4 10-9z" fill="#DEEDFC"/>
<path transform="translate(648,557)" d="m0 0 6 5 7 8 8 9 6 9 1 4v7l-4 3-3 1h-14l-6-3-5-12-3-8v-6l5-12z" fill="#DEEDFC"/>
<path transform="translate(959,174)" d="m0 0h17l1 1 9 1 3 2-1 3h-12v10h9l10-1-2 4-10 5-6 2h-20l-10-5-4-4-1-3v-8l5-3 6-3z" fill="#EBA984"/>
<path transform="translate(571,565)" d="m0 0 6 4 10 9 8 10 6 13-1 5-8 4h-11l-7-4-5-7-2-8 1-15 2-10z" fill="#E8EEFA"/>
<path transform="translate(546,506)" d="m0 0 16 3 6 5 1 3v7l-1 2h4l2 4-1 6-7 15h-3l-12-14-10-13-3-6v-6l5-5z" fill="#E7EDFA"/>
<path transform="translate(571,467)" d="m0 0h5l13 13 7 9 6 9-1 4-11 9-6-2-13-4-2-3-2-21v-10z" fill="#DDE5FB"/>
<path transform="translate(1213)" d="m0 0h2l1 189 17-10 28-16 20-11 15-9 6-2 5-3h3v2l-11 6-22 13-24 15-16 9-24 12h-1v-143z" fill="#19A3B8"/>
<path transform="translate(1473,426)" d="m0 0h1l1 75 16 9 20 11 21 12 12 7 9 5 14 8 23 13 10 5v5l-5-1-52-29-24-14-29-16-18-11-1-1v-77z" fill="#7FDEE8"/>
<path transform="translate(564,139)" d="m0 0h3l1 223 1 2-5-2-1-1v-219l2-1z" fill="#29CBD6"/>
<path transform="translate(805,553)" d="m0 0 8 6 16 8 16 9 11 7 8 6 4 6 5 2v1l-24 3h-10v-2l-2-1-2-3 2-4h2l-2-7-7-4v-2l-6-2-9-6-5-4-5-9z" fill="#E9EFFB"/>
<path transform="translate(29,676)" d="m0 0 5 2 27 15 21 12 24 14 11 6v2l-5-1-7-3-3 1-10-2-4-3v3h-7l-6-3-8-9v-2l-3-1-1-4-3-1v-2l-10-3-9-9-7-3-1 4h-2l-1 47h-1z" fill="#582ED8"/>
<path transform="translate(619,549)" d="m0 0 4 2v2l4 2 2 7h2l2 11-4 8-7 9-9-3-15-8-6-7-4-8-3-8v-4l4 1 5 6 9 7 7 6 6 3 2-5 1-2z" fill="#E8EEFA"/>
<path transform="translate(154,749)" d="m0 0 6 1 17 10 25 14 24 14 13 7 5 5h-37l-6-3v-7h-2l-5-9-10-8 1-5-5-2-5-4-16-9z" fill="#592DD9"/>
<path transform="translate(964,701)" d="m0 0 4 1-5 4-5 8-10 6-14 7-10 7-19 12-16 8-13 7-11 7-13 9-11 7-10 6-6 4-7 3-2 3h-12v-33h1v30l19-10 7-4 7-3 14-8 10-7 20-12 17-10 15-9 12-8 13-8 16-8z" fill="#E9EFFB"/>
<path transform="translate(430,321)" d="m0 0h15l11 4 25 13 14 10 13 8 11 6 15 8 19 11 18 11 6 4-2 1-9-5-13-8-14-7-9-6-10-6-17-8-12-4-13-8-5-4-18-10-4-1h-8l-5 7-2 1-1 4h-2l-2 5h-1z" fill="#E9EFFB"/>
<path transform="translate(866,141)" d="m0 0h7l19 9 1 3 4 2 8 7 1 4h-6l-3 4h-6l-6-5v-2l7-4-2-3-5-2v-2l-5 1-3 3v6l3 6 6 5v2l6 1 4-2 1 3-3 3-7-1-12-7-5-5-6-7-4-7v-7z" fill="#E9A484"/>
<path transform="translate(890,598)" d="m0 0h7l13 5 12 1 24 14 17 10 9 4v1h-10l-11-1-29-15-28-11-5-2-2-4z" fill="#D1DDF3"/>
<path transform="translate(600,538)" d="m0 0 6 1 8 7 6 12v10l-4 7-6-2-8-7-6-8-3-6v-7l3-5z" fill="#45DEEC"/>
<path transform="translate(562,140)" d="m0 0 4 1-3 1v2l-16 10h-2v2l-11 6-20 12-9 6-6 3-10 6-6 3-24 14-12 6h-3l-12 7-18 10-7 2 3-3 28-16 13-8 11-6 21-12 23-13 14-7h2v-2l6-3 13-8 7-4h2v-2l9-5z" fill="#75D9E6"/>
<path transform="translate(26,672)" d="m0 0 5 2 24 13 20 11 18 10 10 6 27 15 14 8 1 3 23 13 5 3h3v3l5 2 5 3-2 1-23-13-48-28-23-13-22-13-29-16-10-6-1 124h-1z" fill="#C8DBF2"/>
<path transform="translate(47,425)" d="m0 0h2v88l-1 31-1 9-2 1 1-123-12 6-24 14-10 5v-5l19-11 23-13z" fill="#80DEE8"/>
<path transform="translate(1543)" d="m0 0 3 1-15 10-20 12-28 16-27 16-20 12-19 11-30 18-4-1 5-5 12-7h3v-2l15-9 11-6 15-9 19-10 17-10 25-14 25-15 12-7z" fill="#2791C7"/>
<path transform="translate(240,591)" d="m0 0h2l-1 9-10 6-16 9-16 8-16 6h-5l1-4 10-7 16-8 24-13z" fill="#25CCD6"/>
<path transform="translate(342,685)" d="m0 0 5 2 5-2 4 1-9 6-23 13-24 14-4 1v-6l5-6 6-5 13-7h2v-2l8-4 10-4z" fill="#288CC6"/>
<path transform="translate(158,45)" d="m0 0h1v94l5 2 12 6 7 3 10 6 6 2v2l6 2 4 2v2l5 1 5 3v2l6 2 8 4 5 3 18 10 7 4v2l5 1v2l5 1v-13h1v14l-3 1-12-6-21-12-16-9-15-8-9-6-29-15-12-7v-71z" fill="#CFECF6"/>
<path transform="translate(253,601)" d="m0 0h6v3l-8 5-25 12-10 7-15 10-13 8-5 2h-4l1-4 6-5 5-5 11-6 25-13 9-5 1-2 9-4z" fill="#32A1E0"/>
<path transform="translate(1023)" d="m0 0h46l3 7 5 4 3 5 10 19 14 20 3 6h-3l-12-17-13-18-9-10-11-8-8-4-3-1h-10l-10 2h-4z" fill="#14C1D3"/>
<path transform="translate(632,111)" d="m0 0 4 3 16 8 19 11 24 14 8 4h3v4l-8-1-11-5h-3l-18-10-19-12-15-9z" fill="#3FC3DB"/>
<path transform="translate(239,579)" d="m0 0h3v6l-22 12-14 8-7 2v3l-10 5-13 8-13 7-4-1 2-4 13-8 12-7h4l1-3 18-10 19-11z" fill="#23CBD6"/>
<path transform="translate(902,239)" d="m0 0 8 1 28 11 8 4-4 2-3 1-14 1-15-2-6-3-1-12z" fill="#CA4B90"/>
<path transform="translate(1474,354)" d="m0 0 3 1-8 6-23 13-20 12-10 5 2 67 26-15 20-12 4-3h2l-1 4-23 13-22 12-7 5h-2v-19l-1-33v-17h-2l2-4 20-12 17-11 17-9z" fill="#16A9B5"/>
<path transform="translate(608,504)" d="m0 0 3 1 8 14 8 13 5 5 2 8-1 19-1-2h-2l-6-18-5-8-8-7-12-7v-2l9 2 4 2h3l-1-5-2-4-3-3-1-6-3-1z" fill="#47DDEC"/>
<path transform="translate(1008,97)" d="m0 0h2l-2 19 2 13 6 9 4 11 7 9 10 9 15 1-2 1v2l-4 4-3 9-1 9-3 7-4 1-1-1v-8l3-14v-6l-14-14-10-14-5-11-2-8v-19z" fill="#462820"/>
<path transform="translate(202,351)" d="m0 0 3 1v139l-1 15-2 2z" fill="#6DD6E4"/>
<path transform="translate(546,506)" d="m0 0 16 3 6 5 1 3v10l-5 5-5-1-7-6-3-11-9-2-1 6h-1v-6l5-5z" fill="#DCE5FB"/>
<path transform="translate(157,41)" d="m0 0 5 1 9 5 16 8 16 9 17 10 3 1v2l7 2 13 7 20 12-1 2-9-2-10-6-17-10v-2l-8-2-13-8-18-10-19-11-11-6z" fill="#BCDCF0"/>
<path transform="translate(831,481)" d="m0 0 4 4 4 13 2 18v4l-6-2-12-7-1-3 7-20z" fill="#17A9B7"/>
<path transform="translate(881,151)" d="m0 0 4 1v2l6 2 2 3-6 4h-2l6 6h6l3-4 6 1 1-2v2h2v5l-5 6-6 3-4-1h2v-4l-6 2-4-2-8-8-2-5v-6z" fill="#F8BB98"/>
<path transform="translate(439,308)" d="m0 0h6l18 10 20 11 11 7 9 5v2l-9-1-16-9-10-6-17-8-7-3-10-2 3-5z" fill="#F5FBFD"/>
<path transform="translate(956,153)" d="m0 0h11l17 3 10 5 5 6-1 3-12-6-11-2h-17l-12 1-4-2 1-5z" fill="#472921"/>
<path transform="translate(564,144)" d="m0 0h2l1 28v57l-1 85h-1l-1-24z" fill="#7EDEE8"/>
<path transform="translate(1360,719)" d="m0 0 9 3 25 12 31 16 17 10 22 13 19 12 12 8 1 2-5-2-17-11-26-15-14-8-23-12-19-9-19-10-13-7z" fill="#16A9B5"/>
<path transform="translate(266,609)" d="m0 0 6 1v2l-28 16-25 14-9 5h-4l1-4 11-7 5-3h3v-2l8-4 16-9z" fill="#EAF4FA"/>
<path transform="translate(239,586)" d="m0 0h3l-1 5-8 5-25 13-16 9-11 6-5 2h-5l5-4 20-12h3v-3l12-6 22-12z" fill="#2A90CC"/>
<path transform="translate(1397,567)" d="m0 0 6 2 25 13 24 14 18 11 26 15 21 14v2h4v2l5 2 5 3-2 1-23-13-26-16-19-12-26-15-27-15-11-7z" fill="#31A1DE"/>
<path transform="translate(446,210)" d="m0 0v3l-17 10-22 12-12 8-11 6-18 10-12 7-5 1-6 1 5-4 21-12h3v-2l6-3 6-2v-2l6-3 7-4h2v-2l12-5 16-8 15-9z" fill="#B2DAEE"/>
<path transform="translate(1189,336)" d="m0 0 1 2 6 2 18 14 8 7 7 6v2l4 2 8 9 4 8-1 4-5-5-7-8-10-11-8-7-14-12-10-7z" fill="#14C1D3"/>
<path transform="translate(1383,93)" d="m0 0 2 1v3l-14 8-13 8-25 14-21 12-7 1-4 3h-5l3-3h2v-2l10-4 16-9 21-11 27-16z" fill="#3FC2DC"/>
<path transform="translate(591,584)" d="m0 0 4 4 6 13-1 5-8 4h-11l5-5 2-1 1-5-6 1-3-4 1-6 5-3z" fill="#DEEDFC"/>
<path transform="translate(869,645)" d="m0 0h5v4l-6 4h-2l-2 5-3 7h-2v7l1 5-3-4h-2l-3 9h-1l1-9-2-6-1-1v-9l5-5 11-6z" fill="#fff"/>
<path transform="translate(1307,138)" d="m0 0h3v2l-11 6-22 13-16 10-7 3-32 17-5 2v-3l27-15 17-10 20-11 15-9 6-2z" fill="#2EA0DA"/>
<path transform="translate(606,613)" d="m0 0 5 4 7 12 9 12 3 5-9-3-7-7-2-5-5-1-3-5-3-2v-2h-7l-5 1-3-3 13-3z" fill="#DEEDFC"/>
<path transform="translate(1012,20)" d="m0 0h7l10 5 7 7v4h-2v2l-6-1-22-9-2-1 2-5z" fill="#130468"/>
<path transform="translate(416,684)" d="m0 0h6l1 1v12l-11 6-5 3-8-1v-3l6-7 2-5-2-1z" fill="#F0F9FC"/>
<path transform="translate(457,618)" d="m0 0h4v2l9 3 8 5v2l5 1 2 1v2l6 1 14 8v2l5 1v2l5 1 5 4 15 8 17 10 15 9 6 4-1 2-18-10-24-14-26-15-15-9-14-8-17-10z" fill="#EEF6FB"/>
<path transform="translate(964,175)" d="m0 0h13l9 1 3 2-1 3h-12v10l-3 1h-7l-3-3 1-6 1-3-9 2h-3l5-6z" fill="#130468"/>
<path transform="translate(883,130)" d="m0 0 13 2 11 4 8 6 3 3 2 5v5l-2 2h-3l-4-6v-2l-4-2-8-6-16-8z" fill="#492924"/>
<path transform="translate(866,141)" d="m0 0h7l1 1v16l3 14h-2l-5-5-6-7-4-7v-7z" fill="#1DC2D7"/>
<path transform="translate(823,619)" d="m0 0h7l1 5-5 9-9 7v11l-2-3v-11-2l-3 2-4-1 2-5 3-7z" fill="#DFE6FC"/>
<path transform="translate(228,636)" d="m0 0 9 1-6 8-5 3-2 3-8 2h-15l-1-5 4-3h2v2l10-4z" fill="#32A1E0"/>
<path transform="translate(924,617)" d="m0 0h11l13 2 15 9 9 4v1h-10l-11-1-27-14z" fill="#E2E9FC"/>
<path transform="translate(661,572)" d="m0 0 4 2 7 10 3 4 1 4v7l-4 3h-5l-3-9-5-12v-7z" fill="#E7EEFA"/>
<path transform="translate(350,265)" d="m0 0 3 1-7 5-12 6-9 6-11 6-13 8-15 8-3-1 6-6 9-5 14-8 10-6 9-5 10-6 8-2z" fill="#BDDFF2"/>
<path transform="translate(85,704)" d="m0 0 8 4 10 6 27 15 14 8 1 3 23 13 5 3h3v3l5 2 5 3-2 1-23-13-48-28-23-13-6-5z" fill="#72B9E7"/>
<path transform="translate(630,51)" d="m0 0 5 2 14 8v3l1 2-6-2-11-6-1 60-3-1v-57z" fill="#61D2E2"/>
<path transform="translate(102,649)" d="m0 0 4 2 8 6 11 6 10 6 9 5 12 7 10 6-1 2-10-4-21-12-18-10-9-3-5-3-1-6z" fill="#1BC5D9"/>
<path transform="translate(47,425)" d="m0 0h2v38h-1l-1-31-5 1-22 12-19 11h-1v-5l19-11 23-13z" fill="#81DBE8"/>
<path transform="translate(157,691)" d="m0 0 7 1 9 5 10 4 8 5 1 4-1 2-7-1-18-10-11-7z" fill="#40DEED"/>
<path transform="translate(807,538)" d="m0 0 14 8 13 7v3l-7-1-12-5-3-2-5-1 2 5 8 6 8 4 6 4v2l-6-2-15-8-6-5 1-9 2-4z" fill="#DDECFB"/>
<path transform="translate(1146,163)" d="m0 0 4 1 1 8v15l-4 15-2 6-3 1 1-14 1-29z" fill="#16AAB5"/>
<path transform="translate(571,467)" d="m0 0h5l9 9v5l-6 2-5 3h-5l-2-5v-10z" fill="#E7EEFA"/>
<path transform="translate(562,140)" d="m0 0 4 1-3 1v2l-16 10h-2v2l-11 6-20 12-9 6-10 3 3-3 10-6 5-5 9-3v-2l6-3 13-8 7-4h2v-2l9-5z" fill="#C7E2F4"/>
<path transform="translate(616,615)" d="m0 0h5l5 4 7 9v2l3 1 6 10v3l-5-1-10-10-11-15z" fill="#E7EEFA"/>
<path transform="translate(1213,103)" d="m0 0h1l1 66 1 20 2 1 31-16 8-5 2 1-16 10-30 15h-1v-26z" fill="#268DC3"/>
<path transform="translate(887,150)" d="m0 0 6 2 9 7 4 4v3h-6l-3 4h-6l-6-5v-2l7-4-2-3-5-2-1-3z" fill="#180767"/>
<path transform="translate(255,763)" d="m0 0 10 3 6 2 1 18-5-1v-6l-4-1-2 1-4-4-3-5v-6z" fill="#288CC6"/>
<path transform="translate(620,500)" d="m0 0h7l-1 4h-2v17l3 9-4-2-11-20 1-5z" fill="#E8EEFA"/>
<path transform="translate(1140,228)" d="m0 0 3 1v2l5 1 4 3v2h-2v10l-2 5h-4-2l-3-14v-8z" fill="#16ACB7"/>
<path transform="translate(1473,358)" d="m0 0h1v65l-3 2v-65z" fill="#80DEE8"/>
<path transform="translate(646,612)" d="m0 0h1v27l-3 5-4 1 2-1-3-6-4-7-4-4 4-2 3-1 2 1h5v-11z" fill="#DCE4FA"/>
<path transform="translate(240,591)" d="m0 0h2l-1 9-10 6-16 9-16 8-5 1 10-10 7-3 10-5 6-2 10-6 3-2z" fill="#14C3D6"/>
<path transform="translate(42,554)" d="m0 0 3 1-8 6-23 13-12 6h-2l1-5 19-10 16-8z" fill="#76DAE6"/>
<path transform="translate(566,229)" d="m0 0h1v107l-3 3v-49h1z" fill="#40C3DC"/>
<path transform="translate(1543)" d="m0 0 3 1-15 10-20 12-28 16-4 2 2-4 13-8 26-15 14-8z" fill="#2592C4"/>
<path transform="translate(517,651)" d="m0 0 9 3 20 9 11 7 14 11 1 2-5-2-22-13-15-9-12-6z" fill="#E9EFFB"/>
<path transform="translate(544,539)" d="m0 0 6 5 5 6 8 7-1 5h-2v2l-4 1-5-6-2-4h3l-3-5-4-3z" fill="#DEEDFC"/>
<path transform="translate(158,45)" d="m0 0h1v94l2 1-3 1-1-1v-71z" fill="#9FDDEC"/>
<path transform="translate(195,770)" d="m0 0 7 2 4 1 16 9 20 12 7 5v1l-7-1-8-6-17-9-22-13z" fill="#CDDBF2"/>
<path transform="translate(553,508)" d="m0 0 9 1 6 5 1 3v7l-5 5h-2l-1-4-4-9v-2h2l-2-3-2 1z" fill="#DFECFC"/>
<path transform="translate(966,21)" d="m0 0 18 2v2h-18l-26 3-14 3-9 2 1-2 11-4 25-5z" fill="#14BDCF"/>
<path transform="translate(206,187)" d="m0 0h1l-1 41-1 16h-3v-19l2-32z" fill="#288BC5"/>
<path transform="translate(227,78)" d="m0 0 5 2 11 6 20 12-1 2-9-2-10-6-17-10 2-1z" fill="#ABD9ED"/>
<path transform="translate(864,576)" d="m0 0 5 1 4 6 6 4 1 5 2 1-7-1-12-5-1-2v-7z" fill="#CEDAF2"/>
<path transform="translate(457,618)" d="m0 0h4v2l9 3 8 5v2l5 1 2 1v2l6 1 14 8v2l5 1v2l3 1-2 2-22-13-14-8-17-10z" fill="#EAF2FB"/>
<path transform="translate(197,608)" d="m0 0h2v2l-10 5-13 8-13 7-4-1 2-4 13-8 5-3 2 1-2 3z" fill="#23CBD6"/>
<path transform="translate(887,663)" d="m0 0 4 1 9 5 12 9 6 3v2l2 1-10-2-9-4-8-9-9-3z" fill="#D7E0F4"/>
<path transform="translate(651,587)" d="m0 0 3 3 1 2 9-2 3 7v5l2 1h-14l2-4-4-2-2-3z" fill="#DDE5FB"/>
<path transform="translate(575,548)" d="m0 0 3 1 5 11-1 4-6 1-5-5-1-6z" fill="#DEECFC"/>
<path transform="translate(964,175)" d="m0 0h13l9 1 3 2-1 3h-9l-17-2v2l-9 2 5-7z" fill="#5B3633"/>
<path transform="translate(284,301)" d="m0 0 2 1-2 2 1 2-28 15-9 6-4-2 3-3 7-2v-2l16-8h2v-2l6-3z" fill="#A7DAED"/>
<path transform="translate(1307,138)" d="m0 0h3v2l-11 6-22 13-8 5-2-1 5-6 24-14 6-2z" fill="#229EC4"/>
<path transform="translate(823,619)" d="m0 0h7l1 5-5 9-9 7v11l-2-3v-11l3-5 5-2v-2h2l1-6-7 1-4 1 3-3z" fill="#fff"/>
<path transform="translate(637,541)" d="m0 0 8 1-1 2h-3l3 4-1 6-4 9h-2l-2-6v-13l3 1z" fill="#DCE5FB"/>
<path transform="translate(1480,37)" d="m0 0m-2 1 2 1-5 5-24 14-13 8-1-2 6-4 1-3 19-10z" fill="#278FC6"/>
<path transform="translate(601,589)" d="m0 0 8 1 6 4-1 4-5 5-4-1-4-7z" fill="#E4ECFB"/>
<path transform="translate(574,512)" d="m0 0 8 2 2 1-1 4-7 10-2 1-2-9v-8z" fill="#E5ECFA"/>
<path transform="translate(592,489)" d="m0 0 5 1 5 8-1 4-5 4h-3l-1-5 2-3-3-1v-7z" fill="#E7EEFB"/>
<path transform="translate(529,160)" d="m0 0 2 1v3l-25 15-9 4-2-1 13-8 5-5 9-3v-2l6-3z" fill="#ADDAED"/>
<path transform="translate(47,473)" d="m0 0h1v71l-1 9-2 1v-18l1-12z" fill="#A1D9EB"/>
<path transform="translate(654,430)" d="m0 0 5 1 10 5 6-1 10-4 3 1-12 5-2 2 10 6-3 1-11-4-15-10z" fill="#F8FAFD"/>
<path transform="translate(374,249)" d="m0 0 3 1-2 4-21 12-5 1-6 1 5-4 21-12h3v-2z" fill="#AAD9ED"/>
<path transform="translate(266,609)" d="m0 0 6 1v2l-23 13h-2v-2l6-4-5 2v-2z" fill="#EFF5FB"/>
<path transform="translate(636,583)" d="m0 0 2 3v2l3 1 2 6-2 3-5-1-7-4 1-5z" fill="#DCEAFB"/>
<path transform="translate(962,180)" d="m0 0h3l-1 9 1 3-9 1-2-2-1-6 3-4z" fill="#C5E5F6"/>
<path transform="translate(506,173)" d="m0 0 3 1-13 8 3 1-10 6-6 3-5 1 3-6 22-12z" fill="#76D9E6"/>
<path transform="translate(605,507)" d="m0 0h2l5 10-2 4-6-1-6-4 1-4z" fill="#D9E3F9"/>
<path transform="translate(214,597)" d="m0 0h2v2l-10 6-7 3-18 10h-2l2-5 5-3 10-4 15-8z" fill="#3ADAE8"/>
<path transform="translate(129,731)" d="m0 0 9 4 6 2 1 3 23 13 5 3h3v3l5 2 5 3-2 1-23-13-24-14-8-5z" fill="#CADAF1"/>
<path transform="translate(947,625)" d="m0 0h7l5 4h7l6 3v1h-10l-11-1-7-4z" fill="#E3EFFC"/>
<path transform="translate(1351,598)" d="m0 0 4 5v25l-1 6-2-1-1-20z" fill="#14C1D3"/>
<path transform="translate(307,288)" d="m0 0m-3 1 3 1-1 2 2 1-10 6-12 6-3-1 6-6 9-5z" fill="#B3DCF0"/>
<path transform="translate(201,621)" d="m0 0 3 1-16 9-9 1h-5l-2-3 4-4 3 1-1 3 14-4z" fill="#32A1E0"/>
<path transform="translate(566,336)" d="m0 0h1l1 26 1 2-5-2-1-1v-22z" fill="#24C9D6"/>
<path transform="translate(630,51)" d="m0 0 5 2 14 8v3l1 2-6-2-11-6-1 2h-2z" fill="#63D9E7"/>
<path transform="translate(410,654)" d="m0 0h5l1 1 1 14-1-3-5-1-4-5h-5l3-3z" fill="#E6F5FA"/>
<path transform="translate(244,185)" d="m0 0 5 2 14 8v2l5 1v2l5 1v-13h1v14l-3 1-12-6-16-9z" fill="#C3E5F4"/>
<path transform="translate(632,538)" d="m0 0 5 3 1 4h-2v12l1 6h2v3l-7 4-1-8h1l1-17z" fill="#80DEE8"/>
<path transform="translate(882,154)" d="m0 0 8 1 3 4-6 4h-2l3 4-1 2-5-4-1-3v-7z" fill="#BADFEF"/>
<path transform="translate(804,767)" d="m0 0h1v30l19-10 7-4 2 1-13 8-9 5-1 3h-6z" fill="#E1EEFC"/>
<path transform="translate(47,425)" d="m0 0h2v38h-1l-1-31-5 1-9 4 2-4 7-4v-2z" fill="#61D2E3"/>
<path transform="translate(707,143)" d="m0 0 2 1v15l-6-1-16-7v-3l14 6 5 1v-9z" fill="#73D8E5"/>
<path transform="translate(886,662)" d="m0 0h5l5 5-5-2-4-1-6 4h-4l-2 5-1 10-2-4-1-3v-7l4-4 8-1z" fill="#fff"/>
<path transform="translate(1271,457)" d="m0 0 6 3 2 2-1 7-4 2-3-5-2 1 1-9z" fill="#16A9B5"/>
<path transform="translate(648,557)" d="m0 0 5 5-4 1-2 11-3 5-3 1v-6l5-12z" fill="#DCE5FB"/>
<path transform="translate(220,339)" d="m0 0h4v2l-4 2h-3v2l-10 5h-2l-1 17h-1v-16l2-4 11-7z" fill="#BDE3F4"/>
<path transform="translate(1023)" d="m0 0h27l1 3h-13l-10 2h-4z" fill="#18C0D2"/>
<path transform="translate(624,580)" d="m0 0 4 2-6 8-9-3-2-2z" fill="#DDEAFB"/>
<path transform="translate(113,720)" d="m0 0 12 6 14 8-2 2-8-4-6-2-13-8z" fill="#86BFE9"/>
<path transform="translate(218,636)" d="m0 0 5 2v2l-13 7h-4l1-4z" fill="#E6F0FA"/>
<path transform="translate(627,500)" d="m0 0 7 1 7 4v4l-2 3-5-4 1-2-9-1z" fill="#DDECFC"/>
<path transform="translate(1299,431)" d="m0 0 3 3v36l-3-1z" fill="#40DEED"/>
<path transform="translate(1442,58)" d="m0 0 2 1v2l-5 3h-2l-1 3-5 3-11 4-3-1z" fill="#2E92D6"/>
<path transform="translate(378,716)" d="m0 0h5l2 3-14 8h-2l-1-3 7-7z" fill="#F0F8FC"/>
<path transform="translate(1257,169)" d="m0 0 2 1-16 10-28 14-2-1 4-4h3l29-15z" fill="#16AAB5"/>
<path transform="translate(575)" d="m0 0 2 1v45h-1l-2-33v-8z" fill="#278BC5"/>
<path transform="translate(176,756)" d="m0 0 12 6 15 9-2 2-14-6-4-4-7-4z" fill="#54B1E3"/>
<path transform="translate(142,738)" d="m0 0 6 1 17 10 10 6v2l-5-2-20-11-8-5z" fill="#4EB2E3"/>
<path transform="translate(253,618)" d="m0 0 2 1-6 4h-2l1 3-10 5v-2l-4-2 12-7 5-1z" fill="#E8F1FA"/>
<path transform="translate(1113,69)" d="m0 0 5 5 7 11 1 8h-2l-8-15-3-6z" fill="#14C0D2"/>
<path transform="translate(157,41)" d="m0 0 5 1 9 5 12 6 1 3-5-1-22-12z" fill="#CDE9F6"/>
<path transform="translate(643,593)" d="m0 0 3 4v2l4 1 5 2 12 1v1l-13 1-9-1-5-4-2-2h3z" fill="#80DEE8"/>
<path transform="translate(215,171)" d="m0 0 6 1 5 3 7 3 5 3 6 4-2 2-19-10-8-5z" fill="#CBECF5"/>
<path transform="translate(1283,571)" d="m0 0 2 2v3l2 1v11l-2 10-3 2z" fill="#14C5D8"/>
<path transform="translate(593,568)" d="m0 0 8 2 2 10-5-1-6-7z" fill="#F1F9FC"/>
<path transform="translate(639,722)" d="m0 0 16 8 14 9-1 2-25-14-4-3z" fill="#EEF6FB"/>
<path transform="translate(537,502)" d="m0 0 1 3-1 7-1 9-4-5v-10l3-3z" fill="#31D0DA"/>
<path transform="translate(258,98)" d="m0 0 9 2 7 5-2 1-1 2-4-1-11-7z" fill="#7DDAE7"/>
<path transform="translate(578,687)" d="m0 0 16 8 11 7v3l-18-10-9-6z" fill="#EFF6FB"/>
<path transform="translate(943,24)" d="m0 0 11 1v1l-25 4-9 3-3-1 12-5z" fill="#14BBCB"/>
<path transform="translate(968,697)" d="m0 0 3 1v3l-7 1-9 9h-2l1-3 2-4 3-5z" fill="#DBECFB"/>
<path transform="translate(489,635)" d="m0 0 5 2 11 6v2l5 1v2l3 1-2 2-20-12z" fill="#ECF3FB"/>
<path transform="translate(1320,131)" d="m0 0h3v2l-11 6-7 1-4 3h-5l3-3h2v-2l10-3 5-2z" fill="#3DBBDC"/>
<path transform="translate(568,588)" d="m0 0 4 2 4 13v3l-4-2-4-8z" fill="#F1F8FC"/>
<path transform="translate(900,165)" d="m0 0 6 2 1 4-4 3h-5v-2h-2l2-5z" fill="#EDF8FA"/>
<path transform="translate(350,265)" d="m0 0 3 1-7 5-12 6-1-2-2-1 10-6 8-2z" fill="#ABDCEF"/>
<path transform="translate(239,579)" d="m0 0h3v6l-9 5h-3l2-5z" fill="#3BDAE8"/>
<path transform="translate(881,117)" d="m0 0h2l-2 4-4 5-2 6-7-1v-5l5 1 6-9z" fill="#4E2A2F"/>
<path transform="translate(624,599)" d="m0 0 5 1 3 3-6 3-10 1 5-6z" fill="#DBE4FA"/>
<path transform="translate(1282,151)" d="m0 0 5 1-5 4-13 8-2-1 5-6z" fill="#2399C4"/>
<path transform="translate(211,70)" d="m0 0 6 2 6 3v2l5 2v2l-10-3-8-5z" fill="#BEE0F3"/>
<path transform="translate(227,787)" d="m0 0 5 1 10 6 7 5v1l-7-1-8-6-4-2z" fill="#B7D7EF"/>
<path transform="translate(271,767)" d="m0 0h1l1 10 10 1-5 4-3 3h-3l-1-4z" fill="#C0E5F5"/>
<path transform="translate(883,762)" d="m0 0 3 1-23 13-4 3h-2l1-3 17-10z" fill="#F0F4FB"/>
<path transform="translate(103,635)" d="m0 0 6 1 4 4-1 3-8-1-2-1z" fill="#F2F9FC"/>
<path transform="translate(608,504)" d="m0 0 3 1 5 8 1 7-4-2-1-3-3-3-1-6-3-1z" fill="#34D1DC"/>
<path transform="translate(222,745)" d="m0 0 10 3 3 2v2l2 1h-5v2l2 1-4-1-6-5z" fill="#298CC7"/>
<path transform="translate(245,734)" d="m0 0 4 1 15 8 3 2v2l-5-1-11-6-6-5z" fill="#1BC5D8"/>
<path transform="translate(1353,561)" d="m0 0h1v33l-3-1 1-29z" fill="#16AAB5"/>
<path transform="translate(1143,142)" d="m0 0 4 2v8l-2 3-1 10h-1l-1-18z" fill="#17A9B7"/>
<path transform="translate(940,104)" d="m0 0h11l-1 2-15 2h-16v-1z" fill="#472921"/>
<path transform="translate(887,150)" d="m0 0 6 2 9 7h-3l-9-3-5-2-1-3z" fill="#4D2E29"/>
<path transform="translate(839,677)" d="m0 0 4 1 2 5h5l-2 2-13-2 1-4z" fill="#fff"/>
<path transform="translate(951,206)" d="m0 0h9l13 2v2h-14l-8-2z" fill="#F5F9FD"/>
<path transform="translate(732,777)" d="m0 0 5 1 19 11v3l-23-13z" fill="#EDF5FB"/>
<path transform="translate(167,621)" d="m0 0 2 1-1 2 6-1-3 3-8 4-4-1 2-4z" fill="#14C4D7"/>
<path transform="translate(647,591)" d="m0 0 4 2 4 5 3 3v1h-6l-4-3z" fill="#E6EDFA"/>
<path transform="translate(1233,179)" d="m0 0 3 1-4 4-15 7v-3z" fill="#2490C2"/>
<path transform="translate(973,177)" d="m0 0h12l2 3-1 1-13-1-10-1v-1z" fill="#442721"/>
<path transform="translate(635,552)" d="m0 0h7l-1 7-2 4h-2l-2-6z" fill="#DCEAFB"/>
<path transform="translate(1543)" d="m0 0 3 1-15 10-9 5 1-4 16-9z" fill="#1E9CBD"/>
<path transform="translate(437,607)" d="m0 0 6 1 12 6v3l4 1-3 1-18-10z" fill="#E2EDFA"/>
<path transform="translate(956,181)" d="m0 0h4v6l-3 2v2l4 2h-5l-2-2-1-6z" fill="#E6F0FC"/>
<path transform="translate(1383,93)" d="m0 0 2 1v3l-14 8-3-1 8-7z" fill="#35A9DE"/>
<path transform="translate(154,749)" d="m0 0 6 1 17 10 2 2-6-1-14-8z" fill="#573EDE"/>
<path transform="translate(585,477)" d="m0 0 5 5 5 7-6 2-3-7z" fill="#DEECFC"/>
<path transform="translate(896,591)" d="m0 0 5 1 11 6v2l-10-2z" fill="#DBE9FA"/>
<path transform="translate(532,518)" d="m0 0 3 4 5 9-1 3-5-3-2-4z" fill="#DDECFC"/>
<path transform="translate(446,210)" d="m0 0v3l-17 10-5 2 1-3 12-7z" fill="#A9DAED"/>
<path transform="translate(185,699)" d="m0 0 6 2 9 5 1 3-5-1-5-3-4-1z" fill="#1EC6D8"/>
<path transform="translate(611,514)" d="m0 0 2 1 3 6-1 4-5-1-6-3 3-1 3 1z" fill="#80DEE8"/>
<path transform="translate(637,57)" d="m0 0 9 2 3 3v2l1 2-6-2-9-5z" fill="#3EC3DB"/>
<path transform="translate(990,190)" d="m0 0h5l-2 3h-32l4-2h20z" fill="#F7BE9C"/>
<path transform="translate(1264,693)" d="m0 0 1 4-3 9-3 5-4 2 2-5z" fill="#15BFCF"/>
<path transform="translate(947,629)" d="m0 0 5 1h10l4-1 6 3v1h-10l-11-1z" fill="#F2F5FC"/>
<path transform="translate(257,614)" d="m0 0 2 3-1 3-9 5h-2v-2l6-4-5 2v-2z" fill="#F5F9FC"/>
<path transform="translate(576,548)" d="m0 0 3 3 4 9-1 4-4 1v-11l-1-4-2-1z" fill="#D7E0F7"/>
<path transform="translate(971,702)" d="m0 0 4 2 3 3-2 4-5 1z" fill="#F8FAFD"/>
<path transform="translate(13,569)" d="m0 0m-2 1h2l-1 3-6 4-4 3h-2l1-5z" fill="#51CFE2"/>
<path transform="translate(589,479)" d="m0 0 4 2 6 7 1 4-5-3-6-7z" fill="#36D1DB"/>
<path transform="translate(258,316)" d="m0 0 2 1-4 3v2l-8 5-4-2 3-3 7-2v-2z" fill="#98D9EC"/>
<path transform="translate(970,180)" d="m0 0h9l-3 1v10l-2-3-1-5-4 2-3-1z" fill="#2E9DD0"/>
<path transform="translate(574,506)" d="m0 0 8 1 7 4-4 2-7-3z" fill="#80DEE8"/>
<path transform="translate(587,468)" d="m0 0 4 2 7 8 1 4-4-2-8-10z" fill="#E4EBFA"/>
<path transform="translate(529,160)" d="m0 0 2 1v3l-12 7v-3l1-2h2v-2l6-3z" fill="#AFD9EE"/>
<path transform="translate(562,140)" d="m0 0 4 1-3 1v2l-8 5-5-1 5-4z" fill="#B2E0F0"/>
<path transform="translate(700,759)" d="m0 0h6l10 6-2 3-14-8z" fill="#E8F0FA"/>
<path transform="translate(1544,539)" d="m0 0 4 1 17 10-4 1-5-3-9-6-3-1z" fill="#1CC9DA"/>
<path transform="translate(797,751)" d="m0 0h1v36l-3 2 1-5z" fill="#E7EEFB"/>
<path transform="translate(916,107)" d="m0 0 2 2-2 1-9 1h-11l3-2z" fill="#492B22"/>
<path transform="translate(195,770)" d="m0 0 7 2 4 1 6 3-1 2-6-1-10-6z" fill="#93CDEA"/>
<path transform="translate(616,709)" d="m0 0 16 8 2 4-14-7-4-3z" fill="#EEF6FB"/>
<path transform="translate(1508,633)" d="m0 0 8 2 1 3h4v2l5 2 5 3-2 1-21-12z" fill="#1AA8BC"/>
<path transform="translate(651,612)" d="m0 0h7l-4 2 1 4 2 1v5h-3l-3-8z" fill="#E1EBFA"/>
<path transform="translate(668,576)" d="m0 0 4 4 6 10v5l-3-3-2-5-5-8z" fill="#35D2DC"/>
<path transform="translate(742,412)" d="m0 0 8 1 1 2-9 2-7-3v-1z" fill="#E69C84"/>
<path transform="translate(268,311)" d="m0 0 2 1-5 5-9 4-1-2 6-4 4-3z" fill="#AADAED"/>
<path transform="translate(98,712)" d="m0 0 14 7 1 2-7-1-5-3-3-3z" fill="#66B5E6"/>
<path transform="translate(421,679)" d="m0 0h3v17h-1l-1-11-6-1z" fill="#6ADCE9"/>
<path transform="translate(564,139)" d="m0 0h3v33h-1l-1-28-2-2 2-1z" fill="#42DAE9"/>
<path transform="translate(603,550)" d="m0 0 5 3 1 4-7-1-1-5z" fill="#80DEE8"/>
<path transform="translate(571,382)" d="m0 0 6 2 12 7-4 1-14-8z" fill="#F1F5FB"/>
<path transform="translate(487,184)" d="m0 0m-2 1 2 1 1 3-6 4-4-1 3-5z" fill="#8FDAE9"/>
<path transform="translate(159,140)" d="m0 0 5 1 14 7v1l-7-1-12-7z" fill="#D8EBF8"/>
<path transform="translate(759,794)" d="m0 0 7 4 1 2h-10v-5z" fill="#6835EF"/>
<path transform="translate(602,591)" d="m0 0 4 1 1 2v7l-4-2-1-2z" fill="#F3FAFC"/>
<path transform="translate(584,589)" d="m0 0h3l-1 6-1 1h-5l1-6z" fill="#DEE7FC"/>
<path transform="translate(580,550)" d="m0 0 4 1 3 8v4h-2l-4-9z" fill="#3BD2DC"/>
<path transform="translate(292,297)" d="m0 0m-3 1h7l-4 4-6 3-3-1z" fill="#C0DEF2"/>
<path transform="translate(882,154)" d="m0 0 2 1 1 9 3 3-1 2-5-4-1-3v-7z" fill="#FEFBF9"/>
<path transform="translate(679,745)" d="m0 0 10 5 6 4-1 2-15-8z" fill="#EDF5FB"/>
<path transform="translate(226,632)" d="m0 0m-3 1h7v3l-5 3-5-2z" fill="#EFF5FB"/>
<path transform="translate(715,766)" d="m0 0 8 3v2l5 1 1 4-10-5-4-3z" fill="#ECF3FB"/>
<path transform="translate(637,541)" d="m0 0 8 1-1 2h-3l2 4h-6l-2-4 3 1z" fill="#CEDAF2"/>
<path transform="translate(142,738)" d="m0 0 6 1 9 6-2 2-13-8z" fill="#69BCE6"/>
<path transform="translate(647,608)" d="m0 0 16 3v1h-12l-1 4z" fill="#80DEE8"/>
<path transform="translate(560,469)" d="m0 0h1l1 7 2 2v3h-2v-2h-2v8h-1v-13z" fill="#80DEE8"/>
<path transform="translate(350,265)" d="m0 0 3 1-7 5-7 1 2-4 8-2z" fill="#C2E0F4"/>
<path transform="translate(918,183)" d="m0 0h6l2 4-12-1z" fill="#FDC29C"/>
<path transform="translate(630,562)" d="m0 0 2 3 1 8-2 3-2-3z" fill="#DBEAFA"/>
<path transform="translate(1143,206)" d="m0 0 3 4-5 12-1-4 2-9z" fill="#15BBCF"/>
<path transform="translate(1320,131)" d="m0 0h3v2l-11 6h-2l1-3z" fill="#35ADDB"/>
<path transform="translate(1036)" d="m0 0h14l1 3-15-1z" fill="#30D3E0"/>
<path transform="translate(211,777)" d="m0 0 5 2 4 2v2l-3 1-8-5z" fill="#C1DBF0"/>
<path transform="translate(197,608)" d="m0 0h2v2l-10 5-7 4 2-4z" fill="#20C6D7"/>
<path transform="translate(355,260)" d="m0 0 2 1-1 4-7 2-6 1 5-4z" fill="#9ED8EB"/>
<path transform="translate(1521,13)" d="m0 0 2 1-5 5-3 2h-4v-2z" fill="#2790C6"/>
<path transform="translate(760,792)" d="m0 0 6 2 4 4v2l-4-1-6-4z" fill="#EDF4FB"/>
<path transform="translate(129,731)" d="m0 0 9 4 6 2-3 2-6-2-6-4z" fill="#BED6F0"/>
<path transform="translate(178,148)" d="m0 0 5 2 4 3-2 2-10-5z" fill="#C0E9F3"/>
<path transform="translate(673,740)" d="m0 0 9 5-4 2-6-4z" fill="#EAF1FB"/>
<path transform="translate(113,720)" d="m0 0 8 4-1 3-5-2-5-3z" fill="#9DC8EC"/>
<path transform="translate(123,617)" d="m0 0 2 1-10 7-6 3v-2z" fill="#309BDD"/>
<path transform="translate(569,518)" d="m0 0h1l1 5 2-2 1 9-2-1v-3h-4z" fill="#5FDCE8"/>
<path transform="translate(310,286)" d="m0 0 5 1-4 4-5 1 2-5z" fill="#C9E1F4"/>
<path transform="translate(962,180)" d="m0 0h3l-1 11-3-2-1-8z" fill="#2E97D3"/>
<path transform="translate(209,166)" d="m0 0 5 1 5 4-5 1-5-3z" fill="#C3E9F4"/>
<path transform="translate(940,104)" d="m0 0h11l-1 2-14 1z" fill="#4B2C23"/>
<path transform="translate(157,41)" d="m0 0 5 1 6 4 1 2-7-2-5-3z" fill="#D7F0F7"/>
<path transform="translate(84,652)" d="m0 0v3l-4 5h-4l2-4z" fill="#14C5D8"/>
<path transform="translate(107,633)" d="m0 0 7 3v2l-5-1-6-2-1 2v-3z" fill="#42AAD5"/>
<path transform="translate(480,630)" d="m0 0 5 2v2h4l1 4-12-6z" fill="#E7EFF9"/>
<path transform="translate(953,623)" d="m0 0 5 2 5 3-1 2-4-1-5-5z" fill="#D8E2F8"/>
<path transform="translate(270,612)" d="m0 0h2l-2 4-9 4-2-1z" fill="#2889C6"/>
<path transform="translate(813,549)" d="m0 0 7 2 4 2v2l-6-1-4-2z" fill="#CEDAF2"/>
<path transform="translate(599,520)" d="m0 0 6 2 6 4-3 1-9-5z" fill="#3CD3DE"/>
<path transform="translate(302,291)" d="m0 0m-3 1 3 1-4 4-6 2 2-4z" fill="#B5D9EE"/>
<path transform="translate(1274,156)" d="m0 0 2 1v3l-7 4-2-1 5-6z" fill="#209ABF"/>
<path transform="translate(630,589)" d="m0 0 4 2 2 5-6-2-1-4z" fill="#E6EDFA"/>
<path transform="translate(1287,557)" d="m0 0 6 2 4 3-7 1-3-4z" fill="#40C7DE"/>
<path transform="translate(1561,324)" d="m0 0 6 3 4 5-5-2-7-4z" fill="#40C3DC"/>
<path transform="translate(506,173)" d="m0 0 3 1-11 7-2-1 3-3z" fill="#74D9E5"/>
<path transform="translate(207,71)" d="m0 0 4 2v7l-3 1z" fill="#37C8D9"/>
<path transform="translate(503,643)" d="m0 0h2v2l5 1v2l3 1-2 2-7-4z" fill="#EAF2FA"/>
<path transform="translate(211,640)" d="m0 0 2 1-2 3 1 2-6 1 1-4z" fill="#BCE3F2"/>
<path transform="translate(266,609)" d="m0 0 6 1v2l-8 4v-3l2-1z" fill="#DFF4F9"/>
<path transform="translate(243,325)" d="m0 0 4 1-3 3-3 1-4-2z" fill="#ABDEF0"/>
<path transform="translate(215,171)" d="m0 0 6 1 7 4v1h-5l-8-5z" fill="#E1F1FA"/>
<path transform="translate(1378,96)" d="m0 0 2 1-5 5-4 3-3-1 8-7z" fill="#39B3DD"/>
</svg>
