<?xml version="1.0" encoding="UTF-8"?>
<svg version="1.1" viewBox="0 0 2048 1362" width="275" height="183" xmlns="http://www.w3.org/2000/svg">
<path transform="translate(0)" d="m0 0h2048v1362h-2048z" fill="#F8F9F8"/>
<path transform="translate(1697,427)" d="m0 0 13 1 10 3 9 5 7 8 4 9 5 21 8 15 13 18 6 12 2 9v8l-3 9v10l9 14 12 27 13 34 7 21 3 12v10l-3 6-11 14-6 8-2 4 1 15 3 19v12l-1 8 3 20 18 83 12 55 6 19 8 16 11 20 35 59 9 15 17 29 8 13 10 17 2 4v3l-25 14-19 11-5 2-5-4-10-13-11-14-12-16-10-13-13-18-12-15-12-17-10-13-14-20-9-14-9-16-18-37-13-28-5-8-2-1-2 11-8 24-1 4-1 47-1 154-5 1h-25l-27-1-2-5-6-46-6-54-7-65-1-22 4-50 6-71 3-28-4-2-3-7-4-4-14-5-12-3h-20l-14-1-1-1-9-1-1 70-2 37-1 10-4-4-7-11-12-15-9-12-11-14-9-10-8-10-14-17-9-11-8-10-1-4h-4l-1-5h-2l-9-19-13-20-13-18-13-17-11-14-14-19-11-14-2-4 3-2 16-1h64v-15l1-15 2-1 55-3 41-2h27l44 2h28l2-10 5-16 1-3v-8l-2-19-1-15v-51l3-14 4-9 4-6 9-8 8-6 6-5z" fill="#FEC872"/>
<path transform="translate(314,399)" d="m0 0h7l10 4 10 10 8 4 2 3v15l-3 4h-2l3 3 1 3-1 18-4 18-5 12-7 12-3 7 6 1 17 1 11 4 9 6 21-1 87-18 14-1 4 10 8 38 12 60 6 27 4 20 1 12-5 5-12 5-22 5-39 7-6 1-27 1-20 3-3 1-2 5-3 2-18 3 2 3 11 122 6 70-8 3v59l-1 31-1 62-1 96 3 3 28 11 21 9 14 7 5 5 2 7 2 17 607-2 199 1h337l7-11 9-8 11-5 25-9 5-1 16 5 6 1 17 1 10 2 1 1 1 11v14h163l14-1 106 1v2l-5 1h-1669l-90 1h-54l-90-1-8-1v-2h77l58 1 31-1 4-1 3 1h68v-73l-1-3-1-64-2-64-3-53-2-14-1-24-1-9-4-2-1-1-1-119h-2l-2 42-3 56-2 20-3 2-32-1-59-4-3-1 2-13 10-47 14-70 11-53v-7l2-1h14v-5l73-23 9-3 10 2 12 2 13-1 18-6 14-8 8-8 5-13 2-10-1-8-5-5-2-5-7-31-6-28-2-5-1-1h-9l-12 3 2 14 11 54 2 7v4l-4-1-4-4-7 1-4 8-5 2-14 2h-7l-2-7-4-23-10-44-1-3-8 1-11 3h-3l8 44 6 26v5l-4 1-58 4h-10l-1-13h-2l1 3v8l-1 2-3 1h-9l-11-12-7-6-13-4-11-1v-9l7-19 11-25 8-18 7-13 10-13 12-9 14-7 12-3 9-1 27-1v-35l-8-1-5-4-3-5v-2l-4-2-5-7-1-6 6-6-1-7-3-8v-6l4-6 6-4 9-2 9-7 8-4z" fill="#FCD4BF"/>
<path transform="translate(455,255)" d="m0 0h1185l12 4 8 6 7 8 5 11 2 10v38l-1 15-29 1h-1224v-37l1-21 3-12 6-9 9-8 8-4z" fill="#383662"/>
<path transform="translate(1289,460)" d="m0 0h21l28 1 16 2 7 3 11 6 11 9 9 12 6 14 2 9-1 13-4 11-7 13-6 7-8 6-10 4-18 3-57 2h-522l-25-2-6-3-16-11-10-9-6-7-4-8-3-12v-23l3-10 6-10 11-10 10-5 13-3 11-1h428z" fill="#FEC872"/>
<path transform="translate(1794,754)" d="m0 0h1l5 30 29 133 6 19 8 16 11 20 35 59 9 15 17 29 8 13 10 17 2 4v3l-25 14-19 11-5 2-5-4-10-13-11-14-12-16-10-13-13-18-12-15-12-17-10-13-14-20-9-14-9-16-18-37-13-28-5-8-2-1-2 11-8 24-1 4-1 47-1 154-5 1h-25l-27-1-2-5-6-46-6-54-7-65-1-22 4-50 6-71 2-20v-9l9-4 21-7 19-9 7-1 10-2 9-3 4-5 2-1 28-2h31l12-1z" fill="#383662"/>
<path transform="translate(535,733)" d="m0 0h223l119 1 38 1 1 134v50l-2 3-8-8-8-7-13-12-14-11-14-10-21-12-12-5-5 1-16 12-11 9-14 12-11 10-8 7-6 4-9-10-14-14-8-7-7-7-8-7-13-12-17-13-14-9-15-8-7-2h-15l-14 5-20 11-19 13-18 13-19 14-17 12-10 5v-127l1-27 1-8z" fill="#D3D4D4"/>
<path transform="translate(314,399)" d="m0 0h7l10 4 10 10 8 4 2 3v15l-3 4h-2l3 3 1 3-1 18-4 18-5 12-7 12-3 7 6 1 17 1 11 4 9 6 21-1 87-18 14-1 4 10 8 38 12 60 6 27 4 20 1 12-5 5-12 5-22 5-39 7-6 1-27 1-20 3-3 1-2 5-3 2-16 3-9 3-77 14-22 3h-12l-7-15-8-2v-1h5v-5l73-23 9-3 10 2 12 2 13-1 18-6 14-8 8-8 5-13 2-10-1-8-5-5-2-5-7-31-6-28-2-5-1-1h-9l-12 3 2 14 11 54 2 7v4l-4-1-4-4-7 1-4 8-5 2-14 2h-7l-2-7-4-23-10-44-1-3-8 1-11 3h-3l8 44 6 26v5l-4 1-58 4h-10l-1-13h-2l1 3v8l-1 2-3 1h-9l-11-12-7-6-13-4-11-1v-9l7-19 11-25 8-18 7-13 10-13 12-9 14-7 12-3 9-1 27-1v-35l-8-1-5-4-3-5v-2l-4-2-5-7-1-6 6-6-1-7-3-8v-6l4-6 6-4 9-2 9-7 8-4z" fill="#FF776F"/>
<path transform="translate(296,788)" d="m0 0h2l1 18 1 101 4 3 2 9 1 24 2 14 3 53 2 64 1 64 1 5-1 71-68 1-13-3-34-16-21-9-45-20-20-9-2-3 8-16 17-37 5-9h2l1-5 13-27 15-33 8-20 8-26 5-24 4-31 3-20 1-3-3-1h11l44 3 32 1 3-1 1-20 5-92z" fill="#FCD4BF"/>
<path transform="translate(1721,892)" d="m0 0 4 2 9 17 13 28 16 33 12 20 13 18 10 14 10 13 10 14 12 15 12 17 11 14 9 12 11 14 10 13 5 2 3-1 8 6 6 7v5l-13 18-10 16-5 14 4 7 6 1v1l-8 2-9 1h-75l-88-1-2-25-1-2-1-19v-34l4-2 1-154 1-47 6-20 4-11z" fill="#F8F9F8"/>
<path transform="translate(371,710)" d="m0 0 4 2 11 122 6 70-1 1-20 2-20 1-50 1-2-2-1-119h-2l-2 42-3 56-2 20-3 2-32-1-59-4-3-1 2-13 10-47 14-70 11-53v-7l2-1h9l8 2 6 12 1 3h12l27-4z" fill="#383662"/>
<path transform="translate(296,788)" d="m0 0h2l1 18 1 101 4 3 2 9 1 24 2 14 3 53 2 64 1 64 1 5-1 71-68 1-6-2 3-3 1-5v-18l-6-10-13-14-7-8-21-21-2-3 4-9v-6l6-4 8-14 9-20 14-29 12-25 10-24 9-27 6-24 2-11v-6l7-20 4-6h2l1-20 5-92z" fill="#F8F9F8"/>
<path transform="translate(1697,427)" d="m0 0 13 1 10 3 9 5 7 8 4 9 5 21 8 15 13 18 6 12 2 9v8l-4 11-1 1h-8l-19-5h-4l3 3 3 12 1 6-1 3 1 24 2 10 1 7 2 10 1 11 3 17 1 5v16l-7 7-10 7-12 9-5 5v-28l-1-46-2-15-5-2-5-1-52-2-4-2 3-10 5-16 1-3v-8l-2-19-1-15v-51l3-14 4-9 4-6 9-8 8-6 6-5z" fill="#FF776F"/>
<path transform="translate(376,554)" d="m0 0h9l3 3 4 17 7 33 4 17 5 5 2 5-1 10-5 15-7 8-6 5-16 8-13 4-13 1-16-3-6-1-9 3-44 14-27 8h-2v5l-14 1h-57l-4-1-1-9v-41l2-7 3-6 5-23h1v5l4-1 15 3 8 4 13 13 2 3h12v-13h2l1 3v10l40-3 32-2-10-46-4-24v-5l17-5h5l3 8 12 55 2 14 15-1 10-2 4-8 3-2h5l5 5 3 1-6-25-8-40-2-14 9-3z" fill="#FCD4BF"/>
<path transform="translate(318,1143)" d="m0 0h45l18 1v11l3 3 28 11 21 9 14 7 5 5 2 7 2 17 607-2 199 1h337l7-11 9-8 11-5 25-9 5-1 16 5 6 1 17 1 10 2 1 1 1 11v14h163l14-1 106 1v2l-5 1h-1669l-90 1h-54l-90-1-8-1v-2h77l58 1 31-1 4-1 3 1h68v-70z" fill="#393762"/>
<path transform="translate(1737,542)" d="m0 0 10 1 14 4h9l1 8 9 14 12 27 13 34 7 21 3 12v10l-3 6-11 14-6 8-2 4 1 15 3 19v12l-2 4-2 1-21 1h-22l-30 2-2 4-4 3-14 4h-7l-9 4-16 7-26 9h-3l-5-10-10-5-19-5h-20v-1l21-1 17 4 11 4h5l6-5 3-4h2l2-4 12-12 6-5 18-18 8-7 8-8 5-4 5-6 5-4 3-5 6-7 22-16 4-4v-16l-3-15-2-19-1-7-3-15-1-9-1-19 1-7-5-15z" fill="#FCD4BF"/>
<path transform="translate(1364,643)" d="m0 0 5 5 12 16 14 18 16 21 14 19 12 16 14 19 6 8v4h-2v2l-5 5-15 20-12 17-13 18-13 17-10 13-14 19-7 11h-1l-1-97z" fill="#D3D4D4"/>
<path transform="translate(1461,778)" d="m0 0 5 5 11 12 10 14 9 11 8 10 24 32 13 18 12 19v1l-21 1h-45l-70-1-43-2-4-2 7-8 11-14 12-15 28-38 12-17 10-13 9-11z" fill="#D3D4D4"/>
<path transform="translate(314,399)" d="m0 0h7l10 4 10 10 8 4 2 3v15l-3 4h-2l3 3 1 3-1 18-4 18-5 12-7 12-3 7 6 1 17 1 11 4 9 6h14v1l-21 3v-3l-1-2-6-2-8 2-4 2-1 3h-2l1 5-33 7-9 1-3-12h-2l-5-7-13-7h-19v-1l9-1 27-1v-35l-8-1-5-4-3-5v-2l-4-2-5-7-1-6 6-6-1-7-3-8v-6l4-6 6-4 9-2 9-7 8-4z" fill="#FCD4BF"/>
<path transform="translate(142,1094)" d="m0 0 6 1 43 18 10 5-1 6-3 8 4 5 8 7 17 17 7 8 10 12 3 6v18l-2 6-3 2-7-1-34-16-21-9-45-20-20-9-2-3 8-16 17-37z" fill="#383662"/>
<path transform="translate(1697,427)" d="m0 0 13 1 10 3 9 5 7 8 4 9 5 21 8 15 13 18 6 12 2 9v8l-4 11-1 1h-8l-19-5-19-3-2-1-2-12-1-31 3-8 4-5 1-4v-8l-5-1-3-1-7-13-8-7-9-3-2 2v12l-3 8-6 7-12 3-2 2-1 4v11l3 12 7 11 6 5 6 4 3 5v7l-8 5-10 6-7 6-5 7-2-1-2-19-1-15v-51l3-14 4-9 4-6 9-8 8-6 6-5z" fill="#393763"/>
<path transform="translate(1370,567)" d="m0 0 2 1-2 4 5 1 9-3 2 1-7 4h-3l1 4-9 3-1 3-6 2 2 3-4 3-1 3h6l-4 2h-5-3l-3-1-12 2-1 1h-21l-3 1 2 4 9-3h15l5 2v2l20 2 3 1v6l9 1 1 2-9 1-5-5-3-2-8-2-6 1-5-1h-12l-28-2-13-3-11-1-1-2 4-1v2l9-1 5 2 5-3h3v-3l-8-2-9 1v-2l-24-2-7-2h-45v2l2 1h-11l-2-4-15 1-1-3-10 2h-11l-23 1-9-1h-11l-29 3-3 1v2l-11 3 1-3h4l-1-3-7-2 4-5 2-3 8-3 5-1v-2l-15-1v-1l214-1 57-2 18-3z" fill="#EAEDEF"/>
<path transform="translate(272,514)" d="m0 0h8l14 8 4 5v2h2l3 6v6l-16 4-34 7-20 6-9 3-1 6v12l12 55v16l-1 2-3 1h-9l-11-12-7-6-13-4-11-1v-9l7-19 11-25 8-18 7-13 10-13 12-9 14-7 7-2z" fill="#FEC872"/>
<path transform="translate(1465,767)" d="m0 0 37 2h42l17-1-1 69-2 37-1 10-4-4-7-11-12-15-9-12-11-14-9-10-8-10-14-17-9-11-8-10z" fill="#D3D4D4"/>
<path transform="translate(1455,618)" d="m0 0h1v124l2 13 1 6-3-4-8-16-11-18-12-16-14-19-13-16-10-14-10-13-6-7 1-3 2-1 16-1h64z" fill="#D3D4D3"/>
<path transform="translate(1553,624)" d="m0 0h9l6 3 1 4 1 17v49l-4 15-6 9-7 6-9 3h-22l-16-4-10-4-7-8-2-13v-44l1-29 3-3h13l4 2 1 70 2 10 5 4 6 2h11l10-4 5-8 1-62 1-13z" fill="#F8F9F8"/>
<path transform="translate(1652,624)" d="m0 0h12l4 2v6l-6 10-16 24-4 7 2 7 10 15 14 24 2 4v5l-3 1h-9l-8-3-6-4-10-16-5-9h-3l-9 14-10 18h-11l-8-3-1-4 8-13 10-16 10-15-1-6-12-18-11-15-4-8v-4l6-2h16l4 5 13 25h3l7-10 11-17z" fill="#F8F9F8"/>
<path transform="translate(1654,1179)" d="m0 0 10 3 14 3 17 1 10 2 1 1 1 11v14h163l14-1 106 1v2l-5 1h-549v-1l81-1v-1l82-1 7-11 9-8 11-5 25-9z" fill="#383662"/>
<path transform="translate(379,1151)" d="m0 0 2 4 3 4-3 6v8l4 2 5 3 8 3 14 7v3h-3l2 1 4-2h6l2-6 6-2v2l4-1 2 1 1 3h6l1 3h2l1-2 3 2-2 4v3 3h-2v2h-2l3 3v2h-8-2l-4 1h-8l-5-3-1-5 1-3-2-1v2h-3l-1 5-6-1v-2l-6-1-9 3-8 1h-30v-2h-10l-4 3h-6l-4-4-2-4-6-2-3-5-1-7 1-11 4-7h2l4-4 6-4 14-2h7l2 1 12 1 5 1 3-1z" fill="#636483"/>
<path transform="translate(1694,445)" d="m0 0 9 3 9 8 7 13h6l2 2v8l-2 5-4 5-2 7 1 31 2 13-18 2-14 2-6 1 3-3 5-3v-7l-3-5-9-6-6-7-5-10-2-9v-11l2-5 5-3 9-2 6-8 2-6v-12z" fill="#FCD3BF"/>
<path transform="translate(314,399)" d="m0 0h7l10 4 10 10 8 4 2 3v15l-5 5-10 4h-21l-16-2-2 1v16l4 2v7l-4 8-5 1-6-3-5-7v-2l-4-2-5-7-1-6 6-6-1-7-3-8v-6l4-6 6-4 9-2 9-7 8-4z" fill="#393762"/>
<path transform="translate(427,545)" d="m0 0 7 1 4 20 15 73 4 19v3l-19 3-5 1-3-9-8-40-10-48-2-11v-9z" fill="#F9F6F3"/>
<path transform="translate(1949,1133)" d="m0 0 9 6 8 9 1 6-10 9-19 13-18 13-24 16-8 6h-7l-5-8 5-14 12-19 12-16 20-7 17-8 5-3z" fill="#393763"/>
<path transform="translate(143,1103)" d="m0 0 6 2 9 2h7l5 2 1 4h3v2h5l5 5 15 5-3 10-5 1 1 4 6 10 1 3 5 2 4 5 5 3 4 7h2l1 4 5 1 8 4 7 7-1 4-4 1-16-8-13-5-9-3-12-6-1-1-10-2-16-5-10-5-5-2-3-2-3-7v-5h4l7 3 5 2 6-1 5-3v-7l-2-5-5-4-5-3-7-2-1-4 3-3h-5v-7z" fill="#646584"/>
<path transform="translate(746,777)" d="m0 0h14l12 6 8 7 3 5v15l-4 11-6 8-5 4-6 2h-11l-10-3-9-6-6-10-1-3v-13l4-8 10-11z" fill="#F8F9F8"/>
<path transform="translate(1651,1132)" d="m0 0h56l-3 2v34l1 20-27-2-16-4-6-2-2-25z" fill="#FBC5A8"/>
<path transform="translate(1322,486)" d="m0 0h17l10 1 5 5 4 8 2 9v15l-2 4-8 7-9 5-4 1h-7l-10-4-9-7-5-11-2-7v-12l5-10 7-3z" fill="#FFC871"/>
<path transform="translate(1029,1212)" d="m0 0h34l454 2 45 1v1h-1089v-1l217-1 81-1z" fill="#343058"/>
<path transform="translate(381,905)" d="m0 0h6l-3 2-2 22-6 2-20 5-18 4-18 3h-14l-1-24-1-9-2-1 9-1 40-1z" fill="#FCC5A7"/>
<path transform="translate(1790,705)" d="m0 0h2l5 34v12l-2 4-2 1-21 1h-22l-30 2-1 2 1-9 4-6 21-13 22-14 20-12z" fill="#FF776F"/>
<path transform="translate(199,903)" d="m0 0h11l44 3 23 1 8 1-3 9-4 13-2 1-26 2h-51v-14l3-15z" fill="#FBC5A8"/>
<path transform="translate(1737,542)" d="m0 0 10 1 7 3 5 4 1 5-4 5-1 9 3 21 3 17 4 18 5 23 1 12-6 9-8 7-9 8-9 6-8 4-9 4-2 1 1-4 7-8 22-16 4-4v-16l-3-15-2-19-1-7-3-15-1-9-1-19 1-7-5-15z" fill="#FBC5A7"/>
<path transform="translate(1334,475)" d="m0 0 14 1 7 3 8 9 5 12 2 8v17l-4 6-3 2-1 3 4-4h5v11l-3 5-4 2h-6l-8-4-4-1-1 3-9 2-13-2-10-5-5-5v-3l-3-1-4-9v-3h-2l-1-9h3l-2-5v-10l2-9 1-2h2l2-4 3-3 8-3zm-12 11-12 3-5 8-1 3v12l4 12 5 8 9 6 8 3h7l10-4 8-7 4-3 1-3v-15l-3-12-6-9-2-1-10-1z" fill="#FCD4BF"/>
<path transform="translate(376,554)" d="m0 0h9l3 3 4 17 6 28 2 15 2 8v4l-18 6-6-2-5-21-8-40-2-14 9-3z" fill="#F9F6F4"/>
<path transform="translate(312,567)" d="m0 0h5l3 8 12 55v16l-6 1h-15l-1-5h-2l-9-41-4-24v-5z" fill="#F9F6F4"/>
<path transform="translate(453,1204)" d="m0 0 2 2 1 8h234v1l30 1v1h-404l-90 1h-54l-90-1-8-1v-2h77l58 1 31-1 4-1 3 1 70-1h55l23-1 13-1 1-2 34-1 9-2z" fill="#413F65"/>
<path transform="translate(734,569)" d="m0 0 6 2 2 1 25 2 88 1v1l-15 3v3l-10 2v1l-24 4h-6l-6 5-2 1h-8l-7 2h-6l-1-3h-6l-5 2-7-1 1 2 9 1v2l-4 2-5-1-2-1-3-7 2-1 2-4-5-2 1-3-9-2-4-4v-2l-9-1-3-2 10-2z" fill="#EAEDF0"/>
<path transform="translate(1438,727)" d="m0 0 2 3 1 2 4 2 9 16 4 9v2h2l1 5h4l3 5 13 16 14 17 9 11 12 14 11 14 13 17 12 16 1 5-5 1-7-8-9-8-9-12-8-10-5-4-8-11-9-11-8-10-10-14-10-11-4-4-2 2h-3l-2-9 1-3h2l-3-7-14-18-8-11v-4h5z" fill="#ECEFF2"/>
<path transform="translate(1155,933)" d="m0 0 2 2-1 7 7 1h8 3l4-1 1 3 11-1 15-1v2h2l1-3h7l4 1 11 1 8-1-2 5-1 2-6 1v2h-2v-2l-8 6-3 2-4-1-2-1v4l-5 2-9 2-4-1h-3l-21 1v-2l-10 1-3-5-2-5-5-4-3-3v-2l3-3 1-7z" fill="#EAEEF1"/>
<path transform="translate(729,255)" d="m0 0 748 1v1l-175 1h-17l-3 1-4-1h-7l-9 1h-201-2-23l-5-1h-15l-2 1v-2l-5 1-301-1v-1z" fill="#25204A"/>
<path transform="translate(1933,1112)" d="m0 0 2 1 6 7 8 12-2 5-16 8-14 6-8 3h-4l-2-5-6-7-6-4v-2l39-22z" fill="#FBC5A8"/>
<path transform="translate(383,1159)" d="m0 0 7 1 27 11 25 11 8 5 1 4-5-2-3 1-2-2h-6v-4h-6-2-4l-2 6-8 2-3 1-2-3 4-1-9-5-7-3-10-4-5-4-1-2v-6l3-5z" fill="#383661"/>
<path transform="translate(179,625)" d="m0 0h1v5l4-1 15 3 8 4 13 13 2 3h12v-13h2l1 3v10l3 1-3 1-14 1h-43l-2-1v-25z" fill="#FCC6A8"/>
<path transform="translate(1879,1213)" d="m0 0 111 1v2l-5 1h-278l-107-1v-1l104-1h166z" fill="#646584"/>
<path transform="translate(490,290)" d="m0 0h10l7 3 3 5v8l-3 9-5 4-2 1h-10l-7-4-4-5-1-2v-8l3-5 6-5z" fill="#FFC470"/>
<path transform="translate(196,1133)" d="m0 0 3 1 27 27 7 8 10 12 3 6v18h-1l-1-14-12-12-12-5-1-4-3 1-4-8-5-3v-2l-3-1-8-8-5-9-1-4 1-1h5z" fill="#393763"/>
<path transform="translate(604,291)" d="m0 0h11l9 4 1 3v8l-2 9-4 3-4 1h-8l-7-3-4-6-1-9 3-7z" fill="#F6F6F5"/>
<path transform="translate(546,291)" d="m0 0h12l5 2 3 4v14l-3 5-6 3h-11l-5-3-3-4-1-4v-7l4-7z" fill="#F6F6F5"/>
<path transform="translate(241,1213)" d="m0 0 6 1h68l16 1v1l-15 1-90 1h-54l-90-1-8-1v-2h77l58 1 31-1z" fill="#5E5F7F"/>
<path transform="translate(1024,344)" d="m0 0h201l17 1v1l-24 1h-227l4-2z" fill="#25204A"/>
<path transform="translate(378,668)" d="m0 0 8 1v4l-9 5h-2v2l-13 4-13 1-16-3-1-3 13-6 15-3z" fill="#F8F6F3"/>
<path transform="translate(231,711)" d="m0 0h9l7 2 1 3-13 3-1 2h-2l-2 10-7 41-3 16-4 15-3 14-3 11-3 17-3 6-1-4 15-75 11-53v-7z" fill="#2D2952"/>
<path transform="translate(444,446)" d="m0 0 3 1v5h-9l-4 7h-2l-1 6 5-6 8-2 4 5 2 4-6-2-7-1v2h-2l-1 4-4 5v2 20l2 6 1 7 12-1-1 2-13 4-7-1-3-7v-9l2-1 1-9h1l3-26 2-7h2l1-3 5-3z" fill="#EAEEF1"/>
<path transform="translate(1366,457)" d="m0 0 7 6 6 2 2 4v3l5 1 8 5h6l3-3 5 1-1 2-4 5-1 2-5-1-2-1 7 9 6 2 4 5 1 20v10l-4 15-3 7-1-3 4-13 1-8-1-27-1-3-7-2-7-8-7-7-5-2-5-1-10-7-6-3 2-2z" fill="#EAEDEF"/>
<path transform="translate(1582,774)" d="m0 0h10l6 3 1 2 6 2-1 5-4 2v8l-4 2h-8l-1 1h-5l-1-4-2-2 1-5 2-3 6-5v-1l-10-2 1-2z" fill="#EAEEF1"/>
<path transform="translate(299,441)" d="m0 0 16 2h23l-3 5-12 6-11 1-13 4-2-4-1-12z" fill="#FBC2A6"/>
<path transform="translate(1694,445)" d="m0 0 9 3 9 8 7 13 2 2-5-1-5-7h-12l-2 2-3 8-5 1-3-2 2-4 3-8v-12z" fill="#FBC1A3"/>
<path transform="translate(1310,481)" d="m0 0 1 4-5 7-2 8v14l4 11 5 9v2l4 2 4 3 12 3v3l-9-1-8-3-11-9-4-9v-3h-2l-1-9h3l-2-5v-10l2-9 1-2h2l2-4z" fill="#ECEDEF"/>
<path transform="translate(341,1166)" d="m0 0h7l5 2 2 3v9l-3 6-5 1-3 1-7-1-2-7 1-11z" fill="#3A3863"/>
<path transform="translate(430,371)" d="m0 0 16 3 5 3 4-1h7l8 4 7 2-1 5h-3l-1 5 2 9h-2l-2-5v-2l-2-2-1-6-4-2-2-3-6-1-23-1-2 5-3 3-1-3-1 9h-1l-1-9 2-9z" fill="#EAEEF1"/>
<path transform="translate(1556,908)" d="m0 0 5 2 2 7 1 5h9l-1 6h2l-1 3 1 4-4 3-11 4h-2v3l-5 4-2 3h-2l-1 3-4 1 5-7 4-4 2-6 3-3h2l3-5-4-7-1-4 1-4-2-5z" fill="#EAEEF1"/>
<path transform="translate(160,1176)" d="m0 0 9 3 12 5 11 5 11 4 4-1 19 9 15 9v3l-7-1-34-16-21-9-18-8z" fill="#2B2750"/>
<path transform="translate(1554,597)" d="m0 0h27l44 2h27l4 2-12 1-70-2h-23l-58 3-36 1-1 2v-3l2-1 55-3z" fill="#F7D2BE"/>
<path transform="translate(1704,1214)" d="m0 0h77l-1 3h-73l-107-1v-1z" fill="#5C5C7D"/>
<path transform="translate(1640,377)" d="m0 0h6l2 2-12 6-4 5-5 4-5 9-2-1-1-5 1-4h-5l-6-8v-2l7-1 1 3 4 4h2l-3-4v-3h3v-2h7l4-2z" fill="#EAEEF1"/>
<path transform="translate(1537,604)" d="m0 0h15l2 2v12l-1 1h-14l-9-3v-7l4-4z" fill="#EBEEF0"/>
<path transform="translate(1514,843)" d="m0 0 5 4 11 15 6 7 8 7 4 4v2l6-2 2 3 2-1 1 2-1 10h-2l-2 7-2-1-6-11-11-16-14-19-7-9z" fill="#F9FAF9"/>
<path transform="translate(1844,959)" d="m0 0 4 2 13 23 9 15 19 32 9 15 8 13-1 4-7-11-8-13-11-18-6-10-8-14-8-13-6-12-4-7z" fill="#2F2B53"/>
<path transform="translate(419,694)" d="m0 0h27v1l-15 4-19 5-7 1h-12l3-7 14-3z" fill="#FBCDB4"/>
<path transform="translate(295,772)" d="m0 0 5 1 1 4v45l-1 50h-1l-1-84h-2l-2 42h-1v-26l1-24z" fill="#646584"/>
<path transform="translate(1690,447)" d="m0 0 2 4v9l-3 8-6 7-2 1h-8l1-5 6-7-1-1 1-8 4-4 5-2z" fill="#29244E"/>
<path transform="translate(774 1e3)" d="m0 0h8l4 2v3h-2l-1 3-5 2-7 1-29 1-11 1h-54v-1l14-1 49-1 13-1 2-1h8l3-2h3l1-5z" fill="#EAEEF1"/>
<path transform="translate(1517,1214)" d="m0 0h80l3 3h-164v-1l81-1z" fill="#626382"/>
<path transform="translate(1389,909)" d="m0 0h3l1 2 4-1 5 1 12-2h15l3 1-1 3-4-1-2 1h-10l-14 5-7 2h-12v2l-6 2 2-5h5l1-2 1-1 2-6z" fill="#EAEEF1"/>
<path transform="translate(296,788)" d="m0 0h2l1 18v99h-1l-1-68-1-7-2 18h-1v-18l2-36z" fill="#D3D4D4"/>
<path transform="translate(1713,430)" d="m0 0 7 1 9 5 7 8 3 6v6l-2 2-14-14 2-1 3 1-4-4-6-1-8-5v-2h3z" fill="#29244D"/>
<path transform="translate(1668,380)" d="m0 0 5 1-4 2-4 6h-2v-2l-6-2-5 2-1 4h-2l-2 4-5 5-1 4-3 3h-2l-2 8-3 3v-7l3-11 4-5h3l2-6h6l2-4 4-3h11z" fill="#EAEEF1"/>
<path transform="translate(1711,749)" d="m0 0h4l1 7 2 1 2-4-1 9-5 4h-3v-2l-9-1-1-9z" fill="#FCC5A7"/>
<path transform="translate(1703,447)" d="m0 0 5 1 15 10 4 5 2 5v3h2l-2 6h-1v-7h-9l-5-8-4-7-7-6z" fill="#2A254E"/>
<path transform="translate(1601,902)" d="m0 0 1 3-1 6 1-1 3-6 2 2-2 15-5 5-1-5h-2v5l-3 1-1-9 1-4-1-4 1-4 3-3z" fill="#EAEEF1"/>
<path transform="translate(318,683)" d="m0 0 4 1-5 3-21 7-8 3-13 4-21 5h-5l4-3 31-9z" fill="#646584"/>
<path transform="translate(1689,1187)" d="m0 0h12l5 2 1 11v14h-11l-4-2 4-3 6-2 2-10-4-1-5-5-6-3z" fill="#29244E"/>
<path transform="translate(467,882)" d="m0 0 4 4-5 4h-3l1 6h2l1 4-3 3-12-1-3-5 1-3h2l-1-4 3-1 1 4h6v-6l3-3h3z" fill="#EAEEF1"/>
<path transform="translate(1603,850)" d="m0 0 2 4 6 2-2 8-1 10-3 1h-4l-2-12 2-7-1-4z" fill="#EAEEF1"/>
<path transform="translate(1637,529)" d="m0 0h1l1 25 2-3h2l4 13 3 7-1 10h-1l-2-13-2-5 3 15v10l-2-2-3-18-1-3v8l-2-3-2-11-1-22z" fill="#EAEEF1"/>
<path transform="translate(1760,501)" d="m0 0h2l9 15 3 12v8l-2 7h-2l-2-11-1-11-3-8-4-10z" fill="#2E2A52"/>
<path transform="translate(359,520)" d="m0 0 7 3 2 4-9 3-9 2h-7l1-4 9-7z" fill="#FEC774"/>
<path transform="translate(1951,1135)" d="m0 0 5 2 8 8 3 5-1 5-4 2v-6l-9-6-10-3 2-3 6-1z" fill="#2A254F"/>
<path transform="translate(1675,517)" d="m0 0 4 2 5 4 6 4 3 5v7l-4 3h-3l-2-5-2-11h-2l-5-7z" fill="#2B2750"/>
<path transform="translate(1438,727)" d="m0 0 2 3 1 2 4 2 3 5-1 9h-2v-2l-4-1-9-12v-4h5z" fill="#ECF0F2"/>
<path transform="translate(1330,875)" d="m0 0 5 2 2 3 2 6 4 1v2l4 1 6 9 5 2-4 2-5-1v-2h-2l-2-5-8-6-3-5-6-4z" fill="#EAEEF1"/>
<path transform="translate(1574,597)" d="m0 0 51 2h27l4 2-12 1-70-2-19-1v-1z" fill="#FCD1BA"/>
<path transform="translate(1448,741)" d="m0 0 3 3 7 15v2h2l1 5 2 1-6 2-3-7-11-14v-2h2v2h2z" fill="#F7F8F8"/>
<path transform="translate(290,844)" d="m0 0h1v42l-2 20-2 1h-7l1-2 5-1 1-16 2-25z" fill="#2C2751"/>
<path transform="translate(1493,807)" d="m0 0 5 1 12 14 5 7-4-1-11-7-7-9-1-3z" fill="#F8F9F8"/>
<path transform="translate(231,711)" d="m0 0h9l7 2 1 3-13 3-1 2h-2l-1 7-3 1 1-17z" fill="#2C2851"/>
<path transform="translate(343,415)" d="m0 0 5 1 3 4v15l-5 5-4-1h2l1-13z" fill="#2B264F"/>
<path transform="translate(1376,977)" d="m0 0 36 2-4 5-18-1-9-3-5-2z" fill="#EAEEF1"/>
<path transform="translate(421,695)" d="m0 0 6 1v3l-27 5h-4l1-4 16-4z" fill="#F8F9F8"/>
<path transform="translate(1337,624)" d="m0 0h3l4 4 1 6 2 4v3l3 1 2 11-2-1-1-3-2-1v-5l-6-2-3-9z" fill="#EAEEF1"/>
<path transform="translate(1897,1198)" d="m0 0h5v3l-14 10h-7l1-6z" fill="#2B2650"/>
<path transform="translate(449,1190)" d="m0 0h3l2 7v7l-4 4h-5l1-3-3-1v-2h2v-2l2-2-2-4z" fill="#3A3863"/>
<path transform="translate(1015,977)" d="m0 0 2 1-2 4-5 2-1 3-6 4-2 2-9 2-9 1-4 1-6 1 1-2 5-2 9-2 15-5 4-1 1-4 4-1v-2h3z" fill="#EAEEF1"/>
<path transform="translate(1083,888)" d="m0 0 4 1 1 4 6-2-2 5v4l-3 3-8-2-2-1-1-4 4-2-1-4z" fill="#EAEEF1"/>
<path transform="translate(366,631)" d="m0 0h5l5 5 3 2-16 4-4-1 4-8z" fill="#FCC8AC"/>
<path transform="translate(1179,930)" d="m0 0h10l-1 2-7 1-2 4-8 1v-3l-1 2h-3v-3l-8 1v-3l9-1h10z" fill="#EAEEF1"/>
<path transform="translate(1355,831)" d="m0 0 3 1 2 3 1 7-5 1-1-2-4 1-2 2-4-2 1-6 2 1 2-3z" fill="#EAEEF1"/>
<path transform="translate(1602,928)" d="m0 0 3 1 1 5 3 22 1 7-2-1-3-14-2-3v-3h-2v-5l-3-3 1-3h2z" fill="#EAEEF1"/>
<path transform="translate(1666,482)" d="m0 0h1l2 19 4 10-1 3-1-3-4-2-2-2v-3l-2-1 1-17z" fill="#2B2750"/>
<path transform="translate(1599,819)" d="m0 0h2l6 9 1 10 2 1-2 9-4 1-1-11 1-7-5-10z" fill="#EAEEF1"/>
<path transform="translate(1787,757)" d="m0 0h7l1 1v6l-6-2-15-2h-18l-16-1v-1z" fill="#25204A"/>
<path transform="translate(281,414)" d="m0 0h4l-1 4-4 10-6 2-1-1v-6l4-6z" fill="#2A254F"/>
<path transform="translate(314,399)" d="m0 0h7l6 2v2l-2 2h-12l-10 1 1-4z" fill="#2F2A52"/>
<path transform="translate(1119,449)" d="m0 0 40 2 14-1 4 2v1h-33l-6-1-31-1v-1z" fill="#EAEEF1"/>
<path transform="translate(1527,908)" d="m0 0 5 1v2l6-1 1-1h5l1 5-2 8h-2l-4-7h-3l-5-3z" fill="#EAEEF1"/>
<path transform="translate(745,441)" d="m0 0 25 1 13 2v1h-13l-9-1h-14l-25 2v-2l10-2z" fill="#EAEEF1"/>
<path transform="translate(466,483)" d="m0 0 10 4 5 1 1 9-5 4-5 2-2-2 6-3-1-5-4-4-5-4z" fill="#EAEEF1"/>
<path transform="translate(316,1213)" d="m0 0h48l2 1v2h-35l-16-1z" fill="#25204A"/>
<path transform="translate(550,501)" d="m0 0 4 2 3 4 1 6-3 8v2l2 1-6 8h-2v-5h2l3-18-1-5h-3z" fill="#EAEEF1"/>
<path transform="translate(912,1007)" d="m0 0h4l-2 4-3 2-3-1-2 2v3l-9-2-3-1 1-3 6-2h7z" fill="#EAEEF1"/>
<path transform="translate(1410,501)" d="m0 0 2 1 1 17v10l-4 15-3 7-1-3 4-13 1-8z" fill="#EAEEF1"/>
<path transform="translate(1601,902)" d="m0 0 1 3-1 6-1 4v3l-4 2 1-5-3-1-1-4 1-4 3-3z" fill="#EDF1F3"/>
<path transform="translate(1559,884)" d="m0 0 4 5v7l-1 4-5 3-5-1 2-2 2-6h2z" fill="#EAEEF1"/>
<path transform="translate(198,878)" d="m0 0 1 4-2 15 2 3 6 1v1h-13l2-13 2-9z" fill="#2D2952"/>
<path transform="translate(963,914)" d="m0 0h3l1 5 2 8 3 1-4 4-5-5-3-5 2-5z" fill="#EAEEF1"/>
<path transform="translate(1933,1112)" d="m0 0 2 1 6 7 8 12-2 4-5-9-4-7-2-1-9-1 1-3z" fill="#FBD1BD"/>
<path transform="translate(965 1e3)" d="m0 0 3 1-4 2-3-1v2l-11 2h-14l-6-1 4-2 6-1h17z" fill="#EAEEF1"/>
<path transform="translate(478,312)" d="m0 0 4 2 5 4 3 1h13l-2 3h-3l-1 2h-6l-11-6z" fill="#2C2751"/>
<path transform="translate(114,1155)" d="m0 0 4 1v2l3-1 6 4 14 5 8 5-4 1-26-12-5-2z" fill="#2E2A53"/>
<path transform="translate(1058,969)" d="m0 0 15 4 7 2v1l-8 1-13-4-3 1-1-3-4 1-4-2z" fill="#EAEEF1"/>
<path transform="translate(295,443)" d="m0 0h1l1 10v6l1 2-7-1-2-3 2-1-3-7h3 2z" fill="#636483"/>
<path transform="translate(1435,910)" d="m0 0 13 1 6 1 10-1-4 4-7 1h-3l-11-3z" fill="#EAEEF1"/>
<path transform="translate(1237,447)" d="m0 0 12 1v1l-31 2-15 2h-5l2-2 13-2 18-1z" fill="#EAEEF1"/>
<path transform="translate(1563,956)" d="m0 0h4l-1 4-13 4-6 3-2-1 5-5 9-4z" fill="#EAEEF1"/>
<path transform="translate(1047,762)" d="m0 0v3h-2l1 4h-2l-3 9-1-4-4 1-1-4h2l-1-4 10-4z" fill="#EBEEF1"/>
<path transform="translate(351,519)" d="m0 0h8v2l-8 2-4 2-1 3h-2l1 5h-4v-8l4-4z" fill="#FCC6A7"/>
<path transform="translate(1463,978)" d="m0 0h10l7 1h10l-4 4h-7l-1-1-18-2z" fill="#EAEEF1"/>
<path transform="translate(371,710)" d="m0 0 3 1v6l-16-2h-4v-2z" fill="#2E2A53"/>
<path transform="translate(1610,489)" d="m0 0 2 1 2 5v7l-4 7-3-1 3-4v-3h-2v-7z" fill="#EAEEF1"/>
<path transform="translate(572,654)" d="m0 0 1 2 4 1v2l4 1-1 2-4 1-2-2-4 2-4-2v-3h2l1-3z" fill="#EAEEF1"/>
<path transform="translate(1593,930)" d="m0 0 3 1 2 7-5 3-2 6-4 2 2-6 2-8z" fill="#EAEEF1"/>
<path transform="translate(300,529)" d="m0 0 5 2 5 5v2h7v1l-14 2-2-8z" fill="#FCC6A8"/>
<path transform="translate(1060,826)" d="m0 0 2 2v7l-1 2v7l-2 14-2 3h-2l-1 3 1-5 2-4v-6l1-2v-16z" fill="#EAEEF1"/>
<path transform="translate(1783 1e3)" d="m0 0 4 3 3 5 10 14 6 8-1 2-12-15-10-14z" fill="#343159"/>
<path transform="translate(1303,661)" d="m0 0h22l-1 2-20 1-14-1v-1z" fill="#D3D4D4"/>
<path transform="translate(1416,501)" d="m0 0 2 1-1 9v9l-1 10-2-1v-21z" fill="#EAEEF1"/>
<path transform="translate(1515,976)" d="m0 0h6l-1 3-6 3-11-2 3-3z" fill="#EAEEF1"/>
<path transform="translate(1574,597)" d="m0 0 20 1v2h-20l-19-1v-1z" fill="#FCCDB3"/>
<path transform="translate(1299,494)" d="m0 0 1 4v10l1 5-2 1v6l-2-3-1-10 2-10z" fill="#FCD3BD"/>
<path transform="translate(1052,867)" d="m0 0 3 2-1 2 3 1-1 4-6 1-4-2 4-5h2z" fill="#EAEEF1"/>
<path transform="translate(444,724)" d="m0 0 9 1 1 5h-13l2-5z" fill="#EAEEF1"/>
<path transform="translate(1588,719)" d="m0 0v3l1 4 7 2 11 1v1h-14l-9-2-1-3z" fill="#FCD3BD"/>
<path transform="translate(1674,476)" d="m0 0h7l-2 6-6 1-1-3h-2l1-3z" fill="#FCBDA1"/>
<path transform="translate(698,991)" d="m0 0h19l3 2v-2h2v2l3 1h-24l-3-1z" fill="#EAEEF1"/>
<path transform="translate(1240,600)" d="m0 0 25 1 5 1-1 2h-7l-4-1h-14l-5-1z" fill="#EAEEF1"/>
<path transform="translate(239,1180)" d="m0 0 4 1 3 6v18h-1l-1-14-3-3z" fill="#3C375E"/>
<path transform="translate(569,666)" d="m0 0 4 1-2 2 5 4 2 1v2l-9 1-2-2 2-4-2-1z" fill="#EBEEF1"/>
<path transform="translate(283,467)" d="m0 0 4 4 8 1 3-1-1 5-5 1-6-3-3-4z" fill="#312D55"/>
<path transform="translate(917,992)" d="m0 0h2l-1 5-3 3-3-1v-2l-7 2-5-1v-1l16-4z" fill="#EAEEF1"/>
<path transform="translate(208,828)" d="m0 0h1v7l-2 10-3 6-1-4 3-16z" fill="#2F2B54"/>
<path transform="translate(422,445)" d="m0 0h1v5h2l-2 27h-2v-12l1-7z" fill="#EAEEF1"/>
<path transform="translate(1566,869)" d="m0 0 3 1 4 5 2 2-7 1-4 1z" fill="#EAEEF1"/>
<path transform="translate(1056,712)" d="m0 0 2 1-1 6-1 4v9l-3 5-2-2v-4l2-4 2-13z" fill="#EAEEF1"/>
<path transform="translate(696,498)" d="m0 0h1l-1 20-4-5 1-6z" fill="#EAEEF1"/>
<path transform="translate(1679,451)" d="m0 0h2l-1 7-4 10-3 1 3-11z" fill="#646584"/>
<path transform="translate(1654,1179)" d="m0 0 10 3 4 1v2l-5 1-7-3h-6l1-3z" fill="#312D55"/>
<path transform="translate(1673,446)" d="m0 0 1 4-3 4h-2v2l-3 2-2 4h-1v-5l3-5z" fill="#2B2650"/>
<path transform="translate(1298,971)" d="m0 0h14l5 1-3 2-13 1-7-1z" fill="#EAEEF1"/>
<path transform="translate(964,932)" d="m0 0 5 2 1 2 3-1-1 4h-3v2l-4-1v-3l-3-1z" fill="#EAEEF1"/>
<path transform="translate(243,705)" d="m0 0 4 1h-2v5h-11l1-3z" fill="#FCC4A4"/>
<path transform="translate(1894,1134)" d="m0 0h4l2 6v5l-7-6-2-1v-2z" fill="#FCD0BC"/>
<path transform="translate(1372,899)" d="m0 0 5 1 4 1v-2h4v2l-17 4-1-2z" fill="#EAEEF1"/>
<path transform="translate(270,513)" d="m0 0h15v2l3 1 1 3-6-2-3-2h-19v-1z" fill="#FCCDB3"/>
<path transform="translate(1079,778)" d="m0 0 2 3 1 6h-2l-2 3-3-4 2-5z" fill="#EAEEF1"/>
<path transform="translate(1310,481)" d="m0 0 1 4-5 7-2 5-1-4 3-10z" fill="#F9FAF9"/>
<path transform="translate(480,1006)" d="m0 0 2 4-5 1-12 1-3-1 1-1 12-2z" fill="#EAEEF1"/>
<path transform="translate(1413,515)" d="m0 0 2 1v14l-3 8-1-4 1-9v-8z" fill="#F9FAF9"/>
<path transform="translate(1530,616)" d="m0 0 12 2 10 1-3 2h-11l-8-3z" fill="#F7CFB9"/>
<path transform="translate(491,288)" d="m0 0h11l7 5 1 3h-2l-4-4-16-2z" fill="#2B2750"/>
<path transform="translate(1901,1146)" d="m0 0 5 2 1 1h8l-1 3-5 2h-4l-2-5z" fill="#FBD0BC"/>
<path transform="translate(428,695)" d="m0 0 9 1-3 2-13 4-4-1 4-2 6-1z" fill="#FDD5C0"/>
<path transform="translate(563,680)" d="m0 0 2 1-1 2h5l-2 3-2-1-1 3-4 1-2-1 1-4h3z" fill="#EAEEF1"/>
<path transform="translate(1703,1168)" d="m0 0h1l1 20-6-1 3-7z" fill="#FBD0BC"/>
<path transform="translate(1572,808)" d="m0 0h2l-2 5-6 4h-2v2h-2l2-5h3l2-4z" fill="#EAEEF1"/>
<path transform="translate(1365,629)" d="m0 0 2 4-4 1v5l1 2-3-1-2-6v-4z" fill="#EAEEF1"/>
<path transform="translate(425,429)" d="m0 0 2 2-1 8-1 1v8l-2-3v-15z" fill="#EAEEF1"/>
<path transform="translate(433,268)" d="m0 0 2 2-9 10-2 2 1-6 5-5z" fill="#2C2851"/>
<path transform="translate(1658,265)" d="m0 0 4 2 6 8 1 6-3-3v-3h-2l-6-8z" fill="#2D2952"/>
<path transform="translate(1880,1131)" d="m0 0 6 2 4 3v2l-4 1-5-4z" fill="#302C54"/>
<path transform="translate(1602,888)" d="m0 0h3l1 5-2 2v2h-3v-3h-2l-1-3 3-1z" fill="#EAEEF1"/>
<path transform="translate(1598,502)" d="m0 0h6l-1 7 2 2-2 2-3-1v-6l-2-1z" fill="#EAEEF1"/>
<path transform="translate(517,703)" d="m0 0h3l-1 3h-3v2l-8 4-2-1 4-5z" fill="#EAEEF1"/>
<path transform="translate(1670,551)" d="m0 0h2l-2 4-8 8v-7l6-2v-2z" fill="#312D55"/>
<path transform="translate(494,884)" d="m0 0h2l2 4 2 1-2 4h-2l-2-3-3-1v-2z" fill="#EAEEF1"/>
<path transform="translate(1332,856)" d="m0 0 2 1-1 6-5 5-2-1 3-6z" fill="#EAEEF1"/>
<path transform="translate(305,722)" d="m0 0h10l-4 2-6 2h-7l2-3z" fill="#2E2A53"/>
<path transform="translate(1489,910)" d="m0 0h8l-1 5-3 1-5-5z" fill="#EAEEF1"/>
<path transform="translate(1542,901)" d="m0 0 8 1 6 5-2 1-3-2-9-2z" fill="#EAEEF1"/>
<path transform="translate(1418,614)" d="m0 0 8 1v2l-17 1-1-2 5-1 3 2v-2z" fill="#EAEEF1"/>
<path transform="translate(483,481)" d="m0 0 4 1 5 6-2 5-2 1v-6l-3-2z" fill="#EAEEF1"/>
<path transform="translate(427,476)" d="m0 0h3l-1 11-3 1v-11z" fill="#ECF0F2"/>
<path transform="translate(1658,402)" d="m0 0 5 2 2 4v5l-1-2-4-1 1-5-3 1z" fill="#EAEEF1"/>
<path transform="translate(1940,1122)" d="m0 0 3 1 6 9-2 4-5-9z" fill="#F9D2BF"/>
<path transform="translate(1427,503)" d="m0 0h2v4h5l-4 2h-6v-4z" fill="#EAEEF1"/>
<path transform="translate(1465,524)" d="m0 0h5l2 3-6 4-2-1z" fill="#EAEEF1"/>
<path transform="translate(1665,422)" d="m0 0 5 4 3 6v2l-4-2-3-4z" fill="#EAEEF1"/>
<path transform="translate(1844,959)" d="m0 0 4 2 6 12-4-2z" fill="#312D56"/>
<path transform="translate(1198,601)" d="m0 0 9 2v1l-16 2 2-3z" fill="#EAEEF1"/>
<path transform="translate(1456,533)" d="m0 0 4 1-1 5-4 1-2-5z" fill="#EAEEF1"/>
<path transform="translate(1441,496)" d="m0 0 4 2 6 2-1 2h-5l-5-1z" fill="#EAEEF1"/>
<path transform="translate(1090,971)" d="m0 0 9 1 2 1v4l-5-1-6-3z" fill="#EAEEF1"/>
<path transform="translate(1583,848)" d="m0 0 1 2v7l2 6-2 2-3-7v-7z" fill="#EAEEF1"/>
<path transform="translate(589,658)" d="m0 0 7 1 2 3-8 1-3-2v-2z" fill="#EAEEF1"/>
<path transform="translate(917,930)" d="m0 0h1v5l-2 6 2 5-1 3-1-6h-2v-8l1-2h2z" fill="#EAEEF1"/>
<path transform="translate(1194,928)" d="m0 0h9l3 2-9 1-4 1-4-1z" fill="#EAEEF1"/>
<path transform="translate(763,599)" d="m0 0h2v2h12v2l-7 1-7-2z" fill="#EAEEF1"/>
<path transform="translate(1622,524)" d="m0 0 2 1-7 8h-2l1-5z" fill="#EAEEF1"/>
<path transform="translate(299,441)" d="m0 0 1 2 4 1h-2v2l-3 1-1 2h-2v-6z" fill="#FEBA77"/>
<path transform="translate(1587,784)" d="m0 0 4 1 2 4-4 1-4-4z" fill="#F9FAF9"/>
<path transform="translate(733,586)" d="m0 0v3l-2 2-2 9-3-4 2-5z" fill="#EAEEF1"/>
<path transform="translate(114,1155)" d="m0 0 4 1v2l3-1 5 4-1 2-11-5z" fill="#2C2852"/>
<path transform="translate(1813,1043)" d="m0 0 5 5 6 8-1 2-10-12z" fill="#343058"/>
<path transform="translate(1471,910)" d="m0 0 14 1-1 3-11-1-4-1z" fill="#EAEEF1"/>
<path transform="translate(457,908)" d="m0 0h6l1 3-3 3-4-2z" fill="#EAEEF1"/>
<path transform="translate(489,893)" d="m0 0 2 1-2 5-4 2-1-4z" fill="#EAEEF1"/>
<path transform="translate(1575,832)" d="m0 0 5 5v1h-5l-2-2h-2l1-3z" fill="#EAEEF1"/>
<path transform="translate(1585,949)" d="m0 0 2 1-3 5h-9l2-2 7-3z" fill="#EAEEF1"/>
<path transform="translate(708,447)" d="m0 0 4 1-8 3-5 6v-3l4-5z" fill="#EAEEF1"/>
<path transform="translate(1880,1198)" d="m0 0 1 4-1 6-4-5 1-3z" fill="#646584"/>
<path transform="translate(1282,970)" d="m0 0 8 2-1 2-13-1-3-1z" fill="#EAEEF1"/>
<path transform="translate(1081,705)" d="m0 0 2 2-1 9-3 4v-8z" fill="#EAEEF1"/>
<path transform="translate(1304,599)" d="m0 0 5 1-2 4-3 1-3-1 1-3h2z" fill="#F9FAF9"/>
<path transform="translate(1418,526)" d="m0 0h2l1 6-4 5v-7z" fill="#EAEEF1"/>
<path transform="translate(439,432)" d="m0 0h5l-1 3h-3v2h-5v-2z" fill="#EAEEF1"/>
<path transform="translate(429,395)" d="m0 0 5 1-1 4-5 1z" fill="#EAEEF1"/>
</svg>
